/* XPM */
static char *result[] = {
/* columns rows colors chars-per-pixel */
"80 80 89 1 ",
"  c #D3AC88",
". c #D3AC89",
"X c #D2AD89",
"o c #D3AD89",
"O c #D3AD8A",
"+ c #D2AE8B",
"@ c #CFB192",
"# c #CEB396",
"$ c #D0B191",
"% c #C7BBA9",
"& c #C6BCAB",
"* c #C5BEAF",
"= c #C2C3B9",
"- c #ABC0C0",
"; c #ABC0C1",
": c #ACC0C0",
"> c #ACC0C1",
", c #ADC0C1",
"< c #ACC1C1",
"1 c #ADC1C1",
"2 c #ADC0C2",
"3 c #ADC1C2",
"4 c #AEC1C2",
"5 c #AEC2C2",
"6 c #AFC2C2",
"7 c #AEC2C3",
"8 c #AFC2C3",
"9 c #AFC3C4",
"0 c #B0C2C3",
"q c #B0C3C3",
"w c #B1C3C3",
"e c #B0C3C4",
"r c #B1C3C4",
"t c #B1C4C5",
"y c #B2C4C4",
"u c #B2C4C5",
"i c #B3C4C5",
"p c #B3C5C5",
"a c #B2C5C6",
"s c #B3C5C6",
"d c #B4C5C5",
"f c #B4C5C6",
"g c #B4C5C7",
"h c #B4C6C6",
"j c #B5C6C6",
"k c #B4C6C7",
"l c #B5C6C7",
"z c #B6C6C6",
"x c #B6C6C7",
"c c #B6C7C7",
"v c #B7C7C7",
"b c #BFC6C0",
"n c #BEC7C2",
"m c #BDC8C6",
"M c #BCC9C7",
"N c #B5C7C8",
"B c #B6C7C8",
"V c #B7C7C8",
"C c #B7C8C8",
"Z c #B6C8C9",
"A c #B7C8C9",
"S c #B7C8CA",
"D c #B8C8C8",
"F c #B9C8C9",
"G c #B9C9C9",
"H c #BAC9C9",
"J c #B8C9CA",
"K c #B9C9CA",
"L c #B9C9CB",
"P c #B9CACB",
"I c #BACACA",
"U c #BBCACA",
"Y c #BACACB",
"T c #BBCACB",
"R c #BBCBCB",
"E c #BCCAC9",
"W c #BCCACA",
"Q c #BCCBCB",
"! c #BDCBCB",
"~ c #BACACC",
"^ c #BBCBCC",
"/ c #BBCBCD",
"( c #BCCBCC",
") c #BBCCCC",
"_ c #BBCCCD",
"` c #B9CCCF",
"' c #BACCCE",
"] c #BCCCCC",
"[ c None",
/* pixels */
"[[[[[[[[[[[[[[[[[[[[[[[[[[[[[[[[[[[[[[[[[[[[[[[[[[[[[[[[[[[[[[[[[[[[[[[[[[[[[[[[",
"[[[[[[[[[[[[[[[[[[[[[[[[[[[[[[[[[[[[[[[[[[[[[[[[[[[[[[[[[[[[[[[[[[[[[[[[[[[[[[[[",
"[[[[[[[[[[[[[[[[[[[[[[[[[[[[[[[[[[[[[[[[[[[[[[[[[[[[[[[[[[[[[[[[[[[[[[[[[[[[[[[[",
"[[[[[[[[[[[[[[[[[[[[[[[[[[[[[[[[[[[[[[[[[[[[[[[[[[[[[[[[[[[[[[[[[[[[[[[[[[[[[[[[",
"[[[[[[[[[[[[[[[[[[[[[[[[[[[[[[[[[[[[[[[[[[[[[[[[[[[[[[[[[[[[[[[[[[[[[[[[[[[[[[[[",
"[[[[[[[[[[[[[[[[[[[[[[[[[[[[[[[[[[[[[[[[[[[[[[[[[[[[[[[[[[[[[[[[[[[[[[[[[[[[[[[[",
"[[[[[[[[[[[[[[[[[[[[[[[[[[[[[[[[[[[[[[[[[[[[[[[[[[[[[[[[[[[[[[[[[[[[[[[[[[[[[[[[",
"[[[[[[[[[[[[[[[[[[[[[[[[[[[[[[[[[[[[[[[[[[[[[[[[[[[[[[[[[[[[[[[[[[[[[[[[[[[[[[[[",
"[[[[[[[[[[[[[[[[[[[[[[[[[[[[[[[[[[[[[[[[[[[[[[[[[[[[[[[[[[[[[[[[[[[[[[[[[[[[[[[[",
"[[[[[[[[[[[[[[[[[[[[[[[[[[[[[[[[[[[[[[[[[[[[[[[[[[[[[[[[[[[[[[[[[[[[[[[[[[[[[[[[",
"[[[[[[[[[[[[[[[[[[[[[[[[[[[[[[[[[[[[[[[[[[[[[[[[[[[[[[[[[[[[[[[[[[[[[[[[[[[[[[[[",
"[[[[[[[[[[[[[[[[[[[[[[[[[[[[[[[[[[[[[[[[[[[[[[[[[[[[[[[[[[[[[[[[[[[[[[[[[[[[[[[[",
"[[[[[[[[[[[[[[[[[[[[[[[[[[[[[[[[[[[[[[[[[[[[[[[[[[[[[[[[[[[[[[[[[[[[[[[[[[[[[[[[",
"[[[[[[[[[[[[[[[[[[[[[[[[[[[[[[[[[[[[[[[[[[[[[[[[[[[[[[[[[[[[[[[[[[[[[[[[[[[[[[[[",
"[[[[[[[[[[[[[..      X@&W^^^[[[[[[[[[[[[[[[[[[[[[[[[[[[[[[[[[[[[[[[[[[[[[[[[[[[[",
"[[[[[[[[[[[XXooooooO+#*M^^^^~[[[[[[[[[[[[[[[[[[[[[[[[[[[[[[[[[[[[[[[[[[[[[[[[[[[",
"[[[[[[[[[[ooooooooO$%nE^^^^^^[[[[[[[[[[[[[[[[[[[[[[[[[[[[[[[[[[[[[[[[[[[[[[[[[[[",
"[[[[[[[[[oooo.[[[[=bm^^^^^^^^^[[[[[^^^^^^^^^^^[[[[[[[[[[[[[[[[[[[[[[[[[[[[[[[[[[",
"[[[[[[[[[   [[[[[`'_/^^^^^^^^^Y~^^^^^^^^^^^^^^^^^~[[[[[[[[[[[[[[[[[[[[[[[[[[[[[[",
"[[[[[[[[[[[[[[[[[~^^^^^^^^^^^^^^YPAlkkkkkkkkkNAJY^^^^[[[[[[[[[[[[[[[[[[[[[[[[[[[",
"[[[[[[[[[[[[[[[[[[^^^^^^^^^^^^KAfae43333333334erslZK^(^[[[[[[[[[[[[[[[[[[[[[[[[[",
"[[[[[[[[[[[[[[[[[[^^^^^^^^^YJBu8>>>>>>>>>>>>>>>>>>7uBJY^^[[[[[[[[[[[[[[[[[[[[[[[",
"[[[[[[[[[[[[[[[[[[[^^^^^^YJk8>>>>>>>>>>>>>>>>>>>>>>>30kJY~[[[[[[[[[[[[[[[[[[[[[[",
"[[[[[[[[[[[[[[[[[[[^^^^^Kk7>>>>>>>>>>>>>>>>>>>>>>>>>>>>7lP^^[[[[[[[[[[[[[[[[[[[[",
"[[[[[[[[[[[[[[[[[[[[^^YAe3>>>>>>>>>>>>>>>>>>>>>>>>>>>>>>3tAY^[[[[[[[[[[[[[[[[[[[",
"[[[[[[[[[[[[[[[[[[[[/Yl7,>>>>>>>>>>>>>>>>>>>>>>>>>>>>>>>>34kY^[[[[[[[[[[[[[[[[[[",
"[[[[[[[[[[[[[[[[[[[/Yk4>>>>>>>>>>>>>>>>>>>>>>>>>>>>>>>>>>>>4sJ^[[[[[[[[[[[[[[[[[",
"[[[[[[[[[[[[[[[[[[^Js4>>>>>>>>>>>>>>>>>>>>>>>>>>>>>>>>>>>>>>3uK)[[[[[[[[[[[[[[[[",
"[[[[[[[[[[[[[[[[[^Js3>>>>>>>>>>>>>>>>>>>>>>>>>>>>>>>>>>>>>>>>3sY[[[[[[[[[[[[[[[[",
"[[[[[[[[[[[[[[[[]Ka3>>>>>>>>>>>>>>>>>>>>>>>>>>>>>>>>>>>>>>>>>>3lK[[[[[[[[[[[[[[[",
"[[[[[[[[[[[[[[[[Ya3>>>>>>>>>>>>>>>>>>>>>>>>>>>>>>>>>>>>>>>>>>>>3BP[[[[[[[[[[[[[[",
"[[[[[[[[[[[[[[[Kl4>>>>>>>>>>>>>>>>>>>>>>>>>>>>>>>>>>>>>>>>>>>>>>3AY[[[[[[[[[[[[[",
"[[[[[[[[[[[[[[LV4>>>>>>>>>>>>>>>>>>>>>>>>>>>>>>>>>>>>>>>>>>>>>>>>tS[[[[[[[[[[[[[",
"[[[[[[[[[[[[[[Ke>>>>>>>>>>>>>>>>>>>>>>>>>>>>>>>>>>>>>>>>>>>>>>>>>,gL[[[[[[[[[[[[",
"[[[[[[[[[[[[[Jk3>>>>>>>>>>>>>>>>>>>>>>>>>>>>>>>>>>>>>>>>>>>>>>>>>>7B[[[[[[[[[[[[",
"[[[[[[[[[[[[[B8>>>>>>>>>>>>>>>>>>>>>>>>>>>>>>>>>>>>>>>;;;;;>>>>>>>>aJ[[[[[[[[[[[",
"[[[[[[[[[[[[[s>>>>>>>>>>>>>>>>>>>>>>>>>>>>>>>>>>>>>>3quppppr4>>>>>>4s[[[[[[[[[[[",
"[[[[[[[[[[[[Ne>>>>>>>>>>>>>>>>>>>>>>>>>>>>>>>>>>>>>4iDUQ!!QGf4>>>>>;tK[[[[[[[[[[",
"[[[[[[[[[[[[s>>>>>>>>>>>>>>>>>>>>>>>>>>>>>>>>>>>>>1fUQQQQQQQTx3>>>>>8l[[[[[[[[[[",
"[[[[[[[[[[[[t>>>>>>>>>>>>>>>>>>>>>>>>>>>>>>>>>>>>>uGQQQQQQQQQId>>>>>3e[[[[[[[[[[",
"[[[[[[[[[[[s0>>>>>>>>>>>>>>>>>>>>>>>>>>>>>>>>>>>>4DQQQQQQQQQQQG6>>>>>8[[[[[[[[[[",
"[[[[[[[[[[[e3>>>>>>>>>>>>>>>>>>>>>>>>>>>>>>>>>>>>yHQQQQQQQQQQQUp,>>>>4h[[[[[[[[[",
"[[[[[[[[[[[e>>>>>>>>>>>>>>>>>>>>>>>>>>>>>6php0>>>jUQQQQQQQQQQQUc3>>>>4u[[[[[[[[[",
"[[[[[[[[[[[8>>>>>>>>>>>>>>>>>>>>>>>>>>>,ivHUIc5>>cUQQQQQQQQQQQRV3>>>>39[[[[[[[[[",
"[[[[[[[[[[[3>>>>>>>>>>>>>>>>>>>>>>>>>>>3GQQQQIp>>zUQQQQQQQQQQQUv3>>>>>3[[[[[[[[[",
"[[[[[[[[[[[1>>>>>>>>>>>>>>>>>>>>>>>>>>>3UQQQQUx>>dIQQQQQQQQQQQUj1>>>>>2[[[[[[[[[",
"[[[[[[[[[[[3>>>>>>>>>>>>>>>>>>>>>>>>>>>3GQQQQId>>qFQQQQQQQQQQQHw>>>>>>>[[[[[[[[[",
"[[[[[[[[[[e3>>>>>>>>>>>>>>>>>>>>>>>>>>>1dIQQUv5>>>jUQQQQQQQQQUv,>>>>>>>[[[[[[[[[",
"[[[[[[[[[[:>>>>>>>>>>>>>>>>>>>>>>>>>>>>>3uvDj6>>>>5cQQQQQQQQQC6>>>>>>>>[[[[[[[[[",
"[[[[[[[[[[:>>>>>>>>>>>>>>>>>>>>>>>>>>>>>>3453>>>>>>4fUQQQQQUl4>>>>>>>>>[[[[[[[[[",
"[[[[[[[[[[:>>>>>>>>>>>>>>>>>>>>>>>>>>>>>>>>>>>>>>>>>4rlVVVcu4>>>>>>>>>>[[[[[[[[[",
"[[[[[[[[[[:>>>>>>>>>>>>>>>>>>>>>>>>>>>>>>>>>>>>>>>>>>>48886,>>>>>>>>>>>[[[[[[[[[",
"[[[[[[[[[[[>>>>>>>>>>>>>>>>>>>>>>>>>>>>>>>>>>>>>>>>>>>>>>>>>>>>>>>>>>>>[[[[[[[[[",
"[[[[[[[[[[[>>>>>>>>>>>>>>>>>>>>>>>>>>>>>>>>>>>>>>>>>>>>>>>>>>>>>>>>>>>>[[[[[[[[[",
"[[[[[[[[[[[>>>>>>>>>>>>>>>>>>>>>>>>>>>>>>>>>>>>>>>>>>>>>>>>>>>>>>>>>>>>[[[[[[[[[",
"[[[[[[[[[[[>>>>>>>>>>>>>>>>>>>>>>>>>>>>>>>>>>>>>>>>>>>>>>>>>>>>>>>>>>>:[[[[[[[[[",
"[[[[[[[[[[[<>>>>>>>>>>>>>>>>>>>>>>>>>>>>>>>>>>>>>>>>>>>>>>>>>>>>>>>>>>:[[[[[[[[[",
"[[[[[[[[[[[:>>>>>>>>>>>>>>>>>>>>>>>>>>>>>>>>>>>>>>>>>>>>>>>>>>>>>>>>>>[[[[[[[[[[",
"[[[[[[[[[[[[:>>>>>>>>>>>>>>>>>>>>>>>>>>>>>>>>>>>>>>>>>>>>>>>>>>>>>>>>>[[[[[[[[[[",
"[[[[[[[[[[[[>>>>>>>>>>>>>>>>>>>>>>>>>>>>>>>>>>>>>>>>>>>>>>>>>>>>>>>>>>[[[[[[[[[[",
"[[[[[[[[[[[[>>>>>>>>>>>>>>>>>>>>>>>>>>>>>>>>>>>>>>>>>>>>>>>>>>>>>>>>>[[[[[[[[[[[",
"[[[[[[[[[[[[[:>>>>>>>>>>>>>>>>>>>>>>>>>>>>>>>>>>>>>>>>>>>>>>>>>>>>>>>[[[[[[[[[[[",
"[[[[[[[[[[[[[<>>>>>>>>>>>>>>>>>>>>>>>>>>>>>>>>>>>>>>>>>>>>>>>>>>>>>:<[[[[[[[[[[[",
"[[[[[[[[[[[[[[:>>>>>>>>>>>>>>>>>>>>>>>>>>>>>>>>>>>>>>>>>>>>>>>>>>>>>[[[[[[[[[[[[",
"[[[[[[[[[[[[[[1>>>>>>>>>>>>>>>>>>>>>>>>>>>>>>>>>>>>>>>>>>>>>>>>>>>:[[[[[[[[[[[[[",
"[[[[[[[[[[[[[[[:>>>>>>>>>>>>>>>>>>>>>>>>>>>>>>>>>>>>>>>>>>>>>>>>>>>[[[[[[[[[[[[[",
"[[[[[[[[[[[[[[[[>>>>>>>>>>>>>>>>>>>>>>>>>>>>>>>>>>>>>>>>>>>>>>>>>:[[[[[[[[[[[[[[",
"[[[[[[[[[[[[[[[[>>>>>>>>>>>>>>>>>>>>>>>>>>>>>>>>>>>>>>>>>>>>>>>>:[[[[[[[[[[[[[[[",
"[[[[[[[[[[[[[[[[[>>>>>>>>>>>>>>>>>>>>>>>>>>>>>>>>>>>>>>>>>>>>>>>:[[[[[[[[[[[[[[[",
"[[[[[[[[[[[[[[[[[[>>>>>>>>>>>>>>>>>>>>>>>>>>>>>>>>>>>>>>>>>>>>>>[[[[[[[[[[[[[[[[",
"[[[[[[[[[[[[[[[[[[[>>>>>>>>>>>>>>>>>>>>>>>>>>>>>>>>>>>>>>>>>>>>[[[[[[[[[[[[[[[[[",
"[[[[[[[[[[[[[[[[[[[[:>>>>>>>>>>>>>>>>>>>>>>>>>>>>>>>>>>>>>>>>:[[[[[[[[[[[[[[[[[[",
"[[[[[[[[[[[[[[[[[[[[[:>>>>>>>>>>>>>>>>>>>>>>>>>>>>>>>>>>>>>::[[[[[[[[[[[[[[[[[[[",
"[[[[[[[[[[[[[[[[[[[[[[:>>>>>>>>>>>>>>>>>>>>>>>>>>>>>>>>>>>:>[[[[[[[[[[[[[[[[[[[[",
"[[[[[[[[[[[[[[[[[[[[[[[[:>>>>>>>>>>>>>>>>>>>>>>>>>>>>>>>>>[[[[[[[[[[[[[[[[[[[[[[",
"[[[[[[[[[[[[[[[[[[[[[[[[[>>>>>>>>>>>>>>>>>>>>>>>>>>>>>>><[[[[[[[[[[[[[[[[[[[[[[[",
"[[[[[[[[[[[[[[[[[[[[[[[[[[>>>>>>>>>>>>>>>>>>>>>>>>>>>>>[[[[[[[[[[[[[[[[[[[[[[[[[",
"[[[[[[[[[[[[[[[[[[[[[[[[[[[[>>>>>>>>>>>>>>>>>>>>>>>>>:[[[[[[[[[[[[[[[[[[[[[[[[[[",
"[[[[[[[[[[[[[[[[[[[[[[[[[[[[[[[:>>>>>>>>>>>>>>>>>>:[[[[[[[[[[[[[[[[[[[[[[[[[[[[[",
"[[[[[[[[[[[[[[[[[[[[[[[[[[[[[[[[[[:::>>>>>>>>>-:[[[[[[[[[[[[[[[[[[[[[[[[[[[[[[[["
};
