/* XPM */
static char *result[] = {
/* columns rows colors chars-per-pixel */
"77 80 188 2 ",
"   c #040105",
".  c #070108",
"X  c #0B020C",
"o  c #0C0D0D",
"O  c #0F0210",
"+  c #130315",
"@  c #150A15",
"#  c #170319",
"$  c #1A041C",
"%  c #170A19",
"&  c #1B0B1D",
"*  c #1E0D17",
"=  c #0F1110",
"-  c #141515",
";  c #151817",
":  c #17111A",
">  c #19151B",
",  c #171A19",
"<  c #1B1D1C",
"1  c #201F1C",
"2  c #1D211F",
"3  c #24221E",
"4  c #332A15",
"5  c #1E0421",
"6  c #1E0A20",
"7  c #1F1C21",
"8  c #220425",
"9  c #230C24",
"0  c #260529",
"q  c #2A052D",
"w  c #260C29",
"e  c #2A0C2D",
"r  c #290E23",
"t  c #251423",
"y  c #2A112B",
"u  c #2D1C29",
"i  c #261727",
"p  c #2D0531",
"a  c #2F0B31",
"s  c #320636",
"d  c #320A36",
"f  c #340738",
"g  c #350939",
"h  c #390D3D",
"j  c #2F1332",
"k  c #331336",
"l  c #341C36",
"z  c #361539",
"x  c #3A143D",
"c  c #3B1A3E",
"v  c #37193A",
"b  c #32162D",
"n  c #1E2221",
"m  c #222524",
"M  c #242927",
"N  c #262B29",
"B  c #2A2D2C",
"V  c #292427",
"C  c #342A23",
"Z  c #2C322F",
"A  c #37342D",
"S  c #2E2B31",
"D  c #3C283E",
"F  c #2D3431",
"G  c #313433",
"H  c #323936",
"J  c #353C3A",
"K  c #383E3D",
"L  c #39353A",
"P  c #45391C",
"I  c #453829",
"U  c #463732",
"Y  c #432633",
"T  c #3A413E",
"R  c #4C4127",
"E  c #534424",
"W  c #584B2C",
"Q  c #4D4E3F",
"!  c #544936",
"~  c #69563C",
"^  c #6A5638",
"/  c #7C6634",
"(  c #3E1242",
")  c #3D1941",
"_  c #3C3C41",
"`  c #421546",
"'  c #421A46",
"]  c #441748",
"[  c #461B49",
"{  c #491D4D",
"}  c #4C1F50",
"|  c #422B44",
" . c #4B2E4D",
".. c #4F3841",
"X. c #4D2051",
"o. c #4F3C51",
"O. c #503752",
"+. c #3C4441",
"@. c #3F4844",
"#. c #414946",
"$. c #444D4A",
"%. c #444546",
"&. c #574045",
"*. c #47504C",
"=. c #48524E",
"-. c #564558",
";. c #4A5551",
":. c #4F5955",
">. c #515B57",
",. c #545E5A",
"<. c #545447",
"1. c #615343",
"2. c #6D5E45",
"3. c #56605C",
"4. c #6B634F",
"5. c #70614F",
"6. c #6B6451",
"7. c #746B56",
"8. c #5F5061",
"9. c #615362",
"0. c #6C676C",
"q. c #6F6470",
"w. c #7A7B7B",
"e. c #767477",
"r. c #8D743C",
"t. c #8C733A",
"y. c #937A41",
"u. c #827459",
"i. c #917F56",
"p. c #9E854C",
"a. c #9A885F",
"s. c #B8984D",
"d. c #B79952",
"f. c #A7915C",
"g. c #988B6A",
"h. c #9F916E",
"j. c #8A867D",
"k. c #A3936B",
"l. c #A59672",
"z. c #BFA361",
"x. c #B4A27C",
"c. c #CAAA5F",
"v. c #D2AC57",
"b. c #C3A96B",
"n. c #C6B17D",
"m. c #D6BC7C",
"M. c #E2BE68",
"N. c #EFC667",
"B. c #FACE6B",
"V. c #F4CB6C",
"C. c #FDD474",
"Z. c #7F7780",
"A. c #878487",
"S. c #918C91",
"D. c #9D9C9D",
"F. c #989598",
"G. c #A69C84",
"H. c #BFB08C",
"J. c #B3A584",
"K. c #A39CA3",
"L. c #A4A3A4",
"P. c #AEADAD",
"I. c #ABA8A6",
"U. c #B2B1AF",
"Y. c gray70",
"T. c #BCBCBC",
"R. c #C8B68A",
"E. c #DBC795",
"W. c #F9D98E",
"Q. c #E2CD9A",
"!. c #E9D299",
"~. c #EDD7A1",
"^. c #F4DDA6",
"/. c #FFE7AD",
"(. c #FFE9AF",
"). c #F8E0A7",
"_. c #FFECB1",
"`. c #CCCCCD",
"'. c #C3C3C3",
"]. c #D4D4D4",
"[. c #DBDBDB",
"{. c #D7D8D7",
"}. c #E4E4E5",
"|. c #ECECEC",
" X c #EFF0EF",
".X c #F4F4F4",
"XX c #FDFDFD",
"oX c None",
/* pixels */
"oXoXoXoXoXoXoXoXoXoXoXoXoXoXoXoXoXoXoXoXoXoXoXoXoXoXoXoXoXoXoXoXoXoXoXoXoXoXoXoXoXoXoXoXoXoXoXoXoXoXoXoXoXoXoXoXoXoXoXoXoXoXoXoXoXoXoXoXoXoXoXoXoXoXoXoXoX",
"oXoXoXoXoXoXoXoXoXoXoXoXoXoXoXoXoXoXoXoXoXoXoXoXoXoXoXoXoXoXoXoXoXoXoXoXoXoXoXoXoXoXoXoXoXoXoXoXoXoXoXoXoXoXoXoXoXoXoXoXoXoXoXoXoXoXoXoXoXoXoXoXoXoXoXoXoX",
"oXoXoXoXoXoXoXoXoXoXoXoXoXoXoXoXoXoXoXoXoXoXoXoXoXoXoXoXoXoXoXoXoXoXoXoXoXoXoXoXoXoXoXoXoXoXoXoXoXoXoXoXoXoXoXoXoXoXoXoXoXoXoXoXoXoXoXoXoXoXoXoXoXoXoXoXoX",
"oXoXoXoXoXoXoXoXoXoXoXoXoXoXoXoXoXoXoXoXoXoXoXoXoXoXoXoXoXoXoXoXoXoXoXoXoXoXoXoXoXoXoXoXoXoXoXoXoXoXoXoXoXoXoXoXoXoXoXoXoXoXoXoXoXoXoXoXoXoXoXoXoXoXoXoXoX",
"oXoXoXoXoXoXoXoXoXoXoXoXoXoXoXoXoXoXoXoXoXoXoXoXoXoXoXoXoXoXoXoXoXoXoXoXoXoXoXoXoXoXoXoXoXoXoXoXoXoXoXoXoXoXoXoXoXoXoXoXoXoXoXoXoXoXoXoXoXoXoXoXoXoXoXoXoX",
"oXoXoXoXoXoXoXoXoXoXoXoXoXoXoXoXoXoXoXoXoXoXoXoXoXoXoXoXoXoXoXoXoXoXoXoXoXoXoXoXoXoXoXoXoXoXoXoXoXoXoXoXoXoXoXoXoXoXoXoXoXoXoXoXoXoXoXoXoXoXoXoXoXoXoXoXoX",
"oXoXoXoXoXoXoXoXoXoXoXoXoXoXoXoXoXoXoXoXoXoXoXoXoXoXoXoXoXoXoXoXoXoXoXoXoXoXoXoXoXoXoXoXoXoXoXoXoXoXoXoXoXoXoXoXoXoXoXoXoXoXoXoXoXoXoXoXoXoXoXoXoXoXoXoXoX",
"oXoXoXoXoXoXoXoXoXoXoXoXoXoXoXoXoXoXoXoXoXoXoXoXoXoXoXoXoXoXoXoXoXoXoXoXoXoXoXoXoXoXoXoXoXoXoXoXoXoXoXoXoXoXoXoXoXoXoXoXoXoXoXoXoXoXoXoXoXoXoXoXoXoXoXoXoX",
"oXoXoXoXoXoXoXoXoXoXoXoXoXoXoXoXoXoXoXoXoXoXoXoXoXoXoXoXoXoXoXoXoXoXoXoXoXoXoXoXoXoXoXoXoXoXoXoXoXoXoXoXoXoXoXoXoXoXoXoXoXoXoXoXoXoXoXoXoXoXoXoXoXoXoXoXoX",
"oXoXoXoXoXoXoXoXoXoXoXoXoXoXoXoXoXoXoXoXoXoXoXoXoXoXoXoXoXoXoXoXoXoXoXoXoXoXoXoXoXoXoXoXoXoXoXoXoXoXoXoXoXoXoXoXoXoXoXoXoXoXoXoXoXoXoXoXoXoXoXoXoXoXoXoXoX",
"oXoXoXoXoXoXoXoXoXoXoXoXoXoXoXoXoXoXoXoXoXoXoXoXoXoXoXoXoXoXoXoXoXoXoXoXoXoXoXoXoXoXoXoXoXoXoXoXoXoXoXoXoXoXoXoXoXoXoXoXoXoXoXoXoXoXoXoXoXoXoXoXoXoXoXoXoX",
"oXoXoXoXoXoXoXoXoXoXoXoXoXoXoXoXoXoXoXoXoXoXoXoXoXoXoXoXoXoXoXoXoXoXoXoXoXoXoXoXoXoXoXoXoXoXoXoXoXoXoXoXoXoXoXoXoXoXoXoXoXoXoXoXoXoXoXoXoXoXoXoXoXoXoXoXoX",
"oXoXoXoXoXoXoXoXoXoXoXoXoXoXoXoXoXoXoXoXoXoXoXoXoXoXoXoXoXoXoXoXoXoXoXoXoXoXoXoXoXoXoXoXoXoXoXoXoXoXoXoXoXoXoXoXoXoXoXoXoXoXoXoXoXoXoXoXoXoXoXoXoXoXoXoXoX",
"oXoXoXoXoXoXoXoXoXoXoXoXoXoXoXoXoXoXoXoXoXoXoXoXoXoXoXoXoXoXoXoXoXoXoXoXoXoXoXoXoXoXoXoXoXoXoXoXoXoXoXoXoXoXoXoXoXoXoXoXoXoXoXoXoXoXoXoXoXoXoXoXoXoXoXoXoX",
"oXoXoXoXoXoXoXoXoXoXoXoXoXoXoXoXoXoXoXoXoXoXoXoXoXoXoXoXoXoXoXoXoXoXoXoXoXoXoXoXoXoXoXoXoXoXoXoXoXoXoXoXoXoXoXoXoXoXoXoXoXoXoXoXoXoXoXoXoXoXoXoXoXoXoXoXoX",
"oXoXoXoXoXoXoXoXoXoXoXoXoXoXoXoXoXoXoXoXoXoXoXoXoXoXoXoXoXoXoXoXoXoXoXoXoXoXoXoXoXoXoXoXoXoXoXoXoXoXoXoXoXoXoXoXoXoXoXoXoXoXoXoXoXoXoXoXoXoXoXoXoXoXoXoXoX",
"oXoXoXoXoXoXoXoXoXoXoXoXoXoXoXoXoXoXoXoXoXoXoXoXoXoXoXoXoXoXoXoXoXoXoXoXoXoXoXoXoXoXoXoXoXoXoXoXoXoXoXoXoXoXoXoXoXoXoXoXoXoXoXoXoXoXoXoXoXoXoXoXoXoXoXoXoX",
"oXoXoXoXoXoXoXoXoXoXoXoXoXoXoXoXoXoXoXoXoXoXoXoXoXoXoXoXoXoXoXoXoXoXoXoXoXoXoXoXoXoXoXoXoXoXoXoXoXoXoXoXoXoXoXoXoXoXoXoXoXoXoXoXoXoXoXoXoXoXoXoXoXoXoXoXoX",
"oXoXoXoXoXoXoXoXoXoXoXoXoXoXoXoXoXoXoXoXoXoXoXoXoXoXoXoXoXoXoXoXoXoXoXoXoXoXoXoXoXoXoXoXoXoXoXoXoXoXoXoXoXoXoXoXoXoXoXoXoXoXoXoXoXoXoXoXoXoXoXoXoXoXoXoXoX",
"oXoXoXoXoXoXoXoXoXoXoXoXoXoXoXoXoXoXoXoXoXoXoXoXoXoXoXoXoXoXoXoXoXoXoXoXoXoXoXoXoXoXoXoXoXoXoXoXoXoXoXoXoXoXoXoXoXoXoXoXoXoXoXoXoXoXoXoXoXoXoXoXoXoXoXoXoX",
"oXoXoXoXoXoXoXoXoXoXoXoXoXoXoXoXoXoXoXoXoXoXoXoXoXoXoXoXoXoXoXoXoXoXoXoXoXoXoXoXoXoXoXoXoXoXoXoXoXoXoXoXoXoXoXoXoXoXoXoXoXoXoXoXoXoXoXoXoXoXoXoXoXoXoXoXoX",
"oXoXoXoXoXoXoXoXoXoXoXoXoXoXoXoXoXoXoXoXoXoXoXoXoXoXoXoXoXoXoXoXoXoXoXoXoXoXoXoXoXoXoXoXoXoXoXoXoXoXoXoXoXoXoXoXoXoXoXoXoXoXoXoXoXoXoXoXoXoXoXoXoXoXoXoXoX",
"oXoXoXoXoXoXoXoXoXoXoXoXoXoXoXoXoXoXoXoXoXoXoXoXoXoXoXoXoXoXoXoXoXoXoXoXoXoXoXoXoXoXoXoXoXoXoXoXoXoXoXoXoXoXoXoXoXoXoXoXoXoXoXoXoXoXoXoXoXoXoXoXoXoXoXoXoX",
"oXoXoXoXoXoXoXoXoXoXoXoXoXoXoXoXoXoXoXoXoXoXoXoXoXoXoXoXoXoXoXoXoXoXoXoXoXoXoXoXoXoXoXoXoXoXoXoXoXoXoXoXoXoXoXoXoXoXoXoXoXoXoXoXoXoXoXoXoXoXoXoXoXoXoXoXoX",
"oXoXoXoXoXoXoXoXoXoXoXoXoXoXoXoXoXoXoXoXoXoXoXoXoXoXoXoXoXoXoXoXoXoXoXoXoXoXoXoXoXoXoXoXoXoXoXoXoXoXoXoXoXoXoXoXoXoXoXoXoXoXoXoXoXoXoXoXoXoXoXoXoXoXoXoXoX",
"oXoXoXoXoXoXoXoXoXoXoXoXoXoXoXoXoXoXoXoXoXoXoXoXoXoXoXoXoXoXoXoXoXoXoXoXoXoXoXoXoXoXoXoXoXoXoXoXoXoXoXoXoXoXoXoXoXoXoXoXoXoXoXoXoXoXoXoXoXoXoXoXoXoXoXoXoX",
"oXoXoXoXoXoXoXoXoXoXoXoXoXoXoXoXoXoXoXoXoXoXoXoXoXoXoXoXoXoXoXoXoXoXoXoXoXoXoXoXoXoXoXoXoXoXoXoXoXoXoXoXoXoXoXoXoXoXoXoXoXoXoXoXoXoXoXoXoXoXoXoXoXoXoXoXoX",
"oXoXoXoXoXoXoXoXoXoXoXoXoXoXoXoXoXoXoXoXoXoXoXoXoXoXoXoXoXoXoXoXoXoXoXoXoXoXoXoXoXoXoXoXoXoXoXoXoXoXoXoXoXoXoXoXoXoXoXoXoXoXoXoXoXoXoXoXoXoXoXoXoXoXoXoXoX",
"oXoXoXoXoXoXoXoXoXoXoXoXoXoXoXoXoXoXoXoXoXoXoXoXoXoXoXoXoXoXoXoXoXoXoXoXoXoXoXoXoXoXoXoXoXoXoXoXoXoXoXoXoXoXoXoXoXoXoXoXoXoXoXoXoXoXoXoXoXoXoXoXoXoXoXoXoX",
"oXoXoXoXoXoXoXoXoXoXoXoXoXoXoXoXoXoXoXoXoXoXoXoXoXoXoXoXoXoXoXoXoXoXoXoXoXoXoXoXoXoXoXoXoXoXoXoXoXoXoXoXoXoXoXoXoXoXoXoXoXoXoXoXoXoXoXoXoXoXoXoXoXoXoXoXoX",
"oXoXoXoXoXoXoXoXoXoXoXoXoXoXoXoXoXoXoXoXoXoXoXoXoXoXoXoXoXoXoXoXoXoXoXoXoXoXoXoXoXoXoXoXoXoXoXoXoXoXoXoXoXoXoXoXoXoXoXoXoXoXoXoXoXoXoXoXoXoXoXoXoXoXoXoXoX",
"oXoXoXoXoXoXoXoXoXoXoXoXoXoXoXoXoXoXoXoXoXoXoXoXoXoXoXoXoXoXoXoXoXoXoXoXoXoXoXoXoXoXoXoXoXoXoXoXoXoXoXoXoXoXoXoXoXoXoXoXoXoXoXoXoXoXoXoXoXoXoXoXoXoXoXoXoX",
"oXoXoXoXoXoXoXoXoXoXoXoXoXoXoXoXoXoXoXoXoXoXoXoXoXoXoXoXoXoXoXoXoXoXoXoXoXoXoXoXoXoXoXoXoXoXoXoXoXoXoXoXoXoXoXoXoXoXoXoXoXoXoXoXoXoXoXoXoXoXoXoXoXoXoXoXoX",
"oXoXoXoXoXoXoXoXoXoXoXoXoXoXoXoXoXoXoXoXoXoXoXoXoXoXoXoXoXoXoXoXoXoXoXoXoXoXoXoXoXoXoXoXoXoXoXoXoXoXoXoXoXoXoXoXoXoXoXoXoXoXoXoXoXoXoXoXoXoXoXoXoXoXoXoXoX",
"oXoXoXoXoXoXoXoXoXoXoXoXoXoXoXoXoXoXoXoXoXoXoXoXoXoXoXoXoXoXoXoXoXoXoXoXoXoXoXoXoXoXoXoXoXoXoXoXoXoXoXoXoXoXoXoXoXoXoXoXoXoXoXoXoXoXoXoXoXoXoXoXoXoXoXoXoX",
"oXoXoXoXoXoXoXoXoXoXoXoXoXoXoXoXoXoXoXoXoXoXoXoXoXoXoXoXoXoXoXoXoXoXoXoXoXoXoXoXoXoXoXoXoXoXoXoXoXoXoXoXoXoXoXoXoXoXoXoXoXoXoXoXoXoXoXoXoXoXoXoXoXoXoXoXoX",
"oXoXoXoXoXoXoXoXoXoXoXoXoXoXoXoXoXoXoXoXoXoXoXoXoXoXoXoXoXoXoXoXoXoXoXoXoXoXoXoXoXoXoXoXoXoXoXoXoXoXoXX + X oXoXoXoXoXoXoXoXoXoXoXoXoXoXoXoXoXoXoXoXoXoXoX",
"oXoXoXoXoXoXoXoXoXoXoXoXoXoXoXoXoXoXoXoXoXoXoXoXoXoXoXoXoXoXoXoXoXoXoXoXoXoXoXoXoXoXoXoXoXoXoXoXoXoX  0 s q +   oXoXoXoXoXoXoXoXoXoXoXoXoXoXoXoXoXoXoXoXoX",
"oXoXoXoXoXoXoXoXoXoXoXoXoXoXoXoXoXoXoXoXoXoXoXoXoXoXoXoXoXoXoXoXoXoXoXoXoXoXoXoXoXoXoXoXoXoXoXoXoXoXO q s s s 8 X   oXoXoXoXoXoXoXoXoXoXoXoXoXoXoXoXoXoXoX",
"oXoXoXoXoXoXoXoXoXoXoXoXoXoXoXoXoXoXoXoXoXoXoXoXoXoXoXoXoXoXoXoXoXoXoXoXoXoXoXoXoXoXoXoXoXoXoXoXoXoX# q s s s s q O   oXoXoXoXoXoXoXoXoXoXoXoXoXoXoXoXoXoX",
"oXoXoXoXoXoXoXoXoXoXoXoXoXoXoXoXoXoXoXoXoXoXoXoXoXoXoXoXoXoXoXoXoXoXoXoXoXoXoXoXoXoXoXoXoXoXoXoXoX  & 0 q f s s f a $   oXoXoXoXoXoXoXoXoXoXoXoXoXoXoXoXoX",
"oXoXoXoXoXoXoXoXoXoXoXoXoXoXoXoXoXoXoXoXoXoXoXoXoXoXoXoXoXoXoXoXoXoXoXoXoXoXoXoXoXoXoXoXoXoXoXoXoXX 0 0 0 q s s s s s 5 X   oXoXoXoXoXoXoXoXoXoXoXoXoXoXoX",
"oXoXoXoXoXoXoXoXoXoXoXoXoXoXoXoXoXoXoXoXoXoXoXoXoXoXoXoXoXoXoXoXoXoXoXoXoXoXoXoXoXoXoXoXoXoXoXoXX 5 0 0 0 0 q f s s s s 8 + O oXoXoXoXoXoXoXoXoXoXoXoXoXoX",
"oXoXoXoXoXoXoXoXoXoXoXoXoXoXoXoXoXoXoXoXoXoXoXoXoXoXoXoXoXoXoXoXoXoXoXoXoXoXoXoXoXoXoXoXoXoXoXO 8 0 0 0 0 0 q p s s s s f 8 & % oXoXoXoXoXoXoXoXoXoXoXoXoX",
"oXoXoXoXoXoXoXoXoXoXoXoXoXoXoXoXoXoXoXoXoXoXoXoXoXoXoXoXoXoXoXoXoXoXoXoXoXoXoXoXoXoXoXoXoXoX+ 8 0 0 0 0 0 0 q f s s s s f s 5 t 6 oXoXoXoXoXoXoXoXoXoXoXoX",
"oXoXoXoXoXoXoXoXoXoXoXoXoXoXoXoXoXoXoXoXoXoXoXoXoXoXoXoXoXoXoXoXoXoXoXoXoXoXoXoXoXoXoXoXt 9 # 0 0 0 0 0 0 0 p f s s s s p f s 5 j t oXoXoXoXoXoXoXoXoXoXoX",
"oXoXoXoXoXoXoXoXoXoXoXoXoXoXoXoXoXoXoXoXoXoXoXoXoXoXoXoXoXoXoXoXoXoXoXoXoXoXoXoXoXoXoX& { X.y $ 0 0 0 0 q p s s s s s s s s s s 6 x w oXoXoXoXoXoXoXoXoXoX",
"oXoXoXoXoXoXoXoXoXoXoXoXoXoXoXoXoXoXoXoXoXoXoXoXoXoXoXoXoXoXoXoXoXoXoXoXoXoXoXoXoXoX% [ X.X.X.j $ q s s s s s s s s s s s s s s q 8 ' t oXoXoXoXoXoXoXoXoX",
"oXoXoXoXoXoXoXoXoXoXoXoXoXoXoXoXoXoXoXoXoXoXoXoXoXoXoXoXoXoXoXoXoXoXoXoXoXoXoXoXoXO ) X.X.X.X.X.l & s s s s s s s s s s s s s s g 9 f ) & oXoXoXoXoXoXoXoX",
"oXoXoXoXoXoXoXoXoXoXoXoXoXoXoXoXoXoXoXoXoXoXoXoXoXoXoXoXoXoXoXoXoXoXoXoXoXoXoXoX  $ h { X.X.X.X.X.c $ q s s s s s s s s s s s s g e 0 ( ) X oXoXoXoXoXoXoX",
"oXoXoXoXoXoXoXoXoXoXoXoXoXoXoXoXoXoXoXoXoXoXoXoXoXoXoXoXoXoXoXoXoXoXoXoXX + $ 8 8 # 8 f [ X.X.X.X.X.' 8 q s s s s s s s s s s s f k 8 f [ y oXoXoXoXoXoXoX",
"oXoXoXoXoXoXoXoXoXoXoXoXoXoXoXoXoXoXoXoXoXoXoXoXoXoXoXoXoXoXoXoXoXoXoXX 5 0 p s s s $ 5 f [ X.X.X.X.X.' 9 0 s s s s s s s s s s f z 8 s ( ) + oXoXoXoXoXoX",
"oXoXoXoXoXoXoXoXoXoXoXoXoXoXoXoXoXoXoXoXoXoXoXoXoXoXoXoXoXoXoXoXoXoXoX$ 0 q s s s s q $ $ d ] { X.X.X.X.{ 0 y z s s s s s s s s f z 8 s f { t oXoXoXoXoXoX",
"oXoXoXoXoXoXoXoXoXoXoXoXoXoXoXoXoXoXoXoXoXoXoXoXoXoXoXoXoXoXoXoXoXoXX 0 0 s s s s s q 0 $ # s ` X.X.X.X.{ -.D.L.o.s s s s f s s ( j 0 s f [ k oXoXoXoXoXoX",
"oXoXoXoXoXoXoXoXoXoXoXoXoXoXoXoXoXoXoXoXoXoXoXoXoXoXoXoXoXoXoXoXoXoX+ 0 0 s s s s s q q q 5 # q ` { X.{ O.P.].T.'.9.q s s s s s ( 9 p s f ] ) oXoXoXoXoXoX",
"oXoXoXoXoXoXoXoXoXoXoXoXoXoXoXoXoXoXoXoXoXoXoXoXoXoXoXoXoXoXoXoXoXoX+ 0 q s s s s d s s s s 0 $ 0 x {  .D.[.`.e.[.[.q.d s s s h z 5 s s s ] ) X oXoXoXoXoX",
"oXoXoXoXoXoXoXoXoXoXoXoXoXoXoXoXoXoXoXoXoXoXoXoXoXoXoXoXoXoXoXoXoXoXO 0 0 s s s s s s s s s f q # 0 c S.{.}.}.[.}. X}.Z.k s s ( 9 p s s s [ ) X oXoXoXoXoX",
"oXoXoXoXoXoXoXoXoXoXoXoXoXoXoXoXoXoXoXoXoXoXoXoXoXoXoXoXoXoXoXoXoXoXoX$ 0 q s s s s s s p 8 # # # + e.].}.}.}.|..XXXXX XS.v h w 0 s s s f { z oXoXoXoXoXoX",
"oXoXoXoXoXoXoXoXoXoXoXoXoXoXoXoXoXoXoXoXoXoXoXoXoXoXoXoXoXoXoXoXoXoXoXX & 0 s s s s s q b u.A ; < V U.T.D.}..XXX.X.XXXXX XK.D 8 s s s s h } e oXoXoXoXoXoX",
"oXoXoXoXoXoXoXoXoXoXoXoXoXoXoXoXoXoXoXoXoXoXoXoXoXoXoXoXoXoXoXoXoXoXoXoX. 8 0 p s s s r f.W.a.1 B G w.Y.L..XXXXXXX{..X X|..XU.| p s s s ` [ @ oXoXoXoXoXoX",
"oXoXoXoXoXoXoXoXoXoXoXoXoXoXoXoXoXoXoXoXoXoXoXoXoXoXoXoXoXoXoXoXoXoXoXoXoX+ 0 q s s p U B.N.d.R m G G e.}.XXXXXXXX`.`..XXX.X|.T.-.q s f { k oXoXoXoXoXoXoX",
"oXoXoXoXoXoXoXoXoXoXoXoXoXoXoXoXoXoXoXoXoXoXoXoXoXoXoXoXoXoXoXoXoXoXoXoXoXX 8 0 p s q 1.C.B.y.r.1 B G A A.{.XX.X|.[.Y.[.}.}.|.XX`.-.p ( [ % oXoXoXoXoXoXoX",
"oXoXoXoXoXoXoXoXoXoXoXo oXoXoXoXoXoXoXoXoXoXoXoXoXoXoXoX.   - n M M N N t d + 0 q s p I c.v./ / W i G A h.G.'.|..X.XT.U.T.[..XXXXX[.9.' y oXoXoXoXoXoXoXoX",
"oXoXoXoXoXoXoXoXoXoX; Z n oXoXoXoXoXoXoXoXoXoXoXoX+ 0 0 8 # m H H H B u z f 8 + 0 q p 1 h.p.R 4 t.3 V S g.~.G.'.|.|.}.}.}.[.|.XX].D.F.j X oXoXoXoXoXoXoXoX",
"oXoXoXoXoXoXoXoXoXoXB $.@.n oXoXoXoXoXoXoXoXoXoX# p s f s & F #.#.J 6 0 a f s 5 # 0 p 0 1.W.N.s.s.W 2 4.E.(.^.G.U.}.XXXXXXXXXXXX{.D.0.X oXoXoXoXoXoXoXoXoX",
"oXoXoXoXoXoXoXoXoXn +.*.*.+.= oX, - oXoXoXoXX 5 s s s s s 0 J =.*.V e a 5 5 p f # # 0 p 8 2.R.C.C.b.h.).(././.).J.I. XXXXXXX.X|.}.A.l X oXoXoXoXoXoXoXoXoX",
"oXoXoXoXoXoXoXoX; F $.=.*.H m < J J F > oXO 8 s s s s s f q _ ;.T l X.' ..6.b 8 l L # 0 q 0 u U ~ u.l.R.).(././.).R.I.|.XX}.}.}.F.D + oXoXoXoXoXoXoXoXoXoX",
"oXoXoXoXoXoXoXo B T $.=.$.@.F Z *.=.T 0 p q s s s s s s p 0 _ $.S [ [ &.E.).1.> #.w.- % $ 8 q p q 8 8 r ! H.(.(.Q.x.7.A.[.F.F.I.| $ oXoXoXoXoXoXoXoXoXoXoX",
"oXoXoXoXoXoXoXm +.$.=.=.$.=.F J =.=.S p f s s s s s p q & + J K i ( k x._.l.T T n - N J - m : 8 s s s s q u R.^.4.A G G 0.L.A.D # oXoXoXoXoXoXoXoXoXoXoXoX",
"oXoXoXoXoXoX- T *.=.=.=.$.*.N @.=.=.i s s s s s p 0 $ + 5 $ H J 7 0 Y !.!.<.*.T m F N n - n M M & s s s s 0 u.h.3 V N B < l t . oXoXoXoXoXoXoXoXoXoXoXoXoX",
"oXoXoXoXo o F *.=.;.;.;.+.J N $.=.*.t s s s s 0 & + + 8 p 8 F T M : C c.z.$.;.H H @.@.+.F < +.J + s s s s 0 ~ p.R A C 1 @ 8 X oXoXoXoXoXoXoXoXoXoXoXoXoXoX",
"oXoXoX- , N $.:.>.,.:.$.B m m =.=.#.w s s p p 5 9 V $ 0 p 0 B +.N F @.Q ! $.;.B J +.J J T M ; = # q s s s q ^ s.P r.d.! # O oXoXoXoXoXoXoXoXoXoXoXoXoXoXoX",
"oXoX< Z m @.;.,.3.3.=.2 , T N F +.J & q 0 q p s s & + 0 p q m +.N F ;.=.J H @.N T T T T T m ; o + 8 q q s q ^ M.y.B.y.+ X oXoXoXoXoXoXoXoXoXoXoXoXoXoXoXoX",
"oXoXn m J =.>.3.3.>.H oXoXoX- < H Z m 5 q q 0 s p # X & q p 7 +.F M +.+.J n 2 n @.T J T T 2 o & y 3 & q p q U n.i.2.@ . oXoXoXoXoXoXoXoXoXoXoXoXoXoXoXoXoX",
"oXoXoX, +.=.:.,.=.G oXoXoXoXoX< H T F + $ oX$ $ O oXoXX # $ @ H F B n n n n n 2 H J T +.J < : x f ~ ^ * 5 0 8 t * X   oXoXoXoXoXoXoXoXoXoXoXoXoXoXoXoXoXoX",
"oXoXoXoX- N Z N ; oXoXoXoXoXoXoXoXoXoXoXoXoXoXoXoXoXoXoXoXoXoX= o - N N B B N n ; n B J Z o   9 p r W oX  X O X   oXoXoXoXoXoXoXoXoXoXoXoXoXoXoXoXoXoXoXoX",
"oXoXoXoXoXoXoXoXoXoXoXoXoXoXoXoXoXoXoXoXoXoXoXoXoXoXoXoXoXoXoXoXoXoX< < , oXoXoXoXoXoX; - oXoXoXoXoXoXoXoXoXoXoXoXoXoXoXoXoXoXoXoXoXoXoXoXoXoXoXoXoXoXoXoX",
"oXoXoXoXoXoXoXoXoXoXoXoXoXoXoXoXoXoXoXoXoXoXoXoXoXoXoXoXoXoXoXoXoXoXoXoXoXoXoXoXoXoXoXoXoXoXoXoXoXoXoXoXoXoXoXoXoXoXoXoXoXoXoXoXoXoXoXoXoXoXoXoXoXoXoXoXoX",
"oXoXoXoXoXoXoXoXoXoXoXoXoXoXoXoXoXoXoXoXoXoXoXoXoXoXoXoXoXoXoXoXoXoXoXoXoXoXoXoXoXoXoXoXoXoXoXoXoXoXoXoXoXoXoXoXoXoXoXoXoXoXoXoXoXoXoXoXoXoXoXoXoXoXoXoXoX",
"oXoXoXoXoXoXoXoXoXoXoXoXoXoXoXoXoXoXoXoXoXoXoXoXoXoXoXoXoXoXoXoXoXoXoXoXoXoXoXoXoXoXoXoXoXoXoXoXoXoXoXoXoXoXoXoXoXoXoXoXoXoXoXoXoXoXoXoXoXoXoXoXoXoXoXoXoX"
};
