/* XPM */
static char *result[] = {
/* columns rows colors chars-per-pixel */
"80 80 63 1 ",
"  c #ACC0C1",
". c #ACC0C2",
"X c #ABBFC0",
"o c #A9BCBD",
"O c #A7BABB",
"+ c #A7B9BA",
"@ c #A6B7B8",
"# c #A8BBBC",
"$ c #A4B5B6",
"% c #A2B2B3",
"& c #A1B2B2",
"* c #A1B0B0",
"= c #A5B6B7",
"- c #A1B1B1",
"; c #ABBFC1",
": c #A1B1B0",
"> c #A4B6B6",
", c #ADC1C2",
"< c #AFC3C4",
"1 c #B4C6C7",
"2 c #B6C7C8",
"3 c #B7C8C9",
"4 c #BACACB",
"5 c #B8C9CA",
"6 c #B5C7C8",
"7 c #B1C4C5",
"8 c #ADC0C1",
"9 c #B0C3C4",
"0 c #BACBCC",
"q c #BBCBCC",
"w c #B9C9CA",
"e c #B2C4C5",
"r c #AEC2C3",
"t c #AFC2C3",
"y c #A2B3B4",
"u c #A6B8BA",
"i c #A3B4B5",
"p c #A3B4B4",
"a c #B8C8C9",
"s c #B5C6C7",
"d c #AEC1C2",
"f c #B9CACB",
"g c #B3C5C6",
"h c #AABEBF",
"j c #A6B8B9",
"k c #A3B3B4",
"l c #A2B2B2",
"z c #ABBEBF",
"x c #A7BABA",
"c c #ACC1C2",
"v c #A2B3B3",
"b c #A3B5B5",
"n c #A9BDBE",
"m c #AABDBE",
"M c #A5B7B8",
"N c #A1B1B2",
"B c #A8BABB",
"V c #A1B0B1",
"C c #B7C7C8",
"Z c #BCCBCC",
"A c #B1C3C4",
"S c #A8BABC",
"D c white",
/* pixels */
"                                                                                ",
"                                                                                ",
"                                                                                ",
"                                                                                ",
"                                                                                ",
"                                                                                ",
"                                                                                ",
"                                                                                ",
"                                                                                ",
"                                                                                ",
"                                                                                ",
"                                                                                ",
"                                                                                ",
"                                                                                ",
"                                                                                ",
"                                                                                ",
"                                                                                ",
"                                                                                ",
"                                              .  .                              ",
"                                          XoO+@@@@+OoX                          ",
"                                          #$%&****&%$#                          ",
"                                          =----------=                          ",
"                                         ;$---------:>                          ",
"           ,,,,,,,,,,,,                   >---------->                          ",
"          <12344444452678                 >---------->                          ",
"         9340qqqqqqqq04we,                >---------->                          ",
"         20qqqqqqqqqqqqq5r                >---------->                          ",
"         5qqqqqqqqqqqqqq4t                $*--------*$                          ",
"         5qqqqqqqqqqqqqqqt                =----------=                          ",
"         5qqqqqqqqqqqqqqqt                +y--------yO                          ",
"         5qqqqqqqqqqqqqqqt                XuippppppiuX                          ",
"         5qqqqqqqqqqqqqqqt                                                      ",
"         5qqqqqqqqqqqqqqqt                                                      ",
"         5qqqqqqqqqqqqqqqt                                                      ",
"         5qqqqqqqqqqqqqqqt                                                      ",
"         5qqqqqqqqqqqqqqqt                                                      ",
"         aqqqqqqqqqqqqqq4t                                                      ",
"         s4qqqqqqqqqqqqq3d                                                      ",
"         93qqqqqqqqqqqqfe,                                                      ",
"          734444444444wg,                                                       ",
"           ,,,,,,,,,,,,,                                                        ",
"                                                                                ",
"        hOj=$>>>jjoX                                                            ",
"       X@kl-*-:-l%$o                                                            ",
"       z%----------xc                                                           ",
"       hl---------:+c                                                           ",
"       Xl----------xc                                                           ",
"       Xl----------xc                                 XXXXXXXXXXXXXX            ",
"       Xl----------xc                                z+$$vllllll%b$jn           ",
"       Xl----------xc                               mMlNN---------Nl$o          ",
"       Xl---------*+c                               B%--------------NM          ",
"       Xk---------&B.                              c+V--------------V$          ",
"       Xj%-:---:-->n                               cx:---------------$          ",
"        hj>>>>>>>=oX                               cx---------------:>          ",
"                                                   cx---------------->          ",
"                                                   cx---------------->          ",
"                                                   cx---------------->          ",
"                                    tg6C5555553sg, cx---------------->          ",
"                                   9244qqqqqqqq4fsr x---------------->          ",
"                                   1qqqqqqqqqqqqq49 x---------------->          ",
"                                   sZqqqqqqqqqqqqqA +:--------------:>          ",
"                                   sZqqqqqqqqqqqqqA x---------------->          ",
"                                   sZqqqqqqqqqqqqqA S%--------------N@          ",
"                                   sZqqqqqqqqqqqqqA m=--------------i#          ",
"                                   sZqqqqqqqqqqqqqA  m>&-----------i#           ",
"                                   sZqqqqqqqqqqqqqA   zmmmmmmmmmmmmhX           ",
"                                   sZqqqqqqqqqqqqqA                             ",
"                                   sZqqqqqqqqqqqqqA                             ",
"                                   1qqqqqqqqqqqqqqA                             ",
"                                   g4qqqqqqqqqqqq49                             ",
"                                   9Cqqqqqqqqqqq42r                             ",
"                                    93444444444fCt                              ",
"                                     ,,,,,,,,,,,,                               ",
"                                                                                ",
"                                                                                ",
"                                                                                ",
"                                                                                ",
"                                                                                ",
"                                                                                ",
"                                                                                "
};
