/* XPM */
static char *result[] = {
/* columns rows colors chars-per-pixel */
"80 80 44 1 ",
"  c #9F6B3B",
". c #A26E3D",
"X c #A6703E",
"o c #AC743E",
"O c #A47344",
"+ c #AE7640",
"@ c #AF7843",
"# c #A77748",
"$ c #A87749",
"% c #AB7B4C",
"& c #B17A44",
"* c #B37E4A",
"= c #AD7E51",
"- c #B98045",
"; c #B5814D",
": c #BB844D",
"> c #AF8053",
", c #B58252",
"< c #B88655",
"1 c #BA8857",
"2 c #B3855A",
"3 c #B6895E",
"4 c #BC8B5D",
"5 c #B78A60",
"6 c #BC8E61",
"7 c #BF9165",
"8 c #BE936A",
"9 c #C39365",
"0 c #C3966B",
"q c #C99768",
"w c #C6996E",
"e c #C99869",
"r c #C69B73",
"t c #CA9E74",
"y c #C79F78",
"u c #CCA177",
"i c #CBA27B",
"p c #CEA781",
"a c #CFA883",
"s c #D0A781",
"d c #D1AA85",
"f c #D3AD89",
"g c #D6B18D",
"h c None",
/* pixels */
"hhhhhhhhhhhhhhhhhhhhhhhhhhhhhhhhhhhhhffffffhhhhhhhhhhhhhhhhhhhhhhhhhhhhhhhhhhhhh",
"hhhhhhhhhhhhhhhhhhhhhhhhhhhhhhhhhhhhgfffggffghhhhhhhhhhhhhhhhhhhhhhhhhhhhhhhhhhh",
"hhhhhhhhhhhhhhhhhhhhhhhhhhhhhhhhhhhgdiuuiiidffhhhhhhhhhhhhhhhhhhhhhhhhhhhhhhhhhh",
"hhhhhhhhhhhhhhhhhhhhhhhhhhhhhhhhhhgiuteeeeeeufhhhhhhhhhhhhhhhhhhhhhhhhhhhhhhhhhh",
"hhhhhhhhhhhhhhhhhhhhhhhhhhhhhhhhhfitqqqqqqqqeighhhhhhhhhhhhhhhhhhhhhhhhhhhhhhhhh",
"hhhhhhhhhhhhhhhhhhhhhhhhhhhhhhhhhfueqqeeqqqqetshhhhhhhhhhhhhhhhhhhhhhhhhhhhhhhhh",
"hhhhhhhhhhhhhhhhhhhhhhhhhhhhhhhhhuqqqqqqqqqqqqehhhhhhhhhhhhhhhhhhhhhhhhhhhhhhhhh",
"hhhhhhh:::::::::::::::::::::::::::::-::::::::::::::::::::::::::::::::::::hhhhhhh",
"hhhh::::::::::::::::::::::::::::::::::::::::::::::::::::::::::::::::::::::::hhhh",
"hhh:::--&&&&&&&&+&&&+&+&&&&+&&++&&o&o&&&&oo-o&&&&o&-&o&-&&&&&o&&&&&o&&-&&-:::hhh",
"hh::*&o&&&o+oooo++++++++++++++++o&ooo&ooooo&o&oooooooooo++++&ooo++++oo&&&&&&::hh",
"h:-*oo-oo+++&&oo++++++++++++++++ooo&oo-o&&ooo&o-o&&oo&&o++++oo&o++++&ooo++o&&::h",
"h:&oo&oo&oooo&oo++++++++++++++++&o&oo&o&oo&oo&ooooo&-oooo&o&ooo&++++++++++++o&-h",
":&&oooo&oo&oooo&++++++++++++++++ooooooo&&oooooo&&oooooo&oooo&ooo++++++++++++o&*-",
"-oooo&o&o&o&o&o&++++++++++++++++&&oo&-oooooooooooo&o&ooo&o&ooo&o++++++++++++&oo*",
"&&o&o&ooooo&oooo++++++++++++++++ooo&ooooo&-o-o&o&o&ooo&o&ooo&o&o++++++++++++oo&&",
"&&oooo&o++++++++++++++++++++++++++++++++++++++oooooX..Oo++o+++++oo++++++++++++++",
"&&&o&o&o++++++O+XXXOXXXXOO++++++++++++++oo+++++OoX...O.+++oo+++oOXoXXo+o++++++++",
"o&oo-ooo++++ O O ..OO   O+++++..o+++++++X.o++++$$%==555+XXX...XXOOO .O++++++++++",
"ooo&oo&o+++$OOO$*%%==44==*+++....++++++X..XXo+@40ryipst@X......OOO$==*++++++++++",
"oooooooo+++=0090prrrpssss=&+O$==$OO+++OO==%O.o&9fffffgs@=====55988ryy9++++++++++",
"-o&&o&o&+++9ffffdfffdffdf*+ O=pd9$Xo+..=sf0%OO@9dfffffy&0pasggffffffdq++++++++++",
"ooooooo&++O0ffffddffffffd*OO6pffd9$.O.%pfffr=O$7dffffdw&rfffffffffffs9++++++++o+",
"&o&oo-oo+++0gffffffffffdy*%0sffffs5OO%rfffffp5@9dffffd0*pfffffffffffp9++++++++++",
"oooo++++++oqfffffffffffdr*tdffffffp5=rfffffffi99dffffd0*pfffffffffffs4++++++++++",
"o&o-++++++oqffffffpppdpr6%=sfdfffffpsfffffffs9*9dffffs0*sffffffffffst*++++++++++",
"o&oo++&ooooqfffffd=====**+*4pffffffffffffffd9@@9dffffd0@ysidfffffs9**@@+++++++++",
"ooo&++oo+oo9fffffappww0++++&6pfdffffffffffdw*+*9dffffd0@=4*uffffgi*o++++++++++++",
"o&o&ooo&++o9ffffffffgfr@++++@9pfffffffdfffw*++$8dfffds9+ooo0fffffu*+++++++++++++",
"ooo&o&&o++oqfffffdfffa0@+++++@8ddfffffffsw*+++&9dffffs9++++0fffffi:@++++++++++++",
"&-oooo&o++oqdfffffdadp=O+++++++wafffffffs$XX++&9dffffs4+++@wfffffi*o++++++++++++",
"oooo&oo&++o4sffffap8r8=O.++++OOwfffdffffs=OO++@9dffffs4+++*rgffffi*o++++++++++++",
"o&&oo&o&+++4pfdfap=OO$=%*&+oOO9sfffffffffp=OOO@9dffffs9@++*tfffffu*@@+++++++++++",
"oooooooo++o4sffffsppyysss*oXO5pfffffffffffa5O.$9dfffds=@++*wfffffy*@++++++++++++",
"o-o&&o&o++o4sfffffffgfffd*OO5pffffffafffdffp=.O9sffffs9@++*tfffffp*+++++++++++++",
"oooo&ooo++o6sffffffffffff*O=sffffffr0pffffffs9@9dffffs*@++*tfffffs*+++++++++++++",
"oo&o+++&++o4sfffffffffffd*4yffffffs9*9sfffdffy99dffffs*&+@*rfffffu*&++++++++++++",
"&ooo+++o++o4sffffffffffff*9fffffff0*O*qdfffffp99fffffy*@+@*tfffffu*&++++++++++++",
"oo&o+++++oo4sffffffffdsff**tfffffp*&+@*ydfffp9*9ssdfsy*@++4ifffffu*+++++++++++++",
"&o-o+++++&o4idddssssiwttw*@=0sffd9@++@&*sdfs9O@9r99=***@++*sffffds*+++++++++++++",
"oooooo&o+++**4<<**@*@@@&&&o&&9sfr*@++++@9pd9&++@@@@@@+++++9tfffstq*+++++o&oo&o-o",
"&oo-&ooo++++@@@@++O+@+@@oo&o+&9u**+++++++99*++++@+++++++++**4***--&+++++ooo-oooo",
"oooooo-o++++++++++++++++o&oo++&:@++++++++*+++++++++++++++++@@+@+oo&o++++&oooooo&",
"o&&o&&oo++++++++++++++++oo-&+++o+++++++++O++++++++++++++++++++++&oo&++++&o&oo&oo",
"++++o&oo++++++++++++++++oo&oo-&o++++++++++++++++++++++++++++++++&oooo&o&oooooo&&",
"+++oooo&++++++++++++++++&ooooooo++++++++++++++++++++++++++++++++oo&oooooo-&o&ooo",
"h-o&&oo&++++++++++++++++ooo&ooo&++++++++++++++++++++++++++++++++o&oo-o&o-ooooo&h",
"hoo&oo&o++++++++++++++++-oooo&o&++++++++++++++++++++++++++++++++o&o&ooooooo&&ooh",
"hh&o&oooo&o&oooooo-oo&o&ooooo-oo++++ooooooo&-o&o++++o&o&ooo&o&oooo&o&o&ooo-oo&hh",
"hh&ooo&oooooo&o&&oooooooo&o-o&oo+++o&o&&-&oooooo++++o&ooo&o&ooo&&ooo-ooo&oooo&hh",
"hhhho&oo&&o-ooo&&o&o&&ooo&ooooo&++o&ooooooooooo&++++ooo&ooooo-o&&o&oo&o&ooo&hhhh",
"hhhhho&&ooooo-ooooooooo-ooo&&ooo++o&o&oooo&oo&oo++++&ooo&o&ooooooooooooo&&ohhhhh",
"hhhhhhhho&o&o&oo&oo&o&o&o&&oo&&o+--o--o---&&--o&++&&oo&oo&o&o&oo&oo&o&o&hhhhhhhh",
"hhhhhhhhhhhhhhhhhhhhhhhhhhhhhhhhh--------------hhhhhhhhhhhhhhhhhhhhhhhhhhhhhhhhh",
"hhhhhhhhhhhhhhhhhhhhhhhhhhhhhhhhh::::::-:::::::hhhhhhhhhhhhhhhhhhhhhhhhhhhhhhhhh",
"hhhhhhhhhhhhhhhhhhhhhhhhhhhhhhhhhqqqqqqqqqqqqqehhhhhhhhhhhhhhhhhhhhhhhhhhhhhhhhh",
"hhhhhhhhhhhhhhhhhhhhhhhhhhhhhhhhhqeeeeeqeeeeeeehhhhhhhhhhhhhhhhhhhhhhhhhhhhhhhhh",
"hhhhhhhhhhhhhhhhhhhhhhhhhhhhhhhhheeeeeeeeqeeeeehhhhhhhhhhhhhhhhhhhhhhhhhhhhhhhhh",
"hhhhhhhhhhhhhhhhhhhhhhhhhhhhhhhhheeeeeeeeeeeeeehhhhhhhhhhhhhhhhhhhhhhhhhhhhhhhhh",
"hhhhhhhhhhhhhhhhhhhhhhhhhhhhhhhhheeeeeeeeeeeqeehhhhhhhhhhhhhhhhhhhhhhhhhhhhhhhhh",
"hhhhhhhhhhhhhhhhhhhhhhhhhhhhhhhhheeeeeeeeeeeeeehhhhhhhhhhhhhhhhhhhhhhhhhhhhhhhhh",
"hhhhhhhhhhhhhhhhhhhhhhhhhhhhhhhhhqeeeeqeeeeeeeehhhhhhhhhhhhhhhhhhhhhhhhhhhhhhhhh",
"hhhhhhhhhhhhhhhhhhhhhhhhhhhhhhhhheeeeeeeqeeeeeehhhhhhhhhhhhhhhhhhhhhhhhhhhhhhhhh",
"hhhhhhhhhhhhhhhhhhhhhhhhhhhhhhhhheeeeeeeeeeeeeehhhhhhhhhhhhhhhhhhhhhhhhhhhhhhhhh",
"hhhhhhhhhhhhhhhhhhhhhhhhhhhhhhhhheeeeeeeeeeeeeehhhhhhhhhhhhhhhhhhhhhhhhhhhhhhhhh",
"hhhhhhhhhhhhhhhhhhhhhhhhhhhhhhhhheeeeeeeeeeeeeehhhhhhhhhhhhhhhhhhhhhhhhhhhhhhhhh",
"hhhhhhhhhhhhhhhhhhhhhhhhhhhhhhhhheeeeeeqeeeeeeehhhhhhhhhhhhhhhhhhhhhhhhhhhhhhhhh",
"hhhhhhhhhhhhhhhhhhhhhhhhhhhhhhhhheeeeeeeeqeeeeehhhhhhhhhhhhhhhhhhhhhhhhhhhhhhhhh",
"hhhhhhhhhhhhhhhhhhhhhhhhhhhhhhhhheeeeeeeeeeeeeehhhhhhhhhhhhhhhhhhhhhhhhhhhhhhhhh",
"hhhhhhhhhhhhhhhhhhhhhhhhhhhhhhhhheeeeeeeeeeeqeehhhhhhhhhhhhhhhhhhhhhhhhhhhhhhhhh",
"hhhhhhhhhhhhhhhhhhhhhhhhhhhhhhhhheeeeqeeeeeeeeehhhhhhhhhhhhhhhhhhhhhhhhhhhhhhhhh",
"hhhhhhhhhhhhhhhhhhhhhhhhhhhhhhhhheeeeeeeeeqeeeehhhhhhhhhhhhhhhhhhhhhhhhhhhhhhhhh",
"hhhhhhhhhhhhhhhhhhhhhhhhhhhhhhhhheeeeeeeeeqeeeehhhhhhhhhhhhhhhhhhhhhhhhhhhhhhhhh",
"hhhhhhhhhhhhhhhhhhhhhhhhhhhhhhhhheeeeeeeeeeeeeehhhhhhhhhhhhhhhhhhhhhhhhhhhhhhhhh",
"hhhhhhhhhhhhhhhhhhhhhhhhhhhhhhhhheeeeeeqeeeeeeehhhhhhhhhhhhhhhhhhhhhhhhhhhhhhhhh",
"hhhhhhhhhhhhhhhhhhhhhhhhhhhhhhhhheeeeeeeeeeeeeehhhhhhhhhhhhhhhhhhhhhhhhhhhhhhhhh",
"hhhhhhhhhhhhhhhhhhhhhhhhhhhhhhhhheeeeeeqeeeeeeehhhhhhhhhhhhhhhhhhhhhhhhhhhhhhhhh",
"hhhhhhhhhhhhhhhhhhhhhhhhhhhhhhhhheeeeeeeeeeeeeehhhhhhhhhhhhhhhhhhhhhhhhhhhhhhhhh",
"hhhhhhhhhhhhhhhhhhhhhhhhhhhhhhhhheeeeeeeeeqeeeehhhhhhhhhhhhhhhhhhhhhhhhhhhhhhhhh",
"hhhhhhhhhhhhhhhhhhhhhhhhhhhhhhhhheeeqeeeeeeeeeehhhhhhhhhhhhhhhhhhhhhhhhhhhhhhhhh"
};
