/* XPM */
static char *result[] = {
/* columns rows colors chars-per-pixel */
"40 76 187 2 ",
"   c #040104",
".  c #070208",
"X  c #0B020C",
"o  c #0A0B0B",
"O  c #070907",
"+  c #0E100F",
"@  c #0F0310",
"#  c #0F0A10",
"$  c #130314",
"%  c #130A14",
"&  c #160418",
"*  c #1B041C",
"=  c #170918",
"-  c #1A0B1B",
";  c #0F1110",
":  c #121414",
">  c #1A141C",
",  c #171A19",
"<  c #1B1C1C",
"1  c #191618",
"2  c #241B12",
"3  c #1C201F",
"4  c #292018",
"5  c #1F0521",
"6  c #1F0B20",
"7  c #1F1221",
"8  c #1E1B21",
"9  c #220425",
"0  c #220B23",
"q  c #260529",
"w  c #2A052D",
"e  c #270E29",
"r  c #290E2B",
"t  c #261028",
"y  c #2A122D",
"u  c #261924",
"i  c #2E0532",
"p  c #2E0C31",
"a  c #320636",
"s  c #330937",
"d  c #340738",
"f  c #350A39",
"g  c #390D3D",
"h  c #2E1131",
"j  c #321435",
"k  c #3A143E",
"l  c #3B1C3E",
"z  c #341936",
"x  c #371B2D",
"c  c #1E2221",
"v  c #212524",
"b  c #242827",
"n  c #262329",
"m  c #29242D",
"M  c #262B29",
"N  c #2A2E2D",
"B  c #312826",
"V  c #2B312E",
"C  c #35332D",
"Z  c #2E2C30",
"A  c #312432",
"S  c #39213B",
"D  c #2E3331",
"F  c #323534",
"G  c #323936",
"H  c #353C3A",
"J  c #393F3D",
"K  c #3A3A34",
"L  c #4F3636",
"P  c #443D36",
"I  c #462C3E",
"U  c #3A413E",
"Y  c #47473C",
"T  c #514C3E",
"R  c #4D4329",
"E  c #655734",
"W  c #3D0F41",
"Q  c #3D1341",
"!  c #3E1A41",
"~  c #3F3940",
"^  c #421A45",
"/  c #441748",
"(  c #461D4A",
")  c #491C4D",
"_  c #411445",
"`  c #4C1E51",
"'  c #402643",
"]  c #493448",
"[  c #4D2051",
"{  c #4F3651",
"}  c #513F52",
"|  c #3D4542",
" . c #3F4844",
".. c #414946",
"X. c #444D4A",
"o. c #474A43",
"O. c #564942",
"+. c #47514D",
"@. c #48524E",
"#. c #595446",
"$. c #4F4350",
"%. c #534154",
"&. c #5B4C5C",
"*. c #4B5551",
"=. c #4F5955",
"-. c #515B57",
";. c #545E5A",
":. c #555555",
">. c #685B4B",
",. c #655151",
"<. c #56605C",
"1. c #6B624D",
"2. c #6E685A",
"3. c #776C56",
"4. c #72654E",
"5. c #5F5360",
"6. c #645565",
"7. c #646364",
"8. c #6C6C6C",
"9. c #6E6468",
"0. c #786C68",
"q. c #726E72",
"w. c #767676",
"e. c #7C7D7D",
"r. c #7C7A74",
"t. c #83775B",
"y. c #887777",
"u. c #8C7A61",
"i. c #B79A5A",
"p. c #8E8265",
"a. c #958766",
"s. c #9F9375",
"d. c #89857B",
"f. c #AB9A74",
"g. c #AE9E78",
"h. c #BCA97A",
"j. c #C7A559",
"k. c #CDAD64",
"l. c #D8B563",
"z. c #817582",
"x. c #848184",
"c. c #8A898B",
"v. c #8F8A90",
"b. c #959495",
"n. c #9A949A",
"m. c #9B9B9B",
"M. c #948C95",
"N. c #A39393",
"B. c #BCAB81",
"V. c #B1A380",
"C. c #A3A3A3",
"Z. c #AEADAB",
"A. c #ACAAA7",
"S. c #B1AFAD",
"D. c #B6A6A7",
"F. c #B3B1AD",
"G. c #B5B5B5",
"H. c #BCBCBC",
"J. c #BBB2B5",
"K. c #C0AE83",
"L. c #C6B487",
"P. c #D1BE8E",
"I. c #D1BE90",
"U. c #C8BA9D",
"Y. c #C6BCBB",
"T. c #DEC68E",
"R. c #DDC996",
"E. c #E8D29C",
"W. c #DDD0AE",
"Q. c #EDD6A0",
"!. c #F2DBA4",
"~. c #FCE5AB",
"^. c #FFE9AE",
"/. c #FFECB0",
"(. c #C4C4C4",
"). c #CDCCCD",
"_. c #CFD0CF",
"`. c #D2D2D2",
"'. c #DBDBDB",
"]. c #DFE0DF",
"[. c #E4E4E4",
"{. c #EBEBEB",
"}. c #E7E8E7",
"|. c #F3F3F3",
" X c #FDFDFD",
".X c #F7F7F8",
"XX c None",
/* pixels */
"XXXXXXXXXXXXXXXXXX          . o = - 6 6 0 6 - = X XXXXXXXXXXXXXXXXXXXXXXXXXXXXXX",
"XXXXXXXXXX  . X $ $ & & & * * * * 6 6 y j ! _ ^ ! k t = XXXXXXXXXXXXXXXXXXXXXXXX",
"XXXXXX@ 9 q w s s a a a d a d d i i i w 9 * 5 i g _ ( ^ j - XXXXXXXXXXXXXXXXXXXX",
"XXXX  q d d a a a a a a a a a a a a a d a f h 6 q a a Q ) ( t . XXXXXXXXXXXXXXXX",
"XXXX  9 a a a a a a a a a a a a d a a a a a d Q 9 q a a f ( ` y   XXXXXXXXXXXXXX",
"XXXXXX& w i i i i a a a a a a a a a a a a a a d Q 0 w a a a / ` t XXXXXXXXXXXXXX",
"XXXXXX. 9 q q q q w i a a a a a a a a a a a a a f k 5 i a a f ) ( = XXXXXXXXXXXX",
"XXXXXXXX& q q q q q w a a a a a a a a a a a a a s Q t w a a a W [ j XXXXXXXXXXXX",
"XXXXXXXXX q q q q q q w s a a a a a a a a a d a a f k 5 a a a d ( ( $ XXXXXXXXXX",
"XXXXXXXX. 5 q q q q q w d a a a a a a a a a a a a a ! 6 a a a a g ` 0 XXXXXXXXXX",
"XXXXXXXXX 9 q q q q q a a a a a a a a a a a a a a a Q 9 i a a a f ) j XXXXXXXXXX",
"XXXXXXXX@ q q q q q w d a a a a a a a a a a a a a a Q 9 i a a a a ( l . XXXXXXXX",
"XXXXXXXX$ q q q q w a d a a a a a a i i a a i i i i g 5 w i i a i W ^ X XXXXXXXX",
"XXXXXXXX& q q q w a a d a a a a i S } %.} } } %.%.%.&.%.%.%.} %.} ] ! % XXXXXXXX",
"XXXXXX. $ - = = * * 5 * 9 - * * z C._.`.'.].[.{.}.[.].[.[.'.[.{.[.(.&.X XXXXXXXX",
"XXXXXXt ) ( ( [ ( ( ' [ ^ ^ [ ^ 5.`.S.w.[.{. X X X|.|..X{.{. X X(.w.v.t XXXXXXXX",
"XXXXXXy [ [ [ [ [ [ [ [ [ [ [ ) 6._._.H.].|. X X X{.|.|.[.|..X X{.H.b.h XXXXXXXX",
"XXXXXXt [ [ [ [ [ [ [ [ [ [ ` ) 6._.[.}.}..X|.'.'.'.|.[.`.).[. X X{.n.y XXXXXXXX",
"XXXXXXy [ [ [ [ [ [ [ [ [ [ ` ) 6.).[.}.{. X X|._.G.G.G.H.[. X X|.}.n.h XXXXXXXX",
"XXXXXXt ` ) ) ) ) ) ( ( ) ) ) ( 6._.[.}.|. X X X|.[.(.(.{. X X X{.{.n.y XXXXXXXX",
"XXXXXX9 f f d s a s s a s s s i &._.H.b.|. X X X{..X{.{. X X X.X(.m.v.6 XXXXXXXX",
"XXXXXX. & & & & & & & & & & * $ ] (.G.b.|. X X|.{..X{.{. X X X|.H.c.q.. XXXXXXXX",
"XXXX. * w i w q 9 q q w a i q $ , 8.m.C.A.G.S.Z.A.Z.A.Z.S.S.A.C.C.x.S @ XXXXXXXX",
"XX. 5 a d d d w q w a a a 9 X < C V Z N C t.L.I.P.P.P.P.P.L.>.N D % q $ XXXXXXXX",
"XX& w d d a a a w a a a i 1 4 < v N C F F F t.~.^.^.^.^.^.p.F F N 1 & $ XXXXXXXX",
". 9 w a a a a a a a a a 0 a.K.1.b < 8 n Z Z O.!.^.~.^.^.!.#.N n 3 B - @ XXXXXXXX",
"X q w a a a a a a a a a u P./.g.S.C.Y 1 > 8 3.^.^.^.~.~.^.>.< ~ y.2.: . XXXXXXXX",
"X q q a a a a a a a a a 0 K.E.d..X.Xy.L 2.P g.!.B.3.O.>.L.p.2.'.N.5.% . XXXXXXXX",
". 9 q w d a a a a a a d 9 4.T.r.{.y.L y.U.E.K.E 0 9 w q u f.W.Y.,.9.% XXXXXXXXXX",
"XX& q q w a a d a a a a a 0 t.#.Y.Y.D.F.B.a.u 9 a a a a w B s.Y.U.7.. XXXXXXXXXX",
"XX. * q q w w w w i a s a w 0 4 4 7.7.T P 9 w a a a a a d w B #.&.= . XXXXXXXXXX",
"XXXX. & 9 q 9 q q w w i a a a w * @ $ 5 w a d d a a a a a a w & $ @ XXXXXXXXXXXX",
"XXXXXXXX. X X @ * 9 q w w w w i i i w i p i i i i a i i i i i w & . XXXXXXXXXXXX",
"XXXXXXXXXXXXXXXX  X $ & 5 5 5 5 5 5 q q q q q q q q q q 0 9 * @ XXXXXXXXXXXXXXXX",
"XXXXXXXXXXXXXXXXXXXXXXXXXX  . # 7 7 > % $ & @ = = % $ @ @ . XXXXXXXXXXXXXXXXXXXX",
"XXXXXXXXXXXXXXXXXXXXXXXXO c V c  .@.*.G 5 w 7 N D G o XXXXXXXXXXXXXXXXXXXXXXXXXX",
"XXXXXXXXXXXXXXXXXXXXXX. ,  .@.V  .;.;.| 0 a t D H  ., % 0 XXXXXXXXXXXXXXXXXXXXXX",
"XXXXXXXXXXXXXXXXXXXXq p p z  .Z c =.=.U 5 a 6 N H U c : w y @ XXXXXXXXXXXXXXXXXX",
"XXXXXXXXXXXXXXXXXXr g s a i z 8.x. .V , 5 q 5 < G U e.8.A s h XXXXXXXXXXXXXXXXXX",
"XXXXXXXXXXXXXXXX6 Q a a a i ! G.}.C.c c n n c b y.G.[.{.7.w k XXXXXXXXXXXXXXXXXX",
"XXXXXXXXXXXXXXXXr g d a a a j n.(.-.M J J H H D F b.H.w.u i g 0 XXXXXXXXXXXXXXXX",
"XXXXXXXXXXXXXX- j s d a a w 0 V J c c c D G G M , M F , , q s s & XXXXXXXXXXXXXX",
"XXXXXXXXXXXXXX* w q w a w 9 u  .X.+.+.H D  . .b H +.+.+.X.7 w a 9 XXXXXXXXXXXXXX",
"XXXXXXXXXXXX- j l j 9 9 6 M v  .@.Z | | c G D c H @.H D +.n e 0 * XXXXXXXXXXXXXX",
"XXXXXXXXXX* Q ` ` ` f $ D | c |  .M H H M J H c H ..H N ..m ) ( r XXXXXXXXXXXXXX",
"XXXXXXXXXXq s j I ] z > | | M  .X. . .| V | | c H .. .| ..n k f f * XXXXXXXXXXXX",
"XXXXXXXXXX* L g.R.R.B.C | | M  .*.@.@.| c D D c H @.@.@.+.K t.4.x & XXXXXXXXXXXX",
"XXXXXXXXXX4 k.^.~.Q.R.Y | | M  .@.@.@.| M | | c H @.@.@.X.#.~.~.i.2 XXXXXXXXXXXX",
"XXXXXXXXXXXXj.h.2.T Y v G  .v U | | | D N U | v D | | | H K g.T.l.XXXXXXXXXXXXXX",
"XXXXXXXXXXXXR Y +.+...D N @.H c u v c v D G D D c c v M 3 U  .T E XXXXXXXXXXXXXX",
"XXXXXXXXXXXXH *.@.U M 3 , H U U | | | .. . . . . .| | U c ..@.*.| , XXXXXXXXXXXX",
"XXXXXXXXXXXXU @.G c D , b M # > > > < 8 8 8 c 8 8 > = o : v D ..*.v XXXXXXXXXXXX",
"XXXXXXXXXXXXv V c U  .G c G # * w w w w w w w w i i i @ M  .D v D XXXXXXXXXXXXXX",
"XXXXXXXXXXXXXX3 | | U  .V ; v v 9 i w i i i i i a i p ] G H | J c O XXXXXXXXXXXX",
"XXXXXXXXXXXX, | U | H U | c 3 c $ a 9 9 w q w a i l M.{.c.v | J X.b XXXXXXXXXXXX",
"XXXXXXXXXXXXv U | G U U U b N  .3 9 * & * * q i { (.}.n.e.*.N | U M XXXXXXXXXXXX",
"XXXXXXXXXXXX: D H U H | G , c U 3 * X       * { _.(.w.S.).9., J G , XXXXXXXXXXXX",
"XXXXXXXXXXXXXX< D |  .D , , # = & * XXXXXXXX$ x.m.e.`.n.! i 5 v V o XXXXXXXXXXXX",
"XXXXXXXXXXXXXXXXc | D c ; # 5 p q X XXXXXXXXXX< 5.`.z.p s s i 7 < XXXXXXXXXXXXXX",
"XXXXXXXXXXXXXXXX+ c ; ; = w a i * XXXXXXXXXXXXXXZ 5.p i a i i = O XXXXXXXXXXXXXX",
"XXXXXXXXXXXXXXXXXXXX. & w a a w @ XXXXXXXXXXXXXXXX. w a a i w $ XXXXXXXXXXXXXXXX",
"XXXXXXXXXXXXXXXXXXXX@ i a a a a 9 XXXXXXXXXXXXXXXXXXa a a a i * XXXXXXXXXXXXXXXX",
"XXXXXXXXXXXXXXXXXXXX5 d a a a a i XXXXXXXXXXXXXXXXi a a a a a 9 XXXXXXXXXXXXXXXX",
"XXXXXXXXXXXXXXXXXXXX& w i i i i q X XXXXXXXXXXXXXX9 w w w q e 7 ; XXXXXXXXXXXXXX",
"XXXXXXXXXXXXXXXXXX: D Z m m m Z D < XXXXXXXXXXXX: D G F G J | X.M XXXXXXXXXXXXXX",
"XXXXXXXXXXXXXXXXXX< X.*.@.@.@.*.| 3 XXXXXXXXXXXX: G +.*.*.*.*.@.V XXXXXXXXXXXXXX",
"XXXXXXXXXXXXXXXXXX, X.*.@.@.@.@.| < XXXXXXXXXXXX: G X.@.@.@.@.+.V XXXXXXXXXXXXXX",
"XXXXXXXXXXXXXXXXXX: H ....X. .U D , XXXXXXXXXXXXXXv G H J J F M : XXXXXXXXXXXXXX",
"XXXXXXXXXXXXXXXXXXXXo c b M v v : XXXXXXXXXXXXXXXXO 3 c M Z G , XXXXXXXXXXXXXXXX",
"XXXXXXXXXXXXXXXXXXc c D +.X.X.G , XXXXXXXXXXXXXXXXo c | @.*.X.M v D G v XXXXXXXX",
"XXXXXXXXXXN X.-.;.*.+.U X.+. .U G ; XXXXXXXXXXXXXXD | ~  .X.X.@.*.-.;.*.U , XXXX",
"XXXXXXXXG ;.;.;.;.-.*.+.+.+.+.+.X.v XXXXXXXXXXXX; | *.@.@.X.@.@.=.<.<.<.<.+.< XX",
"XXXXXXM *.<.<.<.;.*.@.@.+.+.+.@.@.D XXXXXXXXXXXXc X.@.@.@.@.@.@.*.=.<.;.<.;.| o ",
"XXXXXXU *.=.-.=.*.@.@.@.+.X.@.@.*.U ; XXXXXXXXXXM +.@.@.@.X.@.@.+.*.=.=.=.@.+.c ",
"XXXX: | +.X.X.X.X... .| J J  . . .H ; XXXXXXXXXXM  . . .| G | |  ...X.X.X.X.X.b ",
"XXXXo M N M M M M v v v v v v c c c # XXXXXXXXXX< v c b c c c c c c c c c c c : "
};
