/* XPM */
static char *result[] = {
/* columns rows colors chars-per-pixel */
"40 76 198 2 ",
"   c #040104",
".  c #070108",
"X  c #0B020C",
"o  c #0C0C0C",
"O  c #070908",
"+  c #100A0B",
"@  c #0E100F",
"#  c #0F0310",
"$  c #0F0A11",
"%  c #120314",
"&  c #130A15",
"*  c #160318",
"=  c #1A041C",
"-  c #1B0B1D",
";  c #180D17",
":  c #0F1110",
">  c #121414",
",  c #1B141C",
"<  c #171919",
"1  c #1B1D1C",
"2  c #161618",
"3  c #221C1C",
"4  c #1C201F",
"5  c #1E0421",
"6  c #1F0B20",
"7  c #1F1522",
"8  c #1E1C21",
"9  c #230425",
"0  c #230C24",
"q  c #260529",
"w  c #2A052D",
"e  c #260E28",
"r  c #2A0C2C",
"t  c #231424",
"y  c #211D23",
"u  c #261029",
"i  c #29102C",
"p  c #281825",
"a  c #2E0531",
"s  c #2D0B30",
"d  c #320636",
"f  c #320B36",
"g  c #350A39",
"h  c #3A0D3E",
"j  c #340738",
"k  c #2F1131",
"l  c #331336",
"z  c #331D34",
"x  c #39143D",
"c  c #3B1C3D",
"v  c #37173A",
"b  c #34172B",
"n  c #1F2221",
"m  c #222524",
"M  c #242827",
"N  c #29242D",
"B  c #262B29",
"V  c #2A2D2C",
"C  c #2C2726",
"Z  c #332627",
"A  c #2B312E",
"S  c #3C372E",
"D  c #2D2B30",
"F  c #342537",
"G  c #2E3332",
"H  c #313534",
"J  c #323937",
"K  c #353C3A",
"L  c #393E3C",
"P  c #343738",
"I  c #473B39",
"U  c #593D3D",
"Y  c #3A413E",
"T  c #494439",
"R  c #514D3E",
"E  c #584B3F",
"W  c #5C503F",
"Q  c #554829",
"!  c #756336",
"~  c #3B0F40",
"^  c #3D1241",
"/  c #3F1942",
"(  c #3E2641",
")  c #421546",
"_  c #411A45",
"`  c #441748",
"'  c #4A1D4E",
"]  c #461D4A",
"[  c #4C1E50",
"{  c #422345",
"}  c #442F46",
"|  c #4B354E",
" . c #463448",
".. c #4D2051",
"X. c #502254",
"o. c #4F3651",
"O. c #523A54",
"+. c #503752",
"@. c #3D4542",
"#. c #3F4844",
"$. c #414946",
"%. c #444E4A",
"&. c #4B494C",
"*. c #5F4445",
"=. c #47514D",
"-. c #48524E",
";. c #5F5444",
":. c #58554C",
">. c #594A5A",
",. c #554456",
"<. c #4B5551",
"1. c #4F5955",
"2. c #515B57",
"3. c #545E5A",
"4. c gray35",
"5. c #5D535E",
"6. c #635B49",
"7. c #665C5B",
"8. c #725F53",
"9. c #654A4A",
"0. c #56605C",
"q. c #6D654F",
"w. c #746B53",
"e. c #7B6855",
"r. c #6D685C",
"t. c #635464",
"y. c #685D6A",
"u. c #735F75",
"i. c #6C6364",
"p. c #6D636E",
"a. c #686868",
"s. c #746F67",
"d. c #796666",
"f. c #737373",
"g. c #7B7B7B",
"h. c #7A7478",
"j. c #726873",
"k. c #897142",
"l. c #886E6E",
"z. c #9D8349",
"x. c #B89850",
"c. c #9B8D6C",
"v. c #9F916D",
"b. c #888275",
"n. c #9B8F71",
"m. c #A0916B",
"M. c #AB9B74",
"N. c #A89B77",
"B. c #B8A77E",
"V. c #CBA95A",
"C. c #817582",
"Z. c #848384",
"A. c #8B8B8B",
"S. c #9C9B9C",
"D. c #979597",
"F. c #978A8F",
"G. c #A69C99",
"H. c #BEAC81",
"J. c #A6A39D",
"K. c #A8A59F",
"L. c #A29FA2",
"P. c #A2A1A1",
"I. c #ADABA6",
"U. c #ACACAC",
"Y. c #A8A5A0",
"T. c #BDAFAF",
"R. c #B3B2B3",
"E. c #BCBCBC",
"W. c #C1AE83",
"Q. c #CAB889",
"!. c #C6B89B",
"~. c #C5BCBB",
"^. c #DEC382",
"/. c #DBC695",
"(. c #DFCA97",
"). c #D6C292",
"_. c #EBD39A",
"`. c #EBD398",
"'. c #DDCFAC",
"]. c #EDD7A1",
"[. c #F2DDA6",
"{. c #FDE5AC",
"}. c #FFE9AE",
"|. c #FFE6A2",
" X c #FFECB1",
".X c #C4C4C4",
"XX c #CDCCCC",
"oX c #D3D3D3",
"OX c gray86",
"+X c #D8D7D7",
"@X c #D0C9C9",
"#X c #E4E4E4",
"$X c #EAE6E6",
"%X c #E7E8E7",
"&X c #EBEBEB",
"*X c #F4F4F4",
"=X c #FDFDFD",
"-X c None",
/* pixels */
"-X-X-X-X-X-X-X-X-X-X-X-X-X-X-X-X-X-X-X-X-X-X-X-X-X-X-X-X-X-X-X-X-X-X-X-X-X-X-X-X",
"-X-X-X-X-X-X-X-X-X          . O # & - 0 u u u u - ; X -X-X-X-X-X-X-X-X-X-X-X-X-X",
"-X-X-X-X-X. # * = 5 9 q q q q q q 9 5 5 0 e f ^ ` ` ` z 0 X -X-X-X-X-X-X-X-X-X-X",
"-X-X-X-X# w a d d d d d j d j d d d d d s w 9 - 9 d h ) ' _ u X -X-X-X-X-X-X-X-X",
"-X-X-X-X* j d d d d d d d d d d d d d d d d f h u = a f g ` ' v & -X-X-X-X-X-X-X",
"-X-X-X-X% w d d d d d d d d d d d d d d d d d d h l = a d d ~ [ / ; -X-X-X-X-X-X",
"-X-X-X-X. 5 q w w a a a d d d d d d d d d d d d d ~ l 5 d d d ~ ..v X -X-X-X-X-X",
"-X-X-X-X-X% q q q q q w d d d d d d d d d d d d d d ) 0 w d d d ) ..u -X-X-X-X-X",
"-X-X-X-X-X. 9 q q q q q w d d d d d d d d d d d d d h v 5 d d d g ' ` % -X-X-X-X",
"-X-X-X-X-X-X= q q q q q w d d d d d d d d d d d d d d ) 9 a d d d ^ ..t -X-X-X-X",
"-X-X-X-X-X-X= 9 q q q q r d d d d d d d d d d d d d d ^ 0 w d d d g ' l -X-X-X-X",
"-X-X-X-X-X. 9 q q q q q a d d d d d d d d d d d d d d h i w d d d d ` _ X -X-X-X",
"-X-X-X-X-XX 9 q q q q a d d d d d d d d d d d d d d d h r q d d d d ^ ] * -X-X-X",
"-X-X-X-X-XX q q q q a d d d d d f a a a a a a a a a a j r q d a a a g ] - -X-X-X",
"-X-X-X-X-X. 5 = 9 9 w w w w w a a a ( y.j.y.p.y.y.t.t.t.t.,.>.,.,.O.| { 6 -X-X-X",
"-X-X-X-X% u u u u u e e e 0 0 0 9 p L.oXXX#X%X&X*X*X&X$X&X%X#X%X%X$XXXh.& -X-X-X",
"-X-X-X-X- ..X.X.........X.........+.E..Xy.XX&X=X=X=X=X&X=X&X%X=X=X$Xj.S.F X -X-X",
"-X-X-X-X6 ........................+.E.OXXX#X&X=X=X=X*X&X*X%X&X=X=X*XE.R.F # -X-X",
"-X-X-X-X- ' ....................' O..X#X%X%X*X=X#XoXoX%X%XXXXXOX=X=X*XR./ X -X-X",
"-X-X-X-X0 ........................O.'.OX%X%X*X=X=X#XE.R.R.E.OX=X=X*X&XR.F X -X-X",
"-X-X-X-X- ) ) ) ) ) ` ` ` ` ` ` / ,..XOX#X&X=X=X=X*X%XXX.X%X=X=X=X*X%XR.z X -X-X",
"-X-X-X-XX q q q q q q w w w w w a ( .X'.f.%X=X=X=X&X*X*X%X=X=X=X=XoXD.L.i . -X-X",
"-X-X-X-XX * = = = * * * * = * = * 8 U..XP.&X=X*X*X%X*X%X&X=X=X=X*XXXZ.Z.& -X-X-X",
"-X-X-X% w d j d w q q w d d d 5 $ 8 %.g.Z.A.S.Y.J.J.Y.J.Y.I.I.I.P.P.A.} % -X-X-X",
"-X-XX q d d d d s q a d d d = O 8 A G D Z V q.Q.(.(./././.).Q.q.V H < 9 * -X-X-X",
"-X-X= w d d d d d a d d d q Z I 8 8 M D H H G 6.].}.}.}.}.}.c.P H D 1 = * -X-X-X",
"-XX 9 w d d d d d d d d d 0 M._.v.L B 1 n V Z E ].}.}.{.}.[.6.V C 3 C ; % -X-X-X",
"-XX 9 w d d d d d d d d d 0 Q.{.N.XXoX7.3 4 < e.}.}.{.{.{.}.e.< L h.s.; X -X-X-X",
"-XX 9 q a d d d d d d d d 0 M.`.l.=X$Xd.*.b.;.M.].N.6.I E B.c.r.+XG.7.& . -X-X-X",
"-X. = q q d d d d d d d d q I Q.s.%Xl.U F.!.[.M.I = w a w t m.'.~.9.i.&   -X-X-X",
"-X-XX q q q a d d d d d d d 9 W :.D.@X~.J.M.q.3 q d j d d w b c.~.~.a.. -X-X-X-X",
"-X-X-X% 9 q q w w w a d d d d q ; o J L I Z 5 a d d d d d d w C :.:.- . -X-X-X-X",
"-X-X-X-XX * = = 5 q q q a a a d a 9 = * 9 a d d d d d d d d d w = % % -X-X-X-X-X",
"-X-X-X-X-X-X-X-X. % 5 9 q q q q w w a a w a a a a w d a a a d a w * . -X-X-X-X-X",
"-X-X-X-X-X-X-X-X-X-X. . # # % = = 5 5 9 9 9 9 q 9 9 q q 9 9 9 * # -X-X-X-X-X-X-X",
"-X-X-X-X-X-X-X-X-X-X-X-X-X: V B 2 m m 8 2 % % % ; ; & # X X O -X-X-X-X-X-X-X-X-X",
"-X-X-X-X-X-X-X-X-X-X-X-X  1 -.=.V $.3.1.P 9 a 7 G J K O -X-X-X-X-X-X-X-X-X-X-X-X",
"-X-X-X-X-X-X-X-X-X-X-X- 5 6 L @.m G 2.1.G q d 7 G Y Y 4 & -X-X-X-X-X-X-X-X-X-X-X",
"-X-X-X-X-X-X-X-X-X-Xr h f d a &.A.f.L G , q a - M J G H , w 6 -X-X-X-X-X-X-X-X-X",
"-X-X-X-X-X-X-X-X-Xe x d d d a u.+XOXf.< 1 8 , ; K a.A.XXP.N h 6 -X-X-X-X-X-X-X-X",
"-X-X-X-X-X-X-X-X-Xl g d d d a | R.I.G H Y Y Y J G Z.+X$XR.z g l -X-X-X-X-X-X-X-X",
"-X-X-X-X-X-X-X-X0 x g d d d w u G D 4 n M H H H M 4 a.4.1 = j x -X-X-X-X-X-X-X-X",
"-X-X-X-X-X-X-XX q w a d d w 9 H =.%.=.#.n @.#.J n J J H G 8 a g w -X-X-X-X-X-X-X",
"-X-X-X-X-X-X-X0 l k 9 q 9 0 , K -.@.G -.A G Y A B %.<.$.-.J 0 a d = -X-X-X-X-X-X",
"-X-X-X-X-X-Xs ' [ X.^ = 7 K M J #.J A #.B G J n B $.$.1 #.P = e q = -X-X-X-X-X-X",
"-X-X-X-X-X= g d c c ^ 5 B %.B K =.#.#.#.B @.#.G V @.#.J #.H c ' / - -X-X-X-X-X-X",
"-X-X-X-X-X% b e.B.W.c.S G #.B @.-.-.-.=.M G K n V -.%.%.%.G l ) ^ f % -X-X-X-X-X",
"-X-X-X-X-X-Xz.|. X}.}.r.K %.n @.-.-.<.#.B K @.n H %.=.=.<.H 6.q.I w % -X-X-X-X-X",
"-X-X-X-X-X-Xx.^.c.w.w.S J =.B J Y @.#.Y M @.#.B G =.-.-.-.T (. X`.k.+ -X-X-X-X-X",
"-X-X-X-X-X-XQ R #.%.@.A B =.@.n m n n n A H H V n M B A B T B.).|.V.-X-X-X-X-X-X",
"-X-X-X-X-X-XG <.<.=.J A 1 V J Y Y @.@.@.@.@.@.@.Y J H Y > H Y $.6.! -X-X-X-X-X-X",
"-X-X-X-X-X-XY <.@.n M : < @ $ - - , 8 m M V V A A A A B 1 Y =.-.=.H -X-X-X-X-X-X",
"-X-X-X-X-X-XM J n K #.B B Y & a a a w w q 9 9 9 5 q q # : 8 M Y =.=.1 -X-X-X-X-X",
"-X-X-X-X-X-X-X4 @.@.@.@.n 8 > ; w a a a d a a d d d a  .n G Y M B J -X-X-X-X-X-X",
"-X-X-X-X-X-X1 @.K @.J @.K > B n 5 a 9 q q q w d a / D.&XA.V @.#.J 1 -X-X-X-X-X-X",
"-X-X-X-X-X-XV @.@.K @.K @.B n n - w = * 5 9 q a | .X#XD.g.<.A @.Y $.4 -X-X-X-X-X",
"-X-X-X-X-X-X8 J @.J Y @.H n J #.1 5 X     . = +.XX.Xg.U.XXp.1 J Y Y M -X-X-X-X-X",
"-X-X-X-X-X-X-XB J @.@.J n : n n & * -X-X-X-XX Z.S.g.oXD.( a 5 m Y J 1 -X-X-X-X-X",
"-X-X-X-X-X-X-X> G @.J 4 @ > = 5 5 X -X-X-X-X-X8 5.oXC.s a d a , K A -X-X-X-X-X-X",
"-X-X-X-X-X-X-X-X8 B : < $ q f a = -X-X-X-X-X-X-XB 5.s d d a a t Y 4 -X-X-X-X-X-X",
"-X-X-X-X-X-X-X-X-X-X  # q d d w # -X-X-X-X-X-X-X-X. w d d a q 7 B o -X-X-X-X-X-X",
"-X-X-X-X-X-X-X-X-X-X% a j d d d 9 -X-X-X-X-X-X-X-X-Xd d d d d =   -X-X-X-X-X-X-X",
"-X-X-X-X-X-X-X-X-X-X5 d d d d d a -X-X-X-X-X-X-X-Xa d j g d d 9 -X-X-X-X-X-X-X-X",
"-X-X-X-X-X-X-X-X-X-X* a a a a a q X -X-X-X-X-X-X-X9 w w w q 0 7 : -X-X-X-X-X-X-X",
"-X-X-X-X-X-X-X-X-X> G V N N N D H 1 -X-X-X-X-X-X> G H P P L @.%.B -X-X-X-X-X-X-X",
"-X-X-X-X-X-X-X-X-X1 %.<.=.<.=.<.@.1 -X-X-X-X-X-X> P -.<.<.-.-.-.A -X-X-X-X-X-X-X",
"-X-X-X-X-X-X-X-X-X1 %.<.=.=.=.=.@.1 -X-X-X-X-X-X: H -.<.-.-.<.-.A -X-X-X-X-X-X-X",
"-X-X-X-X-X-X-X-X-X> K $.%.$.$.@.G < -X-X-X-X-X-X-XM G K Y K H M > -X-X-X-X-X-X-X",
"-X-X-X-X-X-X-X-X-X-XO n B M M n > -X-X-X-X-X-X-X-XO 1 n A A H 1 -X-X-X-X-X-X-X-X",
"-X-X-X-X-X-X-X-X-Xn n H %.%.%.J < -X-X-X-X-X-X-X-Xo n @.-.-.#.V M G H m -X-X-X-X",
"-X-X-X-X-XV %.1.3.<.-.K %.-.#.L H : -X-X-X-X-X-X-XV @.@.#.%.=.=.<.2.3.<.Y < -X-X",
"-X-X-X-XH 3.0.3.3.2.-.-.-.-.%.-.-.m -X-X-X-X-X-X: #.-.-.-.=.-.-.1.0.3.0.3.-.1 -X",
"-X-X-XM <.3.0.3.3.<.=.<.-.-.-.-.-.G -X-X-X-X-X-Xn %.-.-.-.-.-.-.<.1.0.0.0.3.@.o ",
"-X-X-XY <.1.2.2.<.=.=.=.-.%.-.-.<.L : -X-X-X-X-XB -.-.-.-.%.-.-.-.<.<.1.1.<.-.n ",
"-X-X> #.=.-.%.%.%.$.$.@.K L #.@.#.J > -X-X-X-X-XB #.#.#.@.J Y @.#.$.%.%.$.%.%.B ",
"-X-Xo B B B B B M M m m m m m m n n @ -X-X-X-X-X1 m n m n n n n n n n n n n n > "
};
