/* XPM */
static char *result[] = {
/* columns rows colors chars-per-pixel */
"40 76 193 2 ",
"   c #040105",
".  c #070008",
"X  c #0B020C",
"o  c #0B0C0C",
"O  c #0E100F",
"+  c #0F0210",
"@  c #120314",
"#  c #130B14",
"$  c #170319",
"%  c #1A041D",
"&  c #170A18",
"*  c #1A0B1C",
"=  c #180A16",
"-  c #0F1110",
";  c #131414",
":  c #171418",
">  c #1A131C",
",  c #171919",
"<  c #1B1D1C",
"1  c #161817",
"2  c #130D0B",
"3  c #1C201F",
"4  c #21211F",
"5  c #1E0420",
"6  c #1F0921",
"7  c #1F1521",
"8  c #1E1B20",
"9  c #220425",
"0  c #230C25",
"q  c #260529",
"w  c #2A052D",
"e  c #260D28",
"r  c #2B0C2E",
"t  c #251224",
"y  c #231C25",
"u  c #2B1B23",
"i  c #271029",
"p  c #2B122D",
"a  c #2C1829",
"s  c #2D0531",
"d  c #2D0A31",
"f  c #320636",
"g  c #360A3A",
"h  c #3A0D3E",
"j  c #320B36",
"k  c #2E1231",
"l  c #311334",
"z  c #361439",
"x  c #39143C",
"c  c #3B1B3D",
"v  c #371C2C",
"b  c #1E2221",
"n  c #222524",
"m  c #242827",
"M  c #29242D",
"N  c #262B29",
"B  c #2A2D2C",
"V  c #2B2424",
"C  c #322728",
"Z  c #2B312F",
"A  c #3A362D",
"S  c #2D2D30",
"D  c #3D2F31",
"F  c #2E3432",
"G  c #313534",
"H  c #323936",
"J  c #363D3A",
"K  c #393F3D",
"L  c #3A3939",
"P  c #40223E",
"I  c #453833",
"U  c #573F3F",
"Y  c #3A413E",
"T  c #534729",
"R  c #4C473B",
"E  c #48473A",
"W  c #544C3C",
"Q  c #52503E",
"!  c #3E1242",
"~  c #3E1D41",
"^  c #3C3F41",
"/  c #411545",
"(  c #421B46",
")  c #491D4D",
"_  c #441848",
"`  c #4D1F51",
"'  c #473648",
"]  c #4D2051",
"[  c #502154",
"{  c #4F3651",
"}  c #402643",
"|  c #3D4542",
" . c #3F4844",
".. c #474747",
"X. c #414A46",
"o. c #444E4A",
"O. c #4F4F4D",
"+. c #594E4E",
"@. c #47504D",
"#. c #48524E",
"$. c #5F5342",
"%. c #594C5A",
"&. c #4B5551",
"*. c #4F5955",
"=. c #515B57",
"-. c #545E5A",
";. c #5C595C",
":. c #5E535F",
">. c #65574A",
",. c #665957",
"<. c #765B5B",
"1. c #56605C",
"2. c #6A634E",
"3. c #6F6751",
"4. c #796E55",
"5. c #776B52",
"6. c #645665",
"7. c #665C67",
"8. c #646564",
"9. c #6B686B",
"0. c #73716D",
"q. c #756C76",
"w. c #716772",
"e. c #737373",
"r. c #7C7C7B",
"t. c #7C747D",
"y. c #786161",
"u. c #8C743F",
"i. c #88775E",
"p. c #836E6E",
"a. c #B1934F",
"s. c #92876B",
"d. c #998A6A",
"f. c #968867",
"g. c #9E947B",
"h. c #A1936F",
"j. c #AA9973",
"k. c #B5A47B",
"l. c #D9BE7F",
"z. c #806F82",
"x. c #827C83",
"c. c #827683",
"v. c #858285",
"b. c #8D8C8D",
"n. c #89848A",
"m. c #948E87",
"M. c #9F998E",
"N. c #9A9484",
"B. c #8F8890",
"V. c #948D95",
"C. c #9B9B9B",
"Z. c #979596",
"A. c #A19B8D",
"S. c #A49E96",
"D. c #BFAD82",
"F. c #A4A4A4",
"G. c #ADADAD",
"H. c #B0A0A1",
"J. c #B2B2B2",
"K. c #BBBBBA",
"L. c #BAB4B4",
"P. c #C6B386",
"I. c #CBB88A",
"U. c #D3BF8F",
"Y. c #C3BDBC",
"T. c #D9C697",
"R. c #EBD49F",
"E. c #E6D19C",
"W. c #F0D38E",
"Q. c #DCD1B6",
"!. c #EDD7A1",
"~. c #EFD9A2",
"^. c #F1DAA3",
"/. c #FDE6AB",
"(. c #FFE8AE",
"). c #FBE4A6",
"_. c #FFEDB1",
"`. c #FFF0B4",
"'. c #C2C2C2",
"]. c #CCCBCC",
"[. c #CAC3C3",
"{. c #CFD0CF",
"}. c #D3D3D3",
"|. c #DCDCDC",
" X c #E4DEDF",
".X c gray90",
"XX c #E7E7E8",
"oX c #ECECEC",
"OX c #E7E8E7",
"+X c #F4F4F4",
"@X c #FDFDFD",
"#X c #F8F5F5",
"$X c None",
/* pixels */
"$X$X$X$X$X$X$X$X$X$X$X$X$X$X$X$X$X$X. .   $X$X$X$X$X$X$X$X$X$X$X$X$X$X$X$X$X$X$X",
"$X$X$X$X$X$X$X$X    . . . . X o + $ 6 i a l l k i * # $X$X$X$X$X$X$X$X$X$X$X$X$X",
"$X$X$X$X$X@ $ % 5 q q w d w w w q q 5 6 6 0 d g / ( ( x i + $X$X$X$X$X$X$X$X$X$X",
"$X$X$X$X$ d f f f f f f f f f f f g g f d d e 5 q f h ! ) ( i X $X$X$X$X$X$X$X$X",
"$X$X$X$X9 f f f f f f f f f f f f f f f f f g g r 5 s f g / ` x @ $X$X$X$X$X$X$X",
"$X$X$X$X$ s f f f f f f f f f f f f f f f f f f ! k 5 s f f ! ] c # $X$X$X$X$X$X",
"$X$X$X$XX 9 w w w w s f f f f f f f f f f f f f s ! d 9 f f f ! ] z . $X$X$X$X$X",
"$X$X$X$X$X$ q q q q q w f f f f f f f f f f f f f f ( 6 s f f f ( ) t $X$X$X$X$X",
"$X$X$X$X$XX q q q q q q d f f f f f f f f f f f f f ! k 9 f f f g ] c X $X$X$X$X",
"$X$X$X$X$X. 5 q q q q q s f f f f f f f f f f f f f f ~ 5 f f f f / ) & $X$X$X$X",
"$X$X$X$X$X. 5 q q q q q s f f f f f f f f f f f f f f ! 6 s f f f h ] i $X$X$X$X",
"$X$X$X$X$XX q q q q q q s f f f f f f f f f f f f f f ! 0 s f f f f ) x $X$X$X$X",
"$X$X$X$X$X@ q q q q w s f f f f f f f f f f f f f f f ! 6 s f f f f / ~ X $X$X$X",
"$X$X$X$X$X$ q q q w f g f g f f f f s s s s s s s s s g 6 w s s s w ! ( @ $X$X$X",
"$X$X$X$X$X@ % % % 9 q q q q w w w r %.v.b.v.v.x.x.x.t.c.t.q.q.q.w.w.:.~ # $X$X$X",
"$X$X$X$X* k k k p k p p r p p e 0 ' '.].'.oXoX@X#X@X#XoX#XoXoX#X#XOX'.7.X $X$X$X",
"$X$X$X$Xp [ [ [ ] [ [ [ [ [ [ [ ) 6.}.G.q.|.oX@X@X@X+XoX@XXXoX@X@X'.0.b.p $X$X$X",
"$X$X$X$Xp ] ] ] ] ] ] ] ] ] ] ] ) 6.{. X|..X+X#X+X@XoX#X+X.XoX+X@X+X{.V.p $X$X$X",
"$X$X$X$Xp ] ] ] ] ] ] ] ] ] ] ] ) 7.{. X.XoX@X#X|.].]..X}.'.].OX@X#XoXV.p $X$X$X",
"$X$X$X$Xp ] ] ] ] ] ] ) ] ] ] ] ) 7.{.XX.XoX@X@X@X|.K.J.J.].oX@X@XoXoXV.p $X$X$X",
"$X$X$X$Xq ! ! ! / / / / / / / / ! 7.{.|.|.+X@X@X@XoXoX}.}.#X@X@X@XOX.XB.e $X$X$X",
"$X$X$X$X$ 0 9 9 9 9 9 9 9 q q q 9 ;.}.F.r.#X@X@X#XoX@XoXoX@X@X@X@XJ.v.x.% $X$X$X",
"$X$X$X  + 9 9 % % $ $ $ % 5 5 % @ S K.K.K.oX+X+XXX.XoX.XoX+X+X#XoX'.C.;.X $X$X$X",
"$X$X. $ s f f f w q w f f f s $ # V ..9.9.0.N.M.M.M.M.M.M.M.S.m.r.v.7.l X $X$X$X",
"$X$X@ w f f f f s q f f f f + 2 n S G S S C 4.T.~.~.~.R.R.R.P.R Z B # 9 + $X$X$X",
"$XX 9 w f f f f f f f f f 9 W R n < n C G G Z 3.)./.(./.(.^.>.G G N ; % X $X$X$X",
"$X+ q s f f f f f f f f f u T.^.f.O.G < 4 V B 5././.(.(.(.E.R N < B I & X $X$X$X",
"$X@ q w f f f f f f f f s C E.R.g.oX|.+.V 4 1 h._._.~.T.^.^.O.8 9.N.,.X X $X$X$X",
"$X+ q q s f f f f f f f f t P.P.Z.#X[.U 5.N.4.T.I.5.D a I j.f.M..Xp.+.X $X$X$X$X",
"$X. 5 q q f f f f f f f f 9 $.k.r. X<.<.H.U.E.4.a 9 s f q a j.Q.H.,.,.X $X$X$X$X",
"$X$X@ q q q s f f f f f f f 9 W I Z.[.L.m.d.I 9 s f f f f s C s.Y.L.L . $X$X$X$X",
"$X$X$X@ q q q q q q s f f f f q = o n V C 0 q f f f f f f f q u I S @ . $X$X$X$X",
"$X$X$X$XX $ $ $ 5 q q q w w s s s q 5 9 w s f f f f f f f f f w % $ X $X$X$X$X$X",
"$X$X$X$X$X$X$X$X. @ % 9 q q w w w w w w s w s w s w s w s s s w 9 + $X$X$X$X$X$X",
"$X$X$X$X$X$X$X$X$X$X$X. X + + $ % % % 5 5 5 9 9 9 9 9 9 5 9 % @ X $X$X$X$X$X$X$X",
"$X$X$X$X$X$X$X$X$X$X$X$X  ; B B 8 B F M : @ $ # : : : . . . $X$X$X$X$X$X$X$X$X$X",
"$X$X$X$X$X$X$X$X$X$X$X$X  N &. .Z #.-.*.S w s n F Y F . $X$X$X$X$X$X$X$X$X$X$X$X",
"$X$X$X$X$X$X$X$X$X$X$X0 5 0 ^ | b H =.*.M w s 8 G  .H 3 & * $X$X$X$X$X$X$X$X$X$X",
"$X$X$X$X$X$X$X$X$X$Xk g f f s O.b.8.J Z * q s & m F H Y 7 d 0 $X$X$X$X$X$X$X$X$X",
"$X$X$X$X$X$X$X$X$Xp h f f f s z.|.|.;., 8 8 < ; ..r.F.|.F.a x 0 $X$X$X$X$X$X$X$X",
"$X$X$X$X$X$X$X$X$Xx f f f f s %.K.C.Z H Y Y Y H Z b.|.|.V.0 g l $X$X$X$X$X$X$X$X",
"$X$X$X$X$X$X$X$Xi g f f f f s y H B 3 b m H H F b 3 1.E # 5 f z $X$X$X$X$X$X$X$X",
"$X$X$X$X$X$X$X@ w w s f s w 0 H @.@.@. .m Y | H m Y Y Y J y w g w $X$X$X$X$X$X$X",
"$X$X$X$X$X$X$Xe x k 0 9 9 t 8 J #.Y Z @.m H Y m N o.@.| #.H 9 s s % $X$X$X$X$X$X",
"$X$X$X$X$X+ l ) ` ` ! $ 7 | m H  .H Z  .m H H b B o.| , o.F 0 p 0 $ $X$X$X$X$X$X",
"$X$X$X$X$X% g f ! D ! 6 B @.m | @. .| | m  . .Z Z | | Y  .S ~ ] ( 9 $X$X$X$X$X$X",
"$X$X$X$X$X$ v i.D.I.j.G H  .b | #.#.#.o.m F H b F #.#.o.#.S z x f s + $X$X$X$X$X",
"$X$X$X$X$Xo a.)._./.).2.Y  .m | #.#.#.o.m J | b F o.#.#.#.H i.s.>.i X $X$X$X$X$X",
"$X$X$X$X$X$Xa.T.f.3.2.Z H @.N F Y |  .J N |  .N F o.#.#.#.E R.`.).u.$X$X$X$X$X$X",
"$X$X$X$X$X$XT Q | E  .Z N #.Y m b n b b Z H H B b n m N b A d.k.l.a.$X$X$X$X$X$X",
"$X$X$X$X$X$XF &.&.o.H m , Z Y Y | | | | |  .| | J J J | 1 J |  .W T $X$X$X$X$X$X",
"$X$X$X$X$X$XY &.Y n m ; < ; # # * > 8 n n N N B B B m b , Y o.#.&.L $X$X$X$X$X$X",
"$X$X$X$X$X$Xm H 3 J o.Z m Y # w s w w w q q 9 9 9 w 9 X o 8 m H @.X.$X$X$X$X$X$X",
"$X$X$X$X$X$X$X< | | Y | n , 1 > w s s s s s f f f f s ' N Y | B m N $X$X$X$X$X$X",
"$X$X$X$X$X$X< | Y | J Y J ; m m 5 s q q q q w f s c V.oXb.m J X.J 3 $X$X$X$X$X$X",
"$X$X$X$X$X$XN | Y J Y J Y m m N & w % $ % 9 q s { '.XXC.r.O.F | Y X.3 $X$X$X$X$X",
"$X$X$X$X$X$X< H Y J Y | H 3 H o.8 % X     . % { ].'.t.G.].9.< H | J 3 $X$X$X$X$X",
"$X$X$X$X$X$X$XN H | Y H 3 1 ; < # $ $X$X$X$XX n.C.r.}.C.~ s 5 m Y G - $X$X$X$X$X",
"$X$X$X$X$X$X$Xo F | H 3 o ; % 9 9 X $X$X$X$X$X< ;.{.c.d s f s 7 G n $X$X$X$X$X$X",
"$X$X$X$X$X$X$X$X, N ; ; & q f s % $X$X$X$X$X$X$XM :.d f f s s t H 1 $X$X$X$X$X$X",
"$X$X$X$X$X$X$X$X$X$X  + q f f s + $X$X$X$X$X$X$X$XX w f f d q > 3 $X$X$X$X$X$X$X",
"$X$X$X$X$X$X$X$X$X$X@ s f f f d 9 $X$X$X$X$X$X$X$X$Xs f f f f $ $X$X$X$X$X$X$X$X",
"$X$X$X$X$X$X$X$X$X$X5 f f f f f d $X$X$X$X$X$X$X$Xs f f f f f 9 $X$X$X$X$X$X$X$X",
"$X$X$X$X$X$X$X$X$X$X% s s s s s q + $X$X$X$X$X$X$X9 w w w q q 7 - $X$X$X$X$X$X$X",
"$X$X$X$X$X$X$X$X$X; F B M M M S G < $X$X$X$X$X$X; F G G H J  .o.N $X$X$X$X$X$X$X",
"$X$X$X$X$X$X$X$X$X, o.&.#.&.#.&.| < $X$X$X$X$X$X; H #.&.&.&.&.&.Z $X$X$X$X$X$X$X",
"$X$X$X$X$X$X$X$X$X< o.#.#.#.#.#.| < $X$X$X$X$X$X; G #.&.&.&.o.&.Z $X$X$X$X$X$X$X",
"$X$X$X$X$X$X$X$X$X; J X.X.X.X.Y F 1 $X$X$X$X$X$X$Xn F J J J G m ; $X$X$X$X$X$X$X",
"$X$X$X$X$X$X$X$X$X$Xo b m N n n ; $X$X$X$X$X$X$X$X. , n B F F , $X$X$X$X$X$X$X$X",
"$X$X$X$X$X$X$X$X$Xn b F o.o.o.J , $X$X$X$X$X$X$X$Xo m | #.#.o.B m Z H n $X$X$X$X",
"$X$X$X$X$XB o.*.=.&.#.J o.#.X.J G O $X$X$X$X$X$X$XB | ^ X.X.o.o.&.=.=.*.Y < $X$X",
"$X$X$X$XG -.1.-.-.=.#.#.#.#.o.#.#.n $X$X$X$X$X$X; | &.#.#.#.#.&.*.1.-.1.1.@.< $X",
"$X$X$Xm &.1.1.-.-.&.#.#.#.#.#.o.#.F $X$X$X$X$X$X3 @.#.#.#.#.#.#.#.=.1.1.-.=.Y o ",
"$X$X$XY &.*.=.*.&.#.#.#.#.#.#.#.#.Y O $X$X$X$X$XN @.#.#.#.@.#.#.#.#.*.*.*.&.#.b ",
"$X$X;  .#.o.o.o.o.X.X.| J J  .|  .J ; $X$X$X$X$XN | |  .| J Y | X.X.o.o.o.o.o.m ",
"$X$Xo N B N N N m n n n n n n n b b o $X$X$X$X$X< m m b b b b 3 b b b b b b b ; "
};
