/* XPM */
static char *result[] = {
/* columns rows colors chars-per-pixel */
"40 76 195 2 ",
"   c #040104",
".  c #070308",
"X  c #0B020C",
"o  c #0B0B0B",
"O  c #0E100F",
"+  c #0F0310",
"@  c #0F0C10",
"#  c #120414",
"$  c #140B14",
"%  c #170418",
"&  c #1A041C",
"*  c #1B0A1D",
"=  c #160F18",
"-  c #0F1110",
";  c #121414",
":  c #161817",
">  c #171319",
",  c #1B131C",
"<  c #161918",
"1  c #1A1D1C",
"2  c #1B1015",
"3  c #1C150E",
"4  c #2E1C1C",
"5  c #1C201E",
"6  c #21211B",
"7  c #1F0421",
"8  c #1F0A21",
"9  c #1E1C21",
"0  c #1F1422",
"q  c #220424",
"w  c #220B24",
"e  c #260529",
"r  c #29052D",
"t  c #260E29",
"y  c #2A0C2C",
"u  c #211324",
"i  c #221C25",
"p  c #2B1A24",
"a  c #2A112C",
"s  c #29182A",
"d  c #2E0531",
"f  c #2E0C31",
"g  c #320636",
"h  c #330C36",
"j  c #350939",
"k  c #3A0D3E",
"l  c #340738",
"z  c #2D1330",
"x  c #2C1930",
"c  c #331336",
"v  c #361439",
"b  c #39143D",
"n  c #361939",
"m  c #3A193D",
"M  c #321934",
"N  c #1F2221",
"B  c #222524",
"V  c #242826",
"C  c #2B2A25",
"Z  c #262428",
"A  c #29252D",
"S  c #262B29",
"D  c #2A2D2C",
"F  c #342828",
"G  c #2B312E",
"H  c #33322F",
"J  c #3C332E",
"K  c #2D2B30",
"L  c #372E36",
"P  c #2E3432",
"I  c #313534",
"U  c #323937",
"Y  c #353C3A",
"T  c #393E3C",
"R  c #39343B",
"E  c #442E2E",
"W  c #42382E",
"Q  c #40243A",
"!  c #432837",
"~  c #463635",
"^  c #523535",
"/  c #39413E",
"(  c #49493C",
")  c #464438",
"_  c #514629",
"`  c #705C2F",
"'  c #796433",
"]  c #3E1242",
"[  c #3D1A40",
"{  c #421546",
"}  c #421A46",
"|  c #461C4A",
" . c #4A1D4E",
".. c #4C1F50",
"X. c #462449",
"o. c #402643",
"O. c #49354B",
"+. c #4E2052",
"@. c #502154",
"#. c #4F3651",
"$. c #523D53",
"%. c #3D4542",
"&. c #3F4845",
"*. c #424141",
"=. c #414946",
"-. c #444D4A",
";. c #4D4C4C",
":. c #4A4442",
">. c #47514D",
",. c #48524E",
"<. c #595645",
"1. c #4E4050",
"2. c #4B5551",
"3. c #4F5955",
"4. c #515B57",
"5. c #545E5A",
"6. c #5A595A",
"7. c #525453",
"8. c #574259",
"9. c #654E4E",
"0. c #635645",
"q. c #56605C",
"w. c #676259",
"e. c #746750",
"r. c #736B54",
"t. c #7C6F55",
"y. c #7F745A",
"u. c #5F5460",
"i. c #696769",
"p. c #756A77",
"a. c #757574",
"s. c #7C7C7C",
"d. c #796C64",
"f. c #82785D",
"g. c #897B5D",
"h. c #877E7B",
"j. c #847166",
"k. c #9E865C",
"l. c #B39757",
"z. c #86806F",
"x. c #9B8C6A",
"c. c #958B74",
"v. c #A39573",
"b. c #A99B7A",
"n. c #B1A17A",
"m. c #C1A155",
"M. c #CBB37A",
"N. c #837A83",
"B. c #868386",
"V. c gray55",
"C. c #9B8A8A",
"Z. c #939393",
"A. c #9B9B9B",
"S. c #9C939D",
"D. c #948C95",
"F. c #AB9F82",
"G. c #A69793",
"H. c #ADA183",
"J. c #BEAE84",
"K. c #AEA594",
"L. c #A3A2A3",
"P. c #ABAAAA",
"I. c #B0AEB0",
"U. c #B4B4B4",
"Y. c #BCBBBC",
"T. c #BAB7BA",
"R. c #B8ABAC",
"E. c #C6B488",
"W. c #D0BD8E",
"Q. c #C1BDBD",
"!. c #D8C492",
"~. c #E1CC98",
"^. c #E6D19C",
"/. c #EAD49E",
"(. c #FDDA85",
"). c #CEC7BC",
"_. c #EFD8A1",
"`. c #F0D9A3",
"'. c #FEE6AC",
"]. c #FFEAAE",
"[. c #F7E0A7",
"{. c #FFECB1",
"}. c #C4C3C3",
"|. c #CBCBCC",
" X c #CFC4C4",
".X c #D4D4D4",
"XX c #DBDBDB",
"oX c #DFDBD4",
"OX c #D1C6C6",
"+X c #E4E4E4",
"@X c gray92",
"#X c #E7E8E7",
"$X c #F3F3F3",
"%X c #FDFDFD",
"&X c None",
/* pixels */
"&X&X&X&X&X&X&X&X&X&X&X&X      . X $ # $ $ X X . &X&X&X&X&X&X&X&X&X&X&X&X&X&X&X&X",
"&X&X&X&X&X&X    . . X X X # # $ % * w a c b [ b c a 8 X &X&X&X&X&X&X&X&X&X&X&X&X",
"&X&X&X&X# & q e r d g g g d d g d r e q 8 * t j ] { | } z $ &X&X&X&X&X&X&X&X&X&X",
"&X&X&X+ d g l g l g g g g g g g g g l l j g y * e g j [  .| a . &X&X&X&X&X&X&X&X",
"&X&X&X# d g g g g g g g g g g g g g g g g g l b t 7 g g j { +.c X &X&X&X&X&X&X&X",
"&X&X&X. q d g g g g g g g g g g g g g g g g g l ] y q g g l { +.n . &X&X&X&X&X&X",
"&X&X&X&X% e e r e e d g g g g g g g l g g g g g g [ w r g g g { +.u &X&X&X&X&X&X",
"&X&X&X&XX q e e e e e r g g g g g g g g g g g g g k b 7 g g g j  .} # &X&X&X&X&X",
"&X&X&X&X&X& e e e e e y g g g g g g g g g g g g d l ] w d g g g ] ..t &X&X&X&X&X",
"&X&X&X&X&X# e e e e e e g g g g g g g g g g g g l l ] y e l g g l ..m . &X&X&X&X",
"&X&X&X&X&X% e e e e e e g g g g g g g g g g g g l g k c q l g g g { | # &X&X&X&X",
"&X&X&X&X&X& r e e e e g g g g g g g g g g g g g g g j c q g g g g k +.* &X&X&X&X",
"&X&X&X&X. 7 e e e e d g g g g g l g g g g g g g g l l c q g g g g j  .t &X&X&X&X",
"&X&X&X&X. q e e e d g g g g l l l d c n n n c n c c n m a c c c c c } a &X&X&X&X",
"&X&X&X&X. % % % & q 7 q 7 q q 7 7 1.L.Y.Y.Y.T.Y.Y.Y.T.T.U.U.U.U.U.P.p.w &X&X&X&X",
"&X&X&XX n [ [ [ m m m m b n m m n Z.XXZ.}.@X%X%X%X%X@X%X$X@X%X%X%XP.P.R # &X&X&X",
"&X&X&X+ X.@.+.@.+.+.+.@.+.@.+.+.X.L.XXV.Q.@X$X%X%X%X@X$X@X#X%X%X%XZ.P.8.* &X&X&X",
"&X&X&X# } +.+.+.+.+.+.+.+.+.+.+.X.L.XX#X#X@X%X@X@X@X@X%X+X+X+X$X%X$X.X1.% &X&X&X",
"&X&X&Xo } +.+.+...+.....+.+.+.+.X.L.XX#X#X$X%X$X.XY.}.|.T.Y.+X%X%X@X.X8.% &X&X&X",
"&X&X&X# } ..+. ......... .+. .+.X.L.XX@X#X%X%X%X%XXXQ.U.}.$X%X%X$X#X.X$.% &X&X&X",
"&X&X&XX h k k k k k k ] k k k ] m L.XXY.XX%X%X%X$X@X$XXX@X%X%X%X$X|.}.O.# &X&X&X",
"&X&X&X  % & & & & & & & & 7 & & u A..Xi.Y.%X%X%X@X$X$X@X%X%X%X%X+Xi.A.R . &X&X&X",
"&X&X&XX q e e q 7 7 7 q e r e & X 6.U.T.|..X.X.X|..X|.|..XXXXXXX.XY.N.*   &X&X&X",
"&X&X# e g g g g e e d g g g & @ V G T =.~ w.F.H.F.F.F.F.F.F.c.;.:./ t q &X&X&X&X",
"&XX q g g g g g r d g g g 7 X < V H I H H I f.~.].'.].'.]./.r.H I V % 7 &X&X&X&X",
"&X% e d g g g g g g g g d J x.0.6 , i C H I C n.].].'.'.].b.G H C , $ % &X&X&X&X",
"&X& e g g g g g g g g l q e.{.^.z.N.) 1 , V H W.{.].{.].{.n.C 5 I w.J + &X&X&X&X",
"  & e d g g g g g g g g e e.].b.}.%X}.E ( C ) /.`.W.b.v.!.E.C a.Q.h.C X &X&X&X&X",
"&X& e r g g g g g g g g r W ^.f..XOXd.^ G.E.E.E.9.p q 7 F x.J.oXG.9.L   &X&X&X&X",
"&X+ q e r g g g g g g g g q t.f.L. Xj.R.K.~.g.p e g g l d p b.).C.C.Z   &X&X&X&X",
"&X&X% e e r d g g g g g g g w W D B.L.h.r.^ & d l g g g g r F d.P.u.# &X&X&X&X&X",
"&X&X  % q q e e e e r g g g g e # X @ 2 w r g g g g g g g l r * $ # X &X&X&X&X&X",
"&X&X&X&X. # # % 7 q e e r r r d d d e d d g g g g g g g g g g r q # &X&X&X&X&X&X",
"&X&X&X&X&X&X&X&X  # % & q q e e e e e r r r e e e r e r r e e q # &X&X&X&X&X&X&X",
"&X&X&X&X&X&X&X&X&X&X&X&X  . . # % % % % % & & & & & % & % % X . &X&X&X&X&X&X&X&X",
"&X&X&X&X&X&X&X&X&X&X&X&X. 1 G B U %.&.U = 7 & 1 N S ;   &X&X&X&X&X&X&X&X&X&X&X&X",
"&X&X&X&X&X&X&X&X&X&X&X&Xo T 2.U U 3.q.,.i g t D U =.B . &X&X&X&X&X&X&X&X&X&X&X&X",
"&X&X&X&X&X&X&X&X&X&X* y q x %.Y 5 &.4.>.u g e Z U =.S 1 q t &X&X&X&X&X&X&X&X&X&X",
"&X&X&X&X&X&X&X&X&X* k g l g M u.V.2.U N & r e = D U ;.7.x f a &X&X&X&X&X&X&X&X&X",
"&X&X&X&X&X&X&X&X&Xc j g g l h S.#X}.Y 5 N 9 9 < i.A.|.@XZ.w ] 8 &X&X&X&X&X&X&X&X",
"&X&X&X&X&X&X&X&X* b g g g g r p.}.s.V Y T T / P P Z..XU.;.e k t &X&X&X&X&X&X&X&X",
"&X&X&X&X&X&X&X&Xc k g g g g q Z Y B B 1 D U U P N N -.9 @ e l c % &X&X&X&X&X&X&X",
"&X&X&X&X&X&X&X% e e r g r e u / -.-.,.%.S &.&.D G &.&.&.%.i d l t &X&X&X&X&X&X&X",
"&X&X&X&X&X&X% a m c q 7 q i 5 %.,.U Y -.V U U N P ,.&.U >.D 7 e e &X&X&X&X&X&X&X",
"&X&X&X&X&X% v  .@.@.k % V %.V / -.G U &.B U T N P -.%.9 -.K [ [ t &X&X&X&X&X&X&X",
"&X&X&X&X&X7 j h Q Q m * U &.V / =.%.&.%.S &.&.V U &.%.%.&.A ]  .] 7 &X&X&X&X&X&X",
"&X&X&X&X&X% E x.W.!.n.H / &.V %.,.,.,.&.N U P N U >.>.>.>.D ~ Q r q &X&X&X&X&X&X",
"&X&X&X&X&X3 l.'.].[._.<./ &.V &.2.,.,.&.S / / N U >.>.>.>.( !.!.k.4 &X&X&X&X&X&X",
"&X&X&X&X&X&Xm.M.y.<.<.V U >.V U %.%.%.P S %.%.B P =.-.-.&.( ~.'.(.' &X&X&X&X&X&X",
"&X&X&X&X&X&X_ ( -.,.&.G S ,./ N N B N V P U U G N N N B < G <.r.l.` &X&X&X&X&X&X",
"&X&X&X&X&X&XU 2.,.&.P N 1 P / / / %.%.%.%.&.%.&.%.%.%.%.N -.>.-./ 6 &X&X&X&X&X&X",
"&X&X&X&X&X&X/ ,.T N D : N 9 @ = * , 9 i B B B B B 9 9 ; - S / >.2.U &X&X&X&X&X&X",
"&X&X&X&X&X&XB I N / &.U N %.@ e d r r r r r r e e r e X : U S S &.P &X&X&X&X&X&X",
"&X&X&X&X&X&X&X1 %.%./ &.S - N 9 e d d d r d d g g g r O.I %.&.U B o &X&X&X&X&X&X",
"&X&X&X&X&X&X1 =./ %.U / %.< N N % d e e r e r g d m D.@XV.N %.%.%.V &X&X&X&X&X&X",
"&X&X&X&X&X&XV / %.U %.U / S S U , e & % & & e d #.}.#XS.s.;.P Y &.Y ; &X&X&X&X&X",
"&X&X&X&X&X&X< U / U / %.U 1 S &.N % X       7 #.|.}.a.P.|.i.< Y T G &X&X&X&X&X&X",
"&X&X&X&X&X&X&XN U %.%.U 1 : @ < % % &X&X&X&XX B.A.s..XS.o.d 7 V U N &X&X&X&X&X&X",
"&X&X&X&X&X&X&X&XD %.U N @ = 7 r q + &X&X&X&X&X1 6..XN.d g g d , P - &X&X&X&X&X&X",
"&X&X&X&X&X&X&X&X- N - - $ e g d & &X&X&X&X&X&X&XD u.d g g d d u N &X&X&X&X&X&X&X",
"&X&X&X&X&X&X&X&X&X&X  # e g g r + &X&X&X&X&X&X&X&X. r l g d e # &X&X&X&X&X&X&X&X",
"&X&X&X&X&X&X&X&X&X&X# d g g g g q &X&X&X&X&X&X&X&X&Xg l g g g & &X&X&X&X&X&X&X&X",
"&X&X&X&X&X&X&X&X&X&X7 g g g g g d &X&X&X&X&X&X&X&Xd g l g g g q &X&X&X&X&X&X&X&X",
"&X&X&X&X&X&X&X&X&X&X& r d d d d e X &X&X&X&X&X&X&Xq r r r e t 0 - &X&X&X&X&X&X&X",
"&X&X&X&X&X&X&X&X&X: D K A A A D I 1 &X&X&X&X&X&X: G U I U Y %.-.S &X&X&X&X&X&X&X",
"&X&X&X&X&X&X&X&X&X1 -.2.2.,.,.2.%.1 &X&X&X&X&X&X; U >.2.2.2.,.2.D &X&X&X&X&X&X&X",
"&X&X&X&X&X&X&X&X&X1 -.2.>.>.>.2.%.1 &X&X&X&X&X&X; U -.,.,.2.,.,.D &X&X&X&X&X&X&X",
"&X&X&X&X&X&X&X&X&X; Y &.=.-.&./ P < &X&X&X&X&X&X&XB U Y T Y U Z : &X&X&X&X&X&X&X",
"&X&X&X&X&X&X&X&X&X&Xo N V V V B : &X&X&X&X&X&X&X&X. 1 V D P U < &X&X&X&X&X&X&X&X",
"&X&X&X&X&X&X&X&X&XB N P >.-.-.U < &X&X&X&X&X&X&X&Xo B %.>.>.-.D V P U B &X&X&X&X",
"&X&X&X&X&XD -.3.3.2.>./ -.>.=.T U - &X&X&X&X&X&X&XD %./ &.-.-.-.2.4.4.3./ 1 &X&X",
"&X&X&X&XU 5.q.5.5.5.2.>.>.>.>.>.-.B &X&X&X&X&X&X; %.2.>.>.>.2.>.3.5.q.q.q.>.1 &X",
"&X&X&XV 3.5.5.q.5.2.,.,.>.>.>.,.,.P &X&X&X&X&X&XN -.,.,.>.,.>.,.2.4.5.5.q.4./ o ",
"&X&X&X/ 2.3.4.3.2.>.,.>.>.>.,.,.2.T - &X&X&X&X&XS >.,.>.>.>.,.,.,.,.3.3.3.,.>.N ",
"&X&X; =.>.-.-.-.-.=.=.%./ Y &.&.&.U : &X&X&X&X&XS &.&.&.%.U %.%.&.=.-.-.-.-.-.V ",
"&X&Xo S D S S S V V B B B B N N N N o &X&X&X&X&X1 V N B N N N N N N N N N N N : "
};
