/* XPM */
static char *result[] = {
/* columns rows colors chars-per-pixel */
"40 76 188 2 ",
"   c #040105",
".  c #070108",
"X  c #0B020B",
"o  c #0B0C0C",
"O  c #0E100F",
"+  c #0F0210",
"@  c #130414",
"#  c #140B15",
"$  c #160318",
"%  c #1B041D",
"&  c #170B18",
"*  c #1A0A1C",
"=  c #0F1110",
"-  c #131414",
";  c #151817",
":  c #1A141C",
">  c #171919",
",  c #1A1C1C",
"<  c #1A1618",
"1  c #17110C",
"2  c #25191E",
"3  c #1D201F",
"4  c #342F1F",
"5  c #1E0421",
"6  c #1E0920",
"7  c #1E1D21",
"8  c #1F1422",
"9  c #220425",
"0  c #220C24",
"q  c #260529",
"w  c #2A052D",
"e  c #260D29",
"r  c #280D2B",
"t  c #231326",
"y  c #281424",
"u  c #231D25",
"i  c #2B1922",
"p  c #2A112C",
"a  c #271129",
"s  c #2E0531",
"d  c #2E0B31",
"f  c #320636",
"g  c #320D35",
"h  c #350939",
"j  c #390D3D",
"k  c #2E1130",
"l  c #321435",
"z  c #351B35",
"x  c #361639",
"c  c #39143C",
"v  c #3B1C3C",
"b  c #381837",
"n  c #1F2221",
"m  c #222524",
"M  c #242826",
"N  c #29242D",
"B  c #262A29",
"V  c #2B2D2C",
"C  c #282828",
"Z  c #37242A",
"A  c #2B312E",
"S  c #34332C",
"D  c #39352E",
"F  c #2D2C30",
"G  c #392D3A",
"H  c #2E3331",
"J  c #313534",
"K  c #323836",
"L  c #353C3A",
"P  c #393F3D",
"I  c #3A3835",
"U  c #483B35",
"Y  c #462935",
"T  c #39413E",
"R  c #37403C",
"E  c #4A463B",
"W  c #564F3E",
"Q  c #524729",
"!  c #3C0F40",
"~  c #3E1142",
"^  c #3D1940",
"/  c #411445",
"(  c #451B49",
")  c #4A1E4E",
"_  c #431A47",
"`  c #4D1F52",
"'  c #483848",
"]  c #4D2051",
"[  c #502154",
"{  c #4F3651",
"}  c #402643",
"|  c #3D4542",
" . c #3F4844",
".. c #454443",
"X. c #414946",
"o. c #444D4A",
"O. c #4A4B4A",
"+. c #494143",
"@. c #47514D",
"#. c #48524E",
"$. c #4F4850",
"%. c #4B5551",
"&. c #4F5955",
"*. c #535353",
"=. c #515B57",
"-. c #545E5A",
";. c #5A585B",
":. c #5D5947",
">. c #6B5851",
",. c #56605C",
"<. c #5F605F",
"1. c #6A624E",
"2. c #746A53",
"3. c #7C7256",
"4. c #68655D",
"5. c #5F5460",
"6. c #6A5B6B",
"7. c #6C636D",
"8. c #696867",
"9. c #6F6170",
"0. c #726574",
"q. c #7D7C7D",
"w. c #777777",
"e. c #8C743C",
"r. c #846F54",
"t. c #877E65",
"y. c #907D62",
"u. c #8A7575",
"i. c #B89954",
"p. c #8D8267",
"a. c #9B8C69",
"s. c #9F916D",
"d. c #93807D",
"f. c #A2936E",
"g. c #A39471",
"h. c #AE9C76",
"j. c #B3A279",
"k. c #CEB475",
"l. c #847D85",
"z. c #817582",
"x. c #8B8C8B",
"c. c #8A808B",
"v. c #9C8A8A",
"b. c #9E9683",
"n. c #938D93",
"m. c #949294",
"M. c #9C9B9C",
"N. c #9A959B",
"B. c #A19884",
"V. c #A09784",
"C. c #A19998",
"Z. c #9FA09F",
"A. c #A9A49D",
"S. c #B2A482",
"D. c #9F97A0",
"F. c #A19EA1",
"G. c #A4A1A4",
"H. c #AEAEAE",
"J. c #BCBBBB",
"K. c #B7B7B7",
"L. c #C1AE83",
"P. c #C9B78B",
"I. c #D0BD8E",
"U. c #CEBD93",
"Y. c #DDC996",
"T. c #E3CE9C",
"R. c #E8D29D",
"E. c #FFE092",
"W. c #D0C9BB",
"Q. c #EFD9A2",
"!. c #F5DEA5",
"~. c #FCE4AA",
"^. c #FFEAAF",
"/. c #FFEAA7",
"(. c #FFECB1",
"). c #C4C4C4",
"_. c #CBCBCC",
"`. c #CFC7C8",
"'. c #D4D4D4",
"]. c #DADADA",
"[. c #D8D5D5",
"{. c #DEDFE0",
"}. c #E4E4E4",
"|. c #ECECEC",
" X c #E9E6E5",
".X c #F3F3F3",
"XX c #FEFEFE",
"oX c None",
/* pixels */
"oXoXoXoXoXoXoXoXoXoXoXoXoXoXoX  X X X X o X X oXoXoXoXoXoXoXoXoXoXoXoXoXoXoXoXoX",
"oXoXoXoXoXoXoX    . . X X X X @ # * 6 p l x x l p e & X oXoXoXoXoXoXoXoXoXoXoXoX",
"oXoXoXoXX @ % 9 q w w d s d s s w q q 9 * 6 r j / _ ( v p @ oXoXoXoXoXoXoXoXoXoX",
"oXoXoX. q f f f f f f f f f f f f f f f f f r * 9 f h ~ ) _ p X oXoXoXoXoXoXoXoX",
"oXoXoXX w f f f f f f f f f f f f f f f f f h j w 5 f f h / ] x @ oXoXoXoXoXoXoX",
"oXoXoXoX% s s f f f f f f f f f f f f f f f f h ~ k 5 f f h ~ ] v X oXoXoXoXoXoX",
"oXoXoXoX@ q w w w w w f f f f f f f f f f f f f f ~ a q f f f / ] p oXoXoXoXoXoX",
"oXoXoXoX. % q q q q q s f f f f f f f f f f f f f h ^ % f f f f ( ) & oXoXoXoXoX",
"oXoXoXoXoX@ q q q q q q f f f f f f f f f f f f f f ~ p q f f f c ` l oXoXoXoXoX",
"oXoXoXoXoXX 9 q q q q q d f f f f f f f f f f f f f j l 9 f f f f ( _ @ oXoXoXoX",
"oXoXoXoXoX+ q q q q q q s f f f f f f f f f f f f f h c 5 f f f f c ) * oXoXoXoX",
"oXoXoXoXoX@ q q q q q w f f f f f f f f f f f f f f f ~ 6 f f f f j ] p oXoXoXoX",
"oXoXoXoXoX% q q q q s f f f f f f f f f f f f f f f f ~ 5 f f f f f ( l oXoXoXoX",
"oXoXoXoXoX% q q q w f f f h f f f f s d d g d d d d d x 6 s d s s s ~ c oXoXoXoX",
"oXoXoXoX  @ % % % 5 9 9 9 9 q 9 q z l.G.G.G.F.F.F.D.M.F.m.N.m.m.n.n.7.z . oXoXoX",
"oXoXoXoXa x l x l x l l l l l l p 8.'.K.J.|..XXXXXXX.X.XXX|..XXXXX'.K.$.+ oXoXoX",
"oXoXoXoXv [ ] [ [ [ [ [ [ [ [ [ ( l.].m.Z. X.XXXXXXX|..X.X}..XXXXXZ.x.0.0 oXoXoX",
"oXoXoXoXc ] ] ] ] ] ] ] [ ) ] ] ( l.].}.{.}..X.X.X.X|.XX|.}.|..XXX.X{.0.9 oXoXoX",
"oXoXoXoXv ] ] ] ] ] ] ] ] ] ] ] ( c.'. X X|.XX.X].).).].).J.'..XXX.X}.0.0 oXoXoX",
"oXoXoXoXc ] ] ] ] ] ] ] ] ] ] ] ( c.'. X X.XXXXXXX{.J.H.K.].XXXXXX|.}.7.0 oXoXoX",
"oXoXoXoXd ! ! ! j ~ ~ ! ! j ! / j l.].'.].XXXXXXXX|..X[.}.XXXXXX.X].].6.% oXoXoX",
"oXoXoXoX$ 5 5 5 9 % 9 % 9 9 9 9 5 q.].q.N.XXXXXX.X|..X|..XXXXXXX.Xx.x.;.@ oXoXoX",
"oXoXoX. $ q 9 5 % % % % 9 9 9 % X ..K.J._.}.}.}.].{.{.[.{.|.|.|.}.J.F.G   oXoXoX",
"oXoXX 5 f f f f w w w f f f q + , V ..*.%.4.b.B.B.B.B.V.b.b.V.8.8.<.G q X oXoXoX",
"oX. % w f f f f s w f f f w X 1 C S F F F D 3.T.~.~.~.~.~.!.f.D V C # 9 . oXoXoX",
"oX+ q s f f f f f f f f f y 3.W m < u S F S F t.~.~.^.~.^.I.I J V 7 # % . oXoXoX",
"oX$ q s f f f f f f f f w U !.!.t.8.I , u C V g.(.(.^.^.^.I.I m n ..U @ . oXoXoX",
"oX% q w f f f f f f f f w E ~.P.A.XX[.U D m m P.(.Q.U.L.T.T.D P C.v.E X oXoXoXoX",
"oX@ q q f f f f f f f f s Z T.s.K. XC.Y u.S.s.Y.a.U e 0 Z f.g.W.`.>.' X oXoXoXoX",
"oXX 9 q w s f f f f f f f 9 1.a.x.[.>.v.A.R.k.U 5 w f f w i h.W.v.u.E . oXoXoXoX",
"oXoX@ q q w s s s s f f f f 9 E D m.K.C.p.2.i w f f f f f w Z t.K.m.: . oXoXoXoX",
"oXoX. @ 9 q q q w w s s s f f q $ X < < i q f f f f f f f h q 2 m & + oXoXoXoXoX",
"oXoXoXoXX @ @ @ % q q q w w s d s w 9 q s f f f f f f f f f f w 9 $ X oXoXoXoXoX",
"oXoXoXoXoXoXoXoX. + % 5 9 q q w q w w w w w w w w w w w s w w q % . oXoXoXoXoXoX",
"oXoXoXoXoXoXoXoXoXoXoX. X X X @ @ % % % % % % 5 5 5 5 5 % % @ X oXoXoXoXoXoXoXoX",
"oXoXoXoXoXoXoXoXoXoXoXoX  ; A M B L L H : % % - : 7 - . oXoXoXoXoXoXoXoXoXoXoXoX",
"oXoXoXoXoXoXoXoXoXoXoXoX  K %.T H %.,.%.N w w C K  .A   oXoXoXoXoXoXoXoXoXoXoXoX",
"oXoXoXoXoXoXoXoXoXoX@ q 9 p | R , T -.%.u s w u K  .A 3 % 0 oXoXoXoXoXoXoXoXoXoX",
"oXoXoXoXoXoXoXoXoX@ l j f f g ;.x.;.L M & w w & B H T O.u d r oXoXoXoXoXoXoXoXoX",
"oXoXoXoXoXoXoXoXoXl j d f f f l.{.'.O., u , u > *.x.J.{.Z.a ~ 0 oXoXoXoXoXoXoXoX",
"oXoXoXoXoXoXoXoXoXc f f f f w 6.J.x.B L R T T K J x.]._.7.r j r oXoXoXoXoXoXoXoX",
"oXoXoXoXoXoXoXoXr j f f f f w u P B 3 m B K K H 3 n *.V o 9 h l # oXoXoXoXoXoXoX",
"oXoXoXoXoXoXoX@ w w s f s q 0 L @.@.@.T M | X.A B | T | T u s h w oXoXoXoXoXoXoX",
"oXoXoXoXoXoX@ p x l 0 9 9 t n R #.K K @.M K L M A @.@.T #.H 5 w w oXoXoXoXoXoXoX",
"oXoXoXoXoX@ j ) ` ` ! $ u  .B R X.H A X.M K K m H o.T , X.F k l 0 @ oXoXoXoXoXoX",
"oXoXoXoXoX5 f g b G c % H X.M T @.X.X.T B | X.B A X.| T  .V ( ` / 9 oXoXoXoXoXoX",
"oXoXoXoXoX$ Z y.L.Y.h.S L  .M T #.#.#.@.m J K 3 J @.#.o.#.V G b d w oXoXoXoXoXoX",
"oXoXoXoXoX1 i./.^.~.~.1.R  .m  .#.#.#.X.M T R m J @.#.#.#.P j.L.r.i oXoXoXoXoXoX",
"oXoXoXoXoXoXi.k.p.1.:.A L @.B K T |  .K B |  .B H o.o.#.o.E R.(.E.e.oXoXoXoXoXoX",
"oXoXoXoXoXoXQ W  . . .H B #.| n m m m n A K H V n n m M , A 2.p.k.e.oXoXoXoXoXoX",
"oXoXoXoXoXoXH %.&. .K n 3 H L R | | | | X. .| | | P | | ,  . . .E 4 oXoXoXoXoXoX",
"oXoXoXoXoXoXT %.| n n > n > + & * : , m m m C C M m m ; > H  .#.%.K oXoXoXoXoXoX",
"oXoXoXoXoXoXm J n L o.H n R # q s w w w w 9 q 9 q q q X o B M H X.R oXoXoXoXoXoX",
"oXoXoXoXoXoXoX, | | P | B ; , > q s w f s f s f f f s ' F  . .H n , oXoXoXoXoXoX",
"oXoXoXoXoXoX,  .R | K | R > n n % s 9 q w q w f s ^ n.|.x.M P  .R M oXoXoXoXoXoX",
"oXoXoXoXoXoXB | | K | K | B B H & w % % % % w s { ).}.N.q.O.H P  .T > oXoXoXoXoX",
"oXoXoXoXoXoX; J | L P | K , H  .7 % X       % { _.).w.H._.7.: K T K ; oXoXoXoXoX",
"oXoXoXoXoXoXoXm K | | K n ; = > # % oXoXoXoXX c.M.q.'.N.} s 5 B L B oXoXoXoXoXoX",
"oXoXoXoXoXoXoXo H | H n o # 5 w 9 X oXoXoXoXoX, ;.'.z.d s f s : K > oXoXoXoXoXoX",
"oXoXoXoXoXoXoXoX= M ; = # w f s % oXoXoXoXoXoXoXV ;.d f f s s t A o oXoXoXoXoXoX",
"oXoXoXoXoXoXoXoXoXoX  + q f f w + oXoXoXoXoXoXoXoXX w f f s q # = oXoXoXoXoXoXoX",
"oXoXoXoXoXoXoXoXoXoX$ s f f f f 9 oXoXoXoXoXoXoXoXoXs f f f f % oXoXoXoXoXoXoXoX",
"oXoXoXoXoXoXoXoXoXoX5 f f f f f s oXoXoXoXoXoXoXoXs f h f f f 9 oXoXoXoXoXoXoXoX",
"oXoXoXoXoXoXoXoXoXoX% w s s s s q X oXoXoXoXoXoXoX9 w w q q r 8 = oXoXoXoXoXoXoX",
"oXoXoXoXoXoXoXoXoX- H V N N N F H , oXoXoXoXoXoX- H J K K L | o.B oXoXoXoXoXoXoX",
"oXoXoXoXoXoXoXoXoX, o.%.#.%.#.#. ., oXoXoXoXoXoX- K #.%.%.%.%.%.A oXoXoXoXoXoXoX",
"oXoXoXoXoXoXoXoXoX, o.%.o.#.#.#.| 7 oXoXoXoXoXoX- J #.#.#.#.o.%.A oXoXoXoXoXoXoX",
"oXoXoXoXoXoXoXoXoX- L X.O. . .| H ; oXoXoXoXoXoXoXm H P P P H C - oXoXoXoXoXoXoX",
"oXoXoXoXoXoXoXoXoXoXo n M B M n - oXoXoXoXoXoXoXoX. > M V A K > oXoXoXoXoXoXoXoX",
"oXoXoXoXoXoXoXoXoXn n H o.o.o.K ; oXoXoXoXoXoXoXoXo M | #.#.o.V M H J m oXoXoXoX",
"oXoXoXoXoXV o.=.=.%.o.P o.#. .P J = oXoXoXoXoXoXoXV | R  .o.o.o.%.=.=.%.T , oXoX",
"oXoXoXoXJ =.,.,.-.=.%.#.#.#.#.o.#.m oXoXoXoXoXoX=  .#.#.#.#.#.#.&.,.,.,.,.@., oX",
"oXoXoXM %.,.,.,.=.%.#.#.#.#.#.#.%.H oXoXoXoXoXoXn o.#.#.#.#.#.#.#.=.,.,.,.=.T o ",
"oXoXoXT %.&.=.&.%.#.#.#.#.o.#.#.#.P = oXoXoXoXoXB #.#.%.#.o.#.#.#.%.%.&.&.%.#.n ",
"oXoX-  .#.o.o.o.o.X. .| R P  . . .K - oXoXoXoXoXB  . . .| K | | X.X.X.o.o.o.o.M ",
"oXoXo B V B B B M M m m m n m n m n O oXoXoXoXoX, M n n n n n n n n n n n n n - "
};
