/* XPM */
static char *result[] = {
/* columns rows colors chars-per-pixel */
"40 76 186 2 ",
"   c #040104",
".  c #070108",
"X  c #0B020C",
"o  c #0B0C0C",
"O  c #070908",
"+  c #0E100F",
"@  c #0F0210",
"#  c #0F0C11",
"$  c #130315",
"%  c #130B14",
"&  c #170419",
"*  c #1A041C",
"=  c #160C18",
"-  c #1A0B1B",
";  c #1A0F16",
":  c #0F1110",
">  c #121413",
",  c #171419",
"<  c #1B141C",
"1  c #171919",
"2  c #1A1D1C",
"3  c #161817",
"4  c #261C17",
"5  c #1C201E",
"6  c #23221E",
"7  c #1E0521",
"8  c #1E0C20",
"9  c #1E1D21",
"0  c #1F1422",
"q  c #220525",
"w  c #220C24",
"e  c #260529",
"r  c #2A052D",
"t  c #260E29",
"y  c #2A0D2D",
"u  c #211C23",
"i  c #2B112D",
"p  c #281927",
"a  c #31112E",
"s  c #2E0531",
"d  c #2E0B31",
"f  c #320636",
"g  c #320C35",
"h  c #340738",
"j  c #360A3A",
"k  c #390D3D",
"l  c #2E1731",
"z  c #311334",
"x  c #3A133E",
"c  c #3B1A3E",
"v  c #341836",
"b  c #1E2221",
"n  c #212524",
"m  c #242827",
"M  c #252328",
"N  c #29242C",
"B  c #262B29",
"V  c #2A2D2C",
"C  c #282825",
"Z  c #312226",
"A  c #352C28",
"S  c #2B312E",
"D  c #35342E",
"F  c #2E2830",
"G  c #3B233D",
"H  c #342E35",
"J  c #2E3432",
"K  c #313534",
"L  c #383733",
"P  c #323937",
"I  c #353C3A",
"U  c #383E3C",
"Y  c #343738",
"T  c #462C3A",
"R  c #453834",
"E  c #39413E",
"W  c #49483C",
"Q  c #56493D",
"!  c #4F4529",
"~  c #64532A",
"^  c #3C0F40",
"/  c #3E1342",
"(  c #3F1943",
")  c #3E2641",
"_  c #421545",
"`  c #411C45",
"'  c #461B4A",
"]  c #4A1E4E",
"[  c #4C1E51",
"{  c #422B44",
"}  c #442947",
"|  c #49354B",
" . c #543E41",
".. c #4D2051",
"X. c #4F3651",
"o. c #503752",
"O. c #3D4542",
"+. c #3F4844",
"@. c #414946",
"#. c #444D4A",
"$. c #494944",
"%. c #554740",
"&. c #47514D",
"*. c #48524E",
"=. c #595747",
"-. c #4B5551",
";. c #4F5955",
":. c #515B57",
">. c #545E5A",
",. c #5A5755",
"<. c #5A4C5B",
"1. c #685E49",
"2. c #645647",
"3. c #6C5556",
"4. c #56605C",
"5. c #6A6556",
"6. c #746B54",
"7. c #7C725C",
"8. c #777059",
"9. c #5F5460",
"0. c #646464",
"q. c #6C636D",
"w. c #786464",
"e. c #777167",
"r. c #737373",
"t. c #7C7B7C",
"y. c #787578",
"u. c #83765A",
"i. c #887443",
"p. c #807760",
"a. c #B0955E",
"s. c #8E846A",
"d. c #9A8B68",
"f. c #A59571",
"g. c #A79975",
"h. c #B5A47C",
"j. c #C4A45B",
"k. c #C4AD77",
"l. c #EFCA75",
"z. c #817582",
"x. c #868586",
"c. c #8B8789",
"v. c #949494",
"b. c #9B9B9B",
"n. c #9B949C",
"m. c #978B8C",
"M. c #AA9B9B",
"N. c #B09F9F",
"B. c #BBAC86",
"V. c #B9AB89",
"C. c #B9AD9B",
"Z. c #A2A2A2",
"A. c #ACABAC",
"S. c #ABA4AC",
"D. c #B4B4B4",
"F. c #BCBCBB",
"G. c #CDBA8B",
"H. c #C6B386",
"J. c #D1BD8D",
"K. c #C3B9B9",
"L. c #BFC0BF",
"P. c #DEC996",
"I. c #D6C395",
"U. c #E4CF9A",
"Y. c #F0D89F",
"T. c #E6D09B",
"R. c #C4C1BE",
"E. c #EFD9A2",
"W. c #EDD7A0",
"Q. c #F3DCA4",
"!. c #FFE7AD",
"~. c #FFEAAE",
"^. c #FFECB1",
"/. c #C3C3C3",
"(. c #CCCCCC",
"). c #CFD0CF",
"_. c #D0CFD0",
"`. c #D2D2D3",
"'. c #DBDBDB",
"]. c #DCD6D3",
"[. c #E3E3E4",
"{. c #EBEBEB",
"}. c #E7E8E7",
"|. c #F3F3F3",
" X c #FDFDFD",
".X c None",
/* pixels */
".X.X.X.X.X.X.X.X.X.X.X        X % % = - = & % X . .X.X.X.X.X.X.X.X.X.X.X.X.X.X.X",
".X.X.X.X.X    . X X $ % $ $ & & * * w y v / ` ( x z w % .X.X.X.X.X.X.X.X.X.X.X.X",
".X.X.X. & q e r f f f f f f f s s r r e q - q f k _ ' ` z % .X.X.X.X.X.X.X.X.X.X",
".X.X.X* h h h f f f f f f f f f f h h f f g d - q h j ^ ' ' i . .X.X.X.X.X.X.X.X",
".X.X.X* h h h f f f f f f f h f f f f f s h j k t q f f h _ [ z X .X.X.X.X.X.X.X",
".X.X.XX e s f h f f f f f f f f f f f f h h h h / t e h h h _ ] i .X.X.X.X.X.X.X",
".X.X.X  * e e e e e s f f f f f h f s h f f f f h / - s h f h ' ..- .X.X.X.X.X.X",
".X.X.X.X$ q e e e e e f f f f f f f f f f f f f h k z q h f h j ..c X .X.X.X.X.X",
".X.X.X.X  q e e e e e r h f f h f h f f f f f f h h / 7 f f f f _ ..= .X.X.X.X.X",
".X.X.X.X.X& e e e e e e h h f f f f f f f f f f f h _ w r f f h k ] a .X.X.X.X.X",
".X.X.X.X  7 e e e e t r f f f f f f h s f s f h f f ^ t r h s f h ' ( . .X.X.X.X",
".X.X.X.X. q e e e e r f f f f f h s h h f h f f f f ^ y e f h h f / ` % .X.X.X.X",
".X.X.X.XX e e e e r f f f f f f s h h h s f s f s s k e e h s f h j ] = .X.X.X.X",
".X.X.X.X@ e e e e f f f h f f f h f G { { { { { ) { | { G ) ) ) ) c ` 8 .X.X.X.X",
".X.X.X  X & & = * 7 * 7 7 * * * w y.L.(._._.`.`.`.`._._.`.(.`.`.`./.q.% .X.X.X.X",
".X.X.X= ` ` ` ` ` ` ` ` ` ` ` ` { F.(.y.`.{. X X X X{. X{.{. X X{.x.b.l X .X.X.X",
".X.X.X8 ........................o.K.`.Z.`.{. X X X|.{. X[.{. X X{.Z.A.) @ .X.X.X",
".X.X.X- ] ....................] o.F.[.{.}.|.|.[.[.[.|.|.'.`.'. X X|.F.G @ .X.X.X",
".X.X.X- ............] ..........o.F.[.[.[. X X|.`.F.F.F.F.(.|. X X}.F.G o .X.X.X",
".X.X.X- ' ] ] [ ] ] ] ] ..] ] ] o.F.[.}.{. X X X|.'./.F.'. X X X|.{.F.G @ .X.X.X",
".X.X.X& j j j j h j j j k j j h | F.`.Z.[. X X X{.|.|.[.|. X X X[.A.A.z X .X.X.X",
".X.X.X  & & * & & * * * * * & * l D./.r.[. X X X}. X{.{. X X X X(.r.v.-   .X.X.X",
".X.X  & e r r q q q q e r r e & > 0.A.D.F././.K.F.L.F.F./././.L.F.A.<.$ .X.X.X.X",
".X.X* r h h h f e e h h h r $ > V V K L K 8.V.B.H.B.B.B.B.B.p.L Y n q * .X.X.X.X",
".X$ e h f f f f r s f f f & > 1 C V H L K L 7.Y.!.~.!.~.~.H.W J H 2 & * .X.X.X.X",
"  * r s f f f f h s h h q 1.h.1.6 2 4 C D K D I.!.!.!.!.!.8.V V 6 6 = @ .X.X.X.X",
". q e h h f s h f f f f w f.^.J.m.v.@., 1 u Q Y.!.~.^.^.^.s.4 M ,.e.4 @ .X.X.X.X",
". q e s s h h h f f f f q d.!.s.[. XM.T =.A 6.!.U.f.e.u.I.g.R D.K.w.0 . .X.X.X.X",
"  7 e r h h s h f f f f r %.T.e.}.N.Q 3.C.P.G.s.A w q q p d.I.].6.3.u   .X.X.X.X",
".X$ e e r s h h f f f f h w u.1.D.K.m.K.V.H.Q q s h f f f Z g.R.M.c.$   .X.X.X.X",
".X  * e e r s s s s h f h r w A C y.x.3.2.p e f h f f f h e Z 5.c.H X .X.X.X.X.X",
".X.X  & q q e e r r r s f f f e & X o ; q r f f h f f f f h e - X & . .X.X.X.X.X",
".X.X.X.X. X X $ * e e e r r s s s s r s f f f f f h s f f h f r 7 X .X.X.X.X.X.X",
".X.X.X.X.X.X.X.X. X & * 7 7 q q 7 e e e e r 7 r e e e e q q q * X .X.X.X.X.X.X.X",
".X.X.X.X.X.X.X.X.X.X.X.X    . @ = 8 = = $ & & & & & & $ & X . .X.X.X.X.X.X.X.X.X",
".X.X.X.X.X.X.X.X.X.X.X.XO 5 J b O.+.&.I = e 8 b m J > .X.X.X.X.X.X.X.X.X.X.X.X.X",
".X.X.X.X.X.X.X.X.X.X.X.X# +.-.J O.:.4.+.0 h e J I @.2 o = .X.X.X.X.X.X.X.X.X.X.X",
".X.X.X.X.X.X.X.X.X.X- s y l +.J b +.>.+.8 f 7 V P @.n , e y .X.X.X.X.X.X.X.X.X.X",
".X.X.X.X.X.X.X.X.Xw x f h s a 0.x.#.P 9 7 r 7 , S P 0.3.F f i .X.X.X.X.X.X.X.X.X",
".X.X.X.X.X.X.X.X.Xx j f f f j S.}.D.V b M b b b r.A.'.{.t.q / - .X.X.X.X.X.X.X.X",
".X.X.X.X.X.X.X.Xw k h s h s s c./.0.m I E I E J S v.).v.L r k t .X.X.X.X.X.X.X.X",
".X.X.X.X.X.X.X.Xz k h h h s w N O.b b b S P J J 2 C U 1 % e j g & .X.X.X.X.X.X.X",
".X.X.X.X.X.X.X* e e s s r q u O.#.*.&.O.V +.+.m P @.#.#.@.u s h q .X.X.X.X.X.X.X",
".X.X.X.X.X.X= z ( z q q w u n @.*.J U +.b P P b P -.E J *.m q q q .X.X.X.X.X.X.X",
".X.X.X.X.X& x [ [ [ k & V +.b O.+.V P O.m I I b P @.E m #.N ' ` y .X.X.X.X.X.X.X",
".X.X.X.X.Xq h z T R v = ) +.m O.#.O.O.O.S +.+.b P @.E +.+.N / / k * .X.X.X.X.X.X",
".X.X.X.X.X& T f.I.P.h.E O.+.m +.-.*.*.+.b J J b I &.*.*.&.S 2. .z 7 .X.X.X.X.X.X",
".X.X.X.X.X4 j.~.~.E.U.W O.O.m +.*.*.*.+.m O.O.b I *.*.*.*.$.W.Q.a.4 .X.X.X.X.X.X",
".X.X.X.X.X.Xj.k.8.=.$.m P @.B I O.E +.J B E O.n J +.@.+.O.W H.E.l.~ .X.X.X.X.X.X",
".X.X.X.X.X.X! W +.&.+.S B *.I n n n n n J P K J b b n m 2 J W =.i..X.X.X.X.X.X.X",
".X.X.X.X.X.XP -.*.+.S b 1 I E E E O.O.@.@.+.+.+.O.O.O.O.b *.*.*.@.1 .X.X.X.X.X.X",
".X.X.X.X.X.XE -.I b J 3 n n o , < < < 9 b u n 9 9 9 < o : n P #.-.V .X.X.X.X.X.X",
".X.X.X.X.X.Xn J b E #.P n I % 7 r r s r r r e e r r r X b O.V m E n .X.X.X.X.X.X",
".X.X.X.X.X.X.X2 O.+.I +.V : b b q s r f f r f f f f s | K U O.U 6 O .X.X.X.X.X.X",
".X.X.X.X.X.X1 O.U O.I U O.5 2 b & s e q e e r f s c v.{.c.n O.U @.B .X.X.X.X.X.X",
".X.X.X.X.X.Xn O.O.P E I E B S E 0 q * & * * e s X./.}.n.t.-.J U O.J .X.X.X.X.X.X",
".X.X.X.X.X.X> J U E I +.J 2 m O.b & X       7 o.)./.y.A.(.q., U I m .X.X.X.X.X.X",
".X.X.X.X.X.X.X2 J O.O.P 2 1 : = & * .X.X.X.XX x.b.t.`.n.{ s 7 m K > .X.X.X.X.X.X",
".X.X.X.X.X.X.X.Xm O.J b : # 7 s q @ .X.X.X.X.X2 >.`.z.s s f s < B .X.X.X.X.X.X.X",
".X.X.X.X.X.X.X.X: b > # % s s s * .X.X.X.X.X.X.XH 9.s f f s s 8 > .X.X.X.X.X.X.X",
".X.X.X.X.X.X.X.X.X.X  $ r f f s @ .X.X.X.X.X.X.X.X. r h h s e X .X.X.X.X.X.X.X.X",
".X.X.X.X.X.X.X.X.X.X$ s f f f s q .X.X.X.X.X.X.X.X.Xs h s h h * .X.X.X.X.X.X.X.X",
".X.X.X.X.X.X.X.X.X.X7 f f f f f s .X.X.X.X.X.X.X.Xs h h h h h q .X.X.X.X.X.X.X.X",
".X.X.X.X.X.X.X.X.X.X* s s s s s e X .X.X.X.X.X.X.Xq r e r e w 0 : .X.X.X.X.X.X.X",
".X.X.X.X.X.X.X.X.X> J F N N N S K 2 .X.X.X.X.X.X> J K K K U O.#.B .X.X.X.X.X.X.X",
".X.X.X.X.X.X.X.X.X2 #.-.-.*.*.-.O.2 .X.X.X.X.X.X> P *.-.-.-.*.*.S .X.X.X.X.X.X.X",
".X.X.X.X.X.X.X.X.X2 #.-.*.*.*.*.O.2 .X.X.X.X.X.X> K *.-.*.*.*.*.S .X.X.X.X.X.X.X",
".X.X.X.X.X.X.X.X.X: U +.@.@.+.E J 1 .X.X.X.X.X.X.Xn J U ) I P B > .X.X.X.X.X.X.X",
".X.X.X.X.X.X.X.X.X.Xo b m m m b > .X.X.X.X.X.X.X.XO 5 B J S E > .X.X.X.X.X.X.X.X",
".X.X.X.X.X.X.X.X.Xb b J *.#.#.P 1 .X.X.X.X.X.X.X.XO b E *.*.+.B m J K n .X.X.X.X",
".X.X.X.X.XB #.:.:.-.*.U #.*.+.U K : .X.X.X.X.X.X.XS +.E +.&.&.&.-.:.>.-.E 1 .X.X",
".X.X.X.XK >.4.4.>.>.*.*.#.*.#.*.*.n .X.X.X.X.X.X: +.-.&.&.&.*.*.;.4.>.4.>.*.2 .X",
".X.X.Xm ;.>.>.>.>.-.*.*.*.*.*.*.*.J .X.X.X.X.X.X5 &.*.*.*.*.*.&.-.:.>.>.>.>.O.o ",
".X.X.XE -.;.>.;.-.*.*.*.#.*.*.*.*.E : .X.X.X.X.XB *.*.*.*.&.*.*.*.*.;.;.;.*.*.b ",
".X.X> @.*.#.#.*.#.@.+.O.U U +.+.+.I > .X.X.X.X.XB +.+.+.O.I E O.+.@.#.#.#.#.#.m ",
".X.Xo m V B m m m m n b b n n b b b o .X.X.X.X.X5 b m b b b b 5 b b b b b b b > "
};
