/* XPM */
static char *result[] = {
/* columns rows colors chars-per-pixel */
"80 71 197 2 ",
"   c #171513",
".  c #191615",
"X  c #1B1917",
"o  c #1D1B1B",
"O  c #211B17",
"+  c #231D1A",
"@  c #281F1B",
"#  c #24211D",
"$  c #2B221C",
"%  c #30251D",
"&  c #372B1F",
"*  c #1F1F20",
"=  c #1F2021",
"-  c #232323",
";  c #2A2624",
":  c #2D2925",
">  c #252728",
",  c #26292A",
"<  c #2A2B2C",
"1  c #282728",
"2  c #332721",
"3  c #362922",
"4  c #3C2C24",
"5  c #312E2B",
"6  c #35312D",
"7  c #3A342E",
"8  c #3F3226",
"9  c #2B2E31",
"0  c #2E3235",
"q  c #2F3539",
"w  c #343231",
"e  c #3B3633",
"r  c #323639",
"t  c #343A3D",
"y  c #3B3B3A",
"u  c #3F3A34",
"i  c #402F26",
"p  c #433126",
"a  c #493624",
"s  c #453229",
"d  c #4B362B",
"f  c #4B382D",
"g  c #533D26",
"h  c #533B2C",
"j  c #423C35",
"k  c #433E3A",
"l  c #403631",
"z  c #5A3E31",
"x  c #553C30",
"c  c #5C4229",
"v  c #4A443C",
"b  c #4B453C",
"n  c #594437",
"m  c #60462B",
"M  c #71502F",
"N  c #684A37",
"B  c #714E3D",
"V  c #6F5131",
"C  c #745332",
"Z  c #7B5834",
"A  c #363D41",
"S  c #3A3F43",
"D  c #3A4145",
"F  c #3D454B",
"G  c #3F484E",
"H  c #364043",
"J  c #424445",
"K  c #4A4442",
"L  c #4E4A45",
"P  c #41494E",
"I  c #474949",
"U  c #564E48",
"Y  c #57514C",
"T  c #5B534D",
"R  c #434C53",
"E  c #465157",
"W  c #465259",
"Q  c #4A555D",
"!  c #4A5359",
"~  c #545A5E",
"^  c #56585B",
"/  c #62544B",
"(  c #765643",
")  c #645D59",
"_  c #655B55",
"`  c #725D53",
"'  c #6A625D",
"]  c #77655A",
"[  c #4B5760",
"{  c #4D5A62",
"}  c #515D65",
"|  c #525F69",
" . c #585D61",
".. c #55636C",
"X. c #5B656D",
"o. c #54696F",
"O. c #5A6368",
"+. c #576671",
"@. c #586771",
"#. c #5B6B76",
"$. c #5E6E7A",
"%. c #566C73",
"&. c #5D717C",
"*. c #4E6167",
"=. c #676768",
"-. c #7C736F",
";. c #646D71",
":. c #6B6F72",
">. c #6C7276",
",. c #61727D",
"<. c #6C747A",
"1. c #6B757B",
"2. c #76787A",
"3. c #736A67",
"4. c #845F38",
"5. c #8A6238",
"6. c #966A3D",
"7. c #9E6F3F",
"8. c #916639",
"9. c #A0713F",
"0. c #9F7040",
"q. c #8C6E53",
"w. c #A47442",
"e. c #AA7844",
"r. c #AB7A48",
"t. c #B37E47",
"y. c #A37B52",
"u. c #826F62",
"i. c #827975",
"p. c #967F71",
"a. c #B68149",
"s. c #B9834A",
"d. c #BA8B59",
"f. c #8F847F",
"g. c #C3996F",
"h. c #627481",
"j. c #657A85",
"k. c #697B86",
"l. c #6A7D8B",
"z. c #677A88",
"x. c #737C84",
"c. c #6C828E",
"v. c #668088",
"b. c #7B858D",
"n. c #748089",
"m. c #6F8291",
"M. c #6E8A92",
"N. c #718594",
"B. c #738B96",
"V. c #758C9A",
"C. c #798E9E",
"Z. c #7C8B96",
"A. c #74919A",
"S. c #7A909F",
"D. c #7D94A4",
"F. c #7E9AA2",
"G. c #7F97A8",
"H. c #9A8F89",
"J. c #968A86",
"K. c #9E928C",
"L. c #89939B",
"P. c #AB9E98",
"I. c #A39893",
"U. c #A0948E",
"Y. c #AEA19B",
"T. c #B2A49E",
"R. c #8097A8",
"E. c #839BAC",
"W. c #859AA4",
"Q. c #959EA5",
"!. c #859EB0",
"~. c #9AA4AC",
"^. c #99A0A5",
"/. c #93A6B4",
"(. c #9FA9B2",
"). c #98A9B6",
"_. c #8DA4B4",
"`. c #BAACA6",
"'. c #B6AAA4",
"]. c #A3AEB7",
"[. c #A3AFB8",
"{. c #A6B1BA",
"}. c #A9B3BB",
"|. c #D4B39F",
" X c #C3B4AD",
".X c #CBBBB5",
"XX c #CEBFB8",
"oX c #E1BFA9",
"OX c #CFC0B9",
"+X c #D2C2BB",
"@X c #FBD5BC",
"#X c #FFD8BF",
"$X c #F5CFB7",
"%X c #B3BCC3",
"&X c #D5C6C1",
"*X c #FFDAC0",
"=X c None",
/* pixels */
"=X=X=X=X=X=X=X=X=X=X=X=X=X=X=X=X=X=X=X=X=X=X=X=X=X=X=X=X=X=X=X=X=X=X=X=X=X=X=X=X=X=X=X=X=X=X=X=X=X=X=X=X=X=X=X=X=X=X=X=X=X=X=X=X=X=X=X=X=X=X=X=X=X=X=X=X=X=X=X=X",
"=X=X=X=X=X=X=X=X=X=X=X=X=X=X=X=X=X=X=X=X=X=X=X=X=X=X=X=X=X=X=X=X=X=X=X=X=X=X=X=X=X=X=X=X=X=X=X=X=X=X=X=X=X=X=X=X=X=X=X=X=X=X=X=X=X=X=X=X=X=X=X=X=X=X=X=X=X=X=X=X",
"=X=X=X=X=X=X=X=X=X=X=X=X=X=X=X=X=X=X=X=X=X=X=X=X=X=X=X=X=X=X=X=X=X=X=X=X=X=X=X=X=X=X=X=X=X=X=X=X=X=X=X=X=X=X=X=X=X=X=X=X=X=X=X=X=X=X=X=X=X=X=X=X=X=X=X=X=X=X=X=X",
"=X=X=X=X=X=X=X=X=X=X=X=X=X=X=X=X=X=X=X=X=X=X=X=X=X=X=X=X=X=X=XX X     =X=X=X=X=X=X=X=X=X=X=X=X=X=X=X=X=X=X=X=X=X=X=X=X=X=X=X=X=X=X=X=X=X=X=X=X=X=X=X=X=X=X=X=X=X",
"=X=X=X=X=X=X=X=X=X=X=X=X=X=X=X=X=X=X=X.     . =X=X=X=X=X=X=X=X=X  ; u o   =X=X=X=X=X=X=X=X=X=X=X=X=X=X=X=X=X=X=X=X=X=X=X=X=X=X=X=X=X=X=X=X=X=X=X=X=X=X=X=X=X=X=X",
"=X=X=X=X=X=X=X=X=X=X=X=X=X=X=X=X=X=XX = L L 5 o X =X=X=X=X=X=X=X  - H.J.6   =X=X=X=X=X=X=X=X=X=X=X=X=X=X=X=X=X=X=X=X=X=X=X=X=X=X=X=X=X=X=X=X=X=X=X=X=X=X=X=X=X=X",
"=X=X=X=X=X=X=X=X=X=X=X=X=X=X=X=X  : : y L I ' L 1 . . =X=X=X=X=X=X  -.+XU.:   =X=X=X=X=X=X=X=X=X=X=X=X=X=X=X=X=X=X=X=X=X=X=X=X=X=X=X=X=X=X=X=X=X=X=X=X=X=X=X=X=X",
"=X=X=X=X=X=X=X=X=X=X=X=X=X=X. . X : b o   o y 6 + o . =X=X=X=X=X=X  3.+XXXi.o . =X=X=X=X=X=X=X=X=X=X=X=X=X=X=X=X=X=X=X=X=X=X=X=X=X=X=X=X=X=X=X=X=X=X=X=X=X=X=X=X",
"=X=X=X=X=X=X=X=X=X=X=X=X=X=X. # #   5 O # 8 O # X . . =X=X=X=X=X=X  i.+XXX Xk   =X=X=X=X=X=X=X=X=X=X=X=X=X=X=X=X=X=X=X=X=X=X=X=X=X=X=X=X=X=X=X=X=X=X=X=X=X=X=X=X",
"=X=X. =X=X=X=X=X=X=X=X=X=X=X. . # $ $ . a r.q.3 . # o =X=X=X=X=X  ; '.+XXX.Xu.* =X=X=X=X=X=X=X=X=X=X=X=X=X=X=X=X=X=X=X=X=X=X=X=X=X=X=X=X=X=X=X=X=X=X=X=X=X=X=X=X",
"=X=X. . =X=X=X=X=X=X=X=X. X & C 6.e.w.5.6.s.s.y.s ( n . =X=X=X=X. =.&XOXXX.XH.1 . =X=X=X=X=X=X=X=X=X=X=X=X=X=X=X=X=X=X=X=X=X=X=X=X=X=X=X=X=X=X=X=X=X=X=X=X=X=X=X",
"=X. . . =X=X=X=X=X=X=X. . a 8.e.s.s.s.s.s.s.s.s.d.g.y.+     . o ^ .X+XXXXX.XK.7   =X=X=X=X=X=X=X=X=X=X=X=X=X=X=X=X=X=X=X=X=X=X=X=X=X=X=X=X=X=X=X=X=X=X=X=X=X=X=X",
"=Xo y . =X=X=X=X=X=X=X. . $ Z 8.w.w.9.w.9.a.s.s.a.d.a.: - -   e `.&XXXXXXX XJ.5   =X=X=X=X=X=X=X=X=X=X=X=X=X=X=X=X=X=X=X=X=X=X=X=X=X=X=X=X=X=X=X=X=X=X=X=X=X=X=X",
"  < x.- =X=X=X=X=X=X=X=X. . g M c g g c C 5.7.a.a.a.r.% ! L. .* v '.+XXXXXP.i.- =X=X=X=X=X=X=X=X=X=X=X=X=X=X=X=X=X=X=X=X=X=X=X=X=X=X=X=X=X=X=X=X=X=X=X=X=X=X=X=X",
"  J ^.S   =X=X=X=X=X=X=X. . O X X - - + O & M 9.s.s.w.$ Q _.).k.- k '.XX'.H.L   =X=X=X=X=X=X=X=X=X=X=X=X=X=X=X=X=X=X=X=X=X=X=X=X=X=X=X=X=X=X=X=X=X=X=X=X=X=X=X=X",
"  ^ ].:.. =X=X=X=X=X=X. . $ 3 X * G &.j.*.: O c 9.s.9.# } E.E./.n.- U P.H._ X           =X=X=X=X=X=X=X=X=X=X=X=X=X=X=X=X=X=X=X=X=X=X=X=X=X=X=X=X=X=X=X=X=X=X=X=X",
". =.].Q.;   =X=X=X=X=X.   + i d 2 + 1 G h.z.S o g e.e.% R E.R.E./.:.* Y Y +   X A A q , * .   =X=X=X=X=X=X=X=X=X=X=X=X=X=X=X=X=X=X=X=X=X=X=X=X=X=X=X=X=X=X=X=X=X",
"o >.].}.^   =X- w   =X. o o   + 3 d 4 @ o 9 R < O C t.a r R.E.E.!.).R . X @ . W V.h.h.#.+.E q . . =X=X=X=X=X=X=X=X=X=X=X=X=X=X=X=X=X=X=X=X=X=X=X=X=X=X=X=X=X=X=X",
"* <.].{.^.<   + <   X K J.' . 9 1 o 2 s d 2 + .   % 5.a 9 D.E.E.E./.b.*   + - l.V.h.$.h.h.h.h.A . =X=X=X=X=X=X=X=X=X=X=X=X=X=X=X=X=X=X=X=X=X=X=X=X=X=X=X=X=X=X=X",
"- <.(.{.%XL.J 1  .* -.XX&XH.1 R N.R . o + 4 d s % + o   r N.E.E.!.l.S X * * h.R.V.h.h.h.h.h.h.F   =X=X=X=X=X=X=X=X=X=X=X=X=X=X=X=X=X=X=X=X=X=X=X=X=X=X=X=X=X=X=X",
"* >.(.{.}.}.>.- =.- I.&XXXT.k 9 R.N.,.z.R < o @ 4 f s 2 + - P ,...- > @.,.* { E.D.C.N.h.h.$.h.q   =X=X=X=X=X=X=X=X=X=X=X=X=X=X=X=X=X=X=X=X=X=X=X=X=X=X=X=X=X=X=X",
"o =.~.{.{.].;.+ y * H.XXXX`.T - ..k.E.E.E.C.#.D - + 2 s f 4 O . * A l.!.l.- A R.E.E.!.l.h.h.%.>   . =X=X=X=X=X=X=X=X=X=X=X=X=X=X=X=X=X=X=X=X=X=X=X=X=X=X=X=X=X=X",
"  [ Q.].].{.=.o S + U.+XXX`.) * ..N.E.E.E.E.!.E.N.} 9 . + 2 + - | R.!.h.,   - R h.S.!.l.h.h.W . . . =X=X=X=X=X=X=X=X=X=X=X=X=X=X=X=X=X=X=X=X=X=X=X=X=X=X=X=X=X=X",
"  J b.L.Q.~.! o 9 - P.XX XT.) * m.E.D.N.l.,.| W D t - . < < . } !.R.| * O . + + X r #.z.h.| 1 . . =X=X=X=X=X=X=X=X=X=X=X=X=X=X=X=X=X=X=X=X=X=X=X=X=X=X=X=X=X=X=X",
"  - ~ <.b.b.y 9 J ; K.P.H.J.K - N.N.t - * o - , 0 S R 1 S N.9 A N.W . $ d + O d x @ . t P - . =X=X=X=X=X=X=X=X=X=X=X=X=X=X=X=X=X=X=X=X=X=X=X=X=X=X=X=X=X=X=X=X=X",
"=X  + < P  .; y r 5 3.) K ; X F R.X.X E #.j.l.S.R.R.R.P 9 D.| o 9 O 2 x N @   $ B N 4 X     =X=X=X=X=X=X=X=X=X=X=X=X=X=X=X=X=X=X=X=X=X=X=X=X=X=X=X=X=X=X=X=X=X=X",
"=X=X=X  . . . ; * . o . * A $.S.!.+.+ l.!.R.R.R.D.S.C.E - V.C.D . @ z ( N +   O i h z i X . =X=X=X=X=X=X=X=X=X=X=X=X=X=X=X=X=X=X=X=X=X=X=X=X=X=X=X=X=X=X=X=X=X=X",
"=X=X=X=X=X. . t - , + . * S l.!.E.#.o S D A r w 9 < , * < C.E.D.Q . $ s @   * 0 . + d s . =X=X=X=X=X=X=X=X=X=X=X=X=X=X=X=X=X=X=X=X=X=X=X=X=X=X=X=X=X=X=X=X=X=X=X",
"=X=X=X=X=X. . q @.V.l.#.R * r S.E.C.F . ; b U / ` ] ] ; S C.z.{ 9   * , A , 9 h.[ , . o . =X=X=X=X=X=X=X=X=X=X=X=X=X=X=X=X=X=X=X=X=X=X=X=X=X=X=X=X=X=X=X=X=X=X=X",
"=X=X=X=X=X=X. D z.C.G.R.D.,.R m.E.E.D.t l oX@X@X*X*X|.2 1 9 * # e 5 - l.V., A h.h.R . . =X=X=X=X=X=X=X=X=X=X=X=X=X=X=X=X=X=X=X=X=X=X=X=X=X=X=X=X=X=X=X=X=X=X=X=X",
"=X=X=X=X=X=X. o [ h.j.z.j.z.l.h.C.!.!.$.+ u.$X*X*XoX/   . 5 L T ' k - V.l.* S h...> . =X=X=X=X=X=X=X=X=X=X=X=X=X=X=X=X=X=X=X=X=X=X=X=X=X=X=X=X=X=X=X=X=X=X=X=X=X",
"=X=X=X=X=X=X=X. * Q $.h.h.h.h.h.#.l.R.R.W + T p.3.l * 1 o u v K k X P R.,.* [ h.r . =X=X=X=X=X=X=X=X=X=X=X=X=X=X=X=X=X=X=X=X=X=X=X=X=X=X=X=X=X=X=X=X=X=X=X=X=X=X",
"=X=X=X=X=X=X=X=X. . 9 F F | h.h.R A z.V.C.| 9 * - S j.j.> o o o X 9 l.R.S - #.P . =X=X=X=X=X=X=X=X=X=X=X=X=X=X=X=X=X=X=X=X=X=X=X=X=X=X=X=X=X=X=X=X=X=X=X=X=X=X=X",
"=X=X=X=X=X=X=X=X=X. . . X [ h.h.h.+.#.h.z.D.C.N.V.R.E.E.B.l.,.{ #.V.E.X.* P } * . =X=X=X=X=X=X=X=X=X=X=X=X=X=X=X=X=X=X=X=X=X=X=X=X=X=X=X=X=X=X=X=X=X=X=X=X=X=X=X",
"=X=X=X=X=X=X=X=X=X=X=X. * G h.h.h.G , S h.D.E.E.E.E.E.E.E.E.E.E.!.R.#.- X E 9   =X=X=X=X=X=X=X=X=X=X=X=X=X=X=X=X=X=X=X=X=X=X=X=X=X=X=X=X=X=X=X=X=X=X=X=X=X=X=X=X",
"=X=X=X=X=X=X=X=X=X=X=X=X  * q } h.} q A #.l.C.D.E.R.E.!.E.E.E.S.h.S * @ X * . =X=X=X=X=X=X=X=X=X=X=X=X=X=X=X=X=X=X=X=X=X=X=X=X=X=X=X=X=X=X=X=X=X=X=X=X=X=X=X=X=X",
"=X=X=X=X=X=X=X=X=X=X=X=X=X.   o 0 G | #.$.$.h.j.l.l.z.@.X.| F < o % V 4.o . =X=X=X=X=X=X=X=X=X=X=X=X=X=X=X=X=X=X=X=X=X=X=X=X=X=X=X=X=X=X=X=X=X=X=X=X=X=X=X=X=X=X",
"=X=X=X=X=X=X=X=X=X=X=X. . , r ,     * = 9 q A A S A 9 .   X % g Z w.e.C X   =X=X=X=X=X=X=X=X=X=X=X=X=X=X=X=X=X=X=X=X=X=X=X=X=X=X=X=X=X=X=X=X=X=X=X=X=X=X=X=X=X=X",
"=X=X=X=X=X=X=X=X=X=X=X. F #.z.l.[ * .   < r 9 9 , 9 t S * + m 4.Z w.g . . . =X=X=X=X=X=X=X=X=X=X=X=X=X=X=X=X=X=X=X=X=X=X=X=X=X=X=X=X=X=X=X=X=X=X=X=X=X=X=X=X=X=X",
"=X=X=X=X=X=X=X=X=X=X. 0 R l.G.E.D.A + * t N.D.C.C.S.D.G.#.< O + X $ o 1 , - . =X=X=X=X=X=X=X=X=X=X=X=X=X=X=X=X=X=X=X=X=X=X=X=X=X=X=X=X=X=X=X=X=X=X=X=X=X=X=X=X=X",
"=X=X=X=X=X=X=X=X=X=X* S t C.!.R.R.A @ d O [ E.!.E.E.E.E.V.$.! - . + . R b.D   =X=X=X=X=X=X=X=X=X=X=X=X=X=X=X=X=X=X=X=X=X=X=X=X=X=X=X=X=X=X=X=X=X=X=X=X=X=X=X=X=X",
"=X=X=X=X=X=X=X=X=X  9 W h.G.R.E.V.>   s 4 * z.E.R.E.E.E.V.z.R.,.o d @ E /.}   =X=X=X=X=X=X=X=X=X=X=X=X=X=X=X=X=X=X=X=X=X=X=X=X=X=X=X=X=X=X=X=X=X=X=X=X=X=X=X=X=X",
"=X=X=X=X=X=X=X=X=X* S Q m.E.R.!.| X 0 * x @ t S.E.E.R.E.N.l.E.m.* d $ t  .~   =X=X=X=X=X=X=X=X=X=X=X=X=X=X=X=X=X=X=X=X=X=X=X=X=X=X=X=X=X=X=X=X=X=X=X=X=X=X=X=X=X",
"=X=X=X=X=X=X=X=X. > #.z.D.E.!.C.0 A l.0 $ d O | E.E.E.E.N.V.E.N.* d $ J Z.J   =X=X=X=X=X=X=X=X=X=X=X=X=X=X=X=X=X=X=X=X=X=X=X=X=X=X=X=X=X=X=X=X=X=X=X=X=X=X=X=X=X",
"=X=X=X=X=X=X=X=X  S h.l.R.E.!.h.X [ E.$.+ d 3 > m.E.E.E.Z.R.E.m.* d @ Q /.w   =X=X=X=X=X=X=X=X=X=X=X=X=X=X=X=X=X=X=X=X=X=X=X=X=X=X=X=X=X=X=X=X=X=X=X=X=X=X=X=X=X",
"=X=X=X=X=X=X=X. * [ h.N.E.E.!.[ * $.R.R.S + x * P R.E.E.R.E.E.l.o f +  .L.* =X=X=X=X=X=X=X=X=X=X=X=X=X=X=X=X=X=X=X=X=X=X=X=X=X=X=X=X=X=X=X=X=X=X=X=X=X=X=X=X=X=X",
"=X=X=X=X=X=X. . * A Q l.R.E.!.S * } V.E.l.> 3 s o j.E.E.E.E.E.l.o s + X.x.. =X=X=X=X=X=X=X=X=X=X=X=X=X=X=X=X=X=X=X=X=X=X=X=X=X=X=X=X=X=X=X=X=X=X=X=X=X=X=X=X=X=X",
"=X=X=X=X=X=X. $ 2 O X > A W | 9 . S z.l.R.[ O d @ r S.E.E.E.E.j.o 4 + ;.,.. =X=X=X=X=X=X=X=X=X=X=X=X=X=X=X=X=X=X=X=X=X=X=X=X=X=X=X=X=X=X=X=X=X=X=X=X=X=X=X=X=X=X",
"=X=X=X=X=X=X. 4 z h d i % @ O . . [ h.h.h.$., - 4 X @.E.E.E.!.,.O 4 O ! P   . =X=X=X=X=X=X=X=X=X=X=X=X=X=X=X=X=X=X=X=X=X=X=X=X=X=X=X=X=X=X=X=X=X=X=X=X=X=X=X=X=X",
"=X=X=X=X=X=X. + 4 h B ( ( ( u.7 > $.$.G %.h.W . 4 @ 9 N.A.v...H . +   X # 3 $   =X=X=X=X=X=X=X=X=X=X=X=X=X=X=X=X=X=X=X=X=X=X=X=X=X=X=X=X=X=X=X=X=X=X=X=X=X=X=X=X",
"=X=X=X=X=X=X  o o + 2 f h / ` $ > F &.Q #.h.h.A + 4 X 9 1 o * > X @ 8 d d p #   =X=X=X=X=X=X=X=X=X=X=X=X=X=X=X=X=X=X=X=X=X=X=X=X=X=X=X=X=X=X=X=X=X=X=X=X=X=X=X=X",
"=X=X=X=X=X  , $.j.R 9 - O + . + F t +.$.+.| [ S   O     w ~ ;.2.- 2 3 $ X - o   =X=X=X=X=X=X=X=X=X=X=X=X=X=X=X=X=X=X=X=X=X=X=X=X=X=X=X=X=X=X=X=X=X=X=X=X=X=X=X=X",
"=X=X=X=X=Xo } G.E.E.R.l.z.,.5 * H r 0 ; = o X o 2 4 s + S 1.1.>.1 X 9 G o.n.1   =X=X=X=X=X=X=X=X=X=X=X=X=X=X=X=X=X=X=X=X=X=X=X=X=X=X=X=X=X=X=X=X=X=X=X=X=X=X=X=X",
"=X=X=X=X. 0 z.G.E.E.E.E.E.E.;.. X # @ % & 3 8 8 i 4 $ . # 0 - * * D c.A.A.B.# =X=X=X=X=X=X=X=X=X=X=X=X=X=X=X=X=X=X=X=X=X=X=X=X=X=X=X=X=X=X=X=X=X=X=X=X=X=X=X=X=X",
"=X=X=X=X  D l.G.E.E.E.E.E.E.z.* $ 3 & $ # O X o - 9 H D < t W o.j.M.A.A.F.1.. . =X=X=X=X=X=X=X=X=X=X=X=X=X=X=X=X=X=X=X=X=X=X=X=X=X=X=X=X=X=X=X=X=X=X=X=X=X=X=X=X",
"=X=X=X=X  F j.V.D.E.R.E.E.V.A   X * - 0 H P *.%.j.m.A.M.M.B.A.A.A.F.F.F.W.F o o =X=X=X=X=X=X=X=X=X=X=X=X=X=X=X=X=X=X=X=X=X=X=X=X=X=X=X=X=X=X=X=X=X=X=X=X=X=X=X=X",
"=X=X=X=X. D h.h.z.D.E.E.E.z.*   = { o.v.A.A.M.A.A.A.M.A.A.A.A.A.B.;.O.X.~ o Q r   =X=X=X=X=X=X=X=X=X=X=X=X=X=X=X=X=X=X=X=X=X=X=X=X=X=X=X=X=X=X=X=X=X=X=X=X=X=X=X",
"=X=X=X=X  t h.h.z.l.G.E.D.Q     X H %.%.v.v.%.v.M.M.&.&.c.M.A.c.H X * * o A D.G   =X=X=X=X=X=X=X=X=X=X=X=X=X=X=X=X=X=X=X=X=X=X=X=X=X=X=X=X=X=X=X=X=X=X=X=X=X=X=X",
"=X=X=X=X  o 0 D R R R S q *   =X. X t *.%.o.G H G %.*.t , t E t X E o.$.l.D.E.W   =X=X=X=X=X=X=X=X=X=X=X=X=X=X=X=X=X=X=X=X=X=X=X=X=X=X=X=X=X=X=X=X=X=X=X=X=X=X=X",
"=X=X=X=X=X=X  . . . .     =X=X=X=X  X > H 0 = = = < =           q &.h.M.E.E.E.|   =X=X=X=X=X=X=X=X=X=X=X=X=X=X=X=X=X=X=X=X=X=X=X=X=X=X=X=X=X=X=X=X=X=X=X=X=X=X=X",
"=X=X=X=X=X=X=X=X=X=X=X=X=X=X=X=X=Xo 9 o     r *.t . . =X=X=X=X  q Q W ..,.,.,.R . =X=X=X=X=X=X=X=X=X=X=X=X=X=X=X=X=X=X=X=X=X=X=X=X=X=X=X=X=X=X=X=X=X=X=X=X=X=X=X",
"=X=X=X=X=X=X=X=X=X=X=X=X=X=X=X=X=XX X X X X o o o X X =X=X=X=XX X o . X o o o o . =X=X=X=X=X=X=X=X=X=X=X=X=X=X=X=X=X=X=X=X=X=X=X=X=X=X=X=X=X=X=X=X=X=X=X=X=X=X=X",
"=X=X=X=X=X=X=X=X=X=X=X=X=X=X=X=X  o 6 v b b b j L U o =X=X=X=X. : 7 7 v v j v _ :   =X=X=X=X=X=X=X=X=X=X=X=X=X=X=X=X=X=X=X=X=X=X=X=X=X=X=X=X=X=X=X=X=X=X=X=X=X=X",
"=X=X=X=X=X=X=X=X=X=X=X=X=X=X=X=X  + 6 v v v j = j Y # . =X=X=XX : 7 6 u v : : Y w . =X=X=X=X=X=X=X=X=X=X=X=X=X=X=X=X=X=X=X=X=X=X=X=X=X=X=X=X=X=X=X=X=X=X=X=X=X=X",
"=X=X=X=X=X=X=X=X=X=X=X=X=X=X=X=X=X. . . . . . . . o . . =X=X=X. . . . . . . . . o . =X=X=X=X=X=X=X=X=X=X=X=X=X=X=X=X=X=X=X=X=X=X=X=X=X=X=X=X=X=X=X=X=X=X=X=X=X=X",
"=X=X=X=X=X=X=X=X=X=X=X=X=X=X=X=X=X=X=X=X=X=X=X=X=X=X=X=X=X=X=X=X=X=X=X=X=X=X=X=X=X=X=X=X=X=X=X=X=X=X=X=X=X=X=X=X=X=X=X=X=X=X=X=X=X=X=X=X=X=X=X=X=X=X=X=X=X=X=X=X",
"=X=X=X=X=X=X=X=X=X=X=X=X=X=X=X=X=X=X=X=X=X=X=X=X=X=X=X=X=X=X=X=X=X=X=X=X=X=X=X=X=X=X=X=X=X=X=X=X=X=X=X=X=X=X=X=X=X=X=X=X=X=X=X=X=X=X=X=X=X=X=X=X=X=X=X=X=X=X=X=X",
"=X=X=X=X=X=X=X=X=X=X=X=X=X=X=X=X=X=X=X=X=X=X=X=X=X=X=X=X=X=X=X=X=X=X=X=X=X=X=X=X=X=X=X=X=X=X=X=X=X=X=X=X=X=X=X=X=X=X=X=X=X=X=X=X=X=X=X=X=X=X=X=X=X=X=X=X=X=X=X=X",
"=X=X=X=X=X=X=X=X=X=X=X=X=X=X=X=X=X=X=X=X=X=X=X=X=X=X=X=X=X=X=X=X=X=X=X=X=X=X=X=X=X=X=X=X=X=X=X=X=X=X=X=X=X=X=X=X=X=X=X=X=X=X=X=X=X=X=X=X=X=X=X=X=X=X=X=X=X=X=X=X",
"=X=X=X=X=X=X=X=X=X=X=X=X=X=X=X=X=X=X=X=X=X=X=X=X=X=X=X=X=X=X=X=X=X=X=X=X=X=X=X=X=X=X=X=X=X=X=X=X=X=X=X=X=X=X=X=X=X=X=X=X=X=X=X=X=X=X=X=X=X=X=X=X=X=X=X=X=X=X=X=X",
"=X=X=X=X=X=X=X=X=X=X=X=X=X=X=X=X=X=X=X=X=X=X=X=X=X=X=X=X=X=X=X=X=X=X=X=X=X=X=X=X=X=X=X=X=X=X=X=X=X=X=X=X=X=X=X=X=X=X=X=X=X=X=X=X=X=X=X=X=X=X=X=X=X=X=X=X=X=X=X=X"
};
