/* XPM */
static char *result[] = {
/* columns rows colors chars-per-pixel */
"80 71 201 2 ",
"   c #161414",
".  c #191615",
"X  c #1C1917",
"o  c #1D1B1B",
"O  c #221C17",
"+  c #221D1A",
"@  c #281F1B",
"#  c #24211E",
"$  c #2B221C",
"%  c #31251E",
"&  c #3B2D1F",
"*  c #1F1F20",
"=  c #1F2021",
"-  c #222323",
";  c #2A2521",
":  c #2D2925",
">  c #252729",
",  c #27292A",
"<  c #2A2B2C",
"1  c #282728",
"2  c #322620",
"3  c #342923",
"4  c #3B2C24",
"5  c #332E2B",
"6  c #35312D",
"7  c #3A342D",
"8  c #2B2E31",
"9  c #2E3235",
"0  c #333333",
"q  c #393532",
"w  c #3E3A34",
"e  c #31363A",
"r  c #34393D",
"t  c #3C3B3A",
"y  c #402F26",
"u  c #4D3926",
"i  c #443229",
"p  c #4A362B",
"a  c #4D392E",
"s  c #463322",
"d  c #523A2D",
"f  c #533D27",
"g  c #433D35",
"h  c #423E39",
"j  c #483B32",
"k  c #543D31",
"l  c #5A3F31",
"z  c #59412A",
"x  c #46413A",
"c  c #4A443B",
"v  c #464036",
"b  c #5A4435",
"n  c #564539",
"m  c #654A2E",
"M  c #61472D",
"N  c #70502F",
"B  c #6B4B3B",
"V  c #604334",
"C  c #734F3D",
"Z  c #755336",
"A  c #363D41",
"S  c #393E43",
"D  c #3B4245",
"F  c #3D454A",
"G  c #3E494E",
"H  c #4B4642",
"J  c #4D4943",
"K  c #434649",
"L  c #43494D",
"P  c #4B4B4C",
"I  c #444546",
"U  c #524B45",
"Y  c #514D49",
"T  c #5B4D45",
"R  c #55514C",
"E  c #434D53",
"W  c #4D4E50",
"Q  c #455156",
"!  c #4C5154",
"~  c #465259",
"^  c #4A545C",
"/  c #48595E",
"(  c #5A5551",
")  c #5E5C56",
"_  c #56595C",
"`  c #55585B",
"'  c #785842",
"]  c #615A54",
"[  c #645F5A",
"{  c #6D5D53",
"}  c #65635C",
"|  c #77655A",
" . c #4E5A63",
".. c #4B5760",
"X. c #525D65",
"o. c #515F68",
"O. c #54636C",
"+. c #5B656B",
"@. c #596468",
"#. c #566671",
"$. c #586671",
"%. c #566B72",
"&. c #5A6B75",
"*. c #5E6E7A",
"=. c #5E717D",
"-. c #4F6066",
";. c #6B6A63",
":. c #696565",
">. c #766D6A",
",. c #7B726E",
"<. c #646D73",
"1. c #6A6D70",
"2. c #62727D",
"3. c #6B737A",
"4. c #6C757A",
"5. c #767676",
"6. c #845D36",
"7. c #855F38",
"8. c #8C643A",
"9. c #856038",
"0. c #95693B",
"q. c #87664E",
"w. c #9D6F40",
"e. c #997148",
"r. c #A47341",
"t. c #AD7B45",
"y. c #A97743",
"u. c #B27D47",
"i. c #AA7F52",
"p. c #827975",
"a. c #8D7164",
"s. c #B68148",
"d. c #B9834A",
"f. c #BC8852",
"g. c #BB9369",
"h. c #C69869",
"j. c #637481",
"k. c #657985",
"l. c #687A86",
"z. c #677A88",
"x. c #6A7D8A",
"c. c #777F85",
"v. c #6C838E",
"b. c #7C858B",
"n. c #768186",
"m. c #6F8290",
"M. c #6E8A93",
"N. c #718593",
"B. c #728A96",
"V. c #768B9B",
"C. c #788E9E",
"Z. c #74919A",
"A. c #7A909D",
"S. c #7D94A4",
"D. c #7E98A5",
"F. c #8C8B82",
"G. c #868688",
"H. c #938C86",
"J. c #958A85",
"K. c #98948B",
"L. c #838B91",
"P. c #86959D",
"I. c #9D9C91",
"U. c #A69994",
"Y. c #A79A95",
"T. c #AD9382",
"R. c #A5A499",
"E. c #B0A29D",
"W. c #8097A8",
"Q. c #829BAC",
"!. c #879BA6",
"~. c #8E9FAC",
"^. c #98A2AA",
"/. c #8DA4B4",
"(. c #92A6B4",
"). c #9FA9B2",
"_. c #98ADBC",
"`. c #89A2A9",
"'. c #BAACA6",
"]. c #B7AAA4",
"[. c #B9B3A8",
"{. c #A2ADB6",
"}. c #A8AFB5",
"|. c #AAB4BC",
" X c #A8B1B9",
".X c #BFBEB2",
"XX c #CAAC98",
"oX c #C5B6B0",
"OX c #CABBB4",
"+X c #CFBFB8",
"@X c #C7B8B1",
"#X c #D0BFB8",
"$X c #E0BEA8",
"%X c #D1C1BA",
"&X c #C7C6BC",
"*X c #FFD9BF",
"=X c #F7D1B9",
"-X c #ECC8B0",
";X c #D6C8C2",
":X c #FFD9C0",
">X c None",
/* pixels */
">X>X>X>X>X>X>X>X>X>X>X>X>X>X>X>X>X>X>X>X>X>X>X>X>X>X>X>X>X>X>X>X>X>X>X>X>X>X>X>X>X>X>X>X>X>X>X>X>X>X>X>X>X>X>X>X>X>X>X>X>X>X>X>X>X>X>X>X>X>X>X>X>X>X>X>X>X>X>X>X",
">X>X>X>X>X>X>X>X>X>X>X>X>X>X>X>X>X>X>X>X>X>X>X>X>X>X>X>X>X>X>X>X>X>X>X>X>X>X>X>X>X>X>X>X>X>X>X>X>X>X>X>X>X>X>X>X>X>X>X>X>X>X>X>X>X>X>X>X>X>X>X>X>X>X>X>X>X>X>X>X",
">X>X>X>X>X>X>X>X>X>X>X>X>X>X>X>X>X>X>X>X>X>X>X>X>X>X>X>X>X>X>X>X>X>X>X>X>X>X>X>X>X>X>X>X>X>X>X>X>X>X>X>X>X>X>X>X>X>X>X>X>X>X>X>X>X>X>X>X>X>X>X>X>X>X>X>X>X>X>X>X",
">X>X>X>X>X>X>X>X>X>X>X>X>X>X>X>X>X>X>X>X>X>X>X>X>X>X>X>X. . >X>X>X>X>X>X>X>X>X>X>X>X>X>X>X>X>X>X>X>X>X>X>X>X>X>X>X>X>X>X>X>X>X>X>X>X>X>X>X>X>X>X>X>X>X>X>X>X>X>X",
">X>X>X>X>X>X>X>X>X>X>X>X>X>X>X>X>X>X>X>X>X>X>X>X>X>X>X. . . >X>X>X>X>X>X>X>X>X>X>X>X>X>X>X>X>X>X>X>X>X>X>X>X>X>X>X>X>X>X>X>X>X>X>X>X>X>X>X>X>X>X>X>X>X>X>X>X>X>X",
">X>X>X>X>X>X>X>X>X>X>X>X>X>X>X>X>X>X>X>X>X>X>X>X>X  o 1 . >X>X>X>X>X>X>X>X>X>X>X>X>X>X>X>X>X>X>X>X>X>X>X>X>X>X>X>X>X>X>X>X>X>X>X>X>X>X>X>X>X>X>X>X>X>X>X>X>X>X>X",
">X>X>X>X>X>X>X>X>X>X>X>X>X>X>X>X>X>X>X>X>X>X>X>X  - <.W   >X>X>X>X>X>X>X>X>X>X>X>X>X>X>X>X>X>X>X>X>X>X>X>X>X>X>X>X>X>X>X>X>X>X>X>X>X>X>X>X>X>X>X>X>X>X>X>X>X>X>X",
">X>X>X>X>X>X>X>X>X>X>X>X>X>X>X>X>X>X>X>X>X>X>X  ; 1.^.0   >X>X>X>X>X>X>X>X>X>X>X>X>X>X>X>X>X>X>X>X>X>X>X>X>X>X>X>X>X>X>X>X>X>X>X>X>X>X>X>X>X>X>X>X>X>X>X>X>X>X>X",
">X>X>X>X>X>X>X>X>X>X>X>X>X>X>X>X>X>X>X>X>X>X. - <.{.L.o >X>X>X>X>X>X>X>X>X>X>X>X>X>X>X>X>X>X>X>X>X>X>X>X>X>X>X>X>X>X>X>X>X>X>X>X>X>X>X>X>X>X>X>X>X>X>X>X>X>X>X>X",
">X>X>X>X>X>X>X>X>X>X>X>X>X>X>X>X>X>X>X>X>X. + X.^.|.1.  >X>X>X>X>X>X>X>X>X>X>X>X>X>X>X>X>X>X>X>X>X>X>X>X>X>X>X>X>X>X>X>X>X>X>X>X>X>X>X>X>X>X>X>X>X>X>X>X>X>X>X>X",
">X>X>X>X>X>X>X>X>X>X>X>X>X>X>X>X>X>X>X>X>X. P P.{. XW   >X>X>X>X>X>X>X.   .     . >X>X>X>X>X>X>X>X>X>X>X>X>X>X>X>X>X>X>X>X>X>X>X>X>X>X>X>X>X>X>X>X>X>X>X>X>X>X>X",
">X>X>X>X>X>X>X>X>X>X>X>X>X>X>X>X>X>X>X>X. 0 n.).{. Xt   >X>X>X>X>X>X>X. $ M m u $ . >X>XX >X>X>X>X>X>X>X>X>X>X>X>X>X>X>X>X>X>X>X>X>X>X>X>X>X>X>X>X>X>X>X>X>X>X>X",
">X>X>X>X>X>X>X>X>X>X>X>X>X>X>X>X>X>X>X>XO X.^.{.|. X5   X o >X>X>X>X>X  $ 6.y.s.0.z X . . . >X>X>X>X>X>X>X>X>X>X>X>X>X>X>X>X>X>X>X>X>X>X>X>X>X>X>X>X>X>X>X>X>X>X",
">X>X>X>X>X>X>X>X>X>X>X>X>X>X>X>X>X>X>X. 0 L.{. X|.|._   1 9 >X>X>X. . . & 6.0.s.d.d.M X u % . >X>X>X>X>X>X>X>X>X>X>X>X>X>X>X>X>X>X>X>X>X>X>X>X>X>X>X>X>X>X>X>X>X",
">X>X>X>X>X>X>X>X>X>X>X>X>X>X>X>X>X>X>X. ` P.{.{.{.{._ - I X   >X. . O o $ u Z 0.u.d.t.8.t.' o   . >X>X>X>X>X>X>X>X>X>X>X>X>X>X>X>X>X>X>X>X>X>X>X>X>X>X>X>X>X>X>X",
">X>X>X>X>X>X>X>X>X>X>X>X>X>X>X>X>X>X>X  ` b.^.{.{.4.# _ P o - X X . $ i   . O z 8.y.s.d.d.s.:   . >X>X>X>X>X>X>X. . >X>X>X>X>X>X>X>X>X>X>X>X>X>X>X>X>X>X>X>X>X>X",
">X>X>X>X>X>X>X>X>X>X>X>X>X>X>X>X>X>X>X  < 3.L.^.L.1 * P * p.].U.p.1 . p @ < A o s 9.y.d.d.f.v . o   >X>X>X>X>X>X. .   >X>X>X>X>X>X>X>X>X>X>X>X>X>X>X>X>X>X>X>X>X",
">X>X>X>X>X>X>X>X>X>X>X>X>X>X>X>X>X>X>X>X. I c.4.8 @ I   H oX;X;XU.5   ; i o o. .X u 8.u.d.f.q.' 4 . >X>X>X>X>X>X. 5 - . >X>X>X>X>X>X>X>X>X>X>X>X>X>X>X>X>X>X>X>X",
">X>X>X>X>X>X>X>X>X>X>X>X>X>X>X>X>X>X>X>X. o K < 1 A o 0 E.#X#X@Xp.+ S * y 2 , m.! X N r.d.d.h.g.4   >X>X>X>X>X>X. ,.} . >X>X>X>X>X>X>X>X>X>X>X>X>X>X>X>X>X>X>X>X",
">X>X>X>X>X>X>X>X>X>X>X>X>X>X>X>X>X>X>X>X>X. . + W 0 1 U.#X#X#XE.Y - x.E O p O E v.- s r.s.d.f.e.# . >X>X>X>X>X  1 E.Y.+ >X>X>X>X>X>X>X>X>X>X>X>X>X>X>X>X>X>X>X>X",
">X>X>X>X>X>X>X>X>X>X>X>X>X>X>X>X>X>X>X>X>X  - < - @ >.E.oX@X].p.# E Q.O.  2 y o $.D $ 0.s.d.u.f .   >X>X>X>X  O p.#X'.5   >X>X>X>X>X>X>X>X>X>X>X>X>X>X>X>X>X>X>X",
">X>X>X>X>X>X>X>X>X>X>X>X>X>X>X>X>X>X>X>X. o 8 ,   * H ,.J.U.J.h > ..x.x.E o i 2 < L # Z s.s.m O ^ < .     . 0 G.%X+XoXw   >X>X>X>X>X>X>X>X>X>X>X>X>X>X>X>X>X>X>X",
">X>X>X>X>X>X>X>X>X>X>X>X>X>X>X>X>X>X>X>X  8 &.2.F .   + 0 ( I * O.z.V.Q.D.G O u # # X Z d.7.O E (.3.X Y >.H.oX;X+X%X].q   >X>X>X>X>X>X>X>X>X>X>X>X>X>X>X>X>X>X>X",
">X>X>X>X>X>X>X>X>X>X>X>X>X>X>X>X>X>X>X>X  8 j.W.C.F . 8 8 * * ..W.~.Q.Q.Q.N.< % s . O 9.t.y 9 C./.!.> } ;X;X%X+X+X+XU.:   >X>X>X>X>X>X>X>X>X>X>X>X>X>X>X>X>X>X>X",
">X>X>X>X>X>X>X>X>X>X>X>X>X>X>X>X>X>X>X>X. < *.x.D.C.A - j.x.x.S.x.o.x.W.Q.Q.*.o y 4 X 6.7.o $.Q.Q.(.K h oX#X#X#X%X@Xp.O >X>X>X>X>X>X>X>X>X>X>X>X>X>X>X>X>X>X>X>X",
">X>X>X>X>X>X>X>X>X>X>X>X>X>X>X>X>X>X>X>X>Xo O.j.x.S.*.o j.Q.Q.C.9 o * E N.W.W.E O a @ @ @ 8 C.Q.Q.(.X.: '.#X#X#XOXY.Y . >X>X>X>X>X>X>X>X>X>X>X>X>X>X>X>X>X>X>X>X",
">X>X>X>X>X>X>X>X>X>X>X>X>X>X>X>X>X>X>X>X>X. S 2.j.j.m.F z.D.S.~ - $.^ > - ^ N.V.9 % p . 1 x.Q.Q.Q./.<.1 E.#X@X'.Y.,.-   >X>X>X>X>X>X>X>X>X>X>X>X>X>X>X>X>X>X>X>X",
">X>X>X>X>X>X>X>X>X>X>X>X>X>X>X>X>X>X>X>X>X  o G *.j.k.k.S.D.C.8 e C.Q.x.E + > X.o.* y y * j.Q.Q.Q.(.3.# J.Y.U.J.>.1 . >X>X>X>X>X>X>X>X>X>X>X>X>X>X>X>X>X>X>X>X>X",
">X>X>X>X>X>X>X>X>X>X>X>X>X>X>X>X>X>X>X>X>X. . . G j.j.j.C.D.S.S . A x.Q.W.x.F o < - X a $ 9 C.Q.Q._.1.o ] :.( g o . >X>X>X>X>X>X>X>X>X>X>X>X>X>X>X>X>X>X>X>X>X>X",
">X>X>X>X>X>X>X>X>X>X>X>X>X>X>X>X>X>X>X>X>X>X. e O.j.j.#.x.D.S.A ; 3 -  .C.Q.D.k.e . * @ 4 . L k.z.N.E   o .     >X>X>X>X>X>X>X>X>X>X>X>X>X>X>X>X>X>X>X>X>X>X>X>X",
">X>X>X>X>X>X>X>X>X>X>X>X>X>X>X>X>X>X>X>X>X>X  9 j.j.j.A o.D.S.8 { XX{ * e j.Q.Q.E - X.* X o X o o o o . >X>X>X>X>X>X>X>X>X>X>X>X>X>X>X>X>X>X>X>X>X>X>X>X>X>X>X>X",
">X>X>X>X>X>X>X>X>X>X>X>X>X>X>X>X>X>X>X>X>X>X. o  .j.j.o.#.C.S.8 | :X=XT.i * ^ j.- E C.< A j.j.2.2.2.X.o >X>X>X>X>X>X>X>X>X>X>X>X>X>X>X>X>X>X>X>X>X>X>X>X>X>X>X>X",
">X>X>X>X>X>X>X>X>X>X>X>X>X>X>X>X>X>X>X>X>X>X    A j.o.S #.z.C.A h -X:X*X$X| + o - N.N.- X.~.Q.Q.Q.W.j.o >X>X>X>X>X>X>X>X>X>X>X>X>X>X>X>X>X>X>X>X>X>X>X>X>X>X>X>X",
">X>X>X>X>X>X>X>X>X>X>X>X>X>X>X>X>X>X>X>X>X  + @ . ..o.o A j.V.&.+ | $X=X=XXX5 - 2.Q.j.o F ..E K S A < . >X>X>X>X>X>X>X>X>X>X>X>X>X>X>X>X>X>X>X>X>X>X>X>X>X>X>X>X",
">X>X>X>X>X>X>X>X>X>X>X>X>X>X>X>X>X>X. . * . + 2   * o.~ S x.Q.W...o 6 T U ; . ..S.Q.C.8 . . O + + .   >X>X>X>X>X>X>X>X>X>X>X>X>X>X>X>X>X>X>X>X>X>X>X>X>X>X>X>X>X",
">X>X>X>X>X>X>X>X>X>X>X>X>X>X>X>X>X. 8 ~ o...<   .   > O.j.z.S.Q.W.k.E A 8 . . * e ..j.A O d l l p . >X>X>X>X>X>X>X>X>X>X>X>X>X>X>X>X>X>X>X>X>X>X>X>X>X>X>X>X>X>X",
">X>X>X>X>X>X>X>X>X>X>X>X>X>X>X>X. 8 e #.V.C.j.,   . * > o.j.N.W.Q.Q.Q.Q.o.. g c 5 + o o . d C B %   . >X>X>X>X>X>X>X>X>X>X>X>X>X>X>X>X>X>X>X>X>X>X>X>X>X>X>X>X>X",
">X>X>X>X>X>X>X>X>X>X>X>X>X>X>X. 9 ~ F N.Q.Q.Q.~   * .., * ^ k.V.Q.Q.Q.Q.l.* ; H ] [ J X + O 4 $ . . . >X>X>X>X>X>X>X>X>X>X>X>X>X>X>X>X>X>X>X>X>X>X>X>X>X>X>X>X>X",
">X>X>X>X>X>X>X>X>X>X>X>X>X>X  8 G o.V.Q.Q.W.W.S O o ~ x.e o S 2.V.W.Q.Q.W.2.> + g U q * &.E >     . >X>X>X>X>X>X>X>X>X>X>X>X>X>X>X>X>X>X>X>X>X>X>X>X>X>X>X>X>X>X",
">X>X>X>X>X>X>X>X>X>X>X>X>X  8 #.j.x.D.Q.Q.Q.&.. 4 3 9 S.C.E o 8 ..2.S.Q.Q.Q.j.< o . > O.Q.N.9 . >X>X>X>X>X>X>X>X>X>X>X>X>X>X>X>X>X>X>X>X>X>X>X>X>X>X>X>X>X>X>X>X",
">X>X>X>X>X>X>X>X>X>X>X>X. , o.k.x.D.Q.Q.Q.k.- . ; p * l.Q.W.$.8 o o G N.Q.Q.Q.B.&.O.B.Q.m.9   >X>X>X>X>X>X>X>X>X>X>X>X>X>X>X>X>X>X>X>X>X>X>X>X>X>X>X>X>X>X>X>X>X",
">X>X>X>X>X>X>X>X>X>X. . . e *.k.S.Q.Q.Q.l.- 9 E O a O o.Q.Q.Q.V...o   > ~ z.S.Q.Q.Q.C.$.<   >X>X>X>X>X>X>X>X>X>X>X>X>X>X>X>X>X>X>X>X>X>X>X>X>X>X>X>X>X>X>X>X>X>X",
">X>X>X>X>X>X>X>X>X>X. 3 2 X A l.Q.Q.Q.N.8 > z.x.+ p $ S W.Q.Q.Q.S.e O y $ * 8 D E F < o   >X>X>X>X>X>X>X>X>X>X>X>X>X>X>X>X>X>X>X>X>X>X>X>X>X>X>X>X>X>X>X>X>X>X>X",
">X>X>X>X>X>X>X>X>X  + a l 4 . 8 j.S.Q.~ o  .V.W.e 3 y > V.Q.Q.Q.Q.X.O N 8.Z f & % .   o o >X>X>X>X>X>X>X>X>X>X>X>X>X>X>X>X>X>X>X>X>X        >X>X>X>X>X>X>X>X>X>X",
">X>X>X>X>X>X>X>X>X. . @ d V l @ * S O.- 8 *.V.Q.E + a O j.Q.Q.Q.Q.j.* $ u y.s.t.6.O   0 D . >X>X>X>X>X>X>X>X>X>X>X>X>X>X>X>X>X>X>X. # ) [ : . >X>X>X>X>X>X>X>X>X",
">X>X>X>X>X>X>X. . 8 S > + l 6.' a - . . * ..V.Q.*.o a + X.Q.Q.Q.S.x.G . . z f f 4 1 , A N.<   >X>X>X>X>X>X>X>X>X>X>X>X>X>X>X>X>X>X  ;..X&XF.# : # >X>X>X>X>X>X>X",
">X>X>X>X>X>X>Xo S x.W.j.1 o i B q.a.2   * o.z.S.N.- i % r W.Q.Q.S.C.V.&.< . . . X <.< Q N.e . . >X>X>X>X>X>X>X>X>X>X>X>X>X>X>X>X  8 R.[.I.P v v X >X>X>X>X>X>X>X",
">X>X>X>X>X>X. e j.W.Q./.x.F * O j T o A  .*.j.z.N.0 2 y , V.Q.Q.S.Q.Q.m.- 2 + - ! <.o A < + c ; . >X>X>X>X>X>X>X>X>X>X>X>X>X>X>X  x F.F.v c v t o o o . >X>X>X>X",
">X>X>X>X>X. o O.N.Q.Q.Q.Q.D.z.F . . 8 -.O.=.Q &.j.A + 4 o l.Q.Q.Q.W.W.X.o d O o.(.t   . 2 T a.g   >X>X>X>X>X>X>X>X>X>X>X>X>X>X# v v w 7 : : R I.v : &   >X>X>X>X",
">X>X>X>X>X  9 =.m.Q.Q.Q.Q.D.Q.S.9 = %.Q D =.G %.j.~ o 4 X O.Q.Q.Q.W.W.A % i @ P.3.. @ p ' ' l * . >X>X>X>X>X>X>X>X>X>X>X>X>X>Xo : 6 w v c v w R t X #   >X>X>X>X",
">X>X>X>X>X. G j.j.m.D.Q.Q.Q.Q.Q.A X D G E *.=.j.k.o.* 4 O E Q.Q.Q.Q.x.* 4 @ I ~.8 @ l ' B y * *   . >X>X>X>X>X>X>X>X>X      X $ o   7 , v w v c 7 # .   >X>X>X>X",
">X>X>X>X>X. D =.j.z.Q.Q.Q.W.S.*.- o O o o - 8 A L ..- $ @ 8 2.z.x.C.E O y X j.1.X p d i @ +  .x.E o . >X>X>X>X  .   X # 3 a n b : 7 v _ R.I.;.c v c # >X>X>X>X>X",
">X>X>X>X>X. o e  .=.C.Q.Q.Q.o.. . $ 4 4 & % $ O X o . . X . o * 1 1 * o @ o +.A . @ O o S z.D.Q.W.O.o .     o # 5 a b b n 7 $ O # c g A.[.[.[.H.) # o >X>X>X>X>X",
">X>X>X>X>X>X>X. o 8 E #.x.2., . . X X o # $ % 3 4 y p p y . t @.` K X O O o o + . X A $.D.D.Q.Q.Q.N.- O 4 j b b b p : O         5 6 } g.F.F.) J ) . >X>X>X>X>X>X",
">X>X>X>X>X>X>X>X>X. . o - o   >X. - G G D 9 > = + X + $ $ . ! 4.b.c.* 4 d d d d 2 * $.z.S.D.S.V.Q.&.X j b p 3 o     .   >X>X>X>X. o ;.F.} R } ] 0 X >X>X>X>X>X>X",
">X>X>X>X>X>X>X>X>X>X>X>X>X>X>X>X>Xo / %.v.M.M.=.&.o.~ F e . + < A t . X o o X o X 1 &.j.z.x.j.j.C.x.o O o .     >X>X>X>X>X>X>X>X>X. 0 } ( h < o   >X>X>X>X>X>X>X",
">X>X>X>X>X>X>X>X>X>X>X>X>X>X>X>X>X. 8 -.=.M.M.v.Z.Z.Z.Z.M.-.G D A 1 9 -.%.@.%.D   G j.*.j.j.j.j.x.v.-   >X>X>X>X>X>X>X>X>X>X>X>X>X>X. X . .   >X>X>X>X>X>X>X>X>X",
">X>X>X>X>X>X>X>X>X>X>X>X>X>X>X>X>X. . D %.%.%.%.M.Z.M.M.Z.Z.Z.Z.C.x.M.Z.Z.Z.A.t   A j.j.j.j.j.j.%.A . >X>X>X>X>X>X>X>X>X>X>X>X>X>X>X>X>X>X>X>X>X>X>X>X>X>X>X>X>X",
">X>X>X>X>X>X>X>X>X>X>X>X>X>X>X>X>X. = o r F 8 8 / =.=.=.M.Z.Z.Z.C.S.S.Z.Z.D.<.X   o O.j.j.j.&.G - . >X>X>X>X>X>X>X>X>X>X>X>X>X>X>X>X>X>X>X>X>X>X>X>X>X>X>X>X>X>X",
">X>X>X>X>X>X>X>X>X>X>X>X>X>X>X>X>XX ~ F * = 9 8 = G Q A G k.Z.Z.z.@.3.A.`.n., o . . e O...D > . . >X>X>X>X>X>X>X>X>X>X>X>X>X>X>X>X>X>X>X>X>X>X>X>X>X>X>X>X>X>X>X",
">X>X>X>X>X>X>X>X>X>X>X>X>X>X>X>X>Xo G  .E / %./ = X .     > Q Q = . . < L , o e . . . o o .   >X>X>X>X>X>X>X>X>X>X>X>X>X>X>X>X>X>X>X>X>X>X>X>X>X>X>X>X>X>X>X>X>X",
">X>X>X>X>X>X>X>X>X>X>X>X>X>X>X>X>X  X o O o O o o X X >X>X. . . . X . . X X o o . >X>X>X>X>X>X>X>X>X>X>X>X>X>X>X>X>X>X>X>X>X>X>X>X>X>X>X>X>X>X>X>X>X>X>X>X>X>X>X",
">X>X>X>X>X>X>X>X>X>X>X>X>X>X>X>X  o 7 c c c c g R R X >X>X>X>X. 5 7 7 v c v c ) :   >X>X>X>X>X>X>X>X>X>X>X>X>X>X>X>X>X>X>X>X>X>X>X>X>X>X>X>X>X>X>X>X>X>X>X>X>X>X",
">X>X>X>X>X>X>X>X>X>X>X>X>X>X>X>X  * 6 x c c w # w R = X >X>X>X. : 7 6 w c : : R 0 . >X>X>X>X>X>X>X>X>X>X>X>X>X>X>X>X>X>X>X>X>X>X>X>X>X>X>X>X>X>X>X>X>X>X>X>X>X>X",
">X>X>X>X>X>X>X>X>X>X>X>X>X>X>X>X>X. . . . o . . . o . . >X>X>X. . . X . . . . X . . >X>X>X>X>X>X>X>X>X>X>X>X>X>X>X>X>X>X>X>X>X>X>X>X>X>X>X>X>X>X>X>X>X>X>X>X>X>X",
">X>X>X>X>X>X>X>X>X>X>X>X>X>X>X>X>X>X>X>X>X>X>X>X>X>X>X>X>X>X>X>X>X>X>X>X>X>X>X>X>X>X>X>X>X>X>X>X>X>X>X>X>X>X>X>X>X>X>X>X>X>X>X>X>X>X>X>X>X>X>X>X>X>X>X>X>X>X>X>X",
">X>X>X>X>X>X>X>X>X>X>X>X>X>X>X>X>X>X>X>X>X>X>X>X>X>X>X>X>X>X>X>X>X>X>X>X>X>X>X>X>X>X>X>X>X>X>X>X>X>X>X>X>X>X>X>X>X>X>X>X>X>X>X>X>X>X>X>X>X>X>X>X>X>X>X>X>X>X>X>X",
">X>X>X>X>X>X>X>X>X>X>X>X>X>X>X>X>X>X>X>X>X>X>X>X>X>X>X>X>X>X>X>X>X>X>X>X>X>X>X>X>X>X>X>X>X>X>X>X>X>X>X>X>X>X>X>X>X>X>X>X>X>X>X>X>X>X>X>X>X>X>X>X>X>X>X>X>X>X>X>X",
">X>X>X>X>X>X>X>X>X>X>X>X>X>X>X>X>X>X>X>X>X>X>X>X>X>X>X>X>X>X>X>X>X>X>X>X>X>X>X>X>X>X>X>X>X>X>X>X>X>X>X>X>X>X>X>X>X>X>X>X>X>X>X>X>X>X>X>X>X>X>X>X>X>X>X>X>X>X>X>X",
">X>X>X>X>X>X>X>X>X>X>X>X>X>X>X>X>X>X>X>X>X>X>X>X>X>X>X>X>X>X>X>X>X>X>X>X>X>X>X>X>X>X>X>X>X>X>X>X>X>X>X>X>X>X>X>X>X>X>X>X>X>X>X>X>X>X>X>X>X>X>X>X>X>X>X>X>X>X>X>X",
">X>X>X>X>X>X>X>X>X>X>X>X>X>X>X>X>X>X>X>X>X>X>X>X>X>X>X>X>X>X>X>X>X>X>X>X>X>X>X>X>X>X>X>X>X>X>X>X>X>X>X>X>X>X>X>X>X>X>X>X>X>X>X>X>X>X>X>X>X>X>X>X>X>X>X>X>X>X>X>X"
};
