/* XPM */
static char *result[] = {
/* columns rows colors chars-per-pixel */
"80 71 206 2 ",
"   c #161414",
".  c #181615",
"X  c #1C1917",
"o  c #1D1B1A",
"O  c #211B17",
"+  c #231D1A",
"@  c #281F1A",
"#  c #25201D",
"$  c #2C221C",
"%  c #31251E",
"&  c #36291D",
"*  c #392C1E",
"=  c #1F2021",
"-  c #232323",
";  c #2A2623",
":  c #2C2926",
">  c #252728",
",  c #26292A",
"<  c #2A2B2C",
"1  c #332720",
"2  c #342A23",
"3  c #3B2C24",
"4  c #322E2A",
"5  c #36322D",
"6  c #3B342E",
"7  c #3B3027",
"8  c #2B2F31",
"9  c #2E3235",
"0  c #2F3438",
"q  c #333435",
"w  c #3A3633",
"e  c #3C3933",
"r  c #323639",
"t  c #34393D",
"y  c #3A3C3D",
"u  c #402F26",
"i  c #423026",
"p  c #4E3B26",
"a  c #45332A",
"s  c #4A362B",
"d  c #4F3A2E",
"f  c #483728",
"g  c #533B2C",
"h  c #503B26",
"j  c #413C34",
"k  c #433F3A",
"l  c #4C3E35",
"z  c #5B3F31",
"x  c #513F32",
"c  c #5A422A",
"v  c #4B453C",
"b  c #454139",
"n  c #554335",
"m  c #5B4335",
"M  c #5C493B",
"N  c #52483E",
"B  c #6C4B3A",
"V  c #614737",
"C  c #724F3D",
"Z  c #745332",
"A  c #7C5934",
"S  c #694F34",
"D  c #373D42",
"F  c #383F44",
"G  c #3B4144",
"H  c #3D454B",
"J  c #3D484D",
"K  c #434343",
"L  c #41494F",
"P  c #4D4A47",
"I  c #534E4A",
"U  c #554A43",
"Y  c #55524C",
"T  c #58514E",
"R  c #434D53",
"E  c #4A4E51",
"W  c #455156",
"Q  c #4D5154",
"!  c #475259",
"~  c #4A555D",
"^  c #49595D",
"/  c #5D5552",
"(  c #525659",
")  c #545A5E",
"_  c #5C5952",
"`  c #7B5541",
"'  c #615A55",
"]  c #685C56",
"[  c #6E564A",
"{  c #65645C",
"}  c #79665B",
"|  c #7D644B",
" . c #4D5A62",
".. c #4B5760",
"X. c #515D66",
"o. c #525F68",
"O. c #585D61",
"+. c #54626C",
"@. c #56656B",
"#. c #566570",
"$. c #586670",
"%. c #5A6A75",
"&. c #5E6E7A",
"*. c #576D74",
"=. c #5F727D",
"-. c #5F787F",
";. c #4D6066",
":. c #63666A",
">. c #696864",
",. c #746D69",
"<. c #746B67",
"1. c #77736C",
"2. c #636F79",
"3. c #61727E",
"4. c #69727A",
"5. c #797875",
"6. c #835D36",
"7. c #855F38",
"8. c #8C6339",
"9. c #996D3E",
"0. c #956A3C",
"q. c #9F703F",
"w. c #815C4A",
"e. c #9A7247",
"r. c #A27341",
"t. c #AC7A44",
"y. c #AC7D4C",
"u. c #897265",
"i. c #897E7A",
"p. c #857B76",
"a. c #B68148",
"s. c #B98349",
"d. c #B98855",
"f. c #85847B",
"g. c #818076",
"h. c #988173",
"j. c #C69C71",
"k. c #627481",
"l. c #657A85",
"z. c #687A87",
"x. c #6A7D8B",
"c. c #677A88",
"v. c #727C83",
"b. c #787C81",
"n. c #6C828E",
"m. c #668089",
"M. c #7D858B",
"N. c #798087",
"B. c #6E8391",
"V. c #6F8B93",
"C. c #728694",
"Z. c #728B95",
"A. c #758B9A",
"S. c #798E9E",
"D. c #7A8C91",
"F. c #74919A",
"G. c #7E959C",
"H. c #7D94A4",
"J. c #7F97A8",
"K. c #7C98A1",
"L. c #958A86",
"P. c #9D928D",
"I. c #9A998E",
"U. c #919085",
"Y. c #848D94",
"T. c #828F99",
"R. c #82939C",
"E. c #8C949C",
"W. c #8F8783",
"Q. c #A1948F",
"!. c #AF9483",
"~. c #A49994",
"^. c #A59893",
"/. c #A7A399",
"(. c #BEA28F",
"). c #8A99A4",
"_. c #8097A8",
"`. c #839BAC",
"'. c #839CA4",
"]. c #919BA3",
"[. c #879FB1",
"{. c #9AA5AD",
"}. c #8CA2B1",
"|. c #96A8B5",
" X c #8FA1AE",
".X c #B7A9A2",
"XX c #B7B6A9",
"oX c #A2ACB5",
"OX c #A7B1BA",
"+X c #AAB4BD",
"@X c #ADACA4",
"#X c #D5B49F",
"$X c #C3B4AD",
"%X c #DBB9A4",
"&X c #C5B7B1",
"*X c #CDBDB6",
"=X c #CFBFB8",
"-X c #D1C1BA",
";X c #C4C3B9",
":X c #FFD8BF",
">X c #FFD7BE",
",X c #E8C5AE",
"<X c #B2BBC3",
"1X c #D6C8C1",
"2X c #FFDAC1",
"3X c None",
/* pixels */
"3X3X3X3X3X3X3X3X3X3X3X3X3X3X3X3X3X3X3X3X3X3X3X3X3X3X3X3X3X3X3X3X3X3X3X3X3X3X3X3X3X3X3X3X3X3X3X3X3X3X3X3X3X3X3X3X3X3X3X3X3X3X3X3X3X3X3X3X3X3X3X3X3X3X3X3X3X3X3X3X",
"3X3X3X3X3X3X3X3X3X3X3X3X3X3X3X3X3X3X3X3X3X3X3X3X3X3X3X3X3X3X3X3X3X3X3X3X3X3X3X3X3X3X3X3X3X3X3X3X3X3X3X3X3X3X3X3X3X3X3X3X3X3X3X3X3X3X3X3X3X3X3X3X3X3X3X3X3X3X3X3X",
"3X3X3X3X3X3X3X3X3X3X3X3X3X3X3X3X3X3X3X3X3X3X3X3X3X3X3X3X3X3X3X3X3X3X3X3X3X3X3X3X3X3X3X3X3X3X3X3X3X3X3X3X3X3X3X3X3X3X3X3X3X3X3X3X3X3X3X3X3X3X3X3X3X3X3X3X3X3X3X3X",
"3X3X3X3X3X3X3X3X3X3X3X3X3X3X3X3X3X3X3X3X3X3X3X3X3X3X3X3X3X3X3X3X3X3X. 3X3X3X3X3X3X3X3X3X3X3X3X3X3X3X3X3X3X3X3X3X3X3X3X3X3X3X3X3X3X3X3X3X3X3X3X3X3X3X3X3X3X3X3X3X",
"3X3X3X3X3X3X3X3X3X3X3X3X3X3X3X3X3X3X3X3X3X3X3X3X3X3X3X3X3X3X3X  . . . 3X3X3X3X3X3X3X3X3X3X3X3X3X3X3X3X3X3X3X3X3X3X3X3X3X3X3X3X3X3X3X3X3X3X3X3X3X3X3X3X3X3X3X3X3X",
"3X3X3X3X3X3X3X3X3X3X3X3X3X3X3X3X3X3X3X3X3X3X3X3X3X3X3X3X3X3X  - q X . 3X3X3X3X3X3X3X3X3X3X3X3X3X3X3X3X3X3X3X3X3X3X3X3X3X3X3X3X3X3X3X3X3X3X3X3X3X3X3X3X3X3X3X3X3X",
"3X3X3X3X3X3X3X3X3X3X3X3X3X3X3X3X3X3X3X3X3X3X3X3X3X3X3X3X. . t N.E   3X3X3X3X3X3X3X3X3X3X3X3X3X3X3X3X3X3X3X3X3X3X3X3X3X3X3X3X3X3X3X3X3X3X3X3X3X3X3X3X3X3X3X3X3X3X",
"3X3X3X3X3X3X3X3X3X3X3X3X3X3X3X3X3X3X3X3X3X3X3X3X3X3X3X. o E E.].;   3X3X3X3X3X3X3X3X3X3X3X3X3X3X3X3X3X3X3X3X3X3X3X3X3X3X3X3X3X3X3X3X3X3X3X3X3X3X3X3X3X3X3X3X3X3X",
"3X3X3X3X3X3X3X3X3X3X3X3X3X3X3X3X3X3X3X3X3X3X3X3X3X3X  + ) ].OX:.. 3X3X3X3X3X3X3X3X3X3X3X3X3X3X3X3X3X3X3X3X3X3X3X3X3X3X3X3X3X3X3X3X3X3X3X3X3X3X3X3X3X3X3X3X3X3X3X",
"3X3X3X3X3X3X3X3X3X3X3X3X3X3X3X3X3X3X3X3X3X3X3X3X3X  + O.].oXoXq   3X3X3X3X3X3X3X3X3X3X3X3X3X3X3X3X3X3X3X3X3X3X3X3X3X3X3X3X3X3X3X3X3X3X3X3X3X3X3X3X3X3X3X3X3X3X3X",
"3X3X3X3X3X3X3X3X3X3X3X3X3X3X3X3X3X3X3X3X3X3X3X3X. o Q E.oXOXY.O 3X3X3X3X3X3X3X3X3X3X3X3X3X3X3X3X3X3X3X3X3X3X3X3X3X3X3X3X3X3X3X3X3X3X3X3X3X3X3X3X3X3X3X3X3X3X3X3X",
"3X3X3X3X3X3X3X3X3X3X3X3X3X3X3X3X3X3X3X3X3X3X3X3X. F Y.oXoX<X:.  3X3X3X3X3X3X3X. . .     3X3X3X3X3X3X3X3X3X3X3X3X3X3X3X3X3X3X3X3X3X3X3X3X3X3X3X3X3X3X3X3X3X3X3X3X",
"3X3X3X3X3X3X3X3X3X3X3X3X3X3X3X3X3X3X3X3X3X3X3X  > v.{.oX<X<XQ   X o 3X3X3X3X3X  o g c * X   3X3X3X3X3X3X3X3X3X3X3X3X3X3X3X3X3X3X3X3X3X3X3X3X3X3X3X3X3X3X3X3X3X3X",
"3X3X3X3X3X3X3X3X3X3X3X3X3X3X3X3X3X3X3X3X3X3X3X. E Y.oXOXoX<Xb.  + t 3X3X3X3X. . X Z q.t.6.&   3X. . 3X3X3X3X3X3X3X3X3X3X3X3X3X3X3X3X3X3X3X3X3X3X3X3X3X3X3X3X3X3X",
"3X3X3X3X3X3X3X3X3X3X3X3X3X3X3X3X3X3X3X3X3X3X3X. ( Y.{.oXoX].K < E X . 3X. . .   * 6.0.a.s.r.*   . . 3X3X3X3X3X3X3X3X3X3X3X3X3X3X3X3X3X3X3X3X3X3X3X3X3X3X3X3X3X3X",
"3X3X3X3X3X3X3X3X3X3X3X3X3X3X3X3X3X3X3X3X3X3X3X  q b.Y.oX].H + :.y o X       $ + + h 6.r.a.s.8.$ c 2   3X3X3X3X3X3X3X3X3X3X3X3X3X3X3X3X3X3X3X3X3X3X3X3X3X3X3X3X3X",
"3X3X3X3X3X3X3X3X3X3X3X3X3X3X3X3X3X3X3X3X3X3X3X3XX O.b.b.F - 8 q - W.P.<.K . 1 u     % Z q.a.a.r.a.[     . 3X3X3X3X3X3X3X3X3X3X3X3X3X3X3X3X3X3X3X3X3X3X3X3X3X3X3X",
"3X3X3X3X3X3X3X3X3X3X3X3X3X3X3X3X3X3X3X3X3X3X3X3X  < O.< + q 9 + p.=X1X=Xi.o X s o r ; $ Z r.s.s.s.e.o   . 3X3X3X3X3X3X3X3X3X3X3X3X3X3X3X3X3X3X3X3X3X3X3X3X3X3X3X",
"3X3X3X3X3X3X3X3X3X3X3X3X3X3X3X3X3X3X3X3X3X3X3X3X. . X < O.- # p.*X=X=X$X' X X 3 & 8 2.> * 6.t.s.d.e.# . . 3X3X3X3X3X3X3X. 3X3X3X3X3X3X3X3X3X3X3X3X3X3X3X3X3X3X3X",
"3X3X3X3X3X3X3X3X3X3X3X3X3X3X3X3X3X3X3X3X3X3X3X3X  X > r > ; i.*X=X=X&XW.: F R O a o $.$.O c 9.a.s.d.M n . 3X3X3X3X3X3X3X. . 3X3X3X3X3X3X3X3X3X3X3X3X3X3X3X3X3X3X",
"3X3X3X3X3X3X3X3X3X3X3X3X3X3X3X3X3X3X3X3X3X3X3X3Xo > q   X ] P..X&X&X^.U = z.x.= u & 8 C.9 * 8.a.s.d.j.|   3X3X3X3X3X3X3XX o   3X3X3X3X3X3X3X3X3X3X3X3X3X3X3X3X3X",
"3X3X3X3X3X3X3X3X3X3X3X3X3X3X3X3X3X3X3X3X3X3X3X  > o. .q   - I i.Q.Q.' o R A.z.+ + a o #.! @ 8.y.s.d.d.n   3X3X3X3X3X3X  w ' . 3X3X3X3X3X3X3X3X3X3X3X3X3X3X3X3X3X",
"3X3X3X3X3X3X3X3X3X3X3X3X3X3X3X3X3X3X3X3X3X3X3X  8 k._.x.>   X > T T + F o.3.S.#.= u & 8 ..O 6.t.s.s.Z X   3X3X3X3X3X3X  1.~.; 3X3X3X3X3X3X3X3X3X3X3X3X3X3X3X3X3X",
"3X3X3X3X3X3X3X3X3X3X3X3X3X3X3X3X3X3X3X3X3X3X3X  9 k.A.`.#.o r D - = F H.J._.`.`.L O s + 9 O A a.s.Z o q =   3X3X3X    T &X$Xq   3X3X3X3X3X3X3X3X3X3X3X3X3X3X3X3X",
"3X3X3X3X3X3X3X3X3X3X3X3X3X3X3X3X3X3X3X3X3X3X3X  < &.l.S.H.D > B.x.c._.S.S.`.`.`.x.= u 1   + 6.s.Z + H ).E   o X o 5 ,.&X-XXXw   3X3X3X3X3X3X3X3X3X3X3X3X3X3X3X3X",
"3X3X3X3X3X3X3X3X3X3X3X3X3X3X3X3X3X3X3X3X3X3X3X3Xo o.k.k.A. .- C.`.[.x.0 < #._.`.`.R + s X % q.e.# F S.|.v.O 5.P.~.&X1X-X=X.X4   3X3X3X3X3X3X3X3X3X3X3X3X3X3X3X3X",
"3X3X3X3X3X3X3X3X3X3X3X3X3X3X3X3X3X3X3X3X3X3X3X3X  0 %.k.c.k.X.J.`.A.r - D o F A.`.x.- 3 3 @ 7.h , x.`.[.R.= i.1X1X-X=X=X=XL.- 3X3X3X3X3X3X3X3X3X3X3X3X3X3X3X3X3X",
"3X3X3X3X3X3X3X3X3X3X3X3X3X3X3X3X3X3X3X3X3X3X3X3X. . r &.k.c.x.`.`...o 2.S.o.= < 2._.! O s O O o o.`.`.[.).> ,.-X=X=X=X-X&X>.. 3X3X3X3X3X3X3X3X3X3X3X3X3X3X3X3X3X",
"3X3X3X3X3X3X3X3X3X3X3X3X3X3X3X3X3X3X3X3X3X3X3X3X  > J k.k.k.x.`.`.X.X E S.[.x.r o ! k.> 3 7 . X.`.`._.`.)., <.=X=X-X-X$XP.w   3X3X3X3X3X3X3X3X3X3X3X3X3X3X3X3X3X",
"3X3X3X3X3X3X3X3X3X3X3X3X3X3X3X3X3X3X3X3X3X3X3X3X  8 &.k.k. .&.`.`. .X + D x.[.S.! o r r O d + E `.`.`.[.).- ,.=X*X$X.XQ.' . 3X3X3X3X3X3X3X3X3X3X3X3X3X3X3X3X3X3X",
"3X3X3X3X3X3X3X3X3X3X3X3X3X3X3X3X3X3X3X3X3X3X3X3X3X= #.k.k.J W J._.r z i.; 8 c.`._.3.8 . . 3 u - x.`.`.|.Y.o <.^.Q.Q.W./ + . 3X3X3X3X3X3X3X3X3X3X3X3X3X3X3X3X3X3X",
"3X3X3X3X3X3X3X3X3X3X3X3X3X3X3X3X3X3X3X3X3X3X3X3X3X  R k.%.#.%.S.S.> <.2X(.w - 2.`.`...X r + 1 . H C.A.[.4.X k / T P 4 .   3X3X3X3X3X3X3X3X3X3X3X3X3X3X3X3X3X3X3X",
"3X3X3X3X3X3X3X3X3X3X3X3X3X3X3X3X3X3X3X3X3X3X3X      8 k.H 9 %.c.A.> } 2X2X#XN o o.z.- H c.- o = . = > q >             3X3X3X3X3X3X3X3X3X3X3X3X3X3X3X3X3X3X3X3X3X",
"3X3X3X3X3X3X3X3X3X3X3X3X3X3X3X3X3X3X3X  . . . . #     R ..o R c.S.F w %X2X2X,X] o - > C.x.+  .C.k.+.! H 8   3X3X3X3X3X3X3X3X3X3X3X3X3X3X3X3X3X3X3X3X3X3X3X3X3X3X",
"3X3X3X3X3X3X3X3X3X3X3X3X3X3X3X3X3X    < J R D = + .   = o. .#.A.`.c.= l !.%X#Xu.o 8 k.`...- n.`.[.`.`.`.X.  3X3X3X3X3X3X3X3X3X3X3X3X3X3X3X3X3X3X3X3X3X3X3X3X3X3X",
"3X3X3X3X3X3X3X3X3X3X3X3X3X3X3X3X  = D 0 X.B.x.! = . = = 8 k.k.C.`.`.k.8 + ; ;   < B.`.`.R o D H R ! X.+.t . 3X3X3X3X3X3X3X3X3X3X3X3X3X3X3X3X3X3X3X3X3X3X3X3X3X3X",
"3X3X3X3X3X3X3X3X3X3X3X3X3X3X3X. - D ..R C.`.`.A.0   - ~ o D &.c._.`.`.S.k.~ + . o r %.H.%.. O @ O O X     3X3X3X3X3X3X3X3X3X3X3X3X3X3X3X3X3X3X3X3X3X3X3X3X3X3X3X",
"3X3X3X3X3X3X3X3X3X3X3X3X3X3X. 8 o.~ %.H.`._.`._.D   o $.X.X D k.A.`.`.`.`.x.= 4 v 4 o 9 D X s z z g @   3X3X3X3X3X3X3X3X3X3X3X3X3X3X3X3X3X3X3X3X3X3X3X3X3X3X3X3X",
"3X3X3X3X3X3X3X3X3X3X3X. . X D &.k.x.H.`.`.`.`.2.= 3 + R _...X D k.A.`.`.`.A.9 + v ' I w .   u C B i     3X3X3X3X3X3X3X3X3X3X3X3X3X3X3X3X3X3X3X3X3X3X3X3X3X3X3X3X",
"3X3X3X3X3X3X3X3X3X3X. X X = #.k.B.J.`.`.`._.%.=   u 1 q S.J...o 0 %.A.`.`.`.x.8 + N / I o < O 1 1 . . . 3X3X3X3X3X3X3X3X3X3X3X3X3X3X3X3X3X3X3X3X3X3X3X3X3X3X3X3X",
"3X3X3X3X3X3X3X3X3X3X. u i X r k.J.`.`.`.S.! o r r $ s + x.[.J.X.= - r x.`.`.`.&.# o # X t C.o.> . . . 3X3X3X3X3X3X3X3X3X3X3X3X3X3X3X3X3X3X3X3X3X3X3X3X3X3X3X3X3X",
"3X3X3X3X3X3X3X3X3X  X a z 3 o F S.`.`.S.F o F x.X.O d o &.`.`.`.k.9   < 3._.`.`.c.W H $.S.`.$.>   . 3X3X3X3X3X3X3X3X3X3X3X3X3X3X3X3X3X3X3X3X3X3X3X3X3X3X3X3X3X3X",
"3X3X3X3X3X3X3X  . = = # g V s X F A.H.H o W k.A.k.+ d + ! `.`.`.[.2.. O + H k._.`.`.`.`.A.W o   3X3X3X3X3X3X3X3X3X3X3X3X3X3X3X3X3X3X3X3X3X3X3X3X3X3X3X3X3X3X3X3X",
"3X3X3X3X3X3X  > ! k.2.= 1 B ` d o 9 L o J k.k.S.A.> i 1 D S.`.`.`.x.- a c % + q ..@.+.L >   . 3X3X3X3X3X3X3X3X3X3X3X3X3X3X3X3X3X3X3X3X3X3X3X3X3X3X3X3X3X3X3X3X3X",
"3X3X3X3X3X  , +.C.`.`.$.+ % [ ` [ 4   0 %.X.k.S._.t 1 u , A.`.`.`.H.0 1 6.0.A u $ X     9 H   3X3X3X3X3X3X3X3X3X3X3X3X3X3X3X3X3X3X3X3X3X3X3X3X3X3X3X3X3X3X3X3X3X",
"3X3X3X3X3Xo ..x._.`.`._.%.= O z u.U . ..H = %.S.`.R @ s o z.`.`.`.H.H   O 6.y.t.9.* X   ! A.r   3X3X3X3X3X3X3X3X3X3X3X3X3X3X3X3X3X3X3X3X3X3X3X3X3X3X3X3X3X3X3X3X",
"3X3X3X3X  0 &.x._.`.`.`.`.x.r + : + 8 #.9 0 k.c.`.#.O d O $.`.`.`.A.&.r = 1 h p g # Q # +.[.k.o   3X3X3X3X3X3X3X3X3X3X3X3X3X3X3X3X3X3X3X3X      3X3X3X3X3X3X3X3X",
"3X3X3X3X. ..k.c.S.`._.`.`.`.A.>     D k.+.%.k.k.x.k.o s @ R `.`._.H._.J.~   O .   y 2.o l.A.L o # . 3X3X3X3X3X3X3X3X3X3X3X3X3X3X3X3X3X3XX q Y q X 3X3X3X3X3X3X3X",
"3X3X3X3X. J k.k.x.`.`.`.`.`.H.8     G -.! %.o.W k.#.= 3 $ D _.`.`.`.`.`.L @ a o ~ v.F > o.8 O U } # . 3X3X3X3X3X3X3X3X3X3X3X3X3X3X3X3X. e /.;X@Xe   X 3X3X3X3X3X",
"3X3X3X3X  o H %.B.`.`.`.`.A.%.o     G =.0 +.#. .k.&.> ; $ < S.`.`.`.[.x.- u 1 8  X4.X + X % m w.[ - . 3X3X3X3X3X3X3X3X3X3X3X3X3X3X3X3X= f.XXXXf.e b 5 3X3X3X3X3X",
"3X3X3X3X3X  . < ..x.`.`.C.r o   . . = r D ~ %.&.k.k.D + 3 - C.`.`.`.`.X.X a O :.).<   O i C ` z @   3X3X3X3X3X3X3X3X3X3X3X3X3X3X3X3Xo ; g.I._ e N 6 X . . 3X3X3X",
"3X3X3X3X3X3X3X  . 8 W #.D . 3X3X. $ % # o o - 8 D ..F O 3 o %.H._.`.S.8 $ 1 - T.( X u g m B s o < ,   3X3X3X3X3X3X3X3X3X3X3X3X3X3X# v v j 5 # j b 5.q X # o 3X3X",
"3X3X3X3X3X3X3X3X3X    .   3X3X3X. o $ * 3 7 2 $ O X o . X . o < D L H O 3 O R Y.- O d g 7 + o L A.C.H . 3X3X3X3X3X3X3X3X3X3X    . . o # e v v 4 j f.Y # 7 . 3X3X",
"3X3X3X3X3X3X3X3X3X3X3X3X3X3X3X3X. X = = o o $ 2 3 u a a 3 + # K q > o . O   0 D     + O o r 3._.`.`.H.R . 3X3X.         o O # ; * 6 # O b # e j v j : X O . 3X3X",
"3X3X3X3X3X3X3X3X3X3X3X3X3X3X3X3X3Xo J ;.^ L t = o . @ $ 3 + t z.b.Y.q @ 3 2 % % @   + F  .x.`.`.`.`.`.&.X . + # : 7 s n n m m n c 7 # b e >./.1.b b v $   3X3X3X",
"3X3X3X3X3X3X3X3X3X3X3X3X3X3X3X3X3X. t *.3.F.V.m.3.+.R D <   ; G Q :.> O 3 u u a 3   8 k.k.c.S.H.C.S.J.H + n V M m n s 7 1 # O X     j b Y /.XXXX/.>.e e o 3X3X3X",
"3X3X3X3X3X3X3X3X3X3X3X3X3X3X3X3X3X  o ^ *.m.m.m.F.F.F.V.V.W r , - + X 8 9 , , = .   9 k.k.k.k.k.3.x.J.H X 2 $ + . X         3X3X3XX 4 w g.U.I.I.>.1.K   3X3X3X3X",
"3X3X3X3X3X3X3X3X3X3X3X3X3X3X3X3X3X.   , ;.*.#.#.m.F.V.V.F.F.V.n.c.%.+.m.V.n.V.;..   > %.k.=.k.k.k.k.A.J         3X3X3X3X3X3X3X3X3X3X  w f.g.P { P { :   3X3X3X3X",
"3X3X3X3X3X3X3X3X3X3X3X3X3X3X3X3X3X. 9 X , t < , J m.-.-.V.F.F.F.A.F.K.F.F.F.G.q   . X  .k.k.&.k.k.%.! o   3X3X3X3X3X3X3X3X3X3X3X3X3X3Xo Y { I P b : . 3X3X3X3X3X",
"3X3X3X3X3X3X3X3X3X3X3X3X3X3X3X3X3XX ~ ~ , , G 0 o J ^ J ^ m.F.F.A.Z.G.K.G.'.) X .     t =.k.%.o.H , .   3X3X3X3X3X3X3X3X3X3X3X3X3X3X3X  . o . .     3X3X3X3X3X3X",
"3X3X3X3X3X3X3X3X3X3X3X3X3X3X3X3X3XX J +.+.;.&.+.= X o   . 9 *.&.G > 5 @.D.;.o X . 3X  o 0 r > o     3X3X3X3X3X3X3X3X3X3X3X3X3X3X3X3X3X3X3X3X3X3X3X3X3X3X3X3X3X3X",
"3X3X3X3X3X3X3X3X3X3X3X3X3X3X3X3X3X. X o o o o o o X   3X3X  o o   .   . = o X o . 3X3X        3X3X3X3X3X3X3X3X3X3X3X3X3X3X3X3X3X3X3X3X3X3X3X3X3X3X3X3X3X3X3X3X3X",
"3X3X3X3X3X3X3X3X3X3X3X3X3X3X3X3X. o 5 v v v v e Y I X 3X3X3XX . : 6 6 e 6 6 v _ :   3X3X3X3X3X3X3X3X3X3X3X3X3X3X3X3X3X3X3X3X3X3X3X3X3X3X3X3X3X3X3X3X3X3X3X3X3X3X",
"3X3X3X3X3X3X3X3X3X3X3X3X3X3X3X3X  o 5 b v v j # e Y #   3X3X3X. : 6 5 j b : : Y q   3X3X3X3X3X3X3X3X3X3X3X3X3X3X3X3X3X3X3X3X3X3X3X3X3X3X3X3X3X3X3X3X3X3X3X3X3X3X",
"3X3X3X3X3X3X3X3X3X3X3X3X3X3X3X3X3X. . . . o . . . . . . 3X3X3X. . X . X .   . X X . 3X3X3X3X3X3X3X3X3X3X3X3X3X3X3X3X3X3X3X3X3X3X3X3X3X3X3X3X3X3X3X3X3X3X3X3X3X3X",
"3X3X3X3X3X3X3X3X3X3X3X3X3X3X3X3X3X3X3X3X3X3X3X3X3X3X3X3X3X3X3X3X3X3X3X3X3X3X3X3X3X3X3X3X3X3X3X3X3X3X3X3X3X3X3X3X3X3X3X3X3X3X3X3X3X3X3X3X3X3X3X3X3X3X3X3X3X3X3X3X",
"3X3X3X3X3X3X3X3X3X3X3X3X3X3X3X3X3X3X3X3X3X3X3X3X3X3X3X3X3X3X3X3X3X3X3X3X3X3X3X3X3X3X3X3X3X3X3X3X3X3X3X3X3X3X3X3X3X3X3X3X3X3X3X3X3X3X3X3X3X3X3X3X3X3X3X3X3X3X3X3X",
"3X3X3X3X3X3X3X3X3X3X3X3X3X3X3X3X3X3X3X3X3X3X3X3X3X3X3X3X3X3X3X3X3X3X3X3X3X3X3X3X3X3X3X3X3X3X3X3X3X3X3X3X3X3X3X3X3X3X3X3X3X3X3X3X3X3X3X3X3X3X3X3X3X3X3X3X3X3X3X3X",
"3X3X3X3X3X3X3X3X3X3X3X3X3X3X3X3X3X3X3X3X3X3X3X3X3X3X3X3X3X3X3X3X3X3X3X3X3X3X3X3X3X3X3X3X3X3X3X3X3X3X3X3X3X3X3X3X3X3X3X3X3X3X3X3X3X3X3X3X3X3X3X3X3X3X3X3X3X3X3X3X",
"3X3X3X3X3X3X3X3X3X3X3X3X3X3X3X3X3X3X3X3X3X3X3X3X3X3X3X3X3X3X3X3X3X3X3X3X3X3X3X3X3X3X3X3X3X3X3X3X3X3X3X3X3X3X3X3X3X3X3X3X3X3X3X3X3X3X3X3X3X3X3X3X3X3X3X3X3X3X3X3X",
"3X3X3X3X3X3X3X3X3X3X3X3X3X3X3X3X3X3X3X3X3X3X3X3X3X3X3X3X3X3X3X3X3X3X3X3X3X3X3X3X3X3X3X3X3X3X3X3X3X3X3X3X3X3X3X3X3X3X3X3X3X3X3X3X3X3X3X3X3X3X3X3X3X3X3X3X3X3X3X3X"
};
