/* XPM */
static char *result[] = {
/* columns rows colors chars-per-pixel */
"80 71 198 2 ",
"   c #171514",
".  c #181615",
"X  c #1C1917",
"o  c #1D1B1A",
"O  c #221C17",
"+  c #231D1A",
"@  c #291F1A",
"#  c #24211D",
"$  c #2B221C",
"%  c #31261E",
"&  c #382B1E",
"*  c #1F1F20",
"=  c #201F20",
"-  c #1F2020",
";  c #232323",
":  c #2B2623",
">  c #2D2926",
",  c #252729",
"<  c #27292B",
"1  c #2A2B2C",
"2  c #332620",
"3  c #342A23",
"4  c #3B2C24",
"5  c #342E2B",
"6  c #35312C",
"7  c #3B332C",
"8  c #2B2E31",
"9  c #2E3134",
"0  c #333334",
"q  c #3A3632",
"w  c #3D3A34",
"e  c #31363A",
"r  c #343A3D",
"t  c #3C3B3B",
"y  c #402F26",
"u  c #433123",
"i  c #453329",
"p  c #4B362B",
"a  c #4E392E",
"s  c #4C3824",
"d  c #533B2D",
"f  c #543E27",
"g  c #423C35",
"h  c #493E34",
"j  c #553E30",
"k  c #5A422A",
"l  c #45413C",
"z  c #4A443B",
"x  c #494339",
"c  c #554234",
"v  c #5C4335",
"b  c #5E4938",
"n  c #53493F",
"m  c #60462B",
"M  c #694B2D",
"N  c #65492D",
"B  c #71502F",
"V  c #644636",
"C  c #6C4B3A",
"Z  c #7E5B36",
"A  c #775439",
"S  c #6A503E",
"D  c #363D41",
"F  c #383E43",
"G  c #3B4145",
"H  c #3D454B",
"J  c #3B474A",
"K  c #434343",
"L  c #43494E",
"P  c #484A4D",
"I  c #464747",
"U  c #534B46",
"Y  c #56524C",
"T  c #5A534F",
"R  c #434C53",
"E  c #494E51",
"W  c #455056",
"Q  c #475259",
"!  c #4A555D",
"~  c #49585D",
"^  c #5E5654",
"/  c #5C5A54",
"(  c #54595D",
")  c #53575B",
"_  c #655449",
"`  c #775240",
"'  c #615B55",
"]  c #645D5A",
"[  c #6A5A50",
"{  c #634E44",
"}  c #64635C",
"|  c #69635D",
" . c #77614E",
".. c #4D5A62",
"X. c #525D65",
"o. c #515E68",
"O. c #585F65",
"+. c #4E6167",
"@. c #5C6265",
"#. c #54626B",
"$. c #57676C",
"%. c #586771",
"&. c #5A6A75",
"*. c #5D6E79",
"=. c #566972",
"-. c #5D737C",
";. c #5B7076",
":. c #62686C",
">. c #746B67",
",. c #7B746F",
"<. c #77766D",
"1. c #616D75",
"2. c #62727E",
"3. c #6C747A",
"4. c #787977",
"5. c #835D36",
"6. c #8D643A",
"7. c #9B6D3E",
"8. c #93683B",
"9. c #9F703F",
"0. c #9A6F41",
"q. c #9B7145",
"w. c #997653",
"e. c #A27341",
"r. c #AC7A44",
"t. c #B47F48",
"y. c #877C78",
"u. c #8C7163",
"i. c #B68149",
"p. c #B9834A",
"a. c #BD8A55",
"s. c #8B827D",
"d. c #848379",
"f. c #9E8677",
"g. c #A2897A",
"h. c #C69C70",
"j. c #637481",
"k. c #657985",
"l. c #6A7D8B",
"z. c #687A86",
"x. c #747E84",
"c. c #6D808E",
"v. c #7A838B",
"b. c #6E8391",
"n. c #6E8A92",
"m. c #718594",
"M. c #728A96",
"N. c #768B9A",
"B. c #798E9E",
"V. c #7F8C96",
"C. c #74929B",
"Z. c #7B929D",
"A. c #7D94A4",
"S. c #7F9BA3",
"D. c #8E8A82",
"F. c #968D8A",
"G. c #9B948D",
"H. c #949388",
"J. c #858D94",
"K. c #808E98",
"L. c #87959D",
"P. c #979A97",
"I. c #A59993",
"U. c #A79A94",
"Y. c #AA968B",
"T. c #AAA99E",
"R. c #A5A499",
"E. c #B2A49E",
"W. c #8097A8",
"Q. c #839BAC",
"!. c #879AA5",
"~. c #929CA5",
"^. c #869FB0",
"/. c #9DA6AE",
"(. c #95A0A8",
"). c #98A8B5",
"_. c #8AA3AA",
"`. c #BCADA7",
"'. c #B8ABA5",
"]. c #B5B4A8",
"[. c #A3ADB6",
"{. c #A4AFB8",
"}. c #ABB4BD",
"|. c #A6B0B9",
" X c #D4B39F",
".X c #C3B4AE",
"XX c #CCBCB5",
"oX c #CFBFB8",
"OX c #C5B8B1",
"+X c #D5BCAD",
"@X c #D1C1BA",
"#X c #C3C2B6",
"$X c #FBD4BC",
"%X c #F1CCB4",
"&X c #D5C7C1",
"*X c #D6C8C2",
"=X c #FFDAC1",
"-X c None",
/* pixels */
"-X-X-X-X-X-X-X-X-X-X-X-X-X-X-X-X-X-X-X-X-X-X-X-X-X-X-X-X-X-X-X-X-X-X-X-X-X-X-X-X-X-X-X-X-X-X-X-X-X-X-X-X-X-X-X-X-X-X-X-X-X-X-X-X-X-X-X-X-X-X-X-X-X-X-X-X-X-X-X-X",
"-X-X-X-X-X-X-X-X-X-X-X-X-X-X-X-X-X-X-X-X-X-X-X-X-X-X-X-X-X-X-X-X-X-X-X-X-X-X-X-X-X-X-X-X-X-X-X-X-X-X-X-X-X-X-X-X-X-X-X-X-X-X-X-X-X-X-X-X-X-X-X-X-X-X-X-X-X-X-X-X",
"-X-X-X-X-X-X-X-X-X-X-X-X-X-X-X-X-X-X-X-X-X-X-X-X-X-X-X-X-X-X-X-X-X-X-X-X-X-X-X-X-X-X-X-X-X-X-X-X-X-X-X-X-X-X-X-X-X-X-X-X-X-X-X-X-X-X-X-X-X-X-X-X-X-X-X-X-X-X-X-X",
"-X-X-X-X-X-X-X-X-X-X-X-X-X-X-X-X-X-X-X-X-X-X-X-X-X-X-X-X-X-X-X-X-X-X-X-X-X-X-X-X-X-X-X-X-X-X-X-X-X-X-X-X-X-X-X-X-X-X-X-X-X-X-X-X-X-X-X-X-X-X-X-X-X-X-X-X-X-X-X-X",
"-X-X-X-X-X-X-X-X-X-X-X-X-X-X-X-X-X-X-X-X-X-X-X-X-X-X-X-X-X-X-X-X-X-X-X-X-X-X-X-X-X-X-X-X-X-X-X-X-X-X-X-X-X-X-X-X-X-X-X-X-X-X-X-X-X-X-X-X-X-X-X-X-X-X-X-X-X-X-X-X",
"-X-X-X-X-X-X-X-X-X-X-X-X-X-X-X-X-X-X-X-X-X-X-X-X-X-X-X-X-X-X-X-X-X-X-X-X-X-X-X-X-X-X-X-X-X-X-X-X-X-X-X-X-X-X-X-X-X-X-X-X-X-X-X-X-X-X-X-X-X-X-X-X-X-X-X-X-X-X-X-X",
"-X-X-X-X-X-X-X-X-X-X-X-X. -X-X-X-X-X-X-X-X-X-X-X-X-X-X-X-X-X-X-X-X-X-X-X-X-X-X-X-X-X-X-X-X-X-X-X-X-X-X-X-X-X-X-X-X-X-X-X-X-X-X-X-X-X-X-X-X-X-X-X-X-X-X-X-X-X-X-X",
"-X-X-X-X-X-X-X-X-X-X-X. . -X-X-X-X-X-X-X-X-X-X-X-X-X-X-X-X-X-X-X-X-X-X-X-X-X-X-X-X-X. X   -X-X-X-X-X-X-X-X-X-X-X-X-X-X-X-X-X-X-X-X-X-X-X-X-X-X-X-X-X-X-X-X-X-X-X",
"-X-X-X-X-X-X-X-X-X-X  X . -X-X-X-X-X-X-X-X-X-X-X-X-X-X-X-X    . -X-X-X-X-X-X-X-X-X-X  o w o   -X-X-X-X-X-X-X-X-X-X-X-X-X-X-X-X-X-X-X-X-X-X-X-X-X-X-X-X-X-X-X-X-X",
"-X-X-X-X-X-X-X-X-X-X. P ; -X-X-X-X-X-X-X-X-X    X O $ X     2 2   . . . -X-X-X-X-X-X-Xo y.>.+   -X-X-X-X-X-X-X-X-X-X-X-X-X-X-X-X-X-X-X-X-X-X-X-X-X-X-X-X-X-X-X-X",
"-X-X-X-X-X-X-X-X-X  0 J.1   -X-X-X-X-X-X-X  $ N 6.7.q.6.f $ 5.q.4       -X-X-X-X-X-X-XX y.oX'   -X-X-X-X-X-X-X-X-X-X-X-X-X-X-X-X-X-X-X-X-X-X-X-X-X-X-X-X-X-X-X-X",
"-X-X-X-X-X-X-X-X-X. @./.0   -X-X-X-X-X-X-X  % 5.7.i.p.p.i.q.t.p.w.: o #   -X-X-X-X-X-XX I.@XU.:   -X-X-X-X-X-X-X-X-X-X-X-X-X-X-X-X-X-X-X-X-X-X-X-X-X-X-X-X-X-X-X",
"-X-X-X-X-X-X-X-X  , J.[.I   -X-X-X-X-X-X-X  X M 6.9.e.r.t.t.p.p.p. .{ _   -X-X-X-X-X  t OXoXOXT   -X-X-X-X-X-X-X-X-X-X-X-X-X-X-X-X-X-X-X-X-X-X-X-X-X-X-X-X-X-X-X",
"-X-X-X-X-X-X-X-X  P ~.}.(   -X-X-X-X-X-X.   X u s s m Z 8.9.t.t.p.a.h.w.# -X-X-X-X  + F.&XoXoX,.X -X-X-X-X-X-X-X-X-X-X-X-X-X-X-X-X-X-X-X-X-X-X-X-X-X-X-X-X-X-X-X",
"-X-X-X-X-X-X-X-XX :./.}.3.  -X-X-X-X-X. . o $     ; o O u B 8.r.p.p.a.0.O     .   , D.&XoXoXXXs.+ -X-X-X-X-X-X-X-X-X-X-X-X-X-X-X-X-X-X-X-X-X-X-X-X-X-X-X-X-X-X-X",
"-X-X-X-X-X-X-X  , x.[.}.~.+   ; 0 -X-X. . X i 4 X e %.! , O m 7.p.p.p.Z o I ; . ^ '.&XoXoXoXOXs.; -X-X-X-X-X-X-X-X-X-X-X-X-X-X-X-X-X-X-X-X-X-X-X-X-X-X-X-X-X-X-X",
"-X-X-X-X-X-X-X  0 J.[.}.}.@.o = 1     . = + X y i O 8 3.l.F O V r.p.t.f 8 Q.v.< I .X@XoXXXoX'.y.o -X-X-X-X-X-X-X-X-X-X-X-X-X-X-X-X-X-X-X-X-X-X-X-X-X-X-X-X-X-X-X",
"-X-X-X-X-X-X-X  K L.[.}.|./.q P K : ] F.U.K   o 2 p = = Q l.e @ 5.t.r.% L Q.).x.+ | oXoXoX.XI.' . -X-X-X-X-X-X-X-X-X-X-X-X-X-X-X-X-X-X-X-X-X-X-X-X-X-X-X-X-X-X-X",
"-X-X-X-X-X-X-X  P ~.[.[.[.L.= ( 0 ' &X&X.X] = ..< + i y O 0 Q = s r.e.+ o.Q.Q.).( = I.oX.XU.y.5   -X-X-X-X-X-X-X-X-X-X-X-X-X. -X-X-X-X-X-X-X-X-X-X-X-X-X-X-X-X-X",
"-X-X-X-X-X-X-X  P J.[.[.{.3.O 0 o ,.oXoX.X] = l.j.* X 4 p = + X @ 8.0.+ %.Q.Q.^.!.1 T E.G.y.q . -X-X-X-X-X-X-X-X-X-X-XX -X. @ X X -X-X-X-X-X-X-X-X-X-X-X-X-X-X-X",
"-X-X-X-X-X-X-X  r x.J.~./.P ; K + I.oXoX`.^ = l.B.%...= + i y O   N Z O &.Q.Q.Q.)...= >.^ ,   -X-X-X-X-X-X-X-X-X    # 6     7 % . -X-X-X-X-X-X-X-X-X-X-X-X-X-X-X",
"-X-X-X-X-X-X-X. o K 3.J.3., 1 ; g OXoXoXE.U < ..l.Q.Q.l.F O 2 a 2 O X , m.Q.Q.Q.).V.= + .   -X-X-X-X-X-X-X-X-X  6 z 6 x t l # . . . -X-X-X-X-X-X-X-X-X-X-X-X-X-X",
"-X-X-X-X-X-X-X-X.   1 ( E + ( = ] .X.XE.F.q D l.A.Q.Q.Q.A.o., + i i + ; o.W.Q.Q.^.K.,   -X-X-X-X-X-X-X-X-X-X  I ].T.g l <.D.q > x : -X-X-X-X-X-X-X-X-X-X-X-X-X-X",
"-X-X-X-X-X-X-X-X-X-X  o o 1 r + >.s.s.y.>.+ ..^.W.W.W.Q.Q.^.m.F + 2 d 2 O F l.k.R < o O . -X-X-X-X-X-X-X-X-X  4.#XP.g l w g z x w # . -X-X-X-X-X-X-X-X-X-X-X-X-X",
"-X-X-X-X-X-X-X-X-X-X-X. X 8 X . = = > = = = l.N.H 9 F L ..o.1.2.R o + i y   * o ; R z.L   -X-X-X-X-X-X-X-X-X  / ].T.w > g x w } d./ o -X-X-X-X-X-X-X-X-X-X-X-X-X",
"-X-X-X-X-X-X-X-X-X-X-X. o e 9 1 .   1 R %.l.^.%.o D e 1 , = = = = o o o O + D #.N.Q.W.! . -X-X-X-X-X-X-X-X-X  > H.4.6 z g Y H.].Y } 1   -X-X-X-X-X-X-X-X-X-X-X-X",
"-X-X-X-X-X-X-X-X-X-X-X  < #.N.N.o.8 = L A.Q.W.R 1 B.W.A.N.l.z.1.#., D o.o R A.^.A.j.F + . -X-X-X-X-X-X-X-X-X-X. 6 w n 3 g T.].T./ / ; -X-X-X-X-X-X-X-X-X-X-X-X-X",
"-X-X-X-X-X-X-X-X-X-X-X-Xo #.b.A.Q.N.R X j.^.W.D = #.z.m.W.Q.^.^.A.9 H A.8 G A.j.F o X . -X-X-X-X-X-X-X-X-X-X-X. 5 n # w g H.T.d.Y U   -X-X-X-X-X-X-X-X-X-X-X-X-X",
"-X-X-X-X-X-X-X-X-X-X-X-X. D j.k.l.N.l.! j.^.^.&.= o o = 9 H O.j.k.; Q Q.L ; D o O y y X   -X-X-X-X-X-X-X-X-X-Xo 7 #   7 g } H.<./ ,   -X-X-X-X-X-X-X-X-X-X-X-X-X",
"-X-X-X-X-X-X-X-X-X-X-X-X  o R j.j.j.j.z.z.A.^.A.F 6 g.u._ g 2 $ = o %.^.j.=   4 j V d . X -X-X-X-X-X-X-X-X-X-X-X  X 6 # z x d.d.Y . -X-X-X-X-X-X-X-X-X-X-X-X-X-X",
"-X-X-X-X-X-X-X-X-X-X-X-X-X  o G o.&.j.j.j.m.^.Q.X.>  X=X=X%X XY.5 8 B.Q.Q.%.X 4 C C 3     -X-X-X-X-X-X-X-X-X-X-X  & k o g # 0 w +   -X-X-X-X-X-X-X-X-X-X-X-X-X-X",
"-X-X-X-X-X-X-X-X-X-X-X-X-X-X  . * e j.j.&.F l.^.l.= | %X=X=X=Xy.+ 9 ! Q G 8 o . $ $ X   X -X-X-X-X-X-X-X-X-X-X-XX x 6   o .       -X-X-X-X-X-X-X-X-X-X-X-X-X-X-X",
"-X-X-X-X-X-X-X-X-X-X-X-X-X-X-XX * H j.j.j.H o.m.A...o _ g.g.[ =   O # : 5 6 o 1 G F ;   -X-X-X-X-X-X-X-X-X-X-X  $ b X X -X-X-X-X-X-X-X-X-X-X-X-X-X-X-X-X-X-X-X-X",
"-X-X-X-X-X-X-X-X-X-X-X-X-X-X-X-X. 9 =.j.j.%.#.j.z.B.o.1 = o 8 F o 5 U ' ' | : H W.2.o -X-X-X-X-X-X-X-X-X-X-X-XX a 7 . -X-X-X-X-X-X-X-X-X-X-X-X-X-X-X-X-X-X-X-X-X",
"-X-X-X-X-X-X-X-X-X-X-X-X-X-X-X-X-X. D #.j.F * H k.A.Q.N.l.l.A.N.9 X ; q x > o 2.Q.H   -X-X-X-X-X-X-X-X-X-X-X. # b #   -X-X-X-X-X-X-X-X-X-X-X-X-X-X-X-X-X-X-X-X-X",
"-X-X-X-X-X-X-X-X-X-X-X-X-X-X-X-X-X.   < ..#.F F j.B.Q.Q.Q.^.Q.W.m.o.r o X - #.Q.z.=   -X-X-X-X-X-X-X-X-X-X-XX a p . -X-X-X-X-X-X-X-X-X-X-X-X-X-X-X-X-X-X-X-X-X-X",
"-X-X-X-X-X-X-X-X-X-X-X-X-X-X-X. * * *   o D ..*.j.k.N.A.W.W.Q.Q.Q.Q.A.j.2.b.Q.m.9   -X-X-X-X-X-X-X-X-X-X-X  # b $   -X-X-X-X-X-X-X-X-X-X-X-X-X-X-X-X-X-X-X-X-X-X",
"-X-X-X-X-X-X-X-X-X-X-X-X-X-X  < ..%.%.H o   o 8 R #.j.l.m.A.A.^.^.Q.Q.^.^.S.k.9 o X   -X-X-X-X-X-X-X-X-X-X  i j X -X-X-X-X-X-X-X-X-X-X-X-X-X-X-X-X-X-X-X-X-X-X-X",
"-X-X-X-X-X-X-X-X-X-X-X-X-X. * Q k.A.A.A.F     , * * , D Q ..L ..2.j.j.&...r o   D o.<   X -X-X-X-X-X-X-X  o b :   -X-X-X-X-X-X-X-X-X-X-X-X-X-X-X-X-X-X-X-X-X-X-X",
"-X-X-X-X-X-X-X-X-X-X-X-X-X. e 8 l.^.A.^.Q   o H z.o.F , o o     X + o O @ u j O F W.m.X.1 X X   -X-X-X-X  i c o -X-X-X-X-X-X-X-X-X-X-X-X-X-X-X-X-X-X-X-X-X-X-X-X",
"-X-X-X-X-X-X-X-X-X-X-X-X. + W ..A.Q.^.A.F = 4 , m.Q.W.N.l.j...o $ M 5.6.e.r.8.O 1 Z.Q.Q.Q = _ 7         o b 4   -X-X-X-X-X-X-X-X-X-X-X-X-X-X-X-X-X-X-X-X-X-X-X-X",
"-X-X-X-X-X-X-X-X-X-X-X-X. 8 H k.^.A.A.l.* o d O ! W.Q.Q.Q.^.W.R X s k A q.k 3   ; b.Q.N.1 i u.n . , e ; # j o   -X-X-X-X-X-X-X-X-X-X-X-X-X-X-X-X-X-X-X-X-X-X-X-X",
"-X-X-X-X-X-X-X-X-X-X-X-XX ! *.N.A.A.^.... o y 4 < N.Q.Q.Q.Q.A.j.W o   O % X o o o %.B.o.O j ` 2 e m.A.*.o X . -X-X-X-X-X-X-X-X-X-X-X-X-X-X-X-X-X-X-X-X-X-X-X-X-X",
"-X-X-X-X-X-X-X-X-X-X-X  < *.k.A.^.^.B.< F L + a o o.Q.Q.Q.Q.N.z.A...X O X 9 3.O.* o.=.; 3 ` V + X.^.Q.S.&.r   -X-X-X-X-X-X-X-X-X-X-X-X-X-X-X-X-X-X-X-X-X-X-X-X-X",
"-X-X-X-X-X-X-X-X-X-X-X. L j.l.W.W.^.j.* 2.l.= i 2 8 A.Q.A.Q.m.N.Q.m.; i $ e X.@.* o.D X j A y = m.Q.A.N.A.b.,   -X-X-X-X-X-X-X-X-X-X-X-X-X-X-X-X-X-X-X-X-X-X-X-X",
"-X-X-X-X-X-X-X-X-X-X. . H &.l.Q.^.^.#.= l.W.F @ a X &.Q.Q.Q.B.S.Q.k.o p @ R V.P . 9 o 3 v a + ! W.Q.m.j.j.j.8   -X-X-X-X-X-X-X-X-X-X-X-X-X-X-X-X-X-X-X-X-X-X-X-X",
"-X-X-X-X-X-X-X-X-XX X + X = D ..2.l.R = l.^.j.o p : G A.Q.Q.W.Q.Q.&.O a o 2.!.;     : j d + < l.Q.A.l.j.j.&.;   -X-X-X-X-X-X-X-X-X-X-X-X-X-X-X-X-X-X-X-X-X-X-X-X",
"-X-X-X-X-X-X-X-X-X. = j i 3 @ O o = o = &.l.m.8 2 i ; l.Q.Q.Q.Q.Q.! @ p + V.:.. -X. O 4 @ + ! l.b.l.j.j.j.#.* -X-X-X-X-X-X-X-X-X-X-X-X-X-X-X-X-X-X-X-X-X-X-X-X-X",
"-X-X-X-X-X-X-X-X-X  + p j V A C V { g o Q *.j.R o 4 o ! W.Q.Q.Q.W.F @ 4 < L.G   -X-X  .   o ..j.j.j.j.j.j.W . -X-X-X-X-X-X-X-X-X-X-X-X-X-X-X-X-X-X-X-X-X-X-X-X-X",
"-X-X-X-X-X-X-X-X-X.   X $ i V C C u.U + D ..j.#.* 2 = 8 A.Q.Q.Q.A.1 % $ r L.,   -X-X-X-X-X  e &.j.j.j.*.j.r   -X-X-X-X-X-X-X-X-X-X-X-X-X-X-X-X-X-X-X-X-X-X-X-X-X",
"-X-X-X-X-X-X-X-X-XX r ! 9 = + O @ : o 9 %.j.j.j.F + y O #.l.k.-...o % O 0 E X   -X-X-X-X-X-X. 9 ..*.j.j.#.* . -X-X-X-X-X-X-X-X-X-X-X-X-X-X-X-X-X-X-X-X-X-X-X-X-X",
"-X-X-X-X-X-X-X-X  8 l.Q.B.l.%...Q 8 X F Q Q W ! G X $ . o o o * o X . o O @ 3 # . -X-X-X-X-X.   * 8 D H 8   -X-X-X-X-X-X-X-X-X-X-X-X-X-X-X-X-X-X-X-X-X-X-X-X-X-X",
"-X-X-X-X-X-X-X-X. ..B.Q.Q.Q.^.Q.^.z.; . o O X X O + + + . F #.:.:.+ 4 a a p u $ . -X-X-X-X-X-X.     . .   -X-X-X-X-X-X-X-X-X-X-X-X-X-X-X-X-X-X-X-X-X-X-X-X-X-X-X",
"-X-X-X-X-X-X-X  - j.B.Q.Q.Q.Q.W.^.A.r X & 4 4 7 y p a i O E 3.4.3.= O O o o - . . -X-X-X-X-X-X-X    -X-X-X-X-X-X-X-X-X-X-X-X-X-X-X-X-X-X-X-X-X-X-X-X-X-X-X-X-X-X",
"-X-X-X-X-X-X-X  8 j.N.Q.Q.Q.Q.Q.S.-.-   X O X o O o * o . + , ; ;   r ..$.k.&.X -X-X-X-X-X-X-X-X-X-X-X-X-X-X-X-X-X-X-X-X-X-X-X-X-X-X-X-X-X-X-X-X-X-X-X-X-X-X-X-X",
"-X-X-X-X-X-X-X  < &.k.l.B.Q.Q.W.S.r - ~ $.#.+.=.#.&.*.2.R J R W ~ +.c.C.C.S.@.  -X-X-X-X-X-X-X-X-X-X-X-X-X-X-X-X-X-X-X-X-X-X-X-X-X-X-X-X-X-X-X-X-X-X-X-X-X-X-X-X",
"-X-X-X-X-X-X-X  = j.j.j.b.A.^.Q.N.< e -.C.C.n.C.C.C.C.C.n.C.C.C.C.C.C.C.C.Z.0   . -X-X-X-X-X-X-X-X-X-X-X-X-X-X-X-X-X-X-X-X-X-X-X-X-X-X-X-X-X-X-X-X-X-X-X-X-X-X-X",
"-X-X-X-X-X-X-X-X* F o.%.%.*.*.#.D . D =.-.j.-.-.n.n.c.n.C.C.C.C.C.Z.Z.!._.@.- ; . -X-X-X-X-X-X-X-X-X-X-X-X-X-X-X-X-X-X-X-X-X-X-X-X-X-X-X-X-X-X-X-X-X-X-X-X-X-X-X",
"-X-X-X-X-X-X-X-X  . o * * * o .     . J =.+.J J +.-.=.+.;.n.C.M.+.1 5 G W # J W   -X-X-X-X-X-X-X-X-X-X-X-X-X-X-X-X-X-X-X-X-X-X-X-X-X-X-X-X-X-X-X-X-X-X-X-X-X-X-X",
"-X-X-X-X-X-X-X-X-X-X-X-X-X-X-X-X-X. , o - - - - - J r * o 9 Q J o e G 9 ; G Z.+.  -X-X-X-X-X-X-X-X-X-X-X-X-X-X-X-X-X-X-X-X-X-X-X-X-X-X-X-X-X-X-X-X-X-X-X-X-X-X-X",
"-X-X-X-X-X-X-X-X-X-X-X-X-X-X-X-X-XX J e . * W ~ - . . . -X      , W ..o.#.%.2.W . -X-X-X-X-X-X-X-X-X-X-X-X-X-X-X-X-X-X-X-X-X-X-X-X-X-X-X-X-X-X-X-X-X-X-X-X-X-X-X",
"-X-X-X-X-X-X-X-X-X-X-X-X-X-X-X-X-X. X X o o X o X .   -X-X-X-X. X X X o o o o X . -X-X-X-X-X-X-X-X-X-X-X-X-X-X-X-X-X-X-X-X-X-X-X-X-X-X-X-X-X-X-X-X-X-X-X-X-X-X-X",
"-X-X-X-X-X-X-X-X-X-X-X-X-X-X-X-X. o 7 z z z z g U Y o -X-X-X-X. 1 q 7 g z x z ' >   -X-X-X-X-X-X-X-X-X-X-X-X-X-X-X-X-X-X-X-X-X-X-X-X-X-X-X-X-X-X-X-X-X-X-X-X-X-X",
"-X-X-X-X-X-X-X-X-X-X-X-X-X-X-X-X. o 6 l x z w # w Y # . -X-X-X. > 7 6 w x > > Y 0   -X-X-X-X-X-X-X-X-X-X-X-X-X-X-X-X-X-X-X-X-X-X-X-X-X-X-X-X-X-X-X-X-X-X-X-X-X-X",
"-X-X-X-X-X-X-X-X-X-X-X-X-X-X-X-X-X. X . X . X . X X . . -X-X-X. X . X X     X X . X -X-X-X-X-X-X-X-X-X-X-X-X-X-X-X-X-X-X-X-X-X-X-X-X-X-X-X-X-X-X-X-X-X-X-X-X-X-X",
"-X-X-X-X-X-X-X-X-X-X-X-X-X-X-X-X-X-X-X-X-X-X-X-X-X-X-X-X-X-X-X-X-X-X-X-X-X-X-X-X-X-X-X-X-X-X-X-X-X-X-X-X-X-X-X-X-X-X-X-X-X-X-X-X-X-X-X-X-X-X-X-X-X-X-X-X-X-X-X-X",
"-X-X-X-X-X-X-X-X-X-X-X-X-X-X-X-X-X-X-X-X-X-X-X-X-X-X-X-X-X-X-X-X-X-X-X-X-X-X-X-X-X-X-X-X-X-X-X-X-X-X-X-X-X-X-X-X-X-X-X-X-X-X-X-X-X-X-X-X-X-X-X-X-X-X-X-X-X-X-X-X",
"-X-X-X-X-X-X-X-X-X-X-X-X-X-X-X-X-X-X-X-X-X-X-X-X-X-X-X-X-X-X-X-X-X-X-X-X-X-X-X-X-X-X-X-X-X-X-X-X-X-X-X-X-X-X-X-X-X-X-X-X-X-X-X-X-X-X-X-X-X-X-X-X-X-X-X-X-X-X-X-X",
"-X-X-X-X-X-X-X-X-X-X-X-X-X-X-X-X-X-X-X-X-X-X-X-X-X-X-X-X-X-X-X-X-X-X-X-X-X-X-X-X-X-X-X-X-X-X-X-X-X-X-X-X-X-X-X-X-X-X-X-X-X-X-X-X-X-X-X-X-X-X-X-X-X-X-X-X-X-X-X-X",
"-X-X-X-X-X-X-X-X-X-X-X-X-X-X-X-X-X-X-X-X-X-X-X-X-X-X-X-X-X-X-X-X-X-X-X-X-X-X-X-X-X-X-X-X-X-X-X-X-X-X-X-X-X-X-X-X-X-X-X-X-X-X-X-X-X-X-X-X-X-X-X-X-X-X-X-X-X-X-X-X",
"-X-X-X-X-X-X-X-X-X-X-X-X-X-X-X-X-X-X-X-X-X-X-X-X-X-X-X-X-X-X-X-X-X-X-X-X-X-X-X-X-X-X-X-X-X-X-X-X-X-X-X-X-X-X-X-X-X-X-X-X-X-X-X-X-X-X-X-X-X-X-X-X-X-X-X-X-X-X-X-X"
};
