/* XPM */
static char *result[] = {
/* columns rows colors chars-per-pixel */
"80 71 198 2 ",
"   c #161414",
".  c #181615",
"X  c #1C1917",
"o  c #1D1B1A",
"O  c #211B17",
"+  c #231E1A",
"@  c #281F1B",
"#  c #23201E",
"$  c #2C221D",
"%  c #30251E",
"&  c #382B1E",
"*  c #1F1F20",
"=  c #201F20",
"-  c #1F2021",
";  c #232323",
":  c #292623",
">  c #2D2926",
",  c #252729",
"<  c #26292A",
"1  c #2A2B2C",
"2  c #332721",
"3  c #342A23",
"4  c #3C2D24",
"5  c #342E2A",
"6  c #36322D",
"7  c #3B342D",
"8  c #3C3027",
"9  c #2B2E31",
"0  c #2E3134",
"q  c #2F3438",
"w  c #333334",
"e  c #3B3632",
"r  c #3E3934",
"t  c #323639",
"y  c #34393C",
"u  c #3A3C3D",
"i  c #412F27",
"p  c #433125",
"a  c #463329",
"s  c #4A352B",
"d  c #4E382D",
"f  c #493624",
"g  c #513B2D",
"h  c #413C34",
"j  c #423E3A",
"k  c #403731",
"l  c #563D31",
"z  c #5A3E31",
"x  c #5C442B",
"c  c #464036",
"v  c #46423B",
"b  c #4B443B",
"n  c #4B453B",
"m  c #554334",
"M  c #5C4737",
"N  c #65492D",
"B  c #674A2D",
"V  c #604335",
"C  c #674B38",
"Z  c #695137",
"A  c #785633",
"S  c #785437",
"D  c #734F3D",
"F  c #373D42",
"G  c #393F44",
"H  c #3B4146",
"J  c #3D444A",
"K  c #3E484E",
"L  c #374144",
"P  c #444544",
"I  c #4E4945",
"U  c #42484D",
"Y  c #494B4D",
"T  c #474746",
"R  c #544C44",
"E  c #534E4B",
"W  c #5A4D45",
"Q  c #55514B",
"!  c #5A544E",
"~  c #444D54",
"^  c #465157",
"/  c #4D5153",
"(  c #465159",
")  c #49545C",
"_  c #5A5551",
"`  c #54595D",
"'  c #5C5853",
"]  c #67564D",
"[  c #765747",
"{  c #615A55",
"}  c #715D53",
"|  c #65635D",
" . c #68605C",
".. c #4E5A63",
"X. c #515D66",
"o. c #525F69",
"O. c #5E6165",
"+. c #54636C",
"@. c #5B656B",
"#. c #576670",
"$. c #596771",
"%. c #5A6B74",
"&. c #5E6E7A",
"*. c #576C72",
"=. c #5E727C",
"-. c #656869",
";. c #726C67",
":. c #776B64",
">. c #7C726E",
",. c #74736B",
"<. c #616C74",
"1. c #61727D",
"2. c #6B7278",
"3. c #7A7774",
"4. c #8C643A",
"5. c #896137",
"6. c #996C3E",
"7. c #92673B",
"8. c #906D4A",
"9. c #A37341",
"0. c #AF7C46",
"q. c #A87744",
"w. c #B07C46",
"e. c #B47F48",
"r. c #8F7567",
"t. c #837975",
"y. c #957F71",
"u. c #B58048",
"i. c #B98349",
"p. c #BA8854",
"a. c #8B837D",
"s. c #83827A",
"d. c #BA9267",
"f. c #C2915D",
"g. c #637481",
"h. c #657A85",
"j. c #697B86",
"k. c #6B7E8B",
"l. c #677A88",
"z. c #737D83",
"x. c #6C838E",
"c. c #76818A",
"v. c #7A838A",
"b. c #6E8391",
"n. c #6E8A93",
"m. c #728694",
"M. c #728A96",
"N. c #768B9A",
"B. c #798F9E",
"V. c #7D8E96",
"C. c #74919B",
"Z. c #7C939E",
"A. c #7D94A4",
"S. c #7D99A2",
"D. c #7F97A8",
"F. c #868A89",
"G. c #948984",
"H. c #949388",
"J. c #9D918C",
"K. c #818A91",
"L. c #8B949A",
"P. c #9F9E93",
"I. c #A39994",
"U. c #AA9D97",
"Y. c #BA9E8C",
"T. c #ADA29B",
"R. c #A6A599",
"E. c #B0A29D",
"W. c #839BAC",
"Q. c #879BA7",
"!. c #939DA5",
"~. c #859EB0",
"^. c #98A3AC",
"/. c #8CA2B2",
"(. c #98A9B5",
"). c #8FA1AE",
"_. c #B6AAA4",
"`. c #BAACA6",
"'. c #B5A8A3",
"]. c #BAB5A9",
"[. c #A2ACB5",
"{. c #A9B3BB",
"}. c #A6B0B9",
"|. c #CAAB98",
" X c #CFB09C",
".X c #CCBCB6",
"XX c #CFBFB8",
"oX c #C7B8B1",
"OX c #C0B1AB",
"+X c #E1BFA9",
"@X c #C2C1B6",
"#X c #D1C2BB",
"$X c #FAD4BB",
"%X c #F0CCB4",
"&X c #B2BBC3",
"*X c #D6C7C0",
"=X c #FFDAC1",
"-X c None",
/* pixels */
"-X-X-X-X-X-X-X-X-X-X-X-X-X-X-X-X-X-X-X-X-X-X-X-X-X-X-X-X-X-X-X-X-X-X-X-X-X-X-X-X-X-X-X-X-X-X-X-X-X-X-X-X-X-X-X-X-X-X-X-X-X-X-X-X-X-X-X-X-X-X-X-X-X-X-X-X-X-X-X-X",
"-X-X-X-X-X-X-X-X-X-X-X-X-X-X-X-X-X-X-X-X-X-X-X-X-X-X-X-X-X-X-X-X-X-X-X-X-X-X-X-X-X-X-X-X-X-X-X-X-X-X-X-X-X-X-X-X-X-X-X-X-X-X-X-X-X-X-X-X-X-X-X-X-X-X-X-X-X-X-X-X",
"-X-X-X-X-X-X-X-X-X-X-X-X-X-X-X-X-X-X-X-X-X-X-X-X-X-X-X-X-X-X-X-X-X-X-X-X-X-X-X-X-X-X-X-X-X-X-X-X-X-X-X-X-X-X-X-X-X-X-X-X-X-X-X-X-X-X-X-X-X-X-X-X-X-X-X-X-X-X-X-X",
"-X-X-X-X-X-X-X-X-X-X-X-X-X-X-X-X-X-X-X-X-X-X-X-X-X-X-X-X-X-X-X-X-X-X-X-X-X-X-X-X-X-X-X-X-X-X-X-X-X-X-X-X-X-X-X-X-X-X-X-X-X-X-X-X-X-X-X-X-X-X-X-X-X-X-X-X-X-X-X-X",
"-X-X-X-X-X-X-X-X-X-X-X-X-X-X-X-X-X-X-X-X-X-X-X-X-X-X-X-X-X-X-X-X-X-X-X-X-X-X-X-X-X-X-X-X-X-X-X-X-X-X-X-X-X-X-X-X-X-X-X-X-X-X-X-X-X-X-X-X-X-X-X-X-X-X-X-X-X-X-X-X",
"-X-X-X-X-X-X-X-X-X-X-X-X-X-X-X-X-X-X-X-X-X-X-X-X-X-X-X-X-X-X-X-X-X-X-X-X-X-X-X-X-X-X-X-X-X-X-X-X-X-X-X-X-X-X-X-X-X-X-X-X-X-X-X-X-X-X-X-X-X-X-X-X-X-X-X-X-X-X-X-X",
"-X-X-X-X-X-X-X-X-X-X-X-X-X-X-X-X. . -X-X-X-X-X-X-X-X-X-X-X-X-X-X-X-X-X-X-X-X-X-X-X-X-X-X-X-X-X-X-X-X-X-X-X-X-X-X-X-X-X-X-X-X-X-X-X-X-X-X-X-X-X-X-X-X-X-X-X-X-X-X",
"-X-X-X-X-X-X-X-X-X-X-X-X-X-X-X. . . -X-X-X-X-X-X-X-X-X-X-X-X-X-X-X-X-X-X-X-X-X-X-X-X-X-X-X-X-X-X-X-X-X-X-X-X-X-X-X-X-X-X-X-X-X-X-X-X-X-X-X-X-X-X-X-X-X-X-X-X-X-X",
"-X-X-X-X-X-X-X-X-X-X-X-X-X-X  u <   -X-X-X-X-X-X-X-X-X-X-X-X-X-X-X-X. -X-X-X-X-X-X-X-X-X-X-X-X-X-X-X-X-X-X-X-X-X-X-X-X-X-X-X-X-X-X-X-X-X-X-X-X-X-X-X-X-X-X-X-X-X",
"-X-X-X-X-X-X-X-X-X-X-X-X-X  1 K.6   -X-X-X-X-X-X-X-X            -X.     -X-X-X-X-X-X-X-X-X-X. .   -X-X-X-X-X-X-X-X-X-X-X-X-X-X-X-X-X-X-X-X-X-X-X-X-X-X-X-X-X-X-X",
"-X-X-X-X-X-X-X-X-X-X-X-X-X. -.^.w   -X-X-X-X-X-X-X. + f x N z & X   2 2   -X. -X-X-X-X-X-X-X  X : . -X-X-X-X-X-X-X-X-X-X-X-X-X-X-X-X-X-X-X-X-X-X-X-X-X-X-X-X-X-X",
"-X-X-X-X-X-X-X-X-X-X-X-X  w L.[.w   -X-X-X-X-X-X-X  4 4.q.i.i.w.A 4 7.8.2   . . -X-X-X-X-X-X-XX t.E   -X-X-X-X-X-X-X-X-X-X-X-X-X-X-X-X-X-X-X-X-X-X-X-X-X-X-X-X-X",
"-X-X-X-X-X-X-X-X-X-X-X-XX O.(.[.e   -X-X-X-X-X-X-X  + A 7.0.e.e.i.u.i.i.8.o . . -X-X-X-X-X-X-XX G.`.w   -X-X-X-X-X-X-X-X-X-X-X-X-X-X-X-X-X-X-X-X-X-X-X-X-X-X-X-X",
"-X-X-X-X-X-X-X-X-X-X-X  1 K.[.{.P   -X-X-X-X-X-X.   O x S S 7.9.0.u.u.i.p.m n 7   -X-X-X-X-X-X; T.#X>.. -X-X-X-X-X-X-X-X-X-X-X-X-X-X-X-X-X-X-X-X-X-X-X-X-X-X-X-X",
"-X-X-X-X-X-X-X-X-X-X-X. / !.[.{.`   -X; o -X-X. . + O . X O & N 5.9.u.i.u.d.d.Z   -X-X-X-X-X  _ XX#XU.:   -X-X-X-X-X-X-X-X-X-X-X-X-X-X-X-X-X-X-X-X-X-X-X-X-X-X-X",
"-X-X-X-X-X-X-X-X-X-X-Xo -.^.{.&XK.+   w , -X-X  . 2 s X = U 9 X & A 6.u.u.p.f.Z   -X-X-X-X  e _.#XXX`.j   -X-X-X-X-X-X-X-X-X-X-X-X-X-X-X-X-X-X-X-X-X-X-X-X-X-X-X",
"-X-X-X-X-X-X-X-X-X-X  : z.(.{.&X[.O.+ Y . . o > = . 3 a O F j.@.; % A 0.i.i.e.f . X   X O E `.*XXX#XOXI   -X-X-X-X-X-X-X-X-X-X-X-X-X-X-X-X-X-X-X-X-X-X-X-X-X-X-X",
"-X-X-X-X-X-X-X-X-X-X  0 K.[.{.[.[.Y w O.= >.I.`.;.. X 2 a O 9 j.1.= p 6.i.i.6.+ ..<.o 6 I.*X*XXXXXXX_.I   -X-X-X-X-X-X-X-X-X-X-X-X-X-X-X-X-X-X-X-X-X-X-X-X-X-X-X",
"-X-X-X-X-X-X-X-X-X-X  u F.^.[.[.L.; F u j XX*X.Xt.o U ; = d @ = $.X.. N w.i.N + m.(.o.= G.*XXXXXXXXXI.j   -X-X-X-X-X-X-X-X-X-X-X-X-X-X-X-X-X-X-X-X-X-X-X-X-X-X-X",
"-X-X-X-X-X-X-X-X-X-X  1 2.K.!.[.-.* y . ;.XXXXoX>.O 1.g.= @ d 2 o U < & 9.w.i G Q.~.(.F r `.XXXXXX'.y.:   -X-X-X-X-X-X-X-X-X-X-X-X-X-X-X-X-X-X-X-X-X-X-X-X-X-X-X",
"-X-X-X-X-X-X-X-X-X-X-X. t 2.v.v.5 = w : U.XXXXOX{ = k.A.G 1 O a 4 o X + 4.q.% ) ~.W./.z.O a.#XoX'.J._ . -X-X-X-X-X-X-X-X-X-X-X-X-X-X-X-X-X-X-X-X-X-X-X-X-X-X-X-X",
"-X-X-X-X-X-X-X-X-X-X-X-X  1 -./ = / = ! XXXXXXE.I < o.m.W.N.U . 4 s + . B 7.O o.W.W.~.).w I _.U.G.' =   -X-X-X-X-X-X-X-X-X-X-X-X-X-X-X-X-X-X-X-X-X-X-X-X-X-X-X-X",
"-X-X-X-X-X-X-X-X-X-X-X-X-X  o o 0 P = t.U.'.E.G.> J g.B.W.W.W...o % d $ O : , k.W.W.W.(.o.: >.;.r X . -X-X-X-X-X-X-X-X-X-X-X-X-X-X-X-X-X-X-X-X-X-X-X-X-X-X-X-X-X",
"-X-X-X-X-X-X-X-X-X-X-X-X-X-X  o 1 o = ! ;.;.:.! o %.~.W.W.W.W.W.1.< + d 3 . q N.W.W.W.(.z.o ; X   -X-X-X-X-X-X-X-X-X-X-X-X-X-X-X-X-X-X-X-X-X-X-X-X-X-X-X-X-X-X-X",
"-X-X-X-X-X-X-X-X-X-X-X-X-X-X  , 9 X     . * * o F A.k.~ X.1.m.B.W.k.y O a a O F k.~.W.A.<.X . -X-X-X-X-X-X-X-X-X-X-X-X-X-X-X-X-X-X-X-X-X-X-X-X-X-X-X-X-X-X-X-X-X",
"-X-X-X-X-X-X-X-X-X-X-X-X-X-X. G #.j.U = . F #.g.N.A.F o = o = 9 G X.o.q . 8 d O 1 ..F ; O = . -X-X-X-X-X-X-X-X-X-X-X-X-X-X-X-X-X-X-X-X-X-X-X-X-X-X-X-X-X-X-X-X-X",
"-X-X-X-X-X-X-X-X-X-X-X-X-X-X  J k.W.W.g.q * %.~.~.k.= ..N.g.o.J w ; o o . X = @   O 0 ( g.l.; -X-X-X-X-X-X-X-X-X-X-X-X-X-X-X-X-X-X-X-X-X-X-X-X-X-X-X-X-X-X-X-X-X",
"-X-X-X-X-X-X-X-X-X-X-X-X-X-X  1 &.l.N.W.m.9 G D.~.%.. o.B.W.~.W.A.m.h.J o ( : = X.k.A.~.W.k.<   -X-X-X-X-X-X-X-X-X-X-X-X-X-X-X-X-X-X-X-X-X-X-X-X-X-X-X-X-X-X-X-X",
"-X-X-X-X-X-X-X-X-X-X-X-X-X-X-X. ~ g.g.g.k.g.#.D.W.k.1 X < J #.b.A.~.~...; m.~ 1 A.W.B.%.H ; . -X-X-X-X-X-X-X-X-X-X-X-X-X-X-X-X-X-X-X-X-X-X-X-X-X-X-X-X-X-X-X-X-X",
"-X-X-X-X-X-X-X-X-X-X-X-X-X-X-X. * ( g.g.g.k.l.B.W.~.) @ W k = * t ) g.F t W.o.= $.) 1 X O . . -X-X-X-X-X-X-X-X-X-X-X-X-X-X-X-X-X-X-X-X-X-X-X-X-X-X-X-X-X-X-X-X-X",
"-X-X-X-X-X-X-X-X-X-X-X-X-X-X-X-X  o t ( g.g.&.k.W.W.o.=  X%X|.r.W : O . ~ W.g.o X X % s d O   -X-X-X-X-X-X-X-X-X-X-X-X-X-X-X-X-X-X-X-X-X-X-X-X-X-X-X-X-X-X-X-X-X",
"-X-X-X-X-X-X-X-X-X-X-X-X-X-X-X-X-X. . t g.g.#.G k.~.k.o y.=X=X=X$X Xe 1 N.W.W...X i V C l . . -X-X-X-X-X-X-X-X-X-X-X-X-X-X-X-X-X-X-X-X-X-X-X-X-X-X-X-X-X-X-X-X-X",
"-X-X-X-X-X-X-X-X-X-X-X-X-X-X-X-X-X. o ( g.g.&.K o.N.A.G 5 Y.%X%X+Xr.X t o.$.$.) o : V C 2   . -X-X-X-X-X-X-X-X-X-X-X-X-X-X-X-X-X-X-X-X-X-X-X-X-X-X-X-X-X-X-X-X-X",
"-X-X-X-X-X-X-X-X-X-X-X-X-X-X-X-X-X-X. < #.g.g.#.$.g.m.k.9 ; l I >   . X = O = O . X o X .   . -X-X-X-X-X-X-X-X-X-X-X-X-X-X-X-X-X-X-X-X-X-X-X-X-X-X-X-X-X-X-X-X-X",
"-X-X-X-X-X-X-X-X-X-X-X-X-X-X-X-X-X-X    9 $.&.9 ; o.k.~.N.X.F F U U . j ! ! { ' O ~ @.) O . -X-X-X-X-X-X-X-X-X-X-X-X-X-X-X-X-X-X-X-X-X-X-X-X-X-X-X-X-X-X-X-X-X-X",
"-X-X-X-X-X-X-X-X-X-X-X-X-X-X-X-X-X-X      9 o...q ( k.W.W.W.W.W.~.l.= o 5 I R e o g.W.^ . -X-X-X-X-X-X-X-X-X-X-X-X-X-X-X-X-X-X-X-X-X-X-X-X-X-X-X-X-X-X-X-X-X-X-X",
"-X-X-X-X-X-X-X-X-X-X-X-X-X-X-X-X  X 9 9 =   = U $.g.g.m.W.W.W.W.W.W.j.( + o o o X.W.j.;   -X-X-X-X-X-X-X-X-X-X-X-X-X-X-X-X-X-X-X-X-X-X-X-X-X-X-X-X-X-X-X-X-X-X-X",
"-X-X-X-X-X-X-X-X-X-X-X-X-X-X-X  < ..g.k.1.y     < ~ #.g.k.A.W.W.W.W.W.W.j.) ) 1.W.B.F   -X-X-X-X-X-X-X-X-X-X-X-X-X-X-X-X  . .   -X-X-X-X-X-X-X-X-X-X-X-X-X-X-X-X",
"-X-X-X-X-X-X-X-X-X-X-X-X-X-X-X. G +.A.D.W.g..   * * - G ..g.k.N.A.W.W.W.W.~.W.W.b.G . -X-X-X-X-X-X-X-X-X-X-X-X-X-X-X-X  w 3.F.j X > X -X-X-X-X-X-X-X-X-X-X-X-X-X",
"-X-X-X-X-X-X-X-X-X-X-X-X-X-X  9 0 ..~.D.~.l.o   F g.K , o , y q F +.h.c.m.x.g.) < . -X-X-X-X-X-X-X-X-X-X-X-X-X-X-X-X-X. s.@XoX| r c   . . X -X-X-X-X-X-X-X-X-X-X",
"-X-X-X-X-X-X-X-X-X-X-X-X-X-X. J ..N.D.W.~.o.X 2 = k.W.N.@.J 9 o   . + * - - X # X . -X-X-X-X-X-X-X-X-X-X-X-X-X-X-X-X-X: P.].s.e n j < O 6 X -X-X-X-X-X-X-X-X-X-X",
"-X-X-X-X-X-X-X-X-X-X-X-X-X  < J #.A.~.D.A.q X d O ..W.W.W.W.A.g.; + N S A A 4.7.%   -X-X-X-X-X-X-X-X-X-X-X-X-X-X-X-X  5 H.H.e c e H.,.O 3 X . -X-X-X-X-X-X-X-X-X",
"-X-X-X-X-X-X-X-X-X-X-X-X-X  J =.k.D.D.~.1.X . i 2 9 B.W.W.W.W.A.) X p B 4.u.4.A X . -X-X-X-X-X-X-X-X-X-X-X-X-X-X-X-X# > h r 5 6 6 v n # . X -X-X-X-X-X-X-X-X-X-X",
"-X-X-X-X-X-X-X-X-X-X-X-X-X+ o.g.N.~.~.D.J 1 y @ d X 1.W.W.W.W.N.h.) X   $ g X . . . . -X-X-X-X-X-X-X-X-X-X-X-X-X-X. 6 n c h h h c n v v 7 O -X-X-X-X-X-X-X-X-X-X",
"-X-X-X-X-X-X-X-X-X-X-X-X. 9 &.h.A.W.W.B.9 J &.o d @ U W.W.W.W.b.M.A.J . O   1 0 1 . . -X-X-X-X-X-X-X-X-X-X-X-X-X-X. . .   r 5 ,.,.| Q c 6 + -X-X-X-X-X-X-X-X-X-X",
"-X-X-X-X-X-X-X-X-X-X-X. . ; ~ $.B.W.~.m.; X.B.9 3 4 ; N.W.W.W.m.W.W.%.o s O H o.Y       -X-X-X-X-X-X-X-X-X-X-X-X. o & > # n Q ].].].H.,.:   -X-X-X-X-X-X-X-X-X-X",
"-X-X-X-X-X-X-X-X-X-X-X. : @ X = t U o...o +.W.) + l o $.W.W.D.A.W.W.~ @ d o g.K.1 X h 8 . -X-X-X-X-X-X-X-X-X. O 3 m m $ h r ,.R.R.H.j | 1   -X-X-X-X-X-X-X-X-X-X",
"-X-X-X-X-X-X-X-X-X-X-XX d z s a 2 + O o . ( m.1.o a $ G D.W.W.W.W.A.t 2 i < !.<.X g r.] . -X-X-X-X-X-X-X. X 3 m m 3 X . c r s.s.' ' | P X -X-X-X-X-X-X-X-X-X-X-X",
"-X-X-X-X-X-X-X-X-X-X-X. 2 s z [ S D [ } O F g.&.< : 2 ; m.W.W.W.W.m.; i % H !.0 2 [ C :     -X-X-X-X. X 3 m M 8 X   -X-X+ : ;.s.| I 1 . . -X-X-X-X-X-X-X-X-X-X-X",
"-X-X-X-X-X-X-X-X-X-X-X  X X @ p z M } ] X w &.g.J . i o $.~.W.W.W.1.o 4 O @.c.o s i o 9 y o   -X. X > m M 8 X   -X-X-X-X-X  > P 1 .   -X-X-X-X-X-X-X-X-X-X-X-X-X",
"-X-X-X-X-X-X-X-X-X-X. q 1.X.y ; - o o . , o.g.g.o.o 4 O J A.S.S.W.^ O 4 o z.` . X ; ) N.D.$.o . 3 m M p #   . -X-X-X-X-X-X-X    . -X-X-X-X-X-X-X-X-X-X-X-X-X-X-X",
"-X-X-X-X-X-X-X-X-X  , &.W.W.W.N.j.1...+ < J K ~ ) = @ @ o 9 9 0 9 O O + o G ;   = 1.W.W.W.N., 8 C p # .   -X-X-X-X-X-X-X-X-X-X-X-X-X-X-X-X-X-X-X-X-X-X-X-X-X-X-X",
"-X-X-X-X-X-X-X-X-X  J b.W.W.W.W.W.~.S.K   o O O O O o X . ; H j H + o @ $ % 4 2 o 1.W.W.D.m.< + #     -X-X-X-X-X-X-X-X-X-X-X-X-X-X-X-X-X-X-X-X-X-X-X-X-X-X-X-X-X",
"-X-X-X-X-X-X-X-X-X. ..m.W.W.W.W.W.W.~.o.. & 8 3 8 s l d + y 2.c.L.w @ d a 8 4 % . &.B.g.k.D.X.    -X-X-X-X-X-X-X-X-X-X-X-X-X-X-X-X-X-X-X-X-X-X-X-X-X-X-X-X-X-X-X",
"-X-X-X-X-X-X-X-X-Xo o.j.B.W.W.W.~.W.x.1 o o - X o o O o   : P U / ; . + - , 9 X 9 &.g.1.g.k.o.. -X-X-X-X-X-X-X-X-X-X-X-X-X-X-X-X-X-X-X-X-X-X-X-X-X-X-X-X-X-X-X-X",
"-X-X-X-X-X-X-X-X-Xo ..g.g.k.A.W.S.W...o +.=.=.*.$.+.+.+.H , , , , , ~ h.x.x.j.o J g.1.g.g.#.1   -X-X-X-X-X-X-X-X-X-X-X-X-X-X-X-X-X-X-X-X-X-X-X-X-X-X-X-X-X-X-X-X",
"-X-X-X-X-X-X-X-X-X. ( g.g.l.B.D.D.C.H , x.n.n.n.C.C.C.C.n.x.n.x.x.x.C.C.C.S.@.X q =.g.g.o.<   -X-X-X-X-X-X-X-X-X-X-X-X-X-X-X-X-X-X-X-X-X-X-X-X-X-X-X-X-X-X-X-X-X",
"-X-X-X-X-X-X-X-X-X  ; J ( ( ..( U q X L =.=.*.=.n.n.n.n.C.C.C.C.C.S.Z.C.C.Z.6   1 =.=.( ; . -X-X-X-X-X-X-X-X-X-X-X-X-X-X-X-X-X-X-X-X-X-X-X-X-X-X-X-X-X-X-X-X-X-X",
"-X-X-X-X-X-X-X-X-X-X    . . .         0 ..K L L *.=.*.*.x.n.n.C.x.*.2.V.Q.^ - 9 - ) y o   -X-X-X-X-X-X-X-X-X-X-X-X-X-X-X-X-X-X-X-X-X-X-X-X-X-X-X-X-X-X-X-X-X-X-X",
"-X-X-X-X-X-X-X-X-X-X-X-X-X-X-X-X-X. q - - o < - - K L < 9 K x.+.1 o - ; 6 - X.X.  o   -X-X-X-X-X-X-X-X-X-X-X-X-X-X-X-X-X-X-X-X-X-X-X-X-X-X-X-X-X-X-X-X-X-X-X-X-X",
"-X-X-X-X-X-X-X-X-X-X-X-X-X-X-X-X-Xo K H # t o.^ o . .       ; + o y L <   q *.^   . -X-X-X-X-X-X-X-X-X-X-X-X-X-X-X-X-X-X-X-X-X-X-X-X-X-X-X-X-X-X-X-X-X-X-X-X-X-X",
"-X-X-X-X-X-X-X-X-X-X-X-X-X-X-X-X-X. X o X o - o o . X -X-X-X    . o o o X o o o   -X-X-X-X-X-X-X-X-X-X-X-X-X-X-X-X-X-X-X-X-X-X-X-X-X-X-X-X-X-X-X-X-X-X-X-X-X-X-X",
"-X-X-X-X-X-X-X-X-X-X-X-X-X-X-X-X  o 7 n n n n r Q Q o -X-X-X-X  1 7 7 c n c n { >   -X-X-X-X-X-X-X-X-X-X-X-X-X-X-X-X-X-X-X-X-X-X-X-X-X-X-X-X-X-X-X-X-X-X-X-X-X-X",
"-X-X-X-X-X-X-X-X-X-X-X-X-X-X-X-X  o e c v v r # r Q # . -X-X-X. > e 6 h v > > Q e   -X-X-X-X-X-X-X-X-X-X-X-X-X-X-X-X-X-X-X-X-X-X-X-X-X-X-X-X-X-X-X-X-X-X-X-X-X-X",
"-X-X-X-X-X-X-X-X-X-X-X-X-X-X-X-X-X. . . X . . . . X . . -X-X-X. . X . . . . . X . . -X-X-X-X-X-X-X-X-X-X-X-X-X-X-X-X-X-X-X-X-X-X-X-X-X-X-X-X-X-X-X-X-X-X-X-X-X-X",
"-X-X-X-X-X-X-X-X-X-X-X-X-X-X-X-X-X-X-X-X-X-X-X-X-X-X-X-X-X-X-X-X-X-X-X-X-X-X-X-X-X-X-X-X-X-X-X-X-X-X-X-X-X-X-X-X-X-X-X-X-X-X-X-X-X-X-X-X-X-X-X-X-X-X-X-X-X-X-X-X",
"-X-X-X-X-X-X-X-X-X-X-X-X-X-X-X-X-X-X-X-X-X-X-X-X-X-X-X-X-X-X-X-X-X-X-X-X-X-X-X-X-X-X-X-X-X-X-X-X-X-X-X-X-X-X-X-X-X-X-X-X-X-X-X-X-X-X-X-X-X-X-X-X-X-X-X-X-X-X-X-X",
"-X-X-X-X-X-X-X-X-X-X-X-X-X-X-X-X-X-X-X-X-X-X-X-X-X-X-X-X-X-X-X-X-X-X-X-X-X-X-X-X-X-X-X-X-X-X-X-X-X-X-X-X-X-X-X-X-X-X-X-X-X-X-X-X-X-X-X-X-X-X-X-X-X-X-X-X-X-X-X-X",
"-X-X-X-X-X-X-X-X-X-X-X-X-X-X-X-X-X-X-X-X-X-X-X-X-X-X-X-X-X-X-X-X-X-X-X-X-X-X-X-X-X-X-X-X-X-X-X-X-X-X-X-X-X-X-X-X-X-X-X-X-X-X-X-X-X-X-X-X-X-X-X-X-X-X-X-X-X-X-X-X",
"-X-X-X-X-X-X-X-X-X-X-X-X-X-X-X-X-X-X-X-X-X-X-X-X-X-X-X-X-X-X-X-X-X-X-X-X-X-X-X-X-X-X-X-X-X-X-X-X-X-X-X-X-X-X-X-X-X-X-X-X-X-X-X-X-X-X-X-X-X-X-X-X-X-X-X-X-X-X-X-X",
"-X-X-X-X-X-X-X-X-X-X-X-X-X-X-X-X-X-X-X-X-X-X-X-X-X-X-X-X-X-X-X-X-X-X-X-X-X-X-X-X-X-X-X-X-X-X-X-X-X-X-X-X-X-X-X-X-X-X-X-X-X-X-X-X-X-X-X-X-X-X-X-X-X-X-X-X-X-X-X-X"
};
