/* XPM */
static char *result[] = {
/* columns rows colors chars-per-pixel */
"80 71 199 2 ",
"   c #161414",
".  c #181615",
"X  c #1B1917",
"o  c #1D1B1B",
"O  c #231D1A",
"+  c #241D18",
"@  c #23201E",
"#  c #2B221C",
"$  c #31251E",
"%  c #392D1F",
"&  c #362A1F",
"*  c #1F1F20",
"=  c #1F2020",
"-  c #232323",
";  c #2A2623",
":  c #2D2925",
">  c #252728",
",  c #27292B",
"<  c #2A2B2D",
"1  c #322721",
"2  c #342923",
"3  c #3B2C24",
"4  c #312D2B",
"5  c #3E2F28",
"6  c #35312D",
"7  c #3B332C",
"8  c #3D3024",
"9  c #2B2E31",
"0  c #2D3134",
"q  c #2F3438",
"w  c #333434",
"e  c #3B3631",
"r  c #3D3935",
"t  c #313639",
"y  c #34393D",
"u  c #3B3B3B",
"i  c #402F26",
"p  c #433126",
"a  c #45332A",
"s  c #4A352B",
"d  c #4E382D",
"f  c #4A3825",
"g  c #533D27",
"h  c #523A2D",
"j  c #413C35",
"k  c #433E3A",
"l  c #4C3F39",
"z  c #523E31",
"x  c #5A3F31",
"c  c #5C432A",
"v  c #45423D",
"b  c #4A443A",
"n  c #474137",
"m  c #544233",
"M  c #5B4335",
"N  c #5E4838",
"B  c #57483B",
"V  c #6C4E2F",
"C  c #644536",
"Z  c #664B39",
"A  c #775532",
"S  c #363D41",
"D  c #393F43",
"F  c #3B4145",
"G  c #3D454A",
"H  c #3E484D",
"J  c #414547",
"K  c #4A4542",
"L  c #444749",
"P  c #41484E",
"I  c #4A4A49",
"U  c #544D46",
"Y  c #534E4A",
"T  c #594C44",
"R  c #55524C",
"E  c #444E54",
"W  c #4E4F51",
"Q  c #445156",
"!  c #4B5155",
"~  c #465259",
"^  c #4A545C",
"/  c #4B5B5F",
"(  c #5D5653",
")  c #5C5B54",
"_  c #525557",
"`  c #7A5441",
"'  c #7D5D4D",
"]  c #615B55",
"[  c #675F5C",
"{  c #615048",
"}  c #64625B",
"|  c #6A645F",
" . c #7F6355",
".. c #7C6044",
"X. c #4B5760",
"o. c #4D5A63",
"O. c #515D66",
"+. c #525F68",
"@. c #5B5E62",
"#. c #5A6166",
"$. c #54636C",
"%. c #5D666D",
"&. c #576671",
"*. c #596771",
"=. c #566C73",
"-. c #5B6A75",
";. c #5E6E7A",
":. c #5E727C",
">. c #4F6065",
",. c #666768",
"<. c #746D67",
"1. c #656C71",
"2. c #61727E",
"3. c #6B767D",
"4. c #71797F",
"5. c #79776F",
"6. c #845E37",
"7. c #8A6239",
"8. c #94693D",
"9. c #986B3C",
"0. c #9D7E5F",
"q. c #A37442",
"w. c #AA7A48",
"e. c #B27D47",
"r. c #867C77",
"t. c #8F786A",
"y. c #B68048",
"u. c #B9834A",
"i. c #B78857",
"p. c #85847B",
"a. c #89887E",
"s. c #9C8475",
"d. c #C08F5C",
"f. c #C49666",
"g. c #627481",
"h. c #667A86",
"j. c #687A86",
"k. c #677A88",
"l. c #6A7D8A",
"z. c #747D83",
"x. c #678189",
"c. c #6C818E",
"v. c #7C848B",
"b. c #77848A",
"n. c #6E8391",
"m. c #6E8A93",
"M. c #718694",
"N. c #728A96",
"B. c #758B99",
"V. c #798F9E",
"C. c #74919A",
"Z. c #79939F",
"A. c #7C93A3",
"S. c #7F97A8",
"D. c #7E99A1",
"F. c #8A8C87",
"G. c #938A85",
"H. c #9B8E89",
"J. c #918681",
"K. c #9A938C",
"L. c #838C93",
"P. c #81929B",
"I. c #8B949B",
"U. c #A79A95",
"Y. c #A1948F",
"T. c #ADA19D",
"R. c #AAA99D",
"E. c #B0A39D",
"W. c #8D9AA3",
"Q. c #8097A8",
"!. c #839BAC",
"~. c #8598A2",
"^. c #939CA3",
"/. c #97A4AF",
"(. c #8BA2B3",
"). c #9BA8B2",
"_. c #AFAEA2",
"`. c #B8AAA4",
"'. c #B9B5AA",
"]. c #A2ADB6",
"[. c #AAB4BD",
"{. c #A6B1BA",
"}. c #BFBEB4",
"|. c #C4A693",
" X c #D3B39E",
".X c #C2B3AC",
"XX c #D9B8A3",
"oX c #C5B7B0",
"OX c #CDBDB6",
"+X c #CFBFB8",
"@X c #C5BAB5",
"#X c #D0BFB8",
"$X c #D1C1BB",
"%X c #C5C4B9",
"&X c #F0CCB4",
"*X c #B2BBC2",
"=X c #D3C6C0",
"-X c #FFDAC0",
";X c None",
/* pixels */
";X;X;X;X;X;X;X;X;X;X;X;X;X;X;X;X;X;X;X;X;X;X;X;X;X;X;X;X;X;X;X;X;X;X;X;X;X;X;X;X;X;X;X;X;X;X;X;X;X;X;X;X;X;X;X;X;X;X;X;X;X;X;X;X;X;X;X;X;X;X;X;X;X;X;X;X;X;X;X;X",
";X;X;X;X;X;X;X;X;X;X;X;X;X;X;X;X;X;X;X;X;X;X;X;X;X;X;X;X;X;X;X;X;X;X;X;X;X;X;X;X;X;X;X;X;X;X;X;X;X;X;X;X;X;X;X;X;X;X;X;X;X;X;X;X;X;X;X;X;X;X;X;X;X;X;X;X;X;X;X;X",
";X;X;X;X;X;X;X;X;X;X;X;X;X;X;X;X;X;X;X;X;X;X;X;X;X;X;X;X;X;X;X;X;X;X;X;X;X;X;X;X;X;X;X;X;X;X;X;X;X;X;X;X;X;X;X;X;X;X;X;X;X;X;X;X;X;X;X;X;X;X;X;X;X;X;X;X;X;X;X;X",
";X;X;X;X;X;X;X;X;X;X;X;X;X;X;X;X;X;X;X;X;X;X;X;X;X;X;X;X. . ;X;X;X;X;X;X;X;X;X;X;X;X;X;X;X;X;X;X;X;X;X;X;X;X;X;X;X;X;X;X;X;X;X;X;X;X;X;X;X;X;X;X;X;X;X;X;X;X;X;X",
";X;X;X;X;X;X;X;X;X;X;X;X;X;X;X;X;X;X;X;X;X;X;X;X;X;X;X  .   ;X;X;X;X;X;X;X;X;X;X;X;X;X;X;X;X;X;X;X;X;X;X;X;X;X;X;X;X;X;X;X;X;X;X;X;X;X;X;X;X;X;X;X;X;X;X;X;X;X;X",
";X;X;X;X;X;X;X;X;X;X;X;X;X;X;X;X;X;X;X;X;X;X;X;X;X  o w X ;X;X;X;X;X;X;X;X;X;X;X;X;X;X;X;X;X;X;X;X;X;X;X;X;X;X;X;X;X;X;X;X;X;X;X;X;X;X;X;X;X;X;X;X;X;X;X;X;X;X;X",
";X;X;X;X;X;X;X;X;X;X;X;X;X;X;X;X;X;X;X;X;X;X;X;X  O 1.@.  ;X;X;X;X;X;X;X;X;X;X;X;X;X;X;X;X;X;X;X;X;X;X;X;X;X;X;X;X;X;X;X;X;X;X;X;X;X;X;X;X;X;X;X;X;X;X;X;X;X;X;X",
";X;X;X;X;X;X;X;X;X;X;X;X;X;X;X;X;X;X;X;X;X;X;X. - 1.).k   ;X;X;X;X;X;X;X;X;X;X;X;X;X;X;X;X;X;X;X;X;X;X;X;X;X;X;X;X;X;X;X;X;X;X;X;X;X;X;X;X;X;X;X;X;X;X;X;X;X;X;X",
";X;X;X;X;X;X;X;X;X;X;X;X;X;X;X;X;X;X;X;X;X;X. O ,.).^.> ;X;X;X;X;X;X;X;X;X;X;X;X;X;X;X;X;X;X;X;X;X;X;X;X;X;X;X;X;X;X;X;X;X;X;X;X;X;X;X;X;X;X;X;X;X;X;X;X;X;X;X;X",
";X;X;X;X;X;X;X;X;X;X;X;X;X;X;X;X;X;X;X;X;X. o _ ^.[.z.. ;X;X;X;X;X;X;X;X;X;X;X;X;X;X;X;X;X;X;X;X;X;X;X;X;X;X;X;X;X;X;X;X;X;X;X;X;X;X;X;X;X;X;X;X;X;X;X;X;X;X;X;X",
";X;X;X;X;X;X;X;X;X;X;X;X;X;X;X;X;X;X;X;X;X. J L.].{.,.  ;X;X;X;X;X;X;X. X + X     ;X;X;X;X;X;X;X;X;X;X;X;X;X;X;X;X;X;X;X;X;X;X;X;X;X;X;X;X;X;X;X;X;X;X;X;X;X;X;X",
";X;X;X;X;X;X;X;X;X;X;X;X;X;X;X;X;X;X;X;X  ; 4./.].*XW   ;X;X;X;X;X;X;X  + V 7.A f O   ;X. . ;X;X;X;X;X;X;X;X;X;X;X;X;X;X;X;X;X;X;X;X;X;X;X;X;X;X;X;X;X;X;X;X;X;X",
";X;X;X;X;X;X;X;X;X;X;X;X;X;X;X;X;X;X;X;X. W W.].{.*XI   X - ;X;X;X;X.   + V 9.y.y.7.%   . X . ;X;X;X;X;X;X;X;X;X;X;X;X;X;X;X;X;X;X;X;X;X;X;X;X;X;X;X;X;X;X;X;X;X",
";X;X;X;X;X;X;X;X;X;X;X;X;X;X;X;X;X;X;X  ; 4.].{.{.[.z.. * w X ;X;X. . . $ A 8.e.u.u.9.& c C . ;X;X;X;X;X;X;X;X;X;X;X;X;X;X;X;X;X;X;X;X;X;X;X;X;X;X;X;X;X;X;X;X;X",
";X;X;X;X;X;X;X;X;X;X;X;X;X;X;X;X;X;X;X  F L.).].].].1.@ _ O   ;X    + # X $ g 6.q.u.u.w.y.w.:   . . ;X;X;X;X;X;X;X;X;X;X;X;X;X;X;X;X;X;X;X;X;X;X;X;X;X;X;X;X;X;X",
";X;X;X;X;X;X;X;X;X;X;X;X;X;X;X;X;X;X;X  J z.W.].].L.- I _ * w < > o o s + . o $ V 9.e.u.u.i.N     . ;X;X;X;X;X;X  X . ;X;X;X;X;X;X;X;X;X;X;X;X;X;X;X;X;X;X;X;X;X",
";X;X;X;X;X;X;X;X;X;X;X;X;X;X;X;X;X;X;X  o #.L.^.I.w o F @ [ @X.XU.k   2 5 O E 9 + V 9.e.u.u.q.+ :   ;X;X;X;X;X;X. X X ;X;X;X;X;X;X;X;X;X;X;X;X;X;X;X;X;X;X;X;X;X",
";X;X;X;X;X;X;X;X;X;X;X;X;X;X;X;X;X;X;X;X. < 3.4.u . L * j .X$X$X`.K . o s + D j.w # A q.u.e.0.s.Z   ;X;X;X;X;X;X  u R   ;X;X;X;X;X;X;X;X;X;X;X;X;X;X;X;X;X;X;X;X",
";X;X;X;X;X;X;X;X;X;X;X;X;X;X;X;X;X;X;X;X;X  w w * L * < H.$X#XOXH.: D t + s o +.j.@ f 9.e.u.i.f.m   ;X;X;X;X;X;X  <.U.: . ;X;X;X;X;X;X;X;X;X;X;X;X;X;X;X;X;X;X;X",
";X;X;X;X;X;X;X;X;X;X;X;X;X;X;X;X;X;X;X;X;X.   . L k * r.#X#X#X`.[ o g.g.o 5 2 - h.P + 7.y.u.u.q.$   ;X;X;X;X;X  : U.OXK   ;X;X;X;X;X;X;X;X;X;X;X;X;X;X;X;X;X;X;X",
";X;X;X;X;X;X;X;X;X;X;X;X;X;X;X;X;X;X;X;X;X. o 6 - X ( U.E..X.XJ.4 t V.M.; . s # y $.X V e.u.e.g o o   ;X;X    ; G.$XOX]   ;X;X;X;X;X;X;X;X;X;X;X;X;X;X;X;X;X;X;X",
";X;X;X;X;X;X;X;X;X;X;X;X;X;X;X;X;X;X;X;X;XX < 0 X . 4 ] r.H.H.Y o ^ +.V.g.0 + s o D o c e.u.V o %.%.  o - < ) T.=X+XOX[   ;X;X;X;X;X;X;X;X;X;X;X;X;X;X;X;X;X;X;X",
";X;X;X;X;X;X;X;X;X;X;X;X;X;X;X;X;X;X;X;X;Xo O.k.*.-   . - j J O ^ B.B.!.!.j.* 3 5 . X g e.9.+ P !.(.q v E.@X=X$X+X+X.X(   ;X;X;X;X;X;X;X;X;X;X;X;X;X;X;X;X;X;X;X",
";X;X;X;X;X;X;X;X;X;X;X;X;X;X;X;X;X;X;X;X;X* $.B.!.-.* - D q - H A.!.!.!.!.Q.o.o s 1   c e.g , M.!.).#.: `.$X$X$X+X+X`.k   ;X;X;X;X;X;X;X;X;X;X;X;X;X;X;X;X;X;X;X",
";X;X;X;X;X;X;X;X;X;X;X;X;X;X;X;X;X;X;X;X;Xo O.k.V.!.O.o X.A.B.A.B.E X.M.!.!.V.D + d + p 6.+ E !.Q.(.l.O H.$X#X#X$XoXJ.;   ;X;X;X;X;X;X;X;X;X;X;X;X;X;X;X;X;X;X;X",
";X;X;X;X;X;X;X;X;X;X;X;X;X;X;X;X;X;X;X;X;X  H g.g.B.V.9 D !.!.S.D o * > o.M.!.l.> 2 a . + < n.!.!.(.P.* r.$X$X$X.XU.( . ;X;X;X;X;X;X;X;X;X;X;X;X;X;X;X;X;X;X;X;X",
";X;X;X;X;X;X;X;X;X;X;X;X;X;X;X;X;X;X;X;X;X  - &.g.g.n.+.$.!.!.-.* o.j.L * < +.B.*.X a 2 . -.!.!.!.!.W.> <.oX`.E.Y.<.-   ;X;X;X;X;X;X;X;X;X;X;X;X;X;X;X;X;X;X;X;X",
";X;X;X;X;X;X;X;X;X;X;X;X;X;X;X;X;X;X;X;X;X;X  9 O.g.g.k.l.!.!.E o 2.!.Q.j.D O 9 o.y + d + S V.!.!.(.W.; ] H.J.r.( ; . ;X;X;X;X;X;X;X;X;X;X;X;X;X;X;X;X;X;X;X;X;X",
";X;X;X;X;X;X;X;X;X;X;X;X;X;X;X;X;X;X;X;X;X;X. . 9 -.g.g.l.S.S.g.. o E B.!.S.g.S * -   1 d X X.S.!.(.W.- < j 4 ; .   ;X;X;X;X;X;X;X;X;X;X;X;X;X;X;X;X;X;X;X;X;X;X",
";X;X;X;X;X;X;X;X;X;X;X;X;X;X;X;X;X;X;X;X;X;X  - X.g.g.=.=.S.!.-.@ T # 9 -.S.!.Q.-.O - * 1 X * L E ! L .       ;X;X;X;X;X;X;X;X;X;X;X;X;X;X;X;X;X;X;X;X;X;X;X;X;X",
";X;X;X;X;X;X;X;X;X;X;X;X;X;X;X;X;X;X;X;X;X;X;Xo O.g.g.o.S M.!.o.: XX|.K * D l.(.2.X +.P   < 9 < 9 , , * . ;X;X;X;X;X;X;X;X;X;X;X;X;X;X;X;X;X;X;X;X;X;X;X;X;X;X;X",
";X;X;X;X;X;X;X;X;X;X;X;X;X;X;X;X;X;X;X;X;X;X;X  S g.g.-.+.k.S.+.; XX-X&Xt.: ; o.q q A.X.> l.A.V.V.V.V.S   ;X;X;X;X;X;X;X;X;X;X;X;X;X;X;X;X;X;X;X;X;X;X;X;X;X;X;X",
";X;X;X;X;X;X;X;X;X;X;X;X;X;X;X;X;X;X;X;X;X;X    * +.g.D Q g.n.g.O s.-X-X-XXXU   o -.Q.D 0 V.V.B.M.l.g.9   ;X;X;X;X;X;X;X;X;X;X;X;X;X;X;X;X;X;X;X;X;X;X;X;X;X;X;X",
";X;X;X;X;X;X;X;X;X;X;X;X;X;X;X;X;X;X. . . .   O   9 &.t o O.n.V.S : t.XX&X|.U * *.Q.Q.S O t < , ; * o . ;X;X;X;X;X;X;X;X;X;X;X;X;X;X;X;X;X;X;X;X;X;X;X;X;X;X;X;X",
";X;X;X;X;X;X;X;X;X;X;X;X;X;X;X;X;X. > D X.E , o X   S &.H -.V.!.M.D * 1 6 @   < 2.V.!.-.X + 1 2 5 O . ;X;X;X;X;X;X;X;X;X;X;X;X;X;X;X;X;X;X;X;X;X;X;X;X;X;X;X;X;X",
";X;X;X;X;X;X;X;X;X;X;X;X;X;X;X  X t t G l.n.;.,   .   D g.g.M.Q.!.A.g.o.E - X * o < P E o 5 C C M + . ;X;X;X;X;X;X;X;X;X;X;X;X;X;X;X;X;X;X;X;X;X;X;X;X;X;X;X;X;X",
";X;X;X;X;X;X;X;X;X;X;X;X;X;X  * S ~ ^ k.!.!.Q.O..   * o y -.k.A.!.!.!.!.V.< ; U U r ; o   + C Z 3   . ;X;X;X;X;X;X;X;X;X;X;X;X;X;X;X;X;X;X;X  X     ;X;X;X;X;X;X",
";X;X;X;X;X;X;X;X;X;X;X;X;X  9 O.&.&.B.!.!.!.!.*.o + 9 ~ o 9 $.l.S.!.!.Q.Q.^ O ; T ] ,.1 > , X + . . . ;X;X;X;X;X;X;X;X;X;X;X;X;X;X;X;X;X;X  6 <.,.: X @ ;X;X;X;X",
";X;X;X;X;X;X;X;X;X;X    . S -.g.l.A.Q.!.Q.!.M.9 O i - l.;.> - ~ g.A.!.!.!.Q.$.* ; e 4 X o.M./ O   . ;X;X;X;X;X;X;X;X;X;X;X;X;X;X;X;X;X;X;X@ F.%X}.R n e .     ;X",
";X;X;X;X;X;X;X;X;X  o # X E g.k.S.!.!.!.Q.j.0 . O d + *.!.l.y X t ^ g.Q.!.!.Q.+.9 * < +.Q.B.F . ;X;X;X;X;X;X;X;X;X;X;X;X;X;X;X;X;X;X;X;X  e R.'.5.r n 6 X @ # . ",
";X;X;X;X;X;X;X;X;X  5 h + @ +.Q.!.Q.!.A.O.* , ^ o s # H Q.!.V.O.> . * ^ M.Q.!.!.A.l.V.!.B.D   ;X;X;X;X;X;X;X;X;X;X;X;X;X;X;X;X;X;X;X;X;X  v R.a.e b v K.Y @ 8 X ",
";X;X;X;X;X;X;X;X    1 x h + > g.!.!.A.E o t -.M.9 5 5 < V.!.!.!.M.G     , E 2.M.A.A.M.+.< o .   ;X;X;X;X;X;X;X;X;X;X;X;X;X;X;X;X;X;X;X;Xo 4 v e : : w ) I . X . ",
";X;X;X;X;X;X  o 0 t X i C C # - ;.S.^ o G ;.k.S.H + s o l.!.!.!.!.j.O 5 g # o - < 9 -   t 2.~ o   ;X;X;X;X;X;X;X;X;X;X;X;X;X;X;X;X;X;XX n b b n b n n b n e $ . ",
";X;X;X;X;X  9 $.B.V.D X x ` Z 1 * D o S g.g.l.Q.%.o d + $.!.!.!.!.V.w $ 6.8.7.V c %   X 2.!.Q.;.<     ;X;X;X;X;X;X;X;X;X;X;X;X;X;X;X;X    . o 7 6 } ) K n n e o ",
";X;X;X;X  9 -.B.!.!.B.y X h ` ` k   9 -.&.&.l.!.l.* s + P Q.!.!.!.A.~ . + c e.q.q.f . X ;.!.!.!.^ o < . . ;X;X;X;X;X;X;X;X;X;X;X;X;XX o 8 @ 6 n <.'.'._.F.} o ;X",
";X;X;X  o o.k.S.!.!.!.B.D . 2 t.{ . S ;.9 t k.S.V.< 5 3 0 A.!.!.!.M.g.q * + f # & - D o $.A.!.l.- a t.a   ;X;X;X;X;X;X;X;X;X;X;X  o 8 B m @ b e a._._.a.v } o ;X",
";X;X;X  y ;.k.A.!.!.!.!.S.o.* O O   H &.* H g.M.Q.F # a - c.!.!.S.M.S.V.O.. X .   ! +.O &.k.n.t + Z ' <   ;X;X;X;X;X;X;X;X    + 8 m m : . @ n v a.p.) } ] K X ;X",
";X;X;X. Q g.g.n.Q.Q.!.!.Q.Q.y   . . ^ g.O.;.g.g.M.^ + d o ;.!.Q.Q.S.!.Q.H + i o t ,.D < ;.;.y X C ` s . X     ;X;X;X;X    + 7 N m & . . ;Xo = j p.p.R R <     ;X",
";X;X;X  < &.g.l.!.!.!.!.!.S.t   ;XX X.:.X.2.X.X.h.X.. 7 + o.Q.!.!.!.!.M.> i 3 9 ~.3.o ; o.y X a ` Z + S g.+.t o       + 7 N m 1 X   ;X;X;X;X;XX K R < X   ;X;X;X",
";X;X;X;X  , ^ h.S.!.!.!.l.O.o ;X;XX X.&.0 ;.X.+.g.&.O 1 + G Q.!.!.Q.(.+.X s + @.^.y   . o X 3 x x 1 > l.!.!.S.E   O e C x 1 X . ;X;X;X;X;X;X;X        ;X;X;X;X;X",
";X;X;X;X;X  o t &.B.!.l., . . ;XX   < F G $.;.g.g.2.9 # # 0 A.!.!.!.Q.t + 5 * P.*.. ;X;X  1 x z + @ 2.Q.!.!.!.*.. z M 2 X   ;X;X;X;X;X;X;X;X;X;X;X;X;X;X;X;X;X;X",
";X;X;X;X;X;X;X. X 9 G ,   ;X;X;X  # @ + X o > q D o.0 + $ @ :.N.B.Q.g.o 5 + J W.<   ;X;X  + 2 + * +.Q.!.S.V.!.-.o + o   ;X;X;X;X;X;X;X;X;X;X;X;X;X;X;X;X;X;X;X;X",
";X;X;X;X;X;X;X;X;X      ;X;X;X;X. @ & 3 3 & $ @ + X X . X . o = < t < X 3 . %.*.. ;X;X;X;X    , o.g.B.V.l.g.M.A.t   ;X;X;X;X;X;X;X;X;X;X;X;X;X;X;X;X;X;X;X;X;X;X",
";X;X;X;X;X;X;X;X;X;X;X;X;X;X;X;X. X o o X @ $ : 5 5 s a 5 + 4 ! J u *   X . ; o   . ;X;X;X;X. H g.g.g.g.g.g.g.l.t   ;X;X;X;X;X;X;X;X;X;X;X;X;X;X;X;X;X;X;X;X;X;X",
";X;X;X;X;X;X;X;X;X;X;X;X;X;X;X;X;Xo Q Q Q F 9 - X X + # $ X F 4.z.L.< $ h s a a 2 X ;X;X;X;X  q 2.g.g.2.g.g.;.H . ;X;X;X;X;X;X;X;X;X;X;X;X;X;X;X;X;X;X;X;X;X;X;X",
";X;X;X;X;X;X;X;X;X;X;X;X;X;X;X;X;X  F =.x.C.m.x.;.$.~ G 0 X @ t J W O + + # + $ # . ;X;X;X;X. o o.g.g.g.g.;.D o   ;X;X;X;X;X;X;X;X;X;X;X;X;X;X;X;X;X;X;X;X;X;X;X",
";X;X;X;X;X;X;X;X;X;X;X;X;X;X;X;X;X  - o.:.x.x.x.C.C.C.C.m./ G q < - = G H H H q   . ;X;X;X;X.   , &.g.g.$.q . . ;X;X;X;X;X;X;X;X;X;X;X;X;X;X;X;X;X;X;X;X;X;X;X;X",
";X;X;X;X;X;X;X;X;X;X;X;X;X;X;X;X;X.   0 $.=.=.=.x.C.m.m.C.C.C.m.m.x.h.C.C.C.D.!   ;X;X;X;X;X. .   9 ^ G -   ;X;X;X;X;X;X;X;X;X;X;X;X;X;X;X;X;X;X;X;X;X;X;X;X;X;X",
";X;X;X;X;X;X;X;X;X;X;X;X;X;X;X;X;X. < X 0 F , , H x.:.x.m.C.C.C.C.D.Z.C.C.Z.b.-   ;X;X;X;X;X;X;X;X  X     ;X;X;X;X;X;X;X;X;X;X;X;X;X;X;X;X;X;X;X;X;X;X;X;X;X;X;X",
";X;X;X;X;X;X;X;X;X;X;X;X;X;X;X;X;X. X.~ - - F 9 o H H G H x.C.C.c.3.m.P.~.D.D . . ;X;X;X;X;X;X;X;X;X;X;X;X;X;X;X;X;X;X;X;X;X;X;X;X;X;X;X;X;X;X;X;X;X;X;X;X;X;X;X",
";X;X;X;X;X;X;X;X;X;X;X;X;X;X;X;X;XX H O./ >.=.>.- . o   X , >.>.0 o = D 1.F . > . ;X;X;X;X;X;X;X;X;X;X;X;X;X;X;X;X;X;X;X;X;X;X;X;X;X;X;X;X;X;X;X;X;X;X;X;X;X;X;X",
";X;X;X;X;X;X;X;X;X;X;X;X;X;X;X;X;X. X o O o o o o . . ;X;XX X X . . .   X X X o . ;X;X;X;X;X;X;X;X;X;X;X;X;X;X;X;X;X;X;X;X;X;X;X;X;X;X;X;X;X;X;X;X;X;X;X;X;X;X;X",
";X;X;X;X;X;X;X;X;X;X;X;X;X;X;X;X. o e b b K b j U Y o ;X;X;X. . : e e n n n b ) :   ;X;X;X;X;X;X;X;X;X;X;X;X;X;X;X;X;X;X;X;X;X;X;X;X;X;X;X;X;X;X;X;X;X;X;X;X;X;X",
";X;X;X;X;X;X;X;X;X;X;X;X;X;X;X;X  o 6 n b b j @ j R = X ;X;X;X. : 7 6 j n : : R w   ;X;X;X;X;X;X;X;X;X;X;X;X;X;X;X;X;X;X;X;X;X;X;X;X;X;X;X;X;X;X;X;X;X;X;X;X;X;X",
";X;X;X;X;X;X;X;X;X;X;X;X;X;X;X;X;X. . . X . . . . X . . ;X;X;X. . X . . X   . X . . ;X;X;X;X;X;X;X;X;X;X;X;X;X;X;X;X;X;X;X;X;X;X;X;X;X;X;X;X;X;X;X;X;X;X;X;X;X;X",
";X;X;X;X;X;X;X;X;X;X;X;X;X;X;X;X;X;X;X;X;X;X;X;X;X;X;X;X;X;X;X;X;X;X;X;X;X;X;X;X;X;X;X;X;X;X;X;X;X;X;X;X;X;X;X;X;X;X;X;X;X;X;X;X;X;X;X;X;X;X;X;X;X;X;X;X;X;X;X;X",
";X;X;X;X;X;X;X;X;X;X;X;X;X;X;X;X;X;X;X;X;X;X;X;X;X;X;X;X;X;X;X;X;X;X;X;X;X;X;X;X;X;X;X;X;X;X;X;X;X;X;X;X;X;X;X;X;X;X;X;X;X;X;X;X;X;X;X;X;X;X;X;X;X;X;X;X;X;X;X;X",
";X;X;X;X;X;X;X;X;X;X;X;X;X;X;X;X;X;X;X;X;X;X;X;X;X;X;X;X;X;X;X;X;X;X;X;X;X;X;X;X;X;X;X;X;X;X;X;X;X;X;X;X;X;X;X;X;X;X;X;X;X;X;X;X;X;X;X;X;X;X;X;X;X;X;X;X;X;X;X;X",
";X;X;X;X;X;X;X;X;X;X;X;X;X;X;X;X;X;X;X;X;X;X;X;X;X;X;X;X;X;X;X;X;X;X;X;X;X;X;X;X;X;X;X;X;X;X;X;X;X;X;X;X;X;X;X;X;X;X;X;X;X;X;X;X;X;X;X;X;X;X;X;X;X;X;X;X;X;X;X;X",
";X;X;X;X;X;X;X;X;X;X;X;X;X;X;X;X;X;X;X;X;X;X;X;X;X;X;X;X;X;X;X;X;X;X;X;X;X;X;X;X;X;X;X;X;X;X;X;X;X;X;X;X;X;X;X;X;X;X;X;X;X;X;X;X;X;X;X;X;X;X;X;X;X;X;X;X;X;X;X;X",
";X;X;X;X;X;X;X;X;X;X;X;X;X;X;X;X;X;X;X;X;X;X;X;X;X;X;X;X;X;X;X;X;X;X;X;X;X;X;X;X;X;X;X;X;X;X;X;X;X;X;X;X;X;X;X;X;X;X;X;X;X;X;X;X;X;X;X;X;X;X;X;X;X;X;X;X;X;X;X;X"
};
