/* XPM */
static char *result[] = {
/* columns rows colors chars-per-pixel */
"80 71 194 2 ",
"   c #161413",
".  c #191615",
"X  c #1C1917",
"o  c #1D1B1B",
"O  c #221D1A",
"+  c #281F1B",
"@  c #221C17",
"#  c #25211E",
"$  c #2C221D",
"%  c #31251E",
"&  c #35291E",
"*  c #392B1E",
"=  c #201F20",
"-  c #1F2020",
";  c #222323",
":  c #2A2623",
">  c #2D2925",
",  c #252728",
"<  c #27292A",
"1  c #2A2B2C",
"2  c #332620",
"3  c #342A23",
"4  c #3B2C24",
"5  c #312E2C",
"6  c #36322E",
"7  c #3B342E",
"8  c #2B2E31",
"9  c #2E3235",
"0  c #2F3638",
"q  c #333435",
"w  c #3E3A34",
"e  c #323639",
"r  c #343A3D",
"t  c #3A3B3D",
"y  c #3A3531",
"u  c #402F26",
"i  c #423126",
"p  c #463329",
"a  c #4A352B",
"s  c #4C392E",
"d  c #4C3824",
"f  c #563F27",
"g  c #533A2E",
"h  c #423C35",
"j  c #443F39",
"k  c #4D3E31",
"l  c #583E31",
"z  c #574028",
"x  c #5C442A",
"c  c #4A443C",
"v  c #47413C",
"b  c #5C4234",
"n  c #5F4C39",
"m  c #65492D",
"M  c #6B4D2E",
"N  c #62462B",
"B  c #6B4B3A",
"V  c #634A37",
"C  c #735332",
"Z  c #765539",
"A  c #724F3D",
"S  c #363C41",
"D  c #383E43",
"F  c #3B4145",
"G  c #3D454B",
"H  c #3F484E",
"J  c #374245",
"K  c #4B4543",
"L  c #4C4944",
"P  c #43494D",
"I  c #47484A",
"U  c #524E4A",
"Y  c #574E46",
"T  c #55524C",
"R  c #5D554C",
"E  c #434C53",
"W  c #445156",
"Q  c #475158",
"!  c #4A555D",
"~  c #49595D",
"^  c #4E5155",
"/  c #5F5C56",
"(  c #545A5E",
")  c #555454",
"_  c #64574E",
"`  c #775545",
"'  c #605A56",
"]  c #655D5A",
"[  c #705D53",
"{  c #6A635F",
"}  c #67655E",
"|  c #756459",
" . c #4B5760",
".. c #4E5A63",
"X. c #525D65",
"o. c #595F63",
"O. c #525F69",
"+. c #54636C",
"@. c #5B656B",
"#. c #54696F",
"$. c #596771",
"%. c #566B72",
"&. c #5B6A75",
"*. c #5D6E7A",
"=. c #566570",
"-. c #5E717C",
";. c #4E6166",
":. c #6E6562",
">. c #6B6963",
",. c #64696D",
"<. c #726A66",
"1. c #796F6B",
"2. c #646F77",
"3. c #6B7075",
"4. c #61727D",
"5. c #6B737A",
"6. c #7B7A71",
"7. c #7F7672",
"8. c #8A6239",
"9. c #996C3D",
"0. c #91673C",
"q. c #9C7245",
"w. c #997A59",
"e. c #A37341",
"r. c #AC7A44",
"t. c #B17D46",
"y. c #857A76",
"u. c #B68148",
"i. c #B9834A",
"p. c #B38453",
"a. c #988273",
"s. c #B9936B",
"d. c #C2915D",
"f. c #627481",
"g. c #657A85",
"h. c #697B86",
"j. c #6A7D8A",
"k. c #737D82",
"l. c #6C828E",
"z. c #668088",
"x. c #75858B",
"c. c #7D8489",
"v. c #6E8391",
"b. c #6F8B94",
"n. c #718594",
"m. c #728B97",
"M. c #768B9A",
"N. c #798F9E",
"B. c #7E8B95",
"V. c #74919A",
"C. c #7A949E",
"Z. c #7C93A3",
"A. c #888A85",
"S. c #958C86",
"D. c #938883",
"F. c #9F938E",
"G. c #97968B",
"H. c #858D94",
"J. c #8B949C",
"K. c #A89489",
"L. c #A29691",
"P. c #A79B96",
"I. c #B69A89",
"U. c #A8A198",
"Y. c #839BAC",
"T. c #8496A3",
"R. c #929CA4",
"E. c #869EB0",
"W. c #96A1AB",
"Q. c #98A2AB",
"!. c #99A0A6",
"~. c #89A0B0",
"^. c #92A5B2",
"/. c #94A9B8",
"(. c #BAABA5",
"). c #B4A6A0",
"_. c #BFB1AB",
"`. c #B6B5A8",
"'. c #A3ADB6",
"]. c #A4AFB8",
"[. c #A8B2BB",
"{. c #C6A794",
"}. c #C1B2AB",
"|. c #CBBBB4",
" X c #CFBFB8",
".X c #C2B7B1",
"XX c #E1BFA9",
"oX c #D1C2BB",
"OX c #E9C5AE",
"+X c #F0CBB4",
"@X c #B1BAC1",
"#X c #D5C6C0",
"$X c #FFDAC0",
"%X c None",
/* pixels */
"%X%X%X%X%X%X%X%X%X%X%X%X%X%X%X%X%X%X%X%X%X%X%X%X%X%X%X%X%X%X%X%X%X%X%X%X%X%X%X%X%X%X%X%X%X%X%X%X%X%X%X%X%X%X%X%X%X%X%X%X%X%X%X%X%X%X%X%X%X%X%X%X%X%X%X%X%X%X%X%X",
"%X%X%X%X%X%X%X%X%X%X%X%X%X%X%X%X%X%X%X%X%X%X%X%X%X%X%X%X%X%X%X%X%X%X%X%X%X%X%X%X%X%X%X%X%X%X%X%X%X%X%X%X%X%X%X%X%X%X%X%X%X%X%X%X%X%X%X%X%X%X%X%X%X%X%X%X%X%X%X%X",
"%X%X%X%X%X%X%X%X%X%X%X%X%X%X%X%X%X%X%X%X%X%X%X%X%X%X%X%X      %X%X%X%X%X%X%X%X%X%X%X%X%X%X%X%X%X%X%X%X%X%X%X%X%X%X%X%X%X%X%X%X%X%X%X%X%X%X%X%X%X%X%X%X%X%X%X%X%X",
"%X%X%X%X%X%X%X%X%X%X%X%X%X%X%X%X%X%X%X%X%X%X%X    X > o 6 T 6   . %X%X%X%X%X%X%X%X%X%X%X%X%X%X%X%X%X%X%X%X%X%X%X%X%X%X%X%X%X%X%X%X%X%X%X%X%X%X%X%X%X%X%X%X%X%X%X",
"%X%X%X%X%X%X%X%X%X%X%X%X%X%X%X%X%X%X%X%X%X%X. X O . c w 6.c / L o     X .   %X%X%X%X%X%X%X%X%X%X%X%X%X%X%X%X%X%X%X%X%X%X%X%X%X%X%X%X%X%X%X%X%X%X%X%X%X%X%X%X%X%X",
"%X%X%X%X%X%X%X%X%X%X%X%X%X%X%X%X%X%X%X%X%X%X  4 3   v w S.6.} T U ;   w } #   %X%X%X%X%X%X%X%X%X%X%X%X%X%X%X%X%X%X%X%X%X%X%X%X%X%X%X%X%X%X%X%X%X%X%X%X%X%X%X%X%X",
"%X%X%X%X%X%X%X%X%X%X%X%X%X%X%X%X%X%X%X%X%X%X. O o L w h 6.`.U.} 6./ X > ).L.6   %X%X%X%X%X%X%X%X%X%X%X%X%X%X%X%X%X%X%X%X%X%X%X%X%X%X%X%X%X%X%X%X%X%X%X%X%X%X%X%X",
"%X%X%X%X%X%X%X%X%X%X%X%X%X%X%X%X%X%X%X%X%XX     w >.# v T `.`.G.A.} X X L.oXS.;   %X%X%X%X%X%X%X%X%X%X%X%X%X%X%X%X%X%X%X%X%X%X%X%X%X%X%X%X%X%X%X%X%X%X%X%X%X%X%X",
"%X%X%X%X%X%X%X%X%X%X%X%X%X%X%X%X%X%X%X%X  . : # ; 6   # 5 A.G.6.} y   o P.oX|.{ . %X%X%X%X%X%X%X%X%X%X%X%X%X%X%X%X%X%X%X%X%X%X%X%X%X%X%X%X%X%X%X%X%X%X%X%X%X%X%X",
"%X%X%X. . %X%X%X%X%X%X%X%X%X%X    . # $ @   M q.s   X o   > h w h 3 . 5 }.oXoXL.>   %X%X%X%X%X%X%X%X%X%X%X%X%X%X%X%X%X%X%X%X%X%X%X%X%X%X%X%X%X%X%X%X%X%X%X%X%X%X",
"%X%X%X  . %X%X%X%X%X%X%X%X%X. # z 8.e.e.0.C e.i.p.n # n @ # h w y :   >.oXoXoX(.U   %X%X%X%X%X%X%X%X%X%X%X%X%X%X%X%X%X%X%X%X%X%X%X%X%X%X%X%X%X%X%X%X%X%X%X%X%X%X",
"%X%X. o o %X%X%X%X%X%X%X%X  + C e.t.i.i.i.i.i.i.i.p.w.s.s     . X   L .XoX X X}.{ X %X%X%X%X%X%X%X%X%X%X%X%X%X%X%X%X%X%X%X%X%X%X%X%X%X%X%X%X%X%X%X%X%X%X%X%X%X%X",
"%X%X  I t   %X%X%X%X%X%X%X. . d 8.9.e.e.e.r.t.i.u.i.d.d.Z       . ) }.#XoXoXoX(.<.. %X%X%X%X%X%X%X%X%X%X%X%X%X%X%X%X%X%X%X%X%X%X%X%X%X%X%X%X%X%X%X%X%X%X%X%X%X%X",
"%X%Xo k.,.  %X%X%X%X%X%X%X%X  $ M N z z N C 8.9.r.i.i.i.C o o.F o ' }.oX XoX XP.]   %X%X%X%X%X%X%X%X%X%X%X%X%X%X%X%X%X%X%X%X%X%X%X%X%X%X%X%X%X%X%X%X%X%X%X%X%X%X",
"%X  , J.H.o %X%X%X%X%X%X%X. . X X X - ; o @ & M 9.u.i.i.m , T.^.@.o T }. X X).S.j . %X%X%X%X%X%X%X%X%X%X%X%X%X%X%X%X%X%X%X%X%X%X%X%X%X%X%X%X%X%X%X%X%X%X%X%X%X%X",
"%X  q R.'.t   %X%X%X%X%X%X. @ 4 # . e @.4.X.8 X z 9.u.u.f 8 C.~./.5.o } |.(.F.{ o %X%X%X%X%X%X%X%X%X%X%X%X%X%X%X%X%X%X%X%X%X%X%X%X%X%X%X%X%X%X%X%X%X%X%X%X%X%X%X",
"%X  I W.[.,.. %X%Xo %X%XX     2 a 4 O = D 4.j.E o d e.i.f 8 Z.Y.Y./.@.O 1.F.:.#     %X%X%X%X%X%X%X%X%X%X%X%X%X%X%X%X%X%X%X%X%X%X%X%X%X%X%X%X%X%X%X%X%X%X%X%X%X%X",
"%X. ^ Q.[.!.>   O q o %X  = < X X 2 a i = O q ..S X N t.M ; n.Y.Y.Y.W.D : K o % 3 X   %X%X%X%X%X%X%X%X%X%X%X%X%X%X%X%X%X%X%X%X%X%X%X%X%X%X%X%X%X%X%X%X%X%X%X%X%X",
"%X. o.Q.[.@X3.; X q o o U L.D.; , 9 o : i a 2 O o . + q.Z O h.Y.Y.Y./.B.=     : V k o         %X%X%X%X%X%X%X%X%X%X%X%X%X%X%X%X%X%X%X%X%X%X%X%X%X%X%X%X%X%X%X%X%X",
"%X. o.W.].[.[.c.= ,.; :.oX#X).j 8 n.O.X o O 4 a u + . 2 & , n.Y.Y.Y.E.T.1   .   ; b s X ; D 8 o .   %X%X%X%X%X%X%X%X%X%X%X%X%X%X%X%X%X%X%X%X%X%X%X%X%X%X%X%X%X%X",
"%X. ( R.].[.'.A.= o.= y. X X}.' = n.N.$.f.P ; O 2 a a 2 o o P f.Z.Z.*.1 ; 9 . .   o @ = f.M.*...S o   %X%X%X%X%X%X%X%X%X%X%X%X%X%X%X%X%X%X%X%X%X%X%X%X%X%X%X%X%X",
"%X. ^ R.].].].k.o 1 O y. X X}.:.o X.f.E.Y.Y.v.X.8 o + u a u O O e D o e g.M.8   %XX G -.Y.j.f.f.f...8   %X%X%X%X%X%X%X%X%X%X%X%X%X%X%X%X%X%X%X%X%X%X%X%X%X%X%X%X",
"%X  F H.R./.].3.O P O D.#X X}.<.= O.j.Y.Y.Y.E.E.Z.4.G = O 4 a %   ; X.Z.Y.f.,     < M.E.N.f.f.f.f.f.&.S . %X%X%X%X%X%X%X%X%X%X%X%X%X%X%X%X%X%X%X%X%X%X%X%X%X%X%X",
"%X  > 3.H.H.R.^ = 1 O L.|.}.).<.o h.E.Z.N.M.j.f.4.$...e X o o . r l.Y.Z.X.; .     8 Z.Y.Y.M.g.f.-.f.f...X %X%X%X%X%X%X%X%X%X%X%X%X%X%X%X%X%X%X%X%X%X%X%X%X%X%X%X",
"%X%XX 1 ^ 3.k.e q I : S.L.S.y.K = n.M.D < ; = = o o ; < o r +.= E Y.M.G X + o . o o ! N.Y.Y.Z.g.f.f.f.J   %X%X%X%X%X%X%X%X%X%X%X%X%X%X%X%X%X%X%X%X%X%X%X%X%X%X%X",
"%X%X%X  . ; t O q 5 : ) L q = = P Z.$.o G X.+.*.h.v.n.N.D e Z.E < $.9 X 4 g +   u p X q h.Y.Z.f.f.f.+.;   %X%X%X%X%X%X%X%X%X%X%X%X%X%X%X%X%X%X%X%X%X%X%X%X%X%X%X",
"%X%X%X%X%X    . 1 o       = G g.Z.E.+.= n.E.E.E.E.E.E.E.E < N.g.O X o a V B +   = ` l + ; f.M.f.f.&.e   X %X%X%X%X%X%X%X%X%X%X%X%X%X%X%X%X%X%X%X%X%X%X%X%X%X%X%X",
"%X%X%X%X%X%X. . q q F 8 o o e j.Y.Y.$.o G Q E E E E E E 8 , M.T.&.1 O g B g X   O V ` B = : X.f.=.e X   . %X%X%X%X%X%X%X%X%X%X%X%X%X%X%X%X%X%X%X%X%X%X%X%X%X%X%X",
"%X%X%X%X%X%X. o G j.Y.N.j...= e Z.E.n.S   = 7 7 y 7 p y . F Y.Y.M.E   @ + @   , 8 @ g B g O - 9 =     X %X%X%X%X%X%X%X%X%X%X%X%X%X%X%X%X%X%X%X%X%X%X%X%X%X%X%X%X",
"%X%X%X%X%X%X%X  S g.n.N.Z.N.f. .n.Y.Y.M.< Y XXOXOXOXOX{.: D O.F < o X ; G  .; P n.e o u l p X     %X%X%X%X%X%X%X%X%X%X%X%X%X%X%X%X%X%X%X%X%X%X%X%X%X%X%X%X%X%X%X",
"%X%X%X%X%X%X%X. o Q f.f.f.f.j.j.g.N.E.E.! = I.$X$X$X+X|   X O 1 t ' 6 8 Z.j.= O.Z.*.8 o p g O   %X%X%X%X%X%X%X%X%X%X%X%X%X%X%X%X%X%X%X%X%X%X%X%X%X%X%X%X%X%X%X%X",
"%X%X%X%X%X%X%X%X  o H &.f.f.f.f.f.&.M.Z.N.q 3 a.{.I.R o X ; L R ' R : D Y.*.o &.g.f.$.< @ + X %X%X%X%X%X%X%X%X%X%X%X%X%X%X%X%X%X%X%X%X%X%X%X%X%X%X%X%X%X%X%X%X%X",
"%X%X%X%X%X%X%X%X%X  X < 0 S &.f.f.S E j.Z.j.S o = O < O.G . + : 6 # O f.Y.E = $.f.f.O.,     %X%X%X%X%X%X%X%X%X%X%X%X%X%X%X%X%X%X%X%X%X%X%X%X%X%X%X%X%X%X%X%X%X%X",
"%X%X%X%X%X%X%X%X%X%X%X    , =.f.f.*.=.f.g.n.Z.g.2.g.N.Y.m.! G 9 ; q +.Y.h.= S f.f.! ;   %X%X%X%X%X%X%X%X%X%X%X%X%X%X%X%X%X%X%X%X%X%X%X%X%X%X%X%X%X%X%X%X%X%X%X%X",
"%X%X%X%X%X%X%X%X%X%X%X%X  ;  .f.f.*.S 9  .j.Y.E.Y.Y.Y.Y.Y.Y.Y.Z.n.Z.Y.m.9 = =.*.G o   %X%X%X%X%X%X%X%X%X%X%X%X%X%X%X%X%X%X%X%X%X%X%X%X%X%X%X%X%X%X%X%X%X%X%X%X%X",
"%X%X%X%X%X%X%X%X%X%X%X%X%X  - D O.f.H < H j.M.Z.Y.Y.Y.Y.Y.Y.Y.E.Y.Z.4.9   , +.S . . %X%X%X%X%X%X%X%X%X%X%X%X%X%X%X%X%X%X%X%X%X%X%X%X%X%X%X%X%X%X%X%X%X%X%X%X%X%X",
"%X%X%X%X%X%X%X%X%X%X%X%X%X      = S  .+.&.f.f.j.n.M.N.M.m.M.m.g...e o & 3 o ,   %X%X%X%X%X%X%X%X%X%X%X%X%X%X%X%X%X%X%X%X%X%X%X%X%X%X%X%X%X%X%X%X%X%X%X%X%X%X%X%X",
"%X%X%X%X%X%X%X%X%X%X%X%X  o 8 8 =   . ; 8 S G H Q  . .e , 1 ; o # i C r.z     %X%X%X%X%X%X%X%X%X%X%X%X%X%X%X%X%X%X%X%X%X%X%X%X%X%X%X%X%X%X%X%X%X%X%X%X%X%X%X%X%X",
"%X%X%X%X%X%X%X%X%X%X%X  < ..f.j.*.9     o 8 , = o o o = X   * C 0.r.t.C 3   X %X%X%X%X%X%X%X%X%X%X%X%X%X%X%X%X%X%X%X%X%X%X%X%X%X%X%X%X%X%X%X%X%X%X%X%X%X%X%X%X%X",
"%X%X%X%X%X%X%X%X%X%X%X= J =.Z.E.E.*.o = = 4.M.j.j.g.h.v.&.; + g d x m X   . . %X%X%X%X%X%X%X%X%X%X%X%X%X%X%X%X%X%X%X%X%X%X%X%X%X%X%X%X%X%X%X%X%X%X%X%X%X%X%X%X%X",
"%X%X%X%X%X%X%X%X%X%X. 8 8 +.Y.Z.Y.f.o p = S N.Y.Y.Y.E.E.Z.&.S o     . : X.P   %X%X%X%X%X%X%X%X%X%X%X%X%X%X%X%X%X%X%X%X%X%X%X%X%X%X%X%X%X%X%X%X%X%X%X%X%X%X%X%X%X",
"%X%X%X%X%X%X%X%X%X%XX G X.M.E.E.Y. .  2 a O O.Y.Y.Y.Y.Z.Z.g.M.+.- $ $ 9 ^.x.. %X%X%X%X%X%X%X%X%X%X%X%X%X%X%X%X%X%X%X%X%X%X%X%X%X%X%X%X%X%X%X%X%X%X%X%X%X%X%X%X%X",
"%X%X%X%X%X%X%X%X%X  = P &.Z.E.Z.N.8 = o p 4 ; j.Y.Y.Y.Y.Z.g.Z.Z.e 3 4 1 o.5.o %X%X%X%X%X%X%X%X%X%X%X%X%X%X%X%X%X%X%X%X%X%X%X%X%X%X%X%X%X%X%X%X%X%X%X%X%X%X%X%X%X",
"%X%X%X%X%X%X%X%X%X. G f.v.Z.Y.E.&.o &.P O g O E Z.Y.Y.Y.N.v.Y.Z.q 3 4 8 &.,.. %X%X%X%X%X%X%X%X%X%X%X%X%X%X%X%X%X%X%X%X%X%X%X%X%X%X%X%X%X%X%X%X%X%X%X%X%X%X%X%X%X",
"%X%X%X%X%X%X%X%X%X= O.f.N.Y.Y.Y.D < N.j.; 4 i = 4.Y.Y.Y.Z.N.Y.Z.9 3 3 e ^.(   %X%X%X%X%X%X%X%X%X%X%X%X%X%X%X%X%X%X%X%X%X%X%X%X%X%X%X%X%X%X%X%X%X%X%X%X%X%X%X%X%X",
"%X%X%X%X%X%X%X%X  9 f.f.Z.Y.Y.Z.8 S Z.E.O.o a + e N.Y.Y.Z.Z.Y.N.8 4 2 t W.e   %X%X%X%X%X%X%X%X%X%X%X%X%X%X%X%X%X%X%X%X%X%X%X%X%X%X%X%X%X%X%X%X%X%X%X%X%X%X%X%X%X",
"%X%X%X%X%X%X%X. X < Q &.N.Y.E.j.= D j.Y.N.e % a o +.Y.Y.Y.Y.Y.C.< 4 % P T., %X%X%X%X%X%X%X%X%X%X%X%X%X%X%X%X%X%X%X%X%X%X%X%X%X%X%X%X%X%X%X%X%X%X%X%X%X%X%X%X%X%X",
"%X%X%X%X%X%X%XX = O . = S E O. .. S g.j.Z.&.O p 2 < M.Y.Y.Y.Y.M., 3 + I H.o %X%X%X%X%X%X%X%X%X%X%X%X%X%X%X%X%X%X%X%X%X%X%X%X%X%X%X%X%X%X%X%X%X%X%X%X%X%X%X%X%X%X",
"%X%X%X%X%X%X%Xo a l a u 2 + O o . D f.*.f.g.e o 4 o ! Y.Y.Y.~.m.# 3 + E 2.X   %X%X%X%X%X%X%X%X%X%X%X%X%X%X%X%X%X%X%X%X%X%X%X%X%X%X%X%X%X%X%X%X%X%X%X%X%X%X%X%X%X",
"%X%X%X%X%X%X%XX 2 a N A ` A ` [ O J f.E O.f.O.o 3 2 < j.Z.M.h...o $ X O o @ # . %X%X%X%X%X%X%X%X%X%X%X%X%X%X%X%X%X%X%X%X%X%X%X%X%X%X%X%X%X%X%X%X%X%X%X%X%X%X%X%X",
"%X%X%X%X%X%X%X  o X + p l b ` _ X 8 *...+.f.f.D o 4 O e e : o o . X $ 4 s s 3 . %X%X%X%X%X%X%X%X%X%X%X%X%X%X%X%X%X%X%X%X%X%X%X%X%X%X%X%X%X%X%X%X%X%X%X%X%X%X%X%X",
"%X%X%X%X%X%XX 8 &.X.q ; O o o X ; 8 +.4.&.=...E   O     , I ( 2.> % a 4 + o . . %X%X%X%X%X%X%X%X%X%X%X%X%X%X%X%X%X%X%X%X%X%X%X%X%X%X%X%X%X%X%X%X%X%X%X%X%X%X%X%X",
"%X%X%X%X%X  ; *.Y.Y.T.j.h.f...o < 0 1 < ; o o o + 2 4 + q k.h.A.e . O 8 F @.5   %X%X%X%X%X%X%X%X%X%X%X%X%X%X%X%X%X%X%X%X%X%X%X%X%X%X%X%X%X%X%X%X%X%X%X%X%X%X%X%X",
"%X%X%X%X%X  J v.Y.Y.Y.Y.Y.Y.Y.E   + # % 3 4 * * p i 3 o - t 9 : o < -.v.V.C.5   %X%X%X%X%X%X%X%X%X%X%X%X%X%X%X%X%X%X%X%X%X%X%X%X%X%X%X%X%X%X%X%X%X%X%X%X%X%X%X%X",
"%X%X%X%X%X. ! v.Y.Y.Y.Y.Y.Y.Y.O.. $ & $ $ @ o o O , 9 0 ; < r W ;.z.V.V.C.x.o   %X%X%X%X%X%X%X%X%X%X%X%X%X%X%X%X%X%X%X%X%X%X%X%X%X%X%X%X%X%X%X%X%X%X%X%X%X%X%X%X",
"%X%X%X%X%Xo ..j.N.Y.Y.Y.Y.Y.j.8 X - ; 9 r G ~ #.f.h.b.b.g.b.V.V.V.C.C.C.E.;.X X %X%X%X%X%X%X%X%X%X%X%X%X%X%X%X%X%X%X%X%X%X%X%X%X%X%X%X%X%X%X%X%X%X%X%X%X%X%X%X%X",
"%X%X%X%X%Xo ..f.g.j.Z.E.Y.E.=.  ; ~ #.z.V.V.b.V.V.V.V.V.V.V.V.V.V.x.h.x.x.: J 9   %X%X%X%X%X%X%X%X%X%X%X%X%X%X%X%X%X%X%X%X%X%X%X%X%X%X%X%X%X%X%X%X%X%X%X%X%X%X%X",
"%X%X%X%X%X  E f.f.g.N.Y.Z.Z.G   . r #.%.z.z.-.g.b.l.-.z.b.V.V.b.~ - o - o : l.G   %X%X%X%X%X%X%X%X%X%X%X%X%X%X%X%X%X%X%X%X%X%X%X%X%X%X%X%X%X%X%X%X%X%X%X%X%X%X%X",
"%X%X%X%X%X  , G ! .. . .Q e o   . . 0 ;.%.#.W J ~ %.;.J 0 H +.W o r !  .+.h.Y.Q   %X%X%X%X%X%X%X%X%X%X%X%X%X%X%X%X%X%X%X%X%X%X%X%X%X%X%X%X%X%X%X%X%X%X%X%X%X%X%X",
"%X%X%X%X%X%X    . . . .     %X%X%X. o - J 0 o - - 9 < .     . . 9 -.f.m.E.Y.Y.+.  %X%X%X%X%X%X%X%X%X%X%X%X%X%X%X%X%X%X%X%X%X%X%X%X%X%X%X%X%X%X%X%X%X%X%X%X%X%X%X",
"%X%X%X%X%X%X%X%X%X%X%X%X%X%X%X%X%XX 9 o     9 ~ 9   . %X%X%X%X  9 ! ! +.-.4.4.E . %X%X%X%X%X%X%X%X%X%X%X%X%X%X%X%X%X%X%X%X%X%X%X%X%X%X%X%X%X%X%X%X%X%X%X%X%X%X%X",
"%X%X%X%X%X%X%X%X%X%X%X%X%X%X%X%X%X. X o X X o o o o . %X%X%X%X. X X X o o o o o . %X%X%X%X%X%X%X%X%X%X%X%X%X%X%X%X%X%X%X%X%X%X%X%X%X%X%X%X%X%X%X%X%X%X%X%X%X%X%X",
"%X%X%X%X%X%X%X%X%X%X%X%X%X%X%X%X  o 7 c c c c v Y T o %X%X%X%X. 1 7 7 h c h v ' <   %X%X%X%X%X%X%X%X%X%X%X%X%X%X%X%X%X%X%X%X%X%X%X%X%X%X%X%X%X%X%X%X%X%X%X%X%X%X",
"%X%X%X%X%X%X%X%X%X%X%X%X%X%X%X%X. o 6 v c c w # w T o . %X%X%XX > 7 6 h c > > T y   %X%X%X%X%X%X%X%X%X%X%X%X%X%X%X%X%X%X%X%X%X%X%X%X%X%X%X%X%X%X%X%X%X%X%X%X%X%X",
"%X%X%X%X%X%X%X%X%X%X%X%X%X%X%X%X%XX   X X X   X   X X   %X%X%XX X X   X   X X X   X %X%X%X%X%X%X%X%X%X%X%X%X%X%X%X%X%X%X%X%X%X%X%X%X%X%X%X%X%X%X%X%X%X%X%X%X%X%X",
"%X%X%X%X%X%X%X%X%X%X%X%X%X%X%X%X%X%X%X%X%X%X%X%X%X%X%X%X%X%X%X%X%X%X%X%X%X%X%X%X%X%X%X%X%X%X%X%X%X%X%X%X%X%X%X%X%X%X%X%X%X%X%X%X%X%X%X%X%X%X%X%X%X%X%X%X%X%X%X%X",
"%X%X%X%X%X%X%X%X%X%X%X%X%X%X%X%X%X%X%X%X%X%X%X%X%X%X%X%X%X%X%X%X%X%X%X%X%X%X%X%X%X%X%X%X%X%X%X%X%X%X%X%X%X%X%X%X%X%X%X%X%X%X%X%X%X%X%X%X%X%X%X%X%X%X%X%X%X%X%X%X",
"%X%X%X%X%X%X%X%X%X%X%X%X%X%X%X%X%X%X%X%X%X%X%X%X%X%X%X%X%X%X%X%X%X%X%X%X%X%X%X%X%X%X%X%X%X%X%X%X%X%X%X%X%X%X%X%X%X%X%X%X%X%X%X%X%X%X%X%X%X%X%X%X%X%X%X%X%X%X%X%X",
"%X%X%X%X%X%X%X%X%X%X%X%X%X%X%X%X%X%X%X%X%X%X%X%X%X%X%X%X%X%X%X%X%X%X%X%X%X%X%X%X%X%X%X%X%X%X%X%X%X%X%X%X%X%X%X%X%X%X%X%X%X%X%X%X%X%X%X%X%X%X%X%X%X%X%X%X%X%X%X%X",
"%X%X%X%X%X%X%X%X%X%X%X%X%X%X%X%X%X%X%X%X%X%X%X%X%X%X%X%X%X%X%X%X%X%X%X%X%X%X%X%X%X%X%X%X%X%X%X%X%X%X%X%X%X%X%X%X%X%X%X%X%X%X%X%X%X%X%X%X%X%X%X%X%X%X%X%X%X%X%X%X",
"%X%X%X%X%X%X%X%X%X%X%X%X%X%X%X%X%X%X%X%X%X%X%X%X%X%X%X%X%X%X%X%X%X%X%X%X%X%X%X%X%X%X%X%X%X%X%X%X%X%X%X%X%X%X%X%X%X%X%X%X%X%X%X%X%X%X%X%X%X%X%X%X%X%X%X%X%X%X%X%X"
};
