/* XPM */
static char *result[] = {
/* columns rows colors chars-per-pixel */
"80 71 202 2 ",
"   c #161514",
".  c #191615",
"X  c #1C1917",
"o  c #1D1B1B",
"O  c #221D1A",
"+  c #251E19",
"@  c #24211E",
"#  c #2B221C",
"$  c #32261D",
"%  c #382B1E",
"&  c #1F1F20",
"*  c #1F2020",
"=  c #232324",
"-  c #292523",
";  c #2D2926",
":  c #252728",
">  c #26292A",
",  c #2A2B2D",
"<  c #322620",
"1  c #342A23",
"2  c #3B2C24",
"3  c #312D2A",
"4  c #36322D",
"5  c #3A332D",
"6  c #3C3027",
"7  c #2B2E31",
"8  c #2E3235",
"9  c #2F3438",
"0  c #333334",
"q  c #3B3531",
"w  c #3D3A34",
"e  c #31363A",
"r  c #343A3D",
"t  c #393B3D",
"y  c #402F26",
"u  c #433126",
"i  c #443329",
"p  c #4B362C",
"a  c #4D392E",
"s  c #4E3A26",
"d  c #513C27",
"f  c #533B2D",
"g  c #423D34",
"h  c #433E39",
"j  c #483B32",
"k  c #553E31",
"l  c #5B4229",
"z  c #55412C",
"x  c #46423D",
"c  c #4A443C",
"v  c #4F483C",
"b  c #474237",
"n  c #554334",
"m  c #5C4334",
"M  c #58483B",
"N  c #684B2D",
"B  c #70502F",
"V  c #6D4B3B",
"C  c #634937",
"Z  c #735231",
"A  c #785633",
"S  c #76543B",
"D  c #363D41",
"F  c #393F43",
"G  c #3A4145",
"H  c #3D454B",
"J  c #3C464A",
"K  c #4C4945",
"L  c #43474B",
"P  c #42494E",
"I  c #494746",
"U  c #5B4C44",
"Y  c #524D4A",
"T  c #524D47",
"R  c #56524D",
"E  c #5B554C",
"W  c #434C53",
"Q  c #4C4F52",
"!  c #465156",
"~  c #4C5255",
"^  c #465159",
"/  c #4A545C",
"(  c #4A5B5F",
")  c #555757",
"_  c #64554C",
"`  c #7A5441",
"'  c #725B4F",
"]  c #635D59",
"[  c #615B53",
"{  c #604F46",
"}  c #66625B",
"|  c #7D654D",
" . c #4D5A62",
".. c #4B5760",
"X. c #505D66",
"o. c #525F69",
"O. c #585F62",
"+. c #54626B",
"@. c #5B656B",
"#. c #56666B",
"$. c #576671",
"%. c #586771",
"&. c #5A6B75",
"*. c #5D6E79",
"=. c #566C73",
"-. c #5D727C",
";. c #5B7077",
":. c #4E6167",
">. c #66696A",
",. c #726A66",
"<. c #766D69",
"1. c #796F6B",
"2. c #79726C",
"3. c #626B71",
"4. c #62727E",
"5. c #6D7379",
"6. c #6C7378",
"7. c #7C7B72",
"8. c #70767C",
"9. c #825C35",
"0. c #8C6338",
"q. c #966A3D",
"w. c #9A6D3F",
"e. c #916639",
"r. c #85684A",
"t. c #9F7141",
"y. c #886859",
"u. c #A47441",
"i. c #AD7A45",
"p. c #A97743",
"a. c #B27E47",
"s. c #A87F53",
"d. c #847B76",
"f. c #B9834A",
"g. c #B68048",
"h. c #BA8955",
"j. c #8C847E",
"k. c #86847B",
"l. c #988173",
"z. c #A78E7E",
"x. c #CA9D70",
"c. c #627482",
"v. c #667A86",
"b. c #6A7A85",
"n. c #6A7D8A",
"m. c #677B89",
"M. c #727D84",
"N. c #6D818E",
"B. c #7C858C",
"V. c #6F8391",
"C. c #6E8A92",
"Z. c #718593",
"A. c #738997",
"S. c #758B9A",
"D. c #798E9E",
"F. c #7A8790",
"G. c #74919A",
"H. c #7B929F",
"J. c #7C93A4",
"K. c #7D98A5",
"L. c #948A86",
"P. c #9B8F8A",
"I. c #98978C",
"U. c #848C94",
"Y. c #889299",
"T. c #9F9A92",
"R. c #8D8C82",
"E. c #A89489",
"W. c #A89B95",
"Q. c #AAA39A",
"!. c #B2A49E",
"~. c #8097A8",
"^. c #829BAC",
"/. c #869AA4",
"(. c #869FB0",
"). c #929BA4",
"_. c #94A1AB",
"`. c #98A2AB",
"'. c #8DA4B4",
"]. c #98A7B3",
"[. c #87A1AA",
"{. c #B9ABA5",
"}. c #B4A9A4",
"|. c #BAB4AA",
" X c #A2ADB5",
".X c #A4AFB8",
"XX c #ABB5BD",
"oX c #A6B0B9",
"OX c #C9AA97",
"+X c #C4B5AF",
"@X c #CABAB4",
"#X c #CFBFB8",
"$X c #C7B7B1",
"%X c #D0BFB8",
"&X c #D1C1BA",
"*X c #CFC2BD",
"=X c #E8C4AE",
"-X c #F4CFB7",
";X c #B1BAC2",
":X c #D7C8C2",
">X c #FFDAC1",
",X c None",
/* pixels */
",X,X,X,X,X,X,X,X,X,X,X,X,X,X,X,X,X,X,X,X,X,X,X,X,X,X,X,X,X,X,X,X,X,X,X,X,X,X,X,X,X,X,X,X,X,X,X,X,X,X,X,X,X,X,X,X,X,X,X,X,X,X,X,X,X,X,X,X,X,X,X,X,X,X,X,X,X,X,X,X",
",X,X,X,X,X,X,X,X,X,X,X,X,X,X,X,X,X,X,X,X,X,X,X,X,X,X,X,X,X,X,X,X,X,X,X,X,X,X,X,X,X,X,X,X,X,X,X,X,X,X,X,X,X,X,X,X,X,X,X,X,X,X,X,X,X,X,X,X,X,X,X,X,X,X,X,X,X,X,X,X",
",X,X,X,X,X,X,X,X,X,X,X,X,X,X,X,X,X,X,X,X,X,X,X,X,X,X,X,X,X,X,X,X,X,X,X,X,X,X,X,X,X,X,X,X,X,X,X,X,X,X,X,X,X,X,X,X,X,X,X,X,X,X,X,X,X,X,X,X,X,X,X,X,X,X,X,X,X,X,X,X",
",X,X,X,X,X,X,X,X,X,X,X,X,X,X,X,X,X,X,X,X,X,X,X,X,X,X,X,X,X,X,X,X,X,X,X,X,X,X,X,X,X,X,X,X,X,X,X,X,X,X,X,X,X,X,X,X,X,X,X,X,X,X,X,X,X,X,X,X,X,X,X,X,X,X,X,X,X,X,X,X",
",X,X,X,X,X,X,X,X,X,X,X,X,X,X,X,X,X,X,X,X,X,X,X,X,X,X,X,X,X,X,X,X,X,X,X,X,X,X,X,X,X,X,X,X,X,X,X,X,X,X,X,X,X,X,X,X,X,X,X,X,X,X,X,X,X,X,X,X,X,X,X,X,X,X,X,X,X,X,X,X",
",X,X,X,X,X,X,X,X,X,X,X,X,X,X. . ,X,X,X,X,X,X,X,X,X,X,X,X,X,X,X,X,X,X,X,X,X,X,X,X,X,X,X,X,X,X,X,X,X,X,X. + o . ,X,X,X,X,X,X,X,X,X,X,X,X,X,X,X,X,X,X,X,X,X,X,X,X,X",
",X,X,X,X,X,X,X,X,X,X,X,X,X  . . ,X,X,X,X,X,X,X,X,X,X,X,X,X,X,X,X,X,X,X,X,X,X,X,X,X,X,X,X,X,X,X,X,X,X,XX 6 - . + o ,X,X,X,X,X,X,X,X,X,X,X,X,X,X,X,X,X,X,X,X,X,X,X",
",X,X,X,X,X,X,X,X,X,X,X,X  , =   ,X,X,X,X,X,X,X,X,X,X,X,X,X,X,X. . ,X,X,X,X,X,X,X,X,X,X,X. . ,X,X,X@ X . O o - c o   ,X,X,X,X,X,X,X,X,X,X,X,X,X,X,X,X,X,X,X,X,X,X",
",X,X,X,X,X,X,X,X,X,X,X  = 8.0   ,X,X,X,X,X,X,X,X. .             . . ,X,X,X,X,X,X,X,X,X,X. . o     g 3 R k.r v g E w o ,X,X,X,X,X,X,X,X,X,X,X,X,X,X,X,X,X,X,X,X,X",
",X,X,X,X,X,X,X,X,X,X,X. Q `.0   ,X,X,X,X,X,X,X. + s B A Z k +   i z . . . . ,X,X,X,X,X,X,XX ] w   @ v R 2.g b >.7.} 0   ,X,X,X,X,X,X,X,X,X,X,X,X,X,X,X,X,X,X,X,X",
",X,X,X,X,X,X,X,X,X,X  : B. Xw   ,X,X,X,X,X,X,X. $ 0.u.f.f.f.w.N r.h.n .     ,X,X,X,X,X,X,X. d.Q.3   b w ; v v Q.7.I I   ,X,X,X,X,X,X,X,X,X,X,X,X,X,X,X,X,X,X,X,X",
",X,X,X,X,X,X,X,X,X,X. I `..XF   ,X,X,X,X,X,X,X. . B e.p.a.f.f.a.f.g.g.1 @ @ . ,X,X,X,X,X,XX L.&X7.  * 4 g g k.|.T.} Y   ,X,X,X,X,X,X,X,X,X,X,X,X,X,X,X,X,X,X,X,X",
",X,X,X,X,X,X,X,X,X,Xo 5.].XXR   ,X,X,X,X,X,X. . X s l B 9.q.p.a.f.f.f.r.| C   ,X,X,X,X,X  , {.&XQ.; o @ v 4 T.|.I.Y Y . ,X,X,X,X,X,X,X,X,X,X,X,X,X,X,X,X,X,X,X,X",
",X,X,X,X,X,X,X,X,X  0 U. XXX>.  ,XO o ,X,X. . O + . X o + u Z q.i.f.f.h.x.r.. ,X,X,X,X  . d.:X%X&Xv   g g 4 R I.k.k.} . ,X,X,X,X,X,X,X,X,X,X,X,X,X,X,X,X,X,X,X,X",
",X,X,X,X,X,X,X,X,X. Q )..X;XY.O   , , ,X,X.   + a @ X P L : + k 0.i.f.f.h.S .   X .   O <.*X&X#X&X} . v @ g b x 7.7.x . ,X,X,X,X,X,X,X,X,X,X,X,X,X,X,X,X,X,X,X,X",
",X,X,X,X,X,X,X,X,XX >.`.oXXXoX6.o G O   . - ; X @ p # = %.n.L & l t.f.f.f.z > t . o R I.:X&X#X#X|.} + b . X g b 3 > X . ,X,X,X,X,X,X,X,X,X,X,X,X,X,X,X,X,X,X,X,X",
",X,X,X,X,X,X,X,X,XO 5.].oXoX.X8.= >.@ ) L.{.L.O   O p < o ^ n.F + Z a.f.u.+ / _.~ o L.:X&X%X%X%X!.} X @ . 5 @ 5 @   ,X,X,X,X,X,X,X,X,X,X,X,X,X,X,X,X,X,X,X,X,X,X",
",X,X,X,X,X,X,X,X,X= 8.`..X X].I > ) @ }.:X%XE.- D D O y y O D 3., % w.f.A o n.'.'.D q {.%X%X%X$XW.c   . X n #   ,X,X,X,X,X,X,X,X,X,X,X,X,X,X,X,X,X,X,X,X,X,X,X,X",
",X,X,X,X,X,X,X,X,X* 6.U.`. XY.: , = h +X%X@XP.: ^ D.e . 1 p + , 0 X A f.k , D.^.'.B.o 1.&X%X+XW.d.-   ,X. n $   ,X,X,X,X,X,X,X,X,X,X,X,X,X,X,X,X,X,X,X,X,X,X,X,X",
",X,X,X,X,X,X,X,X,X. t 5.B.Y.O.. F O 1.%X%X@Xj.@  .~.$.F & + p 1 .   l a.s 9 ~.^.^.].P q {.{.W.j.h . ,X,X. n 1   ,X,X,X,X,X,X,X,X,X,X,X,X,X,X,X,X,X,X,X,X,X,X,X,X",
",X,X,X,X,X,X,X,X,X,X. , >.5.- t 0 - !.%X%X{.1.& / 3.~.~.c.7 O i u X $ A $ F ~.^.^.'.M.o 1.L.,.q . ,X,X,X. a 6 . ,X,X,X,X,X,X,X,X,X,X,X,X,X,X,X,X,X,X,X,X,X,X,X,X",
",X,X,X,X,X,X,X,X,X,X,X. o 7 o Q - Y W.}.}.W.Y = c.n.^.^.(.Z.F O 1 a + . X 4.^.^.^.(.).7 3 q o   ,X,X,X,X. i 5   ,X,X,X,X,X,X,X,X,X,X,X,X,X,X,X,X,X,X,X,X,X,X,X,X",
",X,X,X,X,X,X,X,X,X,X,X,X    = , . Y ,.1.1.,.; F ~.^.^.(.^.(.J. .* # f 1 o W D.^.^.(.].F     ,X,X,X,X,X,X  5 a   ,X,X,X,X,X,X,X,X,X,X,X,X,X,X,X,X,X,X,X,X,X,X,X,X",
",X,X,X,X,X,X,X,X,X,X,X,X. . r o     . & O o = c.~.o.W o.c.n.D.J.4.7 O p y o e n.S.&.W = . . ,X,X,X,X,X,X  6 n . ,X,X,X,X,X,X,X,X,X,X,X,X,X,X,X,X,X,X,X,X,X,X,X,X",
",X,X,X,X,X,X,X,X,X,X,X,X. = H o./ : . : ^ c.n.^.4.X : & O & > r W W = . 6 y . @ : O , W 9   ,X,X,X,X,X,X  1 n X ,X,X,X,X,X,X,X,X,X,X,X,X,X,X,X,X,X,X,X,X,X,X,X,X",
",X,X,X,X,X,X,X,X,X,X,X,X. = *.D.^.n.P & F D.^.^.W : Z.n.c.o.W D , = . = * O O 7 W c.D.(.o.  ,X,X,X,X,X,X  ; m X ,X,X,X,X,X,X,X,X,X,X,X,X,X,X,X,X,X,X,X,X,X,X,X,X",
",X,X,X,X,X,X,X,X,X,X,X,X,XX / v.S.~.~. .& c.(.J.e 7 n.~.(.(.^.~.D.n.> F %.o ^ D.^.(.S.%.9 . ,X,X,X,X,X,X  # m + ,X,X,X,X,X,X,X,X,X,X,X,X,X,X,X,X,X,X,X,X,X,X,X,X",
",X,X,X,X,X,X,X,X,X,X,X,X,X  7 *.c.n.n.n.X.n.^.^...o o 7 L %.n.~.^.D.> ~ D.> ^ ~.n.~ >     ,X,X,X,X,X,X,X. # M + . ,X,X,X,X,X,X,X,X,X,X,X,X,X,X,X,X,X,X,X,X,X,X,X",
",X,X,X,X,X,X,X,X,X,X,X,X,X,X. D *.c.c.c.m.m.~.^.D.> q _ i & # 8 W / o %.~.e , F O X $ < . ,X,X,X,X,X,X,X,X+ C @ . ,X,X,X,X,X,X,X,X,X,X,X,X,X,X,X,X,X,X,X,X,X,X,X",
",X,X,X,X,X,X,X,X,X,X,X,X,X,X. . 7 W $.c.c.c.D.^.~.e U -X=XOXd._ 5 . : Z.(.o.o . 2 f C y . . ,X,X,X,X,X,X  X j @   ,X,X,X,X,X,X,X,X,X,X,X,X,X,X,X,X,X,X,X,X,X,X,X",
",X,X,X,X,X,X,X,X,X,X,X,X,X,X,X.   X W c.c...W J.^...- OX>X>X>X>XE.O  .~.~.J.H X k V V - . . ,X,X,X,X,X. , , X X .   ,X,X,X,X,X,X,X,X,X,X,X,X,X,X,X,X,X,X,X,X,X,X",
",X,X,X,X,X,X,X,X,X,X,X,X,X,X,X,X  : $.c.c.$.F c.J.n.: M OX=X=XE.5   e F G D , . + u 1 .   . . . X . . H S.A.+.*.^ X ,X,X,X,X,X,X,X,X,X,X,X,X,X,X,X,X,X,X,X,X,X,X",
",X,X,X,X,X,X,X,X,X,X,X,X,X,X,X,X,X  F c.c.c.o.*.c.A.4.> @ g 5 O   X - 3 3 5 - o 7 > = .     O _ U   0 S.(.^.~.D.n.D   ,X,X,X,X,X,X,X,X,X,X,X,X,X,X,X,X,X,X,X,X,X",
",X,X,X,X,X,X,X,X,X,X,X,X,X,X,X,X,X  & F c.+.= , $.A.^.n.X.W W &.D O h E [ } K O m.D.P . 8 D & ' y.+ e ~.^.~.n.c.c.... ,X,X,X,X,X,X,X,X,X,X,X,X,X,X,X,X,X,X,X,X,X",
",X,X,X,X,X,X,X,X,X,X,X,X,X,X,X,X        D o.^ e o.S.^.^.^.^.^.(.4.= X - g q o D J.n.= ^ D.A.: y ` p o n.(.J.m.c.c.$.=   ,X,X,X,X,X,X,X,X,X,X,X,X,X,X,X,X,X,X,X,X",
",X,X,X,X,X,X,X,X,X,X,X,X,X,X  . = > &     : ^ *.c.c.S.~.^.^.^.~.~.Z.+.7 o O D A.~.H = n.^.^.H @ ` V O X.^.~.n.c.c.c.D   ,X,X,X,X,X,X,X,X,X,X,X,X,X,X,X,X,X,X,X,X",
",X,X,X,X,X,X,X,X,X,X,X,X,X  & H $.c.o.7 .   . , ^ $.c.n.J.~.^.^.^.^.^.S.v.n.J.~.X.o ..K.K.K.o.X k V + F ~.D.c.c.c.c.H   ,X,X,X,X,X,X,X,X,X,X,X,X,X,X,X,X,X,X,X,X",
",X,X,X,X,X,X,X,X,X,X,X,X  & e D n.K.J.v.= . . : & & D ..%.v.n.D.^.^.^.^.(.~.Z.W . D c.n.n.v.+.o y m < , c.c.c.c.c.c.^   ,X,X,X,X,X,X,X,X,X,X,X,X,X,X,X,X,X,X,X,X",
",X,X,X,X,X,X,X,X,X,X,X,X. F W X.~.^.^.J.7 + O W c.L : o * , = , P / X.X.~ G :   & $.c.c.c.c.&.* 2 m < = 3.c.c.c.c.c.H   ,X,X,X,X,X,X,X,X,X,X,X,X,X,X,X,X,X,X,X,X",
",X,X,X,X,X,X,X,X,X,X,X. 9 F $.J.(.~.(.m.& 2 2 : Z.^.S.c.^ F ,   X # @ # # % f + & o.c.*.&.$. .= # f $ X F  .+.o.H 8 & . ,X,X,X,X,X,X,X,X,X,X,X,X,X,X,X,X,X,X,X,X",
",X,X,X,X,X,X,X,X,X,X. > $.*.A.~.~.^.J.D   O a O  .^.^.^.^.~.Z.7 + Z 0.w.p.i.q.+ . , 7 : = o o . X + . . . . & & . . ,X,X,X,X,X,X,X,X,X,X,X,X,X,X,X,X,X,X,X,X,X,X",
",X,X,X,X,X,X,X,X,X  *  .c.n.~.^.^.~./ & W = y 1 , S.^.^.^.^.^.*.@ $ u N w.f 2 X .         ,X,X,X. . ,X,X,X    . . ,X,X,X,X,X,X,X,X,X,X,X,X,X,X,X,X,X,X,X,X,X,X,X",
",X,X,X,X,X,X,X,X    e c.c.J.~.~.^.%.o F D.P + a X %.^.^.^.^.~.n.( @   X + .   r :   ,X,X,X,X,X,X,X,X,X,X,X,X,X,X,X,X,X,X,X,X,X,X,X,X,X,X,X,X,X,X,X,X,X,X,X,X,X,X",
",X,X,X,X,X,X,X. O O o F v.^.^.(.S.7 7 *.~.c.O p < r J.^.^.^.~.n.S.*., X O o / F.,   ,X,X,X,X,X,X,X,X,X,X,X,X,X,X,X,X,X,X,X,X,X,X,X,X,X,X,X,X,X,X,X,X,X,X,X,X,X,X",
",X,X,X,X,X,X,X. y f < O 7 %.D.(.o.o  .c.J.J.D + p O c.^.~.^.J.N.~.~.G # u = / M.: ,X,X,X,X,X,X,X,X,X,X,X,X,X,X,X,X,X,X,X,X,X,X,X,X,X,X,X,X,X,X,X,X,X,X,X,X,X,X,X",
",X,X,X,X,X,X,X. < k k p < o e X.7 , ^ %.S.(.%.O a + P ~.^.~.J.J.~.J.8 2 2 7 5.3.o ,X,X,X,X,X,X,X,X,X,X,X,X,X,X,X,X,X,X,X,X,X,X,X,X,X,X,X,X,X,X,X,X,X,X,X,X,X,X,X",
",X,X,X,X,X,X. o . # f ` ` a 3 O . e & ^ m.~.S.> 1 y : A.^.^.~.~.^.Z.= u # L ].L   ,X,X,X,X,X,X,X,X,X,X,X,X,X,X,X,X,X,X,X,X,X,X,X,X,X,X,X,X,X,X,X,X,X,X,X,X,X,X,X",
",X,X,X,X,X. 7 $.o.= O p V ` y.{ . e : o.c.n.S.W O a o +.^.^.^.^.(.v.o a O @./.*   ,X,X,X,X,X,X,X,X,X,X,X,X,X,X,X,X,X,X,X,X,X,X,X,X,X,X,X,X,X,X,X,X,X,X,X,X,X,X,X",
",X,X,X,X  7 c.^.^.n.H & O 2 U q = +.$.c.$.$.c.o.o 1 + D K.^.^.^.^.o.O u X M.3.  ,X,X,X,X,X,X,X,X,X,X,X,X,X,X,X,X,X,X,X,X,X,X,X,X,X,X,X,X,X,X,X,X,X,X,X,X,X,X,X,X",
",X,X,X. & X.Z.K.^.(.K.n.^ , .   D c.! $. .H c.c.7 O 1 & n.^.^.^.^.L + 1 = Y.L   ,X,X,X,X,X,X,X,X,X,X,X,X,X,X,X,X,X,X,X,X,X,X,X,X,X,X,X,X,X,X,X,X,X,X,X,X,X,X,X,X",
",X,X,X. 9 c.D.(.^.^.^.^.^.v.&   F c.r  .c.c.c.c.^ X y O ! V.N.b.4., # # : 3.:   ,X,X,X,X,X,X,X,X,X,X,X,X,X,X,X,X,X,X,X,X,X,X,X,X,X,X,X,X,X,X,X,X,X,X,X,X,X,X,X,X",
",X,X,X. H c.V.K.^.~.^.^.^.D.7   = D r G H W H ! L O + . o * o o o . X . X X @ + . ,X,X,X,X,X,X,X,X,X,X,X,X,X,X,X,X,X,X,X,X,X,X,X,X,X,X,X,X,X,X,X,X,X,X,X,X,X,X,X",
",X,X,X. / c.c.n.~.^.^.^.~.c.& . @ + O O X + o o O O O + o 0 ) #.>.= $ p p a a % . ,X,X,X,X,X,X,X,X,X,X,X,X,X,X,X,X,X,X,X,X,X,X,X,X,X,X,X,X,X,X,X,X,X,X,X,X,X,X,X",
",X,X,X. D *.c.m.~.^.^.^.&.&   O $ 1 % 2 % 2 6 1 2 p a p O F 8.M.B.> O + @ O o . . ,X,X,X,X,X,X,X,X,X,X,X,X,X,X,X,X,X,X,X,X,X,X,X,X,X,X,X,X,X,X,X,X,X,X,X,X,X,X,X",
",X,X,X. X > H o.v.S.J.D.r   ,X  . o o o O o * o o o o o . O , , ; . > H ! :.%.o ,X,X,X,X,X,X,X,X,X,X,X,X,X,X,X,X,X,X,X,X,X,X,X,X,X,X,X,X,X,X,X,X,X,X,X,X,X,X,X,X",
",X,X,X,X,X. . o : 7 D 7 . ,X,X,XX G ( :.;.;.=.=.*.&.-.-.! D G J J ! 4.S.G.K.6.X ,X,X,X,X,X,X,X,X,X,X,X,X,X,X,X,X,X,X,X,X,X,X,X,X,X,X,X,X,X,X,X,X,X,X,X,X,X,X,X,X",
",X,X,X,X,X,X,X,X        ,X,X,X,X. 7 #.;.C.G.C.C.G.G.G.G.G.G.G.G.G.G.G.G.G./.J   . ,X,X,X,X,X,X,X,X,X,X,X,X,X,X,X,X,X,X,X,X,X,X,X,X,X,X,X,X,X,X,X,X,X,X,X,X,X,X,X",
",X,X,X,X,X,X,X,X,X,X,X,X,X,X,X,X,X. r =.;.-.=.-.C.C.N.C.G.G.A.G.G.K./.K.[.b.@ X . ,X,X,X,X,X,X,X,X,X,X,X,X,X,X,X,X,X,X,X,X,X,X,X,X,X,X,X,X,X,X,X,X,X,X,X,X,X,X,X",
",X,X,X,X,X,X,X,X,X,X,X,X,X,X,X,X,X. . 9 :.:.G G ( ;.=.#.=.C.G.G.;.t t ~ @., 8 J   ,X,X,X,X,X,X,X,X,X,X,X,X,X,X,X,X,X,X,X,X,X,X,X,X,X,X,X,X,X,X,X,X,X,X,X,X,X,X,X",
",X,X,X,X,X,X,X,X,X,X,X,X,X,X,X,X,X. 8 & * * * * o G r * o 8 ( ! O > 9 > * 3 N.:.. ,X,X,X,X,X,X,X,X,X,X,X,X,X,X,X,X,X,X,X,X,X,X,X,X,X,X,X,X,X,X,X,X,X,X,X,X,X,X,X",
",X,X,X,X,X,X,X,X,X,X,X,X,X,X,X,X,Xo J G X > /  .*   .   ,X  X   : J ^ ( / :.4.Q . ,X,X,X,X,X,X,X,X,X,X,X,X,X,X,X,X,X,X,X,X,X,X,X,X,X,X,X,X,X,X,X,X,X,X,X,X,X,X,X",
",X,X,X,X,X,X,X,X,X,X,X,X,X,X,X,X,X. X o X o o o * X . ,X,X,X,X. X o X o o o o X . ,X,X,X,X,X,X,X,X,X,X,X,X,X,X,X,X,X,X,X,X,X,X,X,X,X,X,X,X,X,X,X,X,X,X,X,X,X,X,X",
",X,X,X,X,X,X,X,X,X,X,X,X,X,X,X,X  o q x c c c g T T o ,X,X,X,X. ; q 4 b c b b [ - . ,X,X,X,X,X,X,X,X,X,X,X,X,X,X,X,X,X,X,X,X,X,X,X,X,X,X,X,X,X,X,X,X,X,X,X,X,X,X",
",X,X,X,X,X,X,X,X,X,X,X,X,X,X,X,X  O 5 b x c g @ g R * . ,X,X,Xo ; 4 5 w x ; ; E 0 . ,X,X,X,X,X,X,X,X,X,X,X,X,X,X,X,X,X,X,X,X,X,X,X,X,X,X,X,X,X,X,X,X,X,X,X,X,X,X",
",X,X,X,X,X,X,X,X,X,X,X,X,X,X,X,X,X. . . . X . . . o . . ,X,X,X. . . X . . . . X . . ,X,X,X,X,X,X,X,X,X,X,X,X,X,X,X,X,X,X,X,X,X,X,X,X,X,X,X,X,X,X,X,X,X,X,X,X,X,X",
",X,X,X,X,X,X,X,X,X,X,X,X,X,X,X,X,X,X,X,X,X,X,X,X,X,X,X,X,X,X,X,X,X,X,X,X,X,X,X,X,X,X,X,X,X,X,X,X,X,X,X,X,X,X,X,X,X,X,X,X,X,X,X,X,X,X,X,X,X,X,X,X,X,X,X,X,X,X,X,X",
",X,X,X,X,X,X,X,X,X,X,X,X,X,X,X,X,X,X,X,X,X,X,X,X,X,X,X,X,X,X,X,X,X,X,X,X,X,X,X,X,X,X,X,X,X,X,X,X,X,X,X,X,X,X,X,X,X,X,X,X,X,X,X,X,X,X,X,X,X,X,X,X,X,X,X,X,X,X,X,X",
",X,X,X,X,X,X,X,X,X,X,X,X,X,X,X,X,X,X,X,X,X,X,X,X,X,X,X,X,X,X,X,X,X,X,X,X,X,X,X,X,X,X,X,X,X,X,X,X,X,X,X,X,X,X,X,X,X,X,X,X,X,X,X,X,X,X,X,X,X,X,X,X,X,X,X,X,X,X,X,X",
",X,X,X,X,X,X,X,X,X,X,X,X,X,X,X,X,X,X,X,X,X,X,X,X,X,X,X,X,X,X,X,X,X,X,X,X,X,X,X,X,X,X,X,X,X,X,X,X,X,X,X,X,X,X,X,X,X,X,X,X,X,X,X,X,X,X,X,X,X,X,X,X,X,X,X,X,X,X,X,X",
",X,X,X,X,X,X,X,X,X,X,X,X,X,X,X,X,X,X,X,X,X,X,X,X,X,X,X,X,X,X,X,X,X,X,X,X,X,X,X,X,X,X,X,X,X,X,X,X,X,X,X,X,X,X,X,X,X,X,X,X,X,X,X,X,X,X,X,X,X,X,X,X,X,X,X,X,X,X,X,X",
",X,X,X,X,X,X,X,X,X,X,X,X,X,X,X,X,X,X,X,X,X,X,X,X,X,X,X,X,X,X,X,X,X,X,X,X,X,X,X,X,X,X,X,X,X,X,X,X,X,X,X,X,X,X,X,X,X,X,X,X,X,X,X,X,X,X,X,X,X,X,X,X,X,X,X,X,X,X,X,X"
};
