/* XPM */
static char *result[] = {
/* columns rows colors chars-per-pixel */
"80 71 200 2 ",
"   c #161414",
".  c #181615",
"X  c #1C1917",
"o  c #1D1B1A",
"O  c #201B17",
"+  c #221D1A",
"@  c #281F1B",
"#  c #24211E",
"$  c #2B221D",
"%  c #31251E",
"&  c #35291E",
"*  c #382B1E",
"=  c #1F1F20",
"-  c #232323",
";  c #2A2622",
":  c #2D2A26",
">  c #252728",
",  c #27292A",
"<  c #2A2B2C",
"1  c #322620",
"2  c #352922",
"3  c #3B2C24",
"4  c #332F2D",
"5  c #36322D",
"6  c #3A342D",
"7  c #3C3027",
"8  c #2C2F31",
"9  c #2D3134",
"0  c #2F3638",
"q  c #333334",
"w  c #3D3631",
"e  c #3D3934",
"r  c #313539",
"t  c #343A3E",
"y  c #3B3B3C",
"u  c #433226",
"i  c #453329",
"p  c #4A352B",
"a  c #4D382D",
"s  c #4A3623",
"d  c #533D26",
"f  c #523A2E",
"g  c #423C35",
"h  c #443E39",
"j  c #4A3E38",
"k  c #573E31",
"l  c #412F26",
"z  c #5C442C",
"x  c #46413D",
"c  c #4A443C",
"v  c #4E483C",
"b  c #494135",
"n  c #554233",
"m  c #5C4435",
"M  c #57493B",
"N  c #64492C",
"B  c #6E4F2F",
"V  c #674737",
"C  c #7C5934",
"Z  c #745535",
"A  c #724F3D",
"S  c #363C41",
"D  c #3A3F43",
"F  c #3A4146",
"G  c #3D454B",
"H  c #3A4347",
"J  c #3F4D51",
"K  c #434343",
"L  c #4B4543",
"P  c #4B4944",
"I  c #424A4E",
"U  c #494B4C",
"Y  c #534D4A",
"T  c #534E46",
"R  c #55524C",
"E  c #5B544F",
"W  c #434C53",
"Q  c #4B4E51",
"!  c #475057",
"~  c #4E5255",
"^  c #475359",
"/  c #4A545C",
"(  c #5E5C56",
")  c #525659",
"_  c #535A5D",
"`  c #5B5B5B",
"'  c #67544A",
"]  c #7A5441",
"[  c #615A55",
"{  c #655D59",
"}  c #66645D",
"|  c #6B635F",
" . c #7B644C",
".. c #4B5760",
"X. c #4E5A62",
"o. c #535D65",
"O. c #525F68",
"+. c #5A5E62",
"@. c #5D6166",
"#. c #54636C",
"$. c #5B6569",
"%. c #5A696E",
"&. c #566671",
"*. c #586771",
"=. c #566C72",
"-. c #5A6A74",
";. c #5D6E7A",
":. c #5C7077",
">. c #5E717C",
",. c #6B6965",
"<. c #756C69",
"1. c #626C75",
"2. c #61727E",
"3. c #6B747A",
"4. c #77726D",
"5. c #845F38",
"6. c #8B6339",
"7. c #876038",
"8. c #9B6D3D",
"9. c #815D4B",
"0. c #886949",
"q. c #9F7141",
"w. c #826252",
"e. c #A27341",
"r. c #AD7A45",
"t. c #A87743",
"y. c #B17D46",
"u. c #B37F48",
"i. c #806D61",
"p. c #887E79",
"a. c #917669",
"s. c #B78149",
"d. c #B9834A",
"f. c #BB8852",
"g. c #89837C",
"h. c #988173",
"j. c #BC9369",
"k. c #627481",
"l. c #647A84",
"z. c #687A86",
"x. c #677A88",
"c. c #6A7D8B",
"v. c #747D84",
"b. c #717F89",
"n. c #6C838D",
"m. c #678088",
"M. c #7C858C",
"N. c #77838C",
"B. c #6E8291",
"V. c #6F8B93",
"C. c #718593",
"Z. c #738996",
"A. c #768B9A",
"S. c #798E9E",
"D. c #74919A",
"F. c #7A909E",
"G. c #7C93A3",
"H. c #7F9AA3",
"J. c #8C8B81",
"K. c #908682",
"L. c #958A85",
"P. c #95948A",
"I. c #858D93",
"U. c #8D959D",
"Y. c #85939E",
"T. c #9C9A90",
"R. c #A3928A",
"E. c #B89C8A",
"W. c #A69994",
"Q. c #ADA29D",
"!. c #A3A296",
"~. c #B0A39D",
"^. c #8097A8",
"/. c #839BAC",
"(. c #869AA3",
"). c #949EA6",
"_. c #869EB0",
"`. c #96A2AC",
"'. c #96A9B7",
"]. c #8AA2AE",
"[. c #B7AAA5",
"{. c #B9ABA4",
"}. c #BCAEA9",
"|. c #B4A6A0",
" X c #B6B5A8",
".X c #A3ADB6",
"XX c #A4AFB8",
"oX c #ABB5BD",
"OX c #A5B0B9",
"+X c #A0A8AF",
"@X c #C7A996",
"#X c #CBBBB4",
"$X c #CFBFB8",
"%X c #D0BFB8",
"&X c #D1C1BB",
"*X c #EEC9B2",
"=X c #B1BAC2",
"-X c #D6C7C1",
";X c #FFDBC2",
":X c None",
/* pixels */
":X:X:X:X:X:X:X:X:X:X:X:X:X:X:X:X:X:X:X:X:X:X:X:X:X:X:X:X:X:X:X:X:X:X:X:X:X:X:X:X:X:X:X:X:X:X:X:X:X:X:X:X:X:X:X:X:X:X:X:X:X:X:X:X:X:X:X:X:X:X:X:X:X:X:X:X:X:X:X:X",
":X:X:X:X:X:X:X:X:X:X:X:X:X:X:X:X:X:X:X:X:X:X:X:X:X:X:X:X:X:X:X:X:X:X:X:X:X:X:X:X:X:X:X:X:X:X:X:X:X:X:X:X:X:X:X:X:X:X:X:X:X:X:X:X:X:X:X:X:X:X:X:X:X:X:X:X:X:X:X:X",
":X:X:X:X:X:X:X:X:X:X:X:X:X:X:X:X:X:X:X:X:X:X:X:X:X:X:X:X:X:X:X:X:X:X:X:X:X:X:X:X:X:X:X:X:X:X:X:X:X:X:X:X:X:X:X:X:X:X:X:X:X:X:X:X:X:X:X:X:X:X:X:X:X:X:X:X:X:X:X:X",
":X:X:X:X:X:X:X:X:X:X:X:X:X:X:X:X:X:X:X:X:X:X:X:X:X:X:X:X:X:X:X:X:X:X:X:X:X:X:X:X:X:X:X:X:X:X:X:X:X:X:X:X:X:X:X:X:X:X:X:X:X:X:X:X:X:X:X:X:X:X:X:X:X:X:X:X:X:X:X:X",
":X:X:X:X:X:X:X:X:X:X:X:X:X:X:X:X:X:X:X:X:X:X:X:X:X:X:X:X:X:X:X:X:X:X:X:X:X:X:X:X:X:X:X:X:X:X:X:X:X:X:X:X:X:X:X:X:X:X:X:X:X:X:X:X:X:X:X:X:X:X:X:X:X:X:X:X:X:X:X:X",
":X:X:X:X:X:X:X:X:X:X:X:X:X:X:X:X:X:X:X:X:X:X:X:X:X:X:X:X:X:X:X:X:X:X:X:X:X:X. .   :X:X:XX . X . :X:X:X:X:X:X:X:X:X:X:X:X:X:X:X:X:X:X:X:X:X:X:X:X:X:X:X:X:X:X:X:X",
":X:X:X:X:X:X:X:X:X:X:X:X:X:X:X:X:X:X:X:X:X:X:X:X:X:X:X:X:X:X:X:X:X:X:X:X:X:X  o 4   :X:XX 6 %   $ o :X:X:X:X:X:X:X:X:X:X:X:X:X:X:X:X:X:X:X:X:X:X:X:X:X:X:X:X:X:X",
":X:X:X:X:X:X:X:X. :X:X:X:X:X:X:X:X:X:X:X:X:X:X:X:X. . :X:X:X:X:X:X:X:X:X:X:X:X- g.{ o     # O o v ; o . . :X:X:X:X:X:X:X:X:X:X:X:X:X:X:X:X:X:X:X:X:X:X:X:X:X:X:X",
":X:X:X:X:X:X:X  . :X:X:X:X:X:X:X:X:X:X:X:X:X.   :X. o .   . . :X:X:X:X:X:X:X:X. K.#X[ . o R P 6 g } } x . :X:X:X:X:X:X:X:X:X:X:X:X:X:X:X:X:X:X:X:X:X:X:X:X:X:X:X",
":X:X:X:X:X:X. . . :X:X:X:X:X:X:X:X:X.   X $ % % X . z Z #       :X:X:X:X:X:X:X. K.-X~.q 5 T.R c x P.K ( ; :X:X:X:X:X:X:X:X:X:X:X:X:X:X:X:X:X:X:X:X:X:X:X:X:X:X:X",
":X:X:X:X:X:X. y - :X:X:X:X:X:X:X:X. O d 5.e.r.t.6.z q.f.0.%   # . :X:X:X:X:X:X- |.&X%X<.. y e b ,. X<.} q   :X:X:X:X:X:X:X:X:X:X:X:X:X:X:X:X:X:X:X:X:X:X:X:X:X:X",
":X:X:X:X:X:X- v.q   :X:X:X:X:X:X:X  $ C 8.r.s.d.d.s.d.s.f.0.n w.+ :X:X:X:X:X  E -X$X%XR.>   b e T. XP.P x   :X:X:X:X:X:X:X:X:X:X:X:X:X:X:X:X:X:X:X:X:X:X:X:X:X:X",
":X:X:X:X:X. y `.U   :X:X:X:X:X:X:X. . d 5.8.q.e.t.y.s.s.d.f.j.j.3   :X:X:X  y }.&X$X&X|.y X v e !. XP.,.( . :X:X:X:X:X:X:X:X:X:X:X:X:X:X:X:X:X:X:X:X:X:X:X:X:X:X",
":X:X:X:X:X. +.XX,.  :X:X:X:X:X:X:X. . & d s s d B 6.8.y.d.d.f.f.u . . . o R [.-X$X$X&XW.L ; x : P g.J.g.} o :X:X:X:X:X:X:X:X:X:X:X:X:X:X:X:X:X:X:X:X:X:X:X:X:X:X",
":X:X:X:X:X@ v.OXI.o :X:X:X:X:X:X. . + X   o < - X % N 6.u.u.u.y.* y _ - < W.-X%X$X$X#XW.h : 6 5 v 5 ( ( : . :X:X:X:X:X:X:X:X:X:X:X:X:X:X:X:X:X:X:X:X:X:X:X:X:X:X",
":X:X:X:X  q I.XX`.8   :Xo :X:X:X. . 2 i @ o W 2.%.q O d 8.u.d.e.# #.'.M.< g {.&X$X$X[.K.4 5 2 . : v 5 . . :X:X:X:X:X:X:X:X:X:X:X:X:X:X:X:X:X:X:X:X:X:X:X:X:X:X:X",
":X:X:X:X  D U..X=X+.    q > :X.   . . % p 3 O 8 *.b.W = f e.d.6.O 2._.'.N.= E #X%X}.W.| X e ; @ 7 + : . :X:X:X:X:X:X:X:X:X:X:X:X:X:X:X:X:X:X:X:X:X:X:X:X:X:X:X:X",
":X:X:X:X. Q )..X=X).x . q = . > ` <.- . O 2 i 1 o S -.D O B u.5.o x././.'.1.+ p.|.T.<.;   o . # M O   :X:X:X:X:X:X:X:X:X:X:X:X:X:X:X:X:X:X:X:X:X:X:X:X:X:X:X:X:X",
":X:X:X:X  ) )..X=XXXU.- @.8 Y }.&X{.x > ! - + l i $ + 8 o 2 e.6.+ k./././.].S 4 p.[ -   :X:X:X. n &   :X:X:X:X:X:X:X:X:X:X:X:X:X:X:X:X:X:X:X:X:X:X:X:X:X:X:X:X:X",
":X:X:X:X. ) ).XXXXXXM.+ +.; i.-X%X}.R > A.k.+ = @ i i @   X Z C X ;./././.'.v.+ ; X   :X:X:X:X. b 6 X :X:X:X:X:X:X:X:X:X:X:X:X:X:X:X:X:X:X:X:X:X:X:X:X:X:X:X:X:X",
":X:X:X:X  ~ (..XXXXX3.o < = g.&X#X#X{ = c.S.k.k.S o $ p i @ O O > C._././.].`.8   :X:X:X:X:X:X  & n . :X:X:X:X:X:X:X:X:X:X:X:X:X:X:X:X:X:X:X:X:X:X:X:X:X:X:X:X:X",
":X:X:X:X  K M.U.`..X~ @ F - W.&X#X{.[ - ..k._.^.G.2.S . % p i @ o I x.^./.C./ = . . :X:X:X:X:X. # n O . :X:X:X:X:X:X:X:X:X:X:X:X:X:X:X:X:X:X:X:X:X:X:X:X:X:X:X:X",
":X:X:X:X  - ` v.I.b.4 < > 5 @X&X#XW.Y > k.S./././._.G.;.r o 1 a i + - W ! - = W ^ . :X:X:X:X:X:XX z :   :X:X:X:X:X:X:X:X:X:X:X:X:X:X:X:X:X:X:X:X:X:X:X:X:X:X:X:X",
":X:X:X:X:X  . q +.+.+ Q 8 L Q.W.W.L.g 8 ^.^.S.S.A.S.S.G.b...> . 2 p O   = W c./.C.- . :X:X:X:X:X. b u . :X:X:X:X:X:X:X:X:X:X:X:X:X:X:X:X:X:X:X:X:X:X:X:X:X:X:X:X",
":X:X:X:X:X:X:X. o - o y X L ,.[ Y w o ! /.O.> > > > , , , 8 = . = X o G x././.k.t . :X:X:X:X:X:X. 7 n   :X:X:X:X:X:X:X:X:X:X:X:X:X:X:X:X:X:X:X:X:X:X:X:X:X:X:X:X",
":X:X:X:X:X:X:X:X    > >   .   . - r ..b.S.8 8 / / ! / ! ! ! D = O.I - b._.A.! = . . :X:X:X:X:X:X. $ m o . :X:X:X:X:X:X:X:X:X:X:X:X:X:X:X:X:X:X:X:X:X:X:X:X:X:X:X",
":X:X:X:X:X:X:X:X:X. < q G 8 o . S x._._.A.> .._._._._./._._.k.= k.c.+ O.*.8 X 2 % . :X:X:X:X:X:X:XX m :   :X:X:X:X:X:X:X:X:X:X:X:X:X:X:X:X:X:X:X:X:X:X:X:X:X:X:X",
":X:X:X:X:X:X:X:X:X. D k.^.S.k.G = S G./.b.- r / o.*.k.x.b.A.2.o 2.G.8 = X @ i V l . . :X:X:X:X:X:X. n i . :X:X:X:X:X:X:X:X:X:X:X:X:X:X:X:X:X:X:X:X:X:X:X:X:X:X:X",
":X:X:X:X:X:X:X:X:X  < ;.B.G.^.G.O.8 c._./.... O ; = + + = > > = z./.k.8 O a V ] 2 . . :X:X:X:X:X:X. 7 n . :X:X:X:X:X:X:X:X:X:X:X:X:X:X:X:X:X:X:X:X:X:X:X:X:X:X:X",
":X:X:X:X:X:X:X:X:X:X. G k.k.k.x.c.k.c._./.G.S j @X@XE.R.a.i.; r G.^.G.O.o @ p l X . . :X:X:X:X:X:X  o 7 .   :X:X:X:X:X:X:X:X:X:X:X:X:X:X:X:X:X:X:X:X:X:X:X:X:X:X",
":X:X:X:X:X:X:X:X:X:X. o J ;.k.k.k.k.k.c././...= @X;X;X;X;X@X- 9 ! D 8 =   o = > o . :X:X:X:X:X:X. > q = 9 < . :X:X:X:X:X:X:X:X:X:X:X:X:X:X:X:X:X:X:X:X:X:X:X:X:X",
":X:X:X:X:X:X:X:X:X:X:X. . 8 J ..k.k.k.! c._.A.< j @X*X*XE.h   . - 4 e Y : 8 c.z.,   :X:X. X X . 8 n.G.m.F.B.F . :X:X:X:X:X:X:X:X:X:X:X:X:X:X:X:X:X:X:X:X:X:X:X:X",
":X:X:X:X:X:X:X:X:X:X:X:X  .   8 -.k.k.S / c.G.k.> ; j w + < o ; T E [ [ $ D /.;..       + ' ' . .././.^.c.k.&.>   :X:X:X:X:X:X:X:X:X:X:X:X:X:X:X:X:X:X:X:X:X:X:X",
":X:X:X:X:X:X:X:X:X:X:X:X:X. . S k.k.k.k.&.k.k.A.C...G W *.Z.G X + 2 w - = 2./.I o r ! / = ' w.$ D ^./.C.k.k.k.G . :X:X:X:X:X:X:X:X:X:X:X:X:X:X:X:X:X:X:X:X:X:X:X",
":X:X:X:X:X:X:X:X:X:X:X:X:X:X. o S -.x...- 9 *.G././.^././._.A.#.W , = 8 #./.l.# ! G._.A.> l ] p > b._.G.k.k.k.&.>   :X:X:X:X:X:X:X:X:X:X:X:X:X:X:X:X:X:X:X:X:X:X",
":X:X:X:X:X:X:X:X:X:X:X:X:X:X:X.   8 X.-.G 0 #.c.G./././.^././././.A.B.S./.C.9 , C._./.G.S % ] k o k._.G.x.k.k.k.S   :X:X:X:X:X:X:X:X:X:X:X:X:X:X:X:X:X:X:X:X:X:X",
":X:X:X:X:X:X:X:X:X:X:X:X:X:X. .     = S / *.k.k.x.Z.G.^./././././././.G.2.8   / G.G.S.S.I @ V V o O.G.Z.k.k.k.k.^ . :X:X:X:X:X:X:X:X:X:X:X:X:X:X:X:X:X:X:X:X:X:X",
":X:X:X:X:X:X:X:X:X:X:X:X:X  > G ^ D =   . > 0 G ..#.;.k.k.*.l.c.z.-.^ 9 o @ . ^ k.k.k.k.I X f k + G x.k.k.k.k.k.^ o :X:X:X:X:X:X:X:X:X:X:X:X:X:X:X:X:X:X:X:X:X:X",
":X:X:X:X:X:X:X:X:X:X:X:X  , O.x.A.G.&.=   . < = o = - , - . X o + + $ s C Z X G k.k.k.k.! X a f + r k.k.k.k.-.J -   :X:X:X:X:X:X:X:X:X:X:X:X:X:X:X:X:X:X:X:X:X:X",
":X:X:X:X:X:X:X:X:X:X:X:X. t G S././.S., O X O.C.2.O.! G G r . % B 6.q.u.q.N   < ^ ^ / ^ S . i a . o 8 G G S > . . :X:X:X:X:X:X:X:X:X:X:X:X:X:X:X:X:X:X:X:X:X:X:X",
":X:X:X:X:X:X:X:X:X:X:X. , G X./.G._.A.> 2 1 8 A./././.^./.A.S X s d N 5.$ X   . . . . . . . @ X . .   .   . . . :X:X:X:X:X:X:X:X:X:X:X:X:X:X:X:X:X:X:X:X:X:X:X:X",
":X:X:X:X:X:X:X:X:X:X:X. t / B._././.-.. @ f o ../././././.G.k.I o . . O - K q . :X:X:X:X:X.   . :X:X:X:X:X. . . :X:X:X:X:X:X:X:X:X:X:X:X:X:X:X:X:X:X:X:X:X:X:X:X",
":X:X:X:X:X:X:X:X:X:X  = ^ &.S.H./.G.D = = l 3 > C././.^./.G.l.S.#.o $ @ 8 (.v.X :X:X:X:X:X:X:X:X:X:X:X:X:X:X:X:X:X:X:X:X:X:X:X:X:X:X:X:X:X:X:X:X:X:X:X:X:X:X:X:X",
":X:X:X:X:X:X:X:X:X:X  S k.c./././.x.= ..W O f O ! /./././.S.x./.G.< 3 2 8 / 1.. :X:X:X:X:X:X:X:X:X:X:X:X:X:X:X:X:X:X:X:X:X:X:X:X:X:X:X:X:X:X:X:X:X:X:X:X:X:X:X:X",
":X:X:X:X:X:X:X:X:X:X= ..k.C./././...> c.c.- l 3 - C./././.A.A./.A.> i % t b.o.  :X:X:X:X:X:X:X:X:X:X:X:X:X:X:X:X:X:X:X:X:X:X:X:X:X:X:X:X:X:X:X:X:X:X:X:X:X:X:X:X",
":X:X:X:X:X:X:X:X:X  - &.k.S./././.D 8 S./.! O f O ^ /././.G.H./.C.- i $ W '.y   :X:X:X:X:X:X:X:X:X:X:X:X:X:X:X:X:X:X:X:X:X:X:X:X:X:X:X:X:X:X:X:X:X:X:X:X:X:X:X:X",
":X:X:X:X:X:X:X:X. . . , D k.b.G.S.9 S c./.b.> 3 3 > B./././././.z.+ a @ +.(.= :X:X:X:X:X:X:X:X:X:X:X:X:X:X:X:X:X:X:X:X:X:X:X:X:X:X:X:X:X:X:X:X:X:X:X:X:X:X:X:X:X",
":X:X:X:X:X:X:X:X. 2 l @   = = , S = S x.c.S.W O a X / /./././._.2.X u X 3.3.  :X:X:X:X:X:X:X:X:X:X:X:X:X:X:X:X:X:X:X:X:X:X:X:X:X:X:X:X:X:X:X:X:X:X:X:X:X:X:X:X:X",
":X:X:X:X:X:X:X:X. 3 k k V k a l 6 + 8 ;.;.k.&.= 1 % > Z././././.#.X 3 X N._   :X:X:X:X:X:X:X:X:X:X:X:X:X:X:X:X:X:X:X:X:X:X:X:X:X:X:X:X:X:X:X:X:X:X:X:X:X:X:X:X:X",
":X:X:X:X:X:X:X:X. X % i V A ] 9.a.7 9 #.H >.k.S X 3 X o./.^.^.H.W O 3 o $.r   . :X:X:X:X:X:X:X:X:X:X:X:X:X:X:X:X:X:X:X:X:X:X:X:X:X:X:X:X:X:X:X:X:X:X:X:X:X:X:X:X",
":X:X:X:X:X:X:X:X. < , X + 1 l i x o t >.O.k.k.&.= 2 @ < #.! H t = X X . o # $ o :X:X:X:X:X:X:X:X:X:X:X:X:X:X:X:X:X:X:X:X:X:X:X:X:X:X:X:X:X:X:X:X:X:X:X:X:X:X:X:X",
":X:X:X:X:X:X:X  r B.A.;.! S 8 , X o G #.#.X.....> X +   X - 8 y 4 X 3 i d a u X . :X:X:X:X:X:X:X:X:X:X:X:X:X:X:X:X:X:X:X:X:X:X:X:X:X:X:X:X:X:X:X:X:X:X:X:X:X:X:X",
":X:X:X:X:X:X  = *.G./././.^.G.S.G X = = o o o . + @ % $ - $.3.I.+.X 2 % # o o . :X:X:X:X:X:X:X:X:X:X:X:X:X:X:X:X:X:X:X:X:X:X:X:X:X:X:X:X:X:X:X:X:X:X:X:X:X:X:X:X",
":X:X:X:X:X:X  r x.^././.^./././.m.o $ * 7 * 7 7 i a i $ o ~ _ ) y   , S ^ :.U   :X:X:X:X:X:X:X:X:X:X:X:X:X:X:X:X:X:X:X:X:X:X:X:X:X:X:X:X:X:X:X:X:X:X:X:X:X:X:X:X",
":X:X:X:X:X:X. H x.^./././.^./.^.:.o O # O O . o X o - , o o o - , S l.D.D.Y.I   :X:X:X:X:X:X:X:X:X:X:X:X:X:X:X:X:X:X:X:X:X:X:X:X:X:X:X:X:X:X:X:X:X:X:X:X:X:X:X:X",
":X:X:X:X:X:X. H k.B.S.^./././.Z.> - 0 H J ^ X.#.;.2.m.n.%.=.>.m.V.V.Z.D.D.F.<   :X:X:X:X:X:X:X:X:X:X:X:X:X:X:X:X:X:X:X:X:X:X:X:X:X:X:X:X:X:X:X:X:X:X:X:X:X:X:X:X",
":X:X:X:X:X:X. S k.k.k.S././._.x.o H =.m.V.D.V.D.D.D.D.D.D.D.D.D.D.H.(.H.].%.O =   :X:X:X:X:X:X:X:X:X:X:X:X:X:X:X:X:X:X:X:X:X:X:X:X:X:X:X:X:X:X:X:X:X:X:X:X:X:X:X",
":X:X:X:X:X:X  8 &.;.k.x.Z.Z.z.G   > X.:.l.m.=.m.V.V.l.m.D.D.D.D.m._ ^ %.%.# H H   :X:X:X:X:X:X:X:X:X:X:X:X:X:X:X:X:X:X:X:X:X:X:X:X:X:X:X:X:X:X:X:X:X:X:X:X:X:X:X",
":X:X:X:X:X:X:X. - 8 r r 9 < =   . . > ^ =.#.J H X.:.=.^ ^ :.V.>.8 o - = X 9 V.!   :X:X:X:X:X:X:X:X:X:X:X:X:X:X:X:X:X:X:X:X:X:X:X:X:X:X:X:X:X:X:X:X:X:X:X:X:X:X:X",
":X:X:X:X:X:X:X:X            :X:X:X. = = 0 , o = = t 9 . . o < - # X.:.k.z.Z./.#.  :X:X:X:X:X:X:X:X:X:X:X:X:X:X:X:X:X:X:X:X:X:X:X:X:X:X:X:X:X:X:X:X:X:X:X:X:X:X:X",
":X:X:X:X:X:X:X:X:X:X:X:X:X:X:X:X:Xo t - . . H ^ ,     :X:X:X    9 / / #.2.2.2.W . :X:X:X:X:X:X:X:X:X:X:X:X:X:X:X:X:X:X:X:X:X:X:X:X:X:X:X:X:X:X:X:X:X:X:X:X:X:X:X",
":X:X:X:X:X:X:X:X:X:X:X:X:X:X:X:X:X. X o X X o o o . . :X:X:X:X. . o o X o o o o . :X:X:X:X:X:X:X:X:X:X:X:X:X:X:X:X:X:X:X:X:X:X:X:X:X:X:X:X:X:X:X:X:X:X:X:X:X:X:X",
":X:X:X:X:X:X:X:X:X:X:X:X:X:X:X:X. o 6 x v v c g T T o :X:X:X:X. : e 6 g v g c [ ; . :X:X:X:X:X:X:X:X:X:X:X:X:X:X:X:X:X:X:X:X:X:X:X:X:X:X:X:X:X:X:X:X:X:X:X:X:X:X",
":X:X:X:X:X:X:X:X:X:X:X:X:X:X:X:X. o 5 b x x g = g R = X :X:X:X. : 6 5 g x : : R q . :X:X:X:X:X:X:X:X:X:X:X:X:X:X:X:X:X:X:X:X:X:X:X:X:X:X:X:X:X:X:X:X:X:X:X:X:X:X",
":X:X:X:X:X:X:X:X:X:X:X:X:X:X:X:X:X. . . . . . . o . . . :X:X:X. . . . . o . . . . . :X:X:X:X:X:X:X:X:X:X:X:X:X:X:X:X:X:X:X:X:X:X:X:X:X:X:X:X:X:X:X:X:X:X:X:X:X:X",
":X:X:X:X:X:X:X:X:X:X:X:X:X:X:X:X:X:X:X:X:X:X:X:X:X:X:X:X:X:X:X:X:X:X:X:X:X:X:X:X:X:X:X:X:X:X:X:X:X:X:X:X:X:X:X:X:X:X:X:X:X:X:X:X:X:X:X:X:X:X:X:X:X:X:X:X:X:X:X:X",
":X:X:X:X:X:X:X:X:X:X:X:X:X:X:X:X:X:X:X:X:X:X:X:X:X:X:X:X:X:X:X:X:X:X:X:X:X:X:X:X:X:X:X:X:X:X:X:X:X:X:X:X:X:X:X:X:X:X:X:X:X:X:X:X:X:X:X:X:X:X:X:X:X:X:X:X:X:X:X:X",
":X:X:X:X:X:X:X:X:X:X:X:X:X:X:X:X:X:X:X:X:X:X:X:X:X:X:X:X:X:X:X:X:X:X:X:X:X:X:X:X:X:X:X:X:X:X:X:X:X:X:X:X:X:X:X:X:X:X:X:X:X:X:X:X:X:X:X:X:X:X:X:X:X:X:X:X:X:X:X:X",
":X:X:X:X:X:X:X:X:X:X:X:X:X:X:X:X:X:X:X:X:X:X:X:X:X:X:X:X:X:X:X:X:X:X:X:X:X:X:X:X:X:X:X:X:X:X:X:X:X:X:X:X:X:X:X:X:X:X:X:X:X:X:X:X:X:X:X:X:X:X:X:X:X:X:X:X:X:X:X:X",
":X:X:X:X:X:X:X:X:X:X:X:X:X:X:X:X:X:X:X:X:X:X:X:X:X:X:X:X:X:X:X:X:X:X:X:X:X:X:X:X:X:X:X:X:X:X:X:X:X:X:X:X:X:X:X:X:X:X:X:X:X:X:X:X:X:X:X:X:X:X:X:X:X:X:X:X:X:X:X:X",
":X:X:X:X:X:X:X:X:X:X:X:X:X:X:X:X:X:X:X:X:X:X:X:X:X:X:X:X:X:X:X:X:X:X:X:X:X:X:X:X:X:X:X:X:X:X:X:X:X:X:X:X:X:X:X:X:X:X:X:X:X:X:X:X:X:X:X:X:X:X:X:X:X:X:X:X:X:X:X:X"
};
