/* XPM */
static char *result[] = {
/* columns rows colors chars-per-pixel */
"80 80 186 2 ",
"   c #926437",
".  c #936438",
"X  c #946538",
"o  c #956538",
"O  c #956539",
"+  c #956638",
"@  c #956639",
"#  c #966638",
"$  c #976638",
"%  c #966639",
"&  c #966739",
"*  c #976739",
"=  c #97673A",
"-  c #986739",
";  c #98673A",
":  c #986839",
">  c #996839",
",  c #98683A",
"<  c #99683A",
"1  c #99693A",
"2  c #99693B",
"3  c #9A693A",
"4  c #9B693A",
"5  c #9A693B",
"6  c #9A6A3B",
"7  c #9B6A3B",
"8  c #9C6A3B",
"9  c #9D6A3B",
"0  c #9C6B3B",
"q  c #9D6B3B",
"w  c #9F6C3B",
"e  c #9D6B3C",
"r  c #9E6B3C",
"t  c #9C6C3D",
"y  c #9D6C3D",
"u  c #9E6C3C",
"i  c #9F6C3C",
"p  c #9F6C3D",
"a  c #9E6D3D",
"s  c #9F6D3D",
"d  c #9E6D3E",
"f  c #9F6E3E",
"g  c #A06D3C",
"h  c #A06D3D",
"j  c #A16D3D",
"k  c #A06D3E",
"l  c #A06E3E",
"z  c #A16E3E",
"x  c #A06F3E",
"c  c #A16F3E",
"v  c #A06E3F",
"b  c #A16F3F",
"n  c #A26E3E",
"m  c #A26F3E",
"M  c #A36F3E",
"N  c #A36F3F",
"B  c #A3703F",
"V  c #A4703F",
"C  c #AD753F",
"Z  c #A27040",
"A  c #A37140",
"S  c #A47140",
"D  c #A57140",
"F  c #A57240",
"G  c #A47241",
"H  c #A57241",
"J  c #A57341",
"K  c #A67240",
"L  c #A67241",
"P  c #A67341",
"I  c #A77341",
"U  c #A67342",
"Y  c #A77342",
"T  c #A67441",
"R  c #A67442",
"E  c #A97441",
"W  c #AA7541",
"Q  c #A87442",
"!  c #A97442",
"~  c #A97542",
"^  c #A87543",
"/  c #A97643",
"(  c #AB7643",
")  c #AE7540",
"_  c #AF7540",
"`  c #AD7640",
"'  c #AE7640",
"]  c #AF7640",
"[  c #AF7740",
"{  c #AF7741",
"}  c #AE7742",
"|  c #AA7644",
" . c #AB7644",
".. c #AB7744",
"X. c #AD7744",
"o. c #AD7745",
"O. c #AF7841",
"+. c #AB7844",
"@. c #AD7844",
"#. c #AC7845",
"$. c #AD7845",
"%. c #AD7945",
"&. c #AE7845",
"*. c #AE7945",
"=. c #AD7946",
"-. c #AF7946",
";. c #AE7A46",
":. c #AF7A46",
">. c #AF7B46",
",. c #AE7A47",
"<. c #AF7A47",
"1. c #AF7B47",
"2. c #B07842",
"3. c #B07942",
"4. c #B17943",
"5. c #B17A44",
"6. c #B27A44",
"7. c #B27B44",
"8. c #B37B45",
"9. c #B07A47",
"0. c #B07B47",
"q. c #B17B47",
"w. c #B37C45",
"e. c #B17C47",
"r. c #B37C46",
"t. c #B27C47",
"y. c #B47C46",
"u. c #B47D46",
"i. c #B57D47",
"p. c #B57E47",
"a. c #B67E47",
"s. c #B17C48",
"d. c #B17D49",
"f. c #B27C48",
"g. c #B27D48",
"h. c #B37D48",
"j. c #B27D49",
"k. c #B37E48",
"l. c #B27E49",
"z. c #B37E49",
"x. c #B37E4A",
"c. c #B57E48",
"v. c #B47E49",
"b. c #B47F49",
"n. c #B57F49",
"m. c #B67E48",
"M. c #B67F48",
"N. c #B47F4A",
"B. c #B57F4A",
"V. c #B78049",
"C. c #B5804A",
"Z. c #B5804B",
"A. c #B6804A",
"S. c #B7804A",
"D. c #B6814A",
"F. c #B7814A",
"G. c #B6804B",
"H. c #B7804B",
"J. c #B7814B",
"K. c #B7824C",
"L. c #B8814A",
"P. c #B8814B",
"I. c #B9814B",
"U. c #B8824B",
"Y. c #B9824B",
"T. c #B9834B",
"R. c #BA824B",
"E. c #B8814C",
"W. c #B8824C",
"Q. c #B9824C",
"!. c #B9834C",
"~. c #BA824C",
"^. c #BA834C",
"/. c #BB834C",
"(. c #BA834D",
"). c #BB834D",
"_. c #BA844C",
"`. c #BB844C",
"'. c #BA844D",
"]. c #BB844D",
"[. c #BB854D",
"{. c #BB854E",
"}. c #BC844D",
"|. c #BC854D",
" X c #BC854E",
".X c None",
/* pixels */
".X.X.X.X.X.X.X].`.`._.].].].].].].].].].].].].].].].].].].].].].].].].].].].].].].].].].].].].].].].].].].].].].].].].].].].].].].].].].]._.`.`.]..X.X.X.X.X.X.X",
".X.X.X.X`.).].].].].].].].].].].].].].].].].].].].].].].].].].].].].].].].].].].].].].].].].].].].].].].].].].].].].].].].].].].].].].].].].].].].].).`..X.X.X.X",
".X.X.X].].^.V.M.u.y.y.8.6.6.6.6.6.6.6.6.6.6.6.6.6.6.6.6.6.6.6.6.6.6.6.6.6.6.6.6.6.6.6.6.6.6.6.6.6.6.6.6.6.6.6.6.6.6.6.6.6.6.6.6.6.6.6.6.8.y.y.u.m.V.~.].]..X.X.X",
".X.X|.Y.m.8.4.2.{ { { ' ' ' ' ' ' ' ' ' ' ' ' ' ' ' ' ' ' ' ' ' ' ' ' ' ' ' ' ' ' ' ' ' ' ' ' ' ' ' ' ' ' ' ' ' ' ' ' ' ' ' ' ' ' ' ' ' ' { { { 2.4.8.p.Y.{..X.X",
".X}.L.y.O.C ' ' ' ' ' ' ' ' ' ' ' ' ' ' ' ' ' ' ' ' ' ' ' ' ' ' ' ' ' ' ' ' ' ' ' ' ' ' ' ' ' ' ' ' ' ' ' ' ' ' ' ' ' ' ' ' ' ' ' ' ' ' ' ' ' ' ' ' C O.u.L.]..X",
".XY.8.' ' ' ' ' ' ' ' ' ' ' ' ' ' ' ' ' ' ' ' ' ' ' ' ' ' ' ' ' ' ' ' ' ' ' ' ' ' ' ' ' ' ' ' ' ' ' ' ' ' ' ' ' ' ' ' ' ' ' ' ' ' ' ' ' ' ' ' ' ' ' ' ' { w.L..X",
"!.7.{ ' ' ' ' ' ' ' ' ' ' ' ' ' ' ' ' ' ' ' ' ' ' ' ' ' ' ' ' ' ' ' ' ' ' ' ' ' ' ' ' ' ' ' ' ' ' ' ' ' ' ' ' ' ' ' ' ' ' ' ' ' ' ' ' ' ' ' ' ' ' ' ' ' ' { 7.R.",
"a.{ ' ' ' ' ' ' ' ' ' ' ' ' ' ' ' ' ' ' ' ' ' ' ' ' ' ' ' ' ' ' ' ' ' ' ' ' ' ' ' ' ' ' ' ' ' ' ' ' ' ' ' ' ' ' ' ' ' ' ' ' ' ' ' ' ' ' ' ' ' ' ' ' ' ' ' ' { a.",
"7.{ ' ' ' ' ' ' ' ' ' ' ' ' ' ' ' ' ' ' ' ' ' ' ' ' ' ' ' ' ' ' ' ' ' ' ' ' ' ' ' ' ' ' ' ' ' ' ' ' ' ' ' ' ' ' ' ' ' ' ' ' ' ' ' ' ' ' ' ' ' ' ' ' ' ' ' ' { 7.",
"5.{ ' ' ' ' ' ' ' ' ' ' ' ' ' ' ' ' ' ' ' ' ' ' ' ' ' ' ' ' ' ' ' ' ' ' ' ' ' ' ' ' ' ' ' ' ' ' ' ' ' ' ' ' ' ' ' ' ' ' ' ' ' ' ' ' ' ' ' ' ' ' ' ' ' ' ' ' ' { ",
"4.{ ' ' ' ' ' ' ' ' ' ' ' ' ' ' ' ' ' ' ] [ [ [ [ [ [ [ [ [ [ [ [ [ [ [ [ [ [ [ [ [ [ [ [ [ [ [ [ [ [ [ [ [ [ [ [ [ [ ] ' ' ' ' ' ' ' ' ' ' ' ' ' ' ' ' ' ' ' ' ",
"{ ' ' ' ' ' ' ' ' ' ' { 6.w.w.w.p.p.p.W g w w w w w w w w w w w w w w w w w w w w w w w w w w w w w w w w w w w w w w g W p.p.p.i.w.w.2.' ' ' ' ' ' ' ' ' ' ' ' ",
"' ' ' ' ' ' ' ' ' ' 4.p.L.Y.Y.Y.]. X].0.b &   . . . . . . . . . . . . . . . . . . . . . . . . . . . . . . . . . .   & x >.].[.].].Y.Y.M.7.2.' ' ' ' ' ' ' ' ' ' ",
"' ' ' ' ' ' ' ' ' { M.].].].].].].].]. Xn.H 5 - - ; ; ; ; ; ; ; ; ; ; ; ; ; ; ; ; ; ; ; ; ; ; ; ; ; ; ; ; ; ; - * 5 H z.].].].].].].].].T.r.` ' ' ' ' ' ' ' ' ' ",
"' ' ' ' ' ' ' ' ' 7.Y.].].].].].].].].].}.J. .m h h h h h h h h h h h h h h h h h h h h h h h h h h h h h h h h N  .J.}.].].].].].].].].].S.} ' ' ' ' ' ' ' ' ' ",
"' ' ' ' ' ' ' ' ' p.^.].].].].].].].].].].].P.( m h h h h h h h h h h h h h h h h h h h h h h h h h h h h h h N -.Q.].].].].].].].].].].].^.i.' ' ' ' ' ' ' ' ' ",
"' ' ' ' ' ' ' ' ' L.].].].].].].].].].].].].].Q.<.B h h h h h h h h h h h h h h h h h h h h h h h h h h h h B <.Q.].].].].].].].].].].].].].L.' ' ' ' ' ' ' ' ' ",
"' ' ' ' ' ' ' ' ' I.].].].].].].].].].].].].].].Q.:.B s h h h h h h h h h h h h h h h h h h h h h h h h h S :.Q.].].].].].].].].].].].].].].I.' ' ' ' ' ' ' ' ' ",
"' ' ' ' ' ' ' ' ' I.].].].].].].].].].].].].].].].Q.e.L h h h h h h h h h h h h h h h h h h h h h h h s L f.Q.].].].].].].].].].].].].].].].I.' ' ' ' ' ' ' ' ' ",
"' ' ' ' ' ' ' ' ' I.].].].].].].].].].].].].].].].].^.f.P s h h h h h h h h h h h h h h h h h h h h s P g.(.].].].].].].].].].].].].].].].].I.' ' ' ' ' ' ' ' ' ",
"' ' ' ' ' ' ' ' ' I.].].].].].].].].].].].].].].].].].(.f.I z h h h h h h h h h h h h h h h h h h z Y g.(.].].].].].].].].].].].].].].].].].I.' ' ' ' ' ' ' ' ' ",
"' ' ' ' ' ' ' ' ' I.].].].].].].].].].].].].].].].].].].(.v.~ z h h h h h h h h h h h h h h h h z ~ B.].].].].].].].].].].].].].].].].].].].I.' ' ' ' ' ' ' ' ' ",
"' ' ' ' ' ' ' ' ' I.].].].].].].].].].].].].].].].].].].].].S.Q z h h h h h h h h h h h h h h m ! S.].].].].].].].].].].].].].].].].].].].].I.' ' ' ' ' ' ' ' ' ",
"' ' ' ' ' ' ' ' ' L.].].].].].].].].].].].].].].].].].].].].].H.Q n h h h h h h h h h h h h m  .J.].].].].].].].].].].].].].].].].].].].].].L.' ' ' ' ' ' ' ' ' ",
"' ' ' ' ' ' ' ' ' t.W.].].].].].].].].].].].].].].].].].].].].].Q.X.N h h h h h h h h h h N o.Q.].].].].].].].].].].].].].].].].].].].].].W.t.' ' ' ' ' ' ' ' ' ",
"' ' ' ' ' ' ' ' ` p | J.].].].].].].].].].].].].].].].].].].].].].Q.$.N h h h h h h h h N $.Q.].].].].].].].].].].].].].].].].].].].].].J.| p ` ' ' ' ' ' ' ' ' ",
"' ' ' ' ' ' ' ' ` > , ^ H.|.].].].].].].].].].].].].].].].].].].].].P.:.D p h h h h p K 0.P.].].].].].].].].].].].].].].].].].].].].|.H.^ , > ` ' ' ' ' ' ' ' ' ",
"' ' ' ' ' ' ' ' ` 8 X , U b.|.].].].].].].].].].].].].].].].].].].].}.Q.0.F p h h p F q.!.}.].].].].].].].].].].].].].].].].].].].|.b.U , X 8 ` ' ' ' ' ' ' ' ' ",
"' ' ' ' ' ' ' ' ' j 1 X = S k.].].].].].].].].].].].].].].].].].].].].].!.e.L h h L e.!.].].].].].].].].].].].].].].].].].].].].].k.S = X 1 j ' ' ' ' ' ' ' ' ' ",
"' ' ' ' ' ' ' ' ' M p 5 o % b v.^.].].].].].].].].].].].].].].].].].].].].^.h.Y Y h.^.].].].].].].].].].].].].].].].].].].].].^.v.b % o 5 p M ' ' ' ' ' ' ' ' ' ",
"' ' ' ' ' ' ' ' ' M h p 5 + % c e.!.].].].].].].].].].].].].].].].].].].].].(.G.G.(.].].].].].].].].].].].].].].].].].].].].!.e.c % + 5 p h M ' ' ' ' ' ' ' ' ' ",
"' ' ' ' ' ' ' ' ' M h h s 8 # + 7 e.^.].].].].].].].].].].].].].].].].].].].].].].].].].].].].].].].].].].].].].].].].].].^.e.7 + # 8 s h h M ' ' ' ' ' ' ' ' ' ",
"' ' ' ' ' ' ' ' ' M h h h h 9 # + 0 ;.!.].].].].].].].].].].].].].].].].].].].].].].].].].].].].].].].].].].].].].].].].!.;.0 + # 9 h h h h M ' ' ' ' ' ' ' ' ' ",
"' ' ' ' ' ' ' ' ' M h h h h s q * + 2 | W.].].].].].].].].].].].].].].].].].].].].].].].].].].].].].].].].].].].].].].W.| 2 + * q s h h h h M ' ' ' ' ' ' ' ' ' ",
"' ' ' ' ' ' ' ' ' M h h h h h h e : X 2 ^ P.].].].].].].].].].].].].].].].].].].].].].].].].].].].].].].].].].].].].P.^ 2 X : e h h h h h h M ' ' ' ' ' ' ' ' ' ",
"' ' ' ' ' ' ' ' ' M h h h h h h h e , X , U B.].].].].].].].].].].].].].].].].].].].].].].].].].].].].].].].].].].B.U , X , e h h h h h h h M ' ' ' ' ' ' ' ' ' ",
"' ' ' ' ' ' ' ' ' M h h h h h h h h r < X * H B.].].].].].].].].].].].].].].].].].].].].].].].].].].].].].].].].B.H * X < r h h h h h h h h M ' ' ' ' ' ' ' ' ' ",
"' ' ' ' ' ' ' ' ' M h h h h h h h h h u 3 o & J h.(.].].].].].].].].].].].].].].].].].].].].].].].].].].].].(.h.J & o 3 u h h h h h h h h h M ' ' ' ' ' ' ' ' ' ",
"' ' ' ' ' ' ' ' ' M h h h h h h h h h h i 5 + + s g.(.].].].].].].].].].].].].].].].].].].].].].].].].].].(.g.s + + 5 i h h h h h h h h h h M ' ' ' ' ' ' ' ' ' ",
"' ' ' ' ' ' ' ' ' M h h h h h h h h h h h p 7 + + s s.(.].].].].].].].].].].].].].].].].].].].].].].].].(.s.s + + 7 p h h h h h h h h h h h M ' ' ' ' ' ' ' ' ' ",
"' ' ' ' ' ' ' ' ' M h h h h h h h h h h h h p 8 + + 6 %._.].].].].].].].].].].].].].].].].].].].].].]._.%.6 + + 8 p h h h h h h h h h h h h M ' ' ' ' ' ' ' ' ' ",
"' ' ' ' ' ' ' ' ' M h h h h h h h h h h h h h s 0 $ % ^ U.].].].].].].].].].].].].].].].].].].].].].].B.G & $ 0 s h h h h h h h h h h h h h M ' ' ' ' ' ' ' ' ' ",
"' ' ' ' ' ' ' ' ' M h h h h h h h h h h h h h h s i / b.(.].].].].].].].].].].].].].].].].].].].].(.G.j.=.P i s h h h h h h h h h h h h h h M ' ' ' ' ' ' ' ' ' ",
"' ' ' ' ' ' ' ' ' M h h h h h h h h h h h h h h N &.P.].].].].].].].].].].].].].].].].].].].].].(.Z.j.j.B.B.&.N h h h h h h h h h h h h h h M ' ' ' ' ' ' ' ' ' ",
"' ' ' ' ' ' ' ' ' M h h h h h h h h h h h h h D -.Q.].].].].].].].].].].].].].].].].].].].].].^.G.d.d.C.Q.].Q.-.D h h h h h h h h h h h h h M ' ' ' ' ' ' ' ' ' ",
"' ' ' ' ' ' ' ' ' M h h h h h h h h h h h h D 9.].].].].].].].].].].].].].].].].].].].].].].!.Z.d.d.C.!.].].].].9.D h h h h h h h h h h h h M ' ' ' ' ' ' ' ' ' ",
"' ' ' ' ' ' ' ' ' M h h h h h h h h h h j D 9.].].].].].].].].].].].].].].].].].].].].].].!.C.d.l.B.!.].].].].].].9.D j h h h h h h h h h h M ' ' ' ' ' ' ' ' ' ",
"' ' ' ' ' ' ' ' ' M h h h h h h h h h h P f.].].].].].].].].].].].].].].].].].].].].].].Q.C.d.l.J.(.].].].].].].].].f.P h h h h h h h h h h M ' ' ' ' ' ' ' ' ' ",
"' ' ' ' ' ' ' ' ' M h h h h h h h h h Q v.'.].].].].].].].].].].].].].].].].].].].].].J.x.d.l.J.(.].].].].].].].].].'.v.Q h h h h h h h h h M ' ' ' ' ' ' ' ' ' ",
"' ' ' ' ' ' ' ' ' M h h h h h h h h ~ v.'.].].].].].].].].].].].].].].].].].].].].].J.x.d.x.K.(.].].].].].].].].].].].'.v.~ h h h h h h h h M ' ' ' ' ' ' ' ' ' ",
"' ' ' ' ' ' ' ' ' M h h h h h h k  .B.(.].].].].].].].].].].].].].].].].].].].]./.J.x.d.x.E.'.].].].].].].].].].].].].].(.B. .k h h h h h h M ' ' ' ' ' ' ' ' ' ",
"' ' ' ' ' ' ' ' ' M h h h h h z ..A.].].].].].].].].].].].].].].].].].].].].].^.A.x.d.x.E.].].].].].].].].].].].].].].].].].A...z h h h h h M ' ' ' ' ' ' ' ' ' ",
"' ' ' ' ' ' ' ' ' M h h h h z  .J.].].].].].].].].].].].].].].].].].].].].].J.+.R ,.N.W.].].].].].].].].].].].].].].].].].].].J. .z h h h h M ' ' ' ' ' ' ' ' ' ",
"' ' ' ' ' ' ' ' ' M h h h N  .J.].].].].].].].].].].].].].].].].].].].].].A.^ , & A z.].].].].].].].].].].].].].].].].].].].].].J. .N h h h M ' ' ' ' ' ' ' ' ' ",
"' ' ' ' ' ' ' ' ' M h h V *.(.].].].].].].].].].].].].].].].].].].].].].C.U o o o o U N.^.].].].].].].].].].].].].].].].].].].].].(.*.V h h M ' ' ' ' ' ' ' ' ' ",
"' ' ' ' ' ' ' ' ' M h B -.^.].].].].].].].].].].].].].].].].].].].].(.C.J O + > > + @ b f.].].].].].].].].].].].].].].].].].].].].].^.-.B h M ' ' ' ' ' ' ' ' ' ",
"' ' ' ' ' ' ' ' ' M B 9.Q.].].].].].].].].].].].].].].].].].].].].].f.b % % 4 p p 4 % X l f.].].].].].].].].].].].].].].].].].].].].].Q.9.B M ' ' ' ' ' ' ' ' ' ",
"' ' ' ' ' ' ' ' ' E g.^.].].].].].].].].].].].].].].].].].].].].].f.f @ % 7 p h h p 7 % + a 0.].].].].].].].].].].].].].].].].].].].].].^.g.E ' ' ' ' ' ' ' ' ' ",
"' ' ' ' ' ' ' ' ' c.(.].].].].].].].].].].].].].].].].].].].].'.;.d @ % 7 s h h h h s 7 % + y ..(.].].].].].].].].].].].].].].].].].].].].(.c.' ' ' ' ' ' ' ' ' ",
"' ' ' ' ' ' ' ' ' Y.].].].].].].].].].].].].].].].].].].].}.!.#.y X * 8 s h h h h h h s 8 * X 7 #.^.|.].].].].].].].].].].].].].].].].].].].Y.' ' ' ' ' ' ' ' ' ",
"' ' ' ' ' ' ' ' ' I.].].].].].].].].].].].].].].].].].].|.Q.$.7 X * e h h h h h h h h h h e * X 7 ..J.].].].].].].].].].].].].].].].].].].].I.' ' ' ' ' ' ' ' ' ",
"' ' ' ' ' ' ' ' ' I.].].].].].].].].].].].].].].].].].].J...7 o * e h h h h h h h h h h h h e * X , ^ D.].].].].].].].].].].].].].].].].].].I.' ' ' ' ' ' ' ' ' ",
"' ' ' ' ' ' ' ' ' I.].].].].].].].].].].].].].].].].].J.Q * o : i h h h h h h h h h h h h h h i : o * Q F.].].].].].].].].].].].].].].].].].I.' ' ' ' ' ' ' ' ' ",
"' ' ' ' ' ' ' ' ' I.].].].].].].].].].].].].].].].'.P.T * o : i h h h h h h h h h h h h h h h h i : o * P A.].].].].].].].].].].].].].].].].I.' ' ' ' ' ' ' ' ' ",
"' ' ' ' ' ' ' ' ' I.].].].].].].].].].].].].].].].B.Z & # 3 i h h h h h h h h h h h h h h h h h h i 3 # % b B.].].].].].].].].].].].].].].].I.' ' ' ' ' ' ' ' ' ",
"' ' ' ' ' ' ' ' ' I.].].].].].].].].].].].].].].B.v % + 3 p h h h h h h h h h h h h h h h h h h h h p 3 + % v B.].].].].].].].].].].].].].].I.' ' ' ' ' ' ' ' ' ",
"' ' ' ' ' ' ' ' ' V.].].].].].].].].].].].].^.s.v % % 7 i h h h h h h h h h h h h h h h h h h h h h h i 7 % % v 0.^.].].].].].].].].].].].].V.' ' ' ' ' ' ' ' ' ",
"' ' ' ' ' ' ' ' ' u.T.].].].].].].].].].].^.0.d o * 7 p h h h h h h h h h h h h h h h h h h h h h h h h p 7 * o a 1.^.}.].].].].].].].].].T.u.' ' ' ' ' ' ' ' ' ",
"' ' ' ' ' ' ' ' ' 3.V.].].].].].].].].|.^.1.d X * 0 h h h h h h h h h h h h h h h h h h h h h h h h h h h h 0 * X d ;.Q.|.].].].].].].].].V.3.' ' ' ' ' ' ' ' ' ",
"' ' ' ' ' ' ' ' ' ' 8.V.^.^.].].].].}.J.%.d . * 0 s h h h h h h h h h h h h h h h h h h h h h h h h h h h h s 0 * . t #.J.}.].].].].].^.V.8.' ' ' ' ' ' ' ' ' ' ",
"' ' ' ' ' ' ' ' ' ' ' 4.u.M.L.I.I.I.Y.@.u : 3 h m M M M M M M M M M M M M M M M M M M M M M M M M M M M M M M m h 3 : u @.Y.I.I.I.I.L.p.3.' ' ' ' ' ' ' ' ' ' ' ",
") ' ' ' ' ' ' ' ' ' ' ' ' ' ' ' ' ' ' ' ` ` ` ' ' ' ' ' ' ' ' ' ' ' ' ' ' ' ' ' ' ' ' ' ' ' ' ' ' ' ' ' ' ' ' ' ' ` ` ` ' ' ' ' ' ' ' ' ' ' ' ' ' ' ' ' ' ' ' ' ",
") ' ' ' ' ' ' ' ' ' ' ' ' ' ' ' ' ' ' ' ' ' ' ' ' ' ' ' ' ' ' ' ' ' ' ' ' ' ' ' ' ' ' ' ' ' ' ' ' ' ' ' ' ' ' ' ' ' ' ' ' ' ' ' ' ' ' ' ' ' ' ' ' ' ' ' ' ' ' ) ",
"] ' ' ' ' ' ' ' ' ' ' ' ' ' ' ' ' ' ' ' ' ' ' ' ' ' ' ' ' ' ' ' ' ' ' ' ' ' ' ' ' ' ' ' ' ' ' ' ' ' ' ' ' ' ' ' ' ' ' ' ' ' ' ' ' ' ' ' ' ' ' ' ' ' ' ' ' ' ' _ ",
".X' ' ' ' ' ' ' ' ' ' ' ' ' ' ' ' ' ' ' ' ' ' ' ' ' ' ' ' ' ' ' ' ' ' ' ' ' ' ' ' ' ' ' ' ' ' ' ' ' ' ' ' ' ' ' ' ' ' ' ' ' ' ' ' ' ' ' ' ' ' ' ' ' ' ' ' ' ' .X",
".X' ' ' ' ' ' ' ' ' ' ' ' ' ' ' ' ' ' ' ' ' ' ' ' ' ' ' ' ' ' ' ' ' ' ' ' ' ' ' ' ' ' ' ' ' ' ' ' ' ' ' ' ' ' ' ' ' ' ' ' ' ' ' ' ' ' ' ' ' ' ' ' ' ' ' ' ' ' .X",
".X.X' ' ' ' ' ' ' ' ' ' ' ' ' ' ' ' ' ' ' ' ' ' ' ' ' ' ' ' ' ' ' ' ' ' ' ' ' ' ' ' ' ' ' ' ' ' ' ' ' ' ' ' ' ' ' ' ' ' ' ' ' ' ' ' ' ' ' ' ' ' ' ' ' ' ' ' .X.X",
".X.X.X' ' ' ' ' ' ' ' ' ' ' ' ' ' ' ' ' ' ' ' ' ' ' ' ' ' ' ' ' ' ' ' ' ' ' ' ' ' ' ' ' ' ' ' ' ' ' ' ' ' ' ' ' ' ' ' ' ' ' ' ' ' ' ' ' ' ' ' ' ' ' ' ' ' .X.X.X",
".X.X.X.X) ) ' ' ' ' ' ' ' ' ' ' ' ' ' ' ' ' ' ' ' ' ' ' ' ' ' ' ' ' ' ' ' ' ' ' ' ' ' ' ' ' ' ' ' ' ' ' ' ' ' ' ' ' ' ' ' ' ' ' ' ' ' ' ' ' ' ' ' ' ) ) .X.X.X.X",
".X.X.X.X.X.X` ' ' ' ' ' ' ' ' ' ' ' ' ' ' ' ' ' ' ' ' ' ' ' ' ' ' ' ' ' ' ' ' ' ' ' ' ' ' ' ' ' ' ' ' ' ' ' ' ' ' ' ' ' ' ' ' ' ' ' ' ' ' ' ' ' ' ] .X.X.X.X.X.X"
};
